<?xml version="1.0" encoding="utf-8"?>
<!-- Generator: Adobe Illustrator 24.0.1, SVG Export Plug-In . SVG Version: 6.00 Build 0)  -->
<svg version="1.1" id="Capa_1" xmlns="http://www.w3.org/2000/svg" xmlns:xlink="http://www.w3.org/1999/xlink" x="0px" y="0px"
	 viewBox="0 0 407.7 162.8" style="enable-background:new 0 0 407.7 162.8;" xml:space="preserve">
<style type="text/css">
	.st0{fill:#FFFFFF;}
	.st1{fill:#1583C6;}
	.st2{fill:#154894;}
</style>
<path class="st0" d="M29.3,145.1c-2.8,0-4.8-0.3-6.9-0.7v-9.7c2.1,0.3,3.8,0.7,5.5,0.7c2.4,0,4.5-0.7,5.5-2.4c1-1.7,1.7-4.1,1.7-7.6
	V73.8h11.4v51.5c0,6.6-1.4,11.4-4.5,14.5C39.3,143.4,35.2,145.1,29.3,145.1z"/>
<path class="st0" d="M97.5,107.7c0,6.9-1.7,12.1-5.5,15.9c-3.4,3.8-8.6,5.9-15.2,5.9c-4.1,0-7.6-1-10.7-2.8
	c-3.1-1.7-5.5-4.1-7.2-7.6c-1.7-3.5-2.4-7.3-2.4-11.8c0-6.9,1.7-12.1,5.5-15.9c3.4-3.8,8.6-5.5,15.2-5.5c4.1,0,7.6,0.7,10.7,2.8
	c3.1,2.1,5.5,4.1,6.9,7.6C96.2,99.8,97.5,103.2,97.5,107.7z M68.6,107.7c0,4.1,0.7,7.3,2.1,9.3c1.4,2.1,3.4,3.1,6.5,3.1
	c3.1,0,5.2-1,6.5-3.1c1.4-2.1,2.1-5.2,2.1-9.3s-0.7-7.3-2.1-9.3c-1.4-2.1-3.4-3.1-6.5-3.1c-3.1,0-5.2,1-6.5,3.1
	C69.3,100.5,68.6,103.6,68.6,107.7z"/>
<path class="st0" d="M130.3,85.9c4.8,0,9,2.1,11.7,5.9c2.8,3.8,4.1,9,4.1,15.9c0,6.9-1.4,12.4-4.1,16.3s-6.9,5.5-11.7,5.5
	c-4.8,0-8.6-1.7-11.7-5.2h-0.7l-1.7,4.5h-8.6V70.4h11.4v13.5c0,1.7,0,4.5-0.3,8.3h0.3C121,88,125.1,85.9,130.3,85.9z M126.5,95.3
	c-2.8,0-4.8,0.7-6.2,2.8c-1.4,2.1-2.1,4.5-2.1,8.6v1c0,4.5,0.7,7.6,2.1,9.7c1.4,2.1,3.4,3.1,6.2,3.1c2.4,0,4.1-1,5.5-3.1
	c1.4-2.1,2.1-5.2,2.1-9.3c0-4.1-0.7-7.3-2.1-9.3C130.6,96.7,128.9,95.3,126.5,95.3z"/>
<path class="st0" d="M193,128.8h-11.4v-24.6c0-3.1-0.7-5.2-1.4-6.9c-1-1.4-2.8-2.4-4.8-2.4c-2.8,0-5.2,1-6.2,3.1
	c-1,2.1-2.1,5.5-2.1,10.7v19.7h-11.4V87h8.6l1.7,5.2h0.7c1-2.1,2.8-3.5,4.8-4.5c2.1-1,4.5-1.7,7.2-1.7c6.2,0,10.3,2.1,12.8,6.2h1
	c1-2.1,2.8-3.5,4.8-4.5c2.1-1,4.5-1.7,7.6-1.7c4.8,0,8.3,1.4,10.7,3.8c2.4,2.4,3.8,6.2,3.8,11.8v27.3h-11.4v-24.6
	c0-3.1-0.7-5.2-1.4-6.9c-1-1.7-2.8-2.4-4.8-2.4c-2.8,0-4.8,1-6.2,3.1c-1.4,2.1-2.1,5.2-2.1,9.7C193,107.7,193,128.8,193,128.8z"/>
<path class="st0" d="M257.5,128.8l-2.1-5.5H255c-2.1,2.4-3.8,4.1-5.9,5.2c-2.1,1-4.8,1.4-7.9,1.4c-4.1,0-7.2-1-9.7-3.5
	c-2.4-2.4-3.4-5.5-3.4-10c0-4.5,1.7-7.6,4.5-10c3.1-2.1,7.9-3.5,14.1-3.5l7.2-0.3v-1.7c0-4.1-2.1-6.6-6.5-6.6c-3.4,0-7.2,1-11.7,3.1
	l-3.8-7.6c4.8-2.4,10.3-3.8,16.2-3.8c5.5,0,10,1.4,13.1,3.8c3.1,2.4,4.5,6.2,4.5,11.1v28H257.5z M254,109.5h-4.5
	c-3.4,0-5.9,0.7-7.6,1.7c-1.7,1-2.4,2.8-2.4,5.2c0,3.1,1.7,4.8,5.5,4.8c2.8,0,4.8-0.7,6.2-2.4c1.4-1.7,2.4-3.5,2.4-6.2v-3.1H254z"/>
<path class="st0" d="M294.7,120.5c2.1,0,4.5-0.3,7.2-1.4v8.6c-2.8,1.4-6.2,1.7-10.3,1.7c-4.5,0-7.9-1-10-3.5
	c-2.1-2.4-3.1-5.9-3.1-10.4V95.3H273v-4.8l6.2-3.8l3.4-9h7.2V87h11.7v8.6h-11.7V116c0,1.7,0.3,2.8,1.4,3.5
	C291.9,120.2,293.3,120.5,294.7,120.5z"/>
<path class="st0" d="M327.4,129.5c-13.1,0-19.6-7.3-19.6-21.4c0-7.3,1.7-12.4,5.2-16.3c3.4-3.8,8.6-5.5,15.2-5.5
	c4.8,0,9.3,1,13.1,2.8l-3.4,9c-1.7-0.7-3.4-1.4-5.2-1.7c-1.4-0.3-3.1-0.7-4.5-0.7c-5.9,0-9,4.1-9,12.8c0,8.3,3.1,12.4,9,12.4
	c2.1,0,4.1-0.3,6.2-1c1.7-0.7,3.8-1.4,5.5-2.8v9.7c-1.7,1-3.8,2.1-5.5,2.4C332.6,129.5,330.2,129.5,327.4,129.5z"/>
<path class="st0" d="M388.4,128.8H377v-24.6c0-6.2-2.4-9-6.9-9c-3.1,0-5.5,1-6.9,3.5c-1.4,2.4-2.1,5.5-2.1,10.7v19.7h-11.4V70.4
	h11.4v11.8c0,1,0,3.1-0.3,6.6l-0.3,3.5h0.7c2.4-4.1,6.5-6.2,12.1-6.2c4.8,0,8.6,1.4,11,3.8c2.4,2.4,3.8,6.6,3.8,11.4L388.4,128.8z"
	/>
<path class="st1" d="M162.7,75.6l41-30.4l40.7,30.4l-25.2-4.8L203.7,59l-15.9,11.8L162.7,75.6z"/>
<path class="st2" d="M162.7,54.1l41-30.4l40.7,30.4l-25.2-4.8l-15.5-11.8l-15.9,11.8L162.7,54.1z"/>
</svg>
