<svg id="Layer_1" data-name="Layer 1" xmlns="http://www.w3.org/2000/svg" viewBox="0 0 161.56 92.63"><defs><style>.cls-1{fill:#7a9497;}.cls-2{fill:#c0cccb;}.cls-3{fill:#fff;}.cls-4{fill:#be343a;}.cls-5{fill:#34485e;}</style></defs><title>Artboard 1</title><path class="cls-1" d="M66.71,48.6s2.44-1.42,2.24-7.32S62,31.11,62.85,21.35,74.13,6.71,81.75,7.63s11,2.23,14.54,9.66a17.56,17.56,0,0,0,1,3.76c.6,1.22.1,1.83-.2,3.15s-.21,2.54,1.72,4.47,3,3.25,1,4l-2,.7A3.59,3.59,0,0,0,98,35.28c.71.41.91.71.09,1.22,0,.81,1,1.43.11,2.34a5.72,5.72,0,0,0-.72,4.07c.1,1.53-1.73,1.93-5.59,2s-4-.1-5,2a31.23,31.23,0,0,0-1.72,5.39S74.24,55.62,66.71,48.6Z"/><path class="cls-1" d="M80.6,55.62a27.81,27.81,0,1,1,27.81-27.81A27.84,27.84,0,0,1,80.6,55.62Zm0-52.78a25,25,0,1,0,25,25A25,25,0,0,0,80.6,2.84Z"/><ellipse class="cls-2" cx="77.31" cy="21.72" rx="8.7" ry="8.69"/><path class="cls-3" d="M87.17,22.87l1.18-1.06-1.18-1.06.94-1.29-1.38-.79.65-1.45-1.51-.49.34-1.55L84.62,15V13.45l-1.57.17-.33-1.55-1.51.5-.64-1.46-1.37.8-.93-1.29L77.1,11.68l-1.18-1.07L75,11.91l-1.37-.8L73,12.56l-1.5-.5-.32,1.55-1.58-.17V15L68,15.19l.34,1.55-1.51.49.65,1.45-1.38.79L67,20.75l-1.18,1.06L67,22.87l-.93,1.28,1.38.79-.65,1.44,1.51.49L68,28.42l1.58.16v1.58L71.15,30l.32,1.56,1.5-.49.64,1.45,1.37-.8L75.92,33l1.18-1.06L78.27,33l.93-1.29,1.37.8.64-1.45,1.51.49L83.05,30l1.57.17V28.59l1.58-.16-.34-1.55,1.51-.49-.65-1.44,1.38-.79ZM77.23,30.3a8.54,8.54,0,1,1,8.54-8.54A8.54,8.54,0,0,1,77.23,30.3Z"/><path class="cls-3" d="M77.13,28.94a7.17,7.17,0,1,1,7.17-7.17A7.17,7.17,0,0,1,77.13,28.94Zm0-13.4a6.23,6.23,0,1,0,6.24,6.23A6.24,6.24,0,0,0,77.13,15.54Z"/><path class="cls-4" d="M80.48,19.52l.56-.71-.56-.71.31-.85-.74-.5,0-.9-.87-.25L79,14.74l-.91,0L77.56,14l-.85.31-.7-.56-.71.56L74.46,14l-.5.74-.9,0-.24.87-.87.25,0,.9-.75.5.31.85-.55.71.55.71-.31.84.75.5,0,.9.87.25.24.87.9,0,.5.75.85-.31.71.56.7-.56.85.31.49-.75.91,0,.25-.87.87-.25,0-.9.74-.5ZM76,21.2a2.41,2.41,0,1,1,2.4-2.41A2.41,2.41,0,0,1,76,21.2Z"/><path class="cls-4" d="M83.9,21.36v-.45l-.39-.23-.23-.39h-.45l-.39-.22-.39.22h-.46l-.23.39-.39.23v.45l-.22.4.22.39v.45l.39.23.23.4H82l.39.22.39-.22h.45l.23-.4.39-.23v-.45l.22-.39Zm-1.5,1.21a.82.82,0,1,1,.81-.81A.81.81,0,0,1,82.41,22.57Z"/><path class="cls-4" d="M82.55,25.49,82.2,25l0-.56-.5-.26-.21-.53-.56,0-.41-.4-.53.2-.53-.2-.41.4-.56,0-.21.53-.5.26,0,.56-.36.45.25.5-.14.55.44.36.08.56.55.15.3.47.56-.09.48.3.47-.3.56.09.31-.47.54-.15.1-.56.44-.36L82.3,26Zm-2.49,1.58a1.28,1.28,0,1,1,1.28-1.28A1.29,1.29,0,0,1,80.07,27.07Z"/><path class="cls-5" d="M4.5,65.27H6.33L10.65,77.2H8.88L7.64,73.63H3L1.66,77.2H0Zm2.68,7L5.34,67,3.43,72.31Z"/><path class="cls-5" d="M12.74,65.27h2.31l3.43,10.09,3.41-10.09h2.3V77.2H22.65v-7c0-.24,0-.65,0-1.21s0-1.17,0-1.82L19.27,77.2h-1.6L14.23,67.14v.36c0,.3,0,.75,0,1.35s0,1,0,1.31v7H12.74Z"/><path class="cls-5" d="M27.46,65.27h8.28v1.46H29.08v3.63h5.86v1.43H29.08V77.2H27.46Z"/><path class="cls-5" d="M44.56,69.1A2.91,2.91,0,0,1,44.31,68a2.51,2.51,0,0,1,.78-1.91,2.84,2.84,0,0,1,2.08-.76,2.61,2.61,0,0,1,1.93.7,2.33,2.33,0,0,1,.7,1.69,3,3,0,0,1-.72,2,7.24,7.24,0,0,1-1.4,1.16l2.17,2.6c.14-.43.23-.76.3-1s.11-.51.16-.89H51.7a8.94,8.94,0,0,1-.54,2.2c-.28.7-.42,1-.42.85l2.12,2.58H51l-1.11-1.37a5.41,5.41,0,0,1-1.22,1.05,4.13,4.13,0,0,1-2.22.59,3.31,3.31,0,0,1-2.7-1,3.42,3.42,0,0,1-.84-2.25,3.24,3.24,0,0,1,.82-2.27,9.06,9.06,0,0,1,1.87-1.38A6.14,6.14,0,0,1,44.56,69.1Zm3.51,6.68a3.3,3.3,0,0,0,1-.92l-2.69-3.29a8,8,0,0,0-1.49,1.17,2.15,2.15,0,0,0-.53,1.48,1.73,1.73,0,0,0,.69,1.47,2.5,2.5,0,0,0,1.48.5A2.75,2.75,0,0,0,48.08,75.78ZM48,69a1.84,1.84,0,0,0,.48-1.23,1.3,1.3,0,0,0-.35-.9,1.2,1.2,0,0,0-.93-.38,1.32,1.32,0,0,0-1.25.6,1.39,1.39,0,0,0-.18.68,1.85,1.85,0,0,0,.28.95,8.64,8.64,0,0,0,.91,1.18A5.88,5.88,0,0,0,48,69Z"/><path class="cls-5" d="M63.06,65.27h1.82L69.22,77.2H67.45L66.2,73.63H61.52l-1.3,3.58H58.56Zm2.68,7L63.9,67,62,72.31Z"/><path class="cls-5" d="M72.4,73.35A3.38,3.38,0,0,0,72.86,75a3,3,0,0,0,2.73,1.18,4.56,4.56,0,0,0,1.6-.26,1.83,1.83,0,0,0,1.39-1.81A1.57,1.57,0,0,0,78,72.74a5.72,5.72,0,0,0-1.87-.7l-1.57-.37a7.29,7.29,0,0,1-2.18-.78,2.53,2.53,0,0,1-1.1-2.24A3.5,3.5,0,0,1,72.36,66a4.26,4.26,0,0,1,3.07-1,5.23,5.23,0,0,1,3.1.9,3.29,3.29,0,0,1,1.28,2.89H78.29a3.13,3.13,0,0,0-.49-1.47,2.87,2.87,0,0,0-2.41-.93,2.72,2.72,0,0,0-2,.6,1.93,1.93,0,0,0-.6,1.4,1.35,1.35,0,0,0,.7,1.29,9.61,9.61,0,0,0,2.11.66l1.62.37a4.82,4.82,0,0,1,1.81.76,2.84,2.84,0,0,1,1.11,2.42,3.06,3.06,0,0,1-1.41,2.84,6.2,6.2,0,0,1-3.27.85,4.79,4.79,0,0,1-3.4-1.14,3.85,3.85,0,0,1-1.2-3.06Z"/><path class="cls-5" d="M92.94,67A6.6,6.6,0,0,1,94.13,71a7,7,0,0,1-1.36,4.44,5.36,5.36,0,0,1-4.54,2.08,5.42,5.42,0,0,1-4.33-1.82,6.88,6.88,0,0,1-1.4-4.44,7,7,0,0,1,1.21-4.14,5.19,5.19,0,0,1,4.56-2.21A5.47,5.47,0,0,1,92.94,67Zm-1.43,7.6a6.54,6.54,0,0,0,1-3.52,5,5,0,0,0-1.1-3.39,3.76,3.76,0,0,0-3-1.28,3.91,3.91,0,0,0-3,1.27,5.35,5.35,0,0,0-1.17,3.75,5.51,5.51,0,0,0,1,3.35,3.76,3.76,0,0,0,3.25,1.36A3.36,3.36,0,0,0,91.51,74.58Z"/><path class="cls-5" d="M105.16,66.13a4.22,4.22,0,0,1,1.37,2.71H105a3,3,0,0,0-3.25-2.49,3.5,3.5,0,0,0-2.8,1.24,5.7,5.7,0,0,0-1.07,3.8,5.62,5.62,0,0,0,1,3.41,3.34,3.34,0,0,0,2.86,1.3,3,3,0,0,0,2.68-1.38,5.23,5.23,0,0,0,.73-1.89h1.57A5.36,5.36,0,0,1,105.26,76a4.87,4.87,0,0,1-3.79,1.53A5,5,0,0,1,98,76.26c-1.24-1.11-1.85-2.83-1.85-5.15a6.64,6.64,0,0,1,1.39-4.33,5,5,0,0,1,4.11-1.84A4.83,4.83,0,0,1,105.16,66.13Z"/><path class="cls-5" d="M109.77,65.27h1.63V77.2h-1.63Z"/><path class="cls-5" d="M118.17,65.27H120l4.33,11.94h-1.77l-1.25-3.58h-4.69l-1.3,3.58h-1.66Zm2.68,7L119,67l-1.91,5.27Z"/><path class="cls-5" d="M126.53,65.27h4.77A4.51,4.51,0,0,1,135.07,67a6.53,6.53,0,0,1,1.19,4,8.08,8.08,0,0,1-.71,3.44,4.34,4.34,0,0,1-4.26,2.71h-4.76ZM131,75.82a4.26,4.26,0,0,0,1.32-.17,3,3,0,0,0,1.51-1.22,5,5,0,0,0,.66-1.86,6.64,6.64,0,0,0,.12-1.25,5.92,5.92,0,0,0-.86-3.45A3.16,3.16,0,0,0,131,66.65h-2.8v9.17Z"/><path class="cls-5" d="M149,67A6.62,6.62,0,0,1,150.16,71a7.06,7.06,0,0,1-1.36,4.44,5.36,5.36,0,0,1-4.54,2.08,5.42,5.42,0,0,1-4.34-1.82,6.85,6.85,0,0,1-1.41-4.44,7.1,7.1,0,0,1,1.2-4.14,5.22,5.22,0,0,1,4.57-2.21A5.47,5.47,0,0,1,149,67Zm-1.43,7.6a6.51,6.51,0,0,0,1-3.52,5,5,0,0,0-1.11-3.39,3.74,3.74,0,0,0-3-1.28,3.92,3.92,0,0,0-3,1.27,5.37,5.37,0,0,0-1.17,3.75,5.49,5.49,0,0,0,1,3.35,3.78,3.78,0,0,0,3.25,1.36A3.36,3.36,0,0,0,147.55,74.58Z"/><path class="cls-5" d="M153.81,73.35a3.32,3.32,0,0,0,.46,1.65A3,3,0,0,0,157,76.19a4.56,4.56,0,0,0,1.6-.26,1.82,1.82,0,0,0,1.4-1.81,1.57,1.57,0,0,0-.6-1.38,5.7,5.7,0,0,0-1.87-.7L156,71.66a7.13,7.13,0,0,1-2.17-.78,2.54,2.54,0,0,1-1.11-2.24A3.51,3.51,0,0,1,153.77,66a4.24,4.24,0,0,1,3.06-1,5.26,5.26,0,0,1,3.11.9,3.3,3.3,0,0,1,1.27,2.89H159.7a3,3,0,0,0-.5-1.47,2.86,2.86,0,0,0-2.41-.93,2.72,2.72,0,0,0-2,.6,2,2,0,0,0-.6,1.4,1.36,1.36,0,0,0,.71,1.29,9.57,9.57,0,0,0,2.1.66l1.62.37a4.92,4.92,0,0,1,1.81.76,2.84,2.84,0,0,1,1.09,2.42,3.06,3.06,0,0,1-1.4,2.84,6.24,6.24,0,0,1-3.27.85,4.79,4.79,0,0,1-3.4-1.14,3.87,3.87,0,0,1-1.2-3.06Z"/><path class="cls-5" d="M24.69,80.84v1.08H21.63v8H20.38v-8H17.32V80.84Z"/><path class="cls-5" d="M29.06,84a3.34,3.34,0,0,1,.88,2.51,4.29,4.29,0,0,1-.77,2.64,2.77,2.77,0,0,1-2.4,1,2.7,2.7,0,0,1-2.15-.92,3.67,3.67,0,0,1-.8-2.48,3.94,3.94,0,0,1,.84-2.65,2.78,2.78,0,0,1,2.25-1A3,3,0,0,1,29.06,84Zm-.69,4.4a4.18,4.18,0,0,0,.41-1.86,3.36,3.36,0,0,0-.3-1.51,1.64,1.64,0,0,0-1.6-.91,1.57,1.57,0,0,0-1.47.77A3.65,3.65,0,0,0,25,86.73a3.18,3.18,0,0,0,.46,1.76,1.61,1.61,0,0,0,1.45.7A1.53,1.53,0,0,0,28.37,88.36Z"/><path class="cls-5" d="M31.53,81.45h1.13V83.3h1.06v.91H32.66v4.31a.47.47,0,0,0,.23.47,1.11,1.11,0,0,0,.44.07h.17a1.14,1.14,0,0,0,.22,0v.89l-.41.08a3.2,3.2,0,0,1-.44,0,1.22,1.22,0,0,1-1.06-.4,1.71,1.71,0,0,1-.28-1V84.21h-.9V83.3h.9Z"/><path class="cls-5" d="M38.37,85.91a.59.59,0,0,0,.52-.32,1,1,0,0,0,.07-.42.9.9,0,0,0-.4-.83,2.19,2.19,0,0,0-1.15-.26,1.49,1.49,0,0,0-1.24.46,1.52,1.52,0,0,0-.27.78h-1a1.92,1.92,0,0,1,.79-1.7,3.22,3.22,0,0,1,1.77-.49,3.59,3.59,0,0,1,1.9.45A1.51,1.51,0,0,1,40,85v3.81a.5.5,0,0,0,.07.28c0,.07.15.1.3.1h.17l.2,0v.82a2.69,2.69,0,0,1-.4.09,2,2,0,0,1-.37,0,.94.94,0,0,1-.84-.4A1.72,1.72,0,0,1,39,89a3,3,0,0,1-1,.77,3,3,0,0,1-1.41.32,2.12,2.12,0,0,1-1.51-.55,1.87,1.87,0,0,1-.58-1.41,1.78,1.78,0,0,1,.58-1.42,2.67,2.67,0,0,1,1.51-.63Zm-2.34,3a1.26,1.26,0,0,0,.84.29A2.48,2.48,0,0,0,38,88.92a1.52,1.52,0,0,0,.93-1.47v-.9a1.68,1.68,0,0,1-.52.22,4.1,4.1,0,0,1-.63.13L37.1,87a2.5,2.5,0,0,0-.91.26,1,1,0,0,0-.51.92A.88.88,0,0,0,36,88.91Z"/><path class="cls-5" d="M41.9,80.84H43v9.08H41.9Z"/><path class="cls-5" d="M44.71,80.84h1.11v9.08H44.71Z"/><path class="cls-5" d="M51.63,83.3h1.23q-.24.64-1,2.91c-.4,1.13-.74,2.06-1,2.78a19.4,19.4,0,0,1-1.35,3.09,1.55,1.55,0,0,1-1.36.55h-.36l-.31-.08v-1l.41.09a.86.86,0,0,0,.23,0,.84.84,0,0,0,.45-.11.91.91,0,0,0,.24-.25s.1-.2.23-.5.22-.53.27-.68L46.81,83.3h1.26l1.78,5.39Z"/><path class="cls-5" d="M106.85,80.84h4.06a2.74,2.74,0,0,1,1.94.68,2.5,2.5,0,0,1,.75,1.92,2.81,2.81,0,0,1-.66,1.85,2.52,2.52,0,0,1-2,.78h-2.83v3.84h-1.23Zm4.77,1.25a2.58,2.58,0,0,0-1.11-.19h-2.44V85h2.44a2.28,2.28,0,0,0,1.33-.35,1.4,1.4,0,0,0,.51-1.24A1.37,1.37,0,0,0,111.62,82.09Z"/><path class="cls-5" d="M119.11,83.49a2.53,2.53,0,0,1,1,.85,3,3,0,0,1,.44,1.17,7.5,7.5,0,0,1,.1,1.46h-4.81a2.86,2.86,0,0,0,.47,1.62,1.56,1.56,0,0,0,1.37.61,1.73,1.73,0,0,0,1.37-.58,2,2,0,0,0,.42-.77h1.09a2.48,2.48,0,0,1-.29.81,3.06,3.06,0,0,1-.54.74,2.66,2.66,0,0,1-1.25.67,4.4,4.4,0,0,1-.9.1,2.79,2.79,0,0,1-2.08-.89,3.52,3.52,0,0,1-.85-2.52,3.82,3.82,0,0,1,.86-2.6,2.83,2.83,0,0,1,2.25-1A2.91,2.91,0,0,1,119.11,83.49Zm.4,2.59a2.86,2.86,0,0,0-.32-1.15,1.59,1.59,0,0,0-1.51-.81,1.69,1.69,0,0,0-1.28.55,2.17,2.17,0,0,0-.55,1.41Z"/><path class="cls-5" d="M122.1,83.3h1.06v1.14a2.52,2.52,0,0,1,.64-.81,1.65,1.65,0,0,1,1.16-.48h.1l.26,0v1.18a.63.63,0,0,0-.18,0H125a1.59,1.59,0,0,0-1.3.54,1.88,1.88,0,0,0-.45,1.24v3.81H122.1Z"/><path class="cls-5" d="M126.94,87.84a1.55,1.55,0,0,0,.28.85,1.8,1.8,0,0,0,1.49.54,2.27,2.27,0,0,0,1.1-.27.89.89,0,0,0,.48-.83.69.69,0,0,0-.38-.65,4.27,4.27,0,0,0-1-.31l-.9-.23a4.65,4.65,0,0,1-1.27-.47,1.4,1.4,0,0,1-.73-1.25,1.88,1.88,0,0,1,.69-1.52,2.73,2.73,0,0,1,1.84-.58,2.57,2.57,0,0,1,2.18.88,1.92,1.92,0,0,1,.41,1.21h-1.05a1.27,1.27,0,0,0-.27-.69,1.78,1.78,0,0,0-1.36-.44,1.64,1.64,0,0,0-1,.25.73.73,0,0,0-.33.62.79.79,0,0,0,.44.7,2.49,2.49,0,0,0,.74.26l.75.19a5.85,5.85,0,0,1,1.63.56A1.49,1.49,0,0,1,131.4,88a2,2,0,0,1-.68,1.52,2.89,2.89,0,0,1-2.07.64,2.77,2.77,0,0,1-2.12-.67,2.49,2.49,0,0,1-.66-1.66Z"/><path class="cls-5" d="M137.4,84a3.31,3.31,0,0,1,.88,2.51,4.27,4.27,0,0,1-.78,2.64,2.78,2.78,0,0,1-2.4,1,2.71,2.71,0,0,1-2.15-.92,3.71,3.71,0,0,1-.8-2.48A4,4,0,0,1,133,84.1a2.79,2.79,0,0,1,2.26-1A2.94,2.94,0,0,1,137.4,84Zm-.69,4.4a4.19,4.19,0,0,0,.41-1.86,3.48,3.48,0,0,0-.29-1.51,1.66,1.66,0,0,0-1.6-.91,1.58,1.58,0,0,0-1.47.77,3.65,3.65,0,0,0-.46,1.88,3.19,3.19,0,0,0,.46,1.76,1.61,1.61,0,0,0,1.46.7A1.52,1.52,0,0,0,136.71,88.36Z"/><path class="cls-5" d="M139.65,83.3h1.06v.94a2.93,2.93,0,0,1,1-.84,2.66,2.66,0,0,1,1.17-.25,1.92,1.92,0,0,1,1.9,1,3.43,3.43,0,0,1,.28,1.53v4.25h-1.13V85.74a2.28,2.28,0,0,0-.18-1,1.1,1.1,0,0,0-1.08-.62,2.23,2.23,0,0,0-.65.08,1.68,1.68,0,0,0-.8.55,1.64,1.64,0,0,0-.37.67,5.13,5.13,0,0,0-.08,1v3.47h-1.11Z"/><path class="cls-5" d="M57.61,80.78h4.06a4,4,0,0,1,1.66.3,2.12,2.12,0,0,1,1.24,2.11,2.34,2.34,0,0,1-.33,1.3,2.4,2.4,0,0,1-.92.83,1.85,1.85,0,0,1,.78.55A2,2,0,0,1,64.38,87l0,1.2a4.13,4.13,0,0,0,.09.76.73.73,0,0,0,.39.54v.21H63.41a1,1,0,0,1-.09-.3,5.25,5.25,0,0,1-.06-.71l-.07-1.49A1.26,1.26,0,0,0,62.55,86a2.57,2.57,0,0,0-1.06-.16H58.81v3.83H57.61Zm3.93,4.09a2.2,2.2,0,0,0,1.31-.34,1.41,1.41,0,0,0,.48-1.22,1.33,1.33,0,0,0-.68-1.3,2.14,2.14,0,0,0-1-.18H58.81v3.05Z"/><path class="cls-5" d="M70.33,83.38a2.43,2.43,0,0,1,1,.84,2.86,2.86,0,0,1,.44,1.15,7.74,7.74,0,0,1,.1,1.44H67.11a2.83,2.83,0,0,0,.47,1.59,1.55,1.55,0,0,0,1.35.6,1.73,1.73,0,0,0,1.35-.57,2,2,0,0,0,.4-.77h1.08a2.25,2.25,0,0,1-.28.8,2.93,2.93,0,0,1-.54.72,2.57,2.57,0,0,1-1.22.66,3.91,3.91,0,0,1-.89.1,2.73,2.73,0,0,1-2-.88,3.47,3.47,0,0,1-.84-2.48A3.76,3.76,0,0,1,66.78,84a2.78,2.78,0,0,1,2.21-1A2.91,2.91,0,0,1,70.33,83.38Zm.39,2.55a2.87,2.87,0,0,0-.31-1.13A1.57,1.57,0,0,0,68.92,84a1.66,1.66,0,0,0-1.25.54,2.08,2.08,0,0,0-.54,1.38Z"/><path class="cls-5" d="M73.26,80.78h1.09v8.93H73.26Z"/><path class="cls-5" d="M76,80.78h1.11V82H76Zm0,2.45h1.11v6.48H76Z"/><path class="cls-5" d="M82.25,85.77a.6.6,0,0,0,.5-.31,1,1,0,0,0,.07-.42.9.9,0,0,0-.39-.82A2.12,2.12,0,0,0,81.29,84a1.44,1.44,0,0,0-1.21.46,1.51,1.51,0,0,0-.26.76h-1a1.86,1.86,0,0,1,.78-1.68A3.16,3.16,0,0,1,81.32,83a3.56,3.56,0,0,1,1.87.44,1.49,1.49,0,0,1,.71,1.36V88.6a.49.49,0,0,0,.07.27.34.34,0,0,0,.29.1h.17l.19,0v.81l-.38.09h-.37a.9.9,0,0,1-.82-.4,1.59,1.59,0,0,1-.19-.6,2.71,2.71,0,0,1-1,.76,2.94,2.94,0,0,1-1.38.32A2,2,0,0,1,79,89.38,1.81,1.81,0,0,1,78.46,88a1.77,1.77,0,0,1,.56-1.4A2.73,2.73,0,0,1,80.5,86Zm-2.3,3a1.26,1.26,0,0,0,.82.28,2.52,2.52,0,0,0,1.12-.27,1.51,1.51,0,0,0,.91-1.45V86.4a1.73,1.73,0,0,1-.52.21,4,4,0,0,1-.62.13l-.66.08a2.41,2.41,0,0,0-.9.25,1,1,0,0,0-.51.91A.89.89,0,0,0,79.95,88.73Z"/><path class="cls-5" d="M85.59,80.75h1.07V84a2.31,2.31,0,0,1,.86-.71A2.39,2.39,0,0,1,88.61,83a2.55,2.55,0,0,1,2,.84,3.56,3.56,0,0,1,.76,2.46,4.21,4.21,0,0,1-.75,2.57,2.43,2.43,0,0,1-2.08,1,2.16,2.16,0,0,1-1.26-.36,3,3,0,0,1-.65-.68v.84h-1Zm4.18,7.5a3.45,3.45,0,0,0,.45-1.86,3,3,0,0,0-.45-1.7,1.46,1.46,0,0,0-1.3-.68,1.84,1.84,0,0,0-1.32.55,2.5,2.5,0,0,0-.56,1.83,4,4,0,0,0,.23,1.49A1.6,1.6,0,0,0,88.45,89,1.47,1.47,0,0,0,89.78,88.25Z"/><path class="cls-5" d="M92.64,80.78h1.09v8.93H92.64Z"/><path class="cls-5" d="M99.4,83.38a2.4,2.4,0,0,1,1,.84,2.85,2.85,0,0,1,.44,1.15,7.74,7.74,0,0,1,.1,1.44H96.18a2.84,2.84,0,0,0,.47,1.59A1.55,1.55,0,0,0,98,89a1.73,1.73,0,0,0,1.36-.57,1.93,1.93,0,0,0,.4-.77h1.08a2.22,2.22,0,0,1-.29.8,3,3,0,0,1-.54.72,2.58,2.58,0,0,1-1.23.66,3.82,3.82,0,0,1-.88.1,2.72,2.72,0,0,1-2-.88A3.45,3.45,0,0,1,95,86.58,3.74,3.74,0,0,1,95.85,84a2.79,2.79,0,0,1,2.21-1A2.92,2.92,0,0,1,99.4,83.38Zm.39,2.55a2.85,2.85,0,0,0-.31-1.13A1.57,1.57,0,0,0,98,84a1.67,1.67,0,0,0-1.26.54,2,2,0,0,0-.53,1.38Z"/></svg>