<?xml version="1.0" encoding="utf-8"?>
<!-- Generator: Adobe Illustrator 21.1.0, SVG Export Plug-In . SVG Version: 6.00 Build 0)  -->
<svg version="1.1" id="Layer_1" xmlns="http://www.w3.org/2000/svg" xmlns:xlink="http://www.w3.org/1999/xlink" x="0px" y="0px"
	 viewBox="0 0 605.9 946.6" style="enable-background:new 0 0 605.9 946.6;" xml:space="preserve">
<style type="text/css">
	.st0{clip-path:url(#SVGID_2_);fill:url(#SVGID_3_);}
	.st1{clip-path:url(#SVGID_5_);fill:url(#SVGID_6_);}
	.st2{clip-path:url(#SVGID_8_);fill:url(#SVGID_9_);}
	.st3{fill:#D7D9DD;}
	.st4{fill:#F6B72C;}
	.st5{fill:#E86811;}
	.st6{clip-path:url(#SVGID_11_);fill:url(#SVGID_12_);}
	.st7{clip-path:url(#SVGID_14_);fill:url(#SVGID_15_);}
	.st8{clip-path:url(#SVGID_17_);fill:url(#SVGID_18_);}
	.st9{clip-path:url(#SVGID_20_);fill:url(#SVGID_21_);}
	.st10{clip-path:url(#SVGID_23_);fill:url(#SVGID_24_);}
	.st11{fill:#C4C4C4;}
	.st12{fill:#FFFFFF;}
</style>
<title>Artboard 1</title>
<g>
	<defs>
		<polygon id="SVGID_1_" points="2.6,47.2 2.6,118.9 174.5,102.9 174.5,20.7 		"/>
	</defs>
	<clipPath id="SVGID_2_">
		<use xlink:href="#SVGID_1_"  style="overflow:visible;"/>
	</clipPath>
	
		<linearGradient id="SVGID_3_" gradientUnits="userSpaceOnUse" x1="-334.0246" y1="801.7646" x2="-328.277" y2="801.7646" gradientTransform="matrix(29.9163 0 0 -29.9163 9995.5654 24055.6367)">
		<stop  offset="0" style="stop-color:#ECB133"/>
		<stop  offset="1" style="stop-color:#DD6619"/>
	</linearGradient>
	<rect x="2.6" y="20.7" class="st0" width="171.9" height="98.2"/>
</g>
<g>
	<defs>
		<polygon id="SVGID_4_" points="2.6,127.8 2.6,197.1 174.5,194 174.5,112.7 		"/>
	</defs>
	<clipPath id="SVGID_5_">
		<use xlink:href="#SVGID_4_"  style="overflow:visible;"/>
	</clipPath>
	
		<linearGradient id="SVGID_6_" gradientUnits="userSpaceOnUse" x1="-334.0246" y1="799.4222" x2="-328.277" y2="799.4222" gradientTransform="matrix(29.9163 0 0 -29.9163 9995.5654 24070.6367)">
		<stop  offset="0" style="stop-color:#ECB133"/>
		<stop  offset="1" style="stop-color:#DD6619"/>
	</linearGradient>
	<rect x="2.6" y="112.7" class="st1" width="171.9" height="84.4"/>
</g>
<g>
	<defs>
		<polygon id="SVGID_7_" points="174.5,202.2 2.6,205.5 2.6,272.4 174.5,282.9 174.5,202.2 		"/>
	</defs>
	<clipPath id="SVGID_8_">
		<use xlink:href="#SVGID_7_"  style="overflow:visible;"/>
	</clipPath>
	
		<linearGradient id="SVGID_9_" gradientUnits="userSpaceOnUse" x1="-334.0246" y1="796.998" x2="-328.277" y2="796.998" gradientTransform="matrix(29.9163 0 0 -29.9163 9995.5654 24085.7617)">
		<stop  offset="0" style="stop-color:#ECB133"/>
		<stop  offset="1" style="stop-color:#DD6619"/>
	</linearGradient>
	<rect x="2.6" y="202.2" class="st2" width="171.9" height="80.7"/>
</g>
<polygon class="st3" points="299.6,0 299.6,91.2 180.6,102.3 180.9,18.7 "/>
<polygon class="st4" points="180.9,111.7 299.6,98.9 299.6,191.7 180.9,193.9 "/>
<polygon class="st4" points="180.9,202.2 299.6,199.1 299.6,290.6 180.9,283.3 "/>
<polygon class="st3" points="314.5,0 453.2,60.8 453.2,126 314.5,91.2 "/>
<polygon class="st4" points="314.5,98.9 453.2,133.1 453.2,198.1 314.5,191.7 "/>
<polygon class="st3" points="314.5,199.1 453.2,204.4 453.2,269.6 314.5,290.6 "/>
<polygon class="st3" points="314.5,298.9 453.2,276.8 453.2,341.4 314.5,392.8 "/>
<polygon class="st4" points="314.5,404.4 314.5,496.1 453.2,417.1 453.2,350.2 "/>
<polygon class="st5" points="314.5,506.4 314.5,598.2 453.2,496.1 453.2,429.2 "/>
<g>
	<defs>
		<polygon id="SVGID_10_" points="467.6,350.2 467.6,404.4 605.7,323.7 605.7,297.8 		"/>
	</defs>
	<clipPath id="SVGID_11_">
		<use xlink:href="#SVGID_10_"  style="overflow:visible;"/>
	</clipPath>
	
		<linearGradient id="SVGID_12_" gradientUnits="userSpaceOnUse" x1="-315.9508" y1="792.3297" x2="-310.2011" y2="792.3297" gradientTransform="matrix(23.9623 0 0 -23.9623 8038.3433 19337.1016)">
		<stop  offset="0" style="stop-color:#ECB133"/>
		<stop  offset="1" style="stop-color:#DD6619"/>
	</linearGradient>
	<rect x="467.6" y="297.8" class="st6" width="138.1" height="106.6"/>
</g>
<polygon class="st3" points="467.6,335.9 467.6,275.7 605.7,257.4 605.7,290.6 "/>
<polygon class="st3" points="467.6,264.6 467.6,205 605.7,206.1 605.7,249.2 "/>
<g>
	<defs>
		<polygon id="SVGID_13_" points="467.6,197 605.7,201.2 605.7,167.2 467.6,135.7 		"/>
	</defs>
	<clipPath id="SVGID_14_">
		<use xlink:href="#SVGID_13_"  style="overflow:visible;"/>
	</clipPath>
	
		<linearGradient id="SVGID_15_" gradientUnits="userSpaceOnUse" x1="-315.9508" y1="798.6262" x2="-310.2011" y2="798.6262" gradientTransform="matrix(23.9623 0 0 -23.9623 8038.3433 19305.3516)">
		<stop  offset="0" style="stop-color:#ECB133"/>
		<stop  offset="1" style="stop-color:#DD6619"/>
	</linearGradient>
	<rect x="467.6" y="135.7" class="st7" width="138.1" height="65.4"/>
</g>
<polygon class="st4" points="299.6,300 299.6,392.8 180.9,379.5 180.9,292.7 "/>
<polygon class="st4" points="180.9,390.4 299.6,404.4 299.6,496.1 180.9,469.2 "/>
<g>
	<defs>
		<polygon id="SVGID_16_" points="2.6,360.2 174.5,378.9 174.5,292.7 2.6,281.8 		"/>
	</defs>
	<clipPath id="SVGID_17_">
		<use xlink:href="#SVGID_16_"  style="overflow:visible;"/>
	</clipPath>
	
		<linearGradient id="SVGID_18_" gradientUnits="userSpaceOnUse" x1="-334.0246" y1="794.5822" x2="-328.277" y2="794.5822" gradientTransform="matrix(29.9163 0 0 -29.9163 9995.5654 24101.2617)">
		<stop  offset="0" style="stop-color:#ECB133"/>
		<stop  offset="1" style="stop-color:#DD6619"/>
	</linearGradient>
	<rect x="2.6" y="281.8" class="st8" width="171.9" height="97.1"/>
</g>
<g>
	<defs>
		<polygon id="SVGID_19_" points="2.6,433.1 174.5,468 174.5,389.2 2.6,369.6 		"/>
	</defs>
	<clipPath id="SVGID_20_">
		<use xlink:href="#SVGID_19_"  style="overflow:visible;"/>
	</clipPath>
	
		<linearGradient id="SVGID_21_" gradientUnits="userSpaceOnUse" x1="-334.0246" y1="792.1302" x2="-328.277" y2="792.1302" gradientTransform="matrix(29.9163 0 0 -29.9163 9995.5654 24116.3867)">
		<stop  offset="0" style="stop-color:#ECB133"/>
		<stop  offset="1" style="stop-color:#DD6619"/>
	</linearGradient>
	<rect x="2.6" y="369.6" class="st9" width="171.9" height="98.3"/>
</g>
<polygon class="st5" points="180.9,480.9 299.6,506.4 299.6,598.2 180.9,559.7 "/>
<g>
	<defs>
		<polygon id="SVGID_22_" points="0.9,507.9 172.9,557.7 172.9,478.9 0.9,444.3 		"/>
	</defs>
	<clipPath id="SVGID_23_">
		<use xlink:href="#SVGID_22_"  style="overflow:visible;"/>
	</clipPath>
	
		<linearGradient id="SVGID_24_" gradientUnits="userSpaceOnUse" x1="-334.0417" y1="789.8325" x2="-328.2919" y2="789.8325" gradientTransform="matrix(29.8341 0 0 -29.8341 9967.1973 24064.9844)">
		<stop  offset="0" style="stop-color:#ECB133"/>
		<stop  offset="1" style="stop-color:#DD6619"/>
	</linearGradient>
	<rect x="0.9" y="444.3" class="st10" width="172" height="113.4"/>
</g>
<path class="st11" d="M36.4,944.9c-3.9,0.9-8.1,1.4-12.6,1.4C7.9,946.2,0,938.1,0,921.7c0-15.1,7.9-22.7,23.8-22.7
	c4.5,0,8.7,0.4,12.6,1.4v4c-4.2-0.9-8.2-1.4-12.1-1.4c-12.7,0-19.1,6.2-19.1,18.6c0,13.6,6.4,20.4,19.1,20.4c3.9,0,7.9-0.4,12.1-1.3
	V944.9z"/>
<path class="st11" d="M49.7,922.6c0-16,7.3-24,22-24c14.7,0,22,8,22,24c0,16-7.3,24-22,24C57.1,946.6,49.8,938.6,49.7,922.6
	 M71.8,942.6c11.5,0,17.3-6.7,17.3-20.2c0-13.2-5.8-19.8-17.3-19.8c-11.5,0-17.3,6.6-17.3,19.8C54.5,935.9,60.2,942.6,71.8,942.6"/>
<path class="st11" d="M110.5,946.2v-47.2h3.4l0.6,6c6-4,11.9-6,17.7-6c11.5,0,17.2,5,17.2,14.9v32.3h-4.7v-32.4
	c0-7-4.2-10.5-12.7-10.5c-5.7,0-11.2,2-16.7,6v37H110.5z"/>
<path class="st11" d="M167.4,944v-4.5c5.2,1.8,10.4,2.7,15.4,2.7c9.9,0,14.9-3.1,14.9-9.4c0-5.1-3.7-7.6-11-7.6h-6
	c-9.9,0-14.8-4.2-14.8-12.6c0-9,6.5-13.5,19.6-13.5c5,0,10.2,0.7,15.4,2.2v4.5c-5.2-1.8-10.4-2.7-15.4-2.7c-9.9,0-14.9,3.1-14.9,9.4
	c0,5.4,3.4,8.1,10.1,8.1h6c10.5,0,15.7,4,15.7,12.1c0,9-6.5,13.5-19.6,13.5C177.8,946.2,172.7,945.5,167.4,944"/>
<path class="st11" d="M219,891.4h3.3l0.9,7.6h14.2v4h-13.7v29.8c0,6.2,2.3,9.3,6.8,9.3h6.9v4.1h-6.8c-7.7,0-11.5-4.2-11.5-12.7
	V891.4z"/>
<path class="st11" d="M251.9,946.2v-47.2h3.4l0.6,7.8c4.7-5.2,10-7.8,15.8-7.8v3.8c-5.6,0-10.6,2.7-15.1,8.2v35.2H251.9z"/>
<path class="st11" d="M323.8,899.1v47.2h-3.5l-0.5-6c-5.4,4-11.5,6-18.2,6c-11.1,0-16.7-5.9-16.7-17.6v-29.6h4.7v29.7
	c0,8.8,4.1,13.2,12.2,13.2c6,0,11.7-2,17.2-6v-37H323.8z"/>
<path class="st11" d="M376.9,944.9c-3.9,0.9-8.1,1.4-12.6,1.4c-15.9,0-23.8-8.2-23.8-24.5c0-15.1,7.9-22.7,23.8-22.7
	c4.5,0,8.7,0.4,12.6,1.4v4c-4.2-0.9-8.2-1.4-12.1-1.4c-12.7,0-19.1,6.2-19.1,18.6c0,13.6,6.4,20.4,19.1,20.4c3.9,0,7.9-0.4,12.1-1.3
	V944.9z"/>
<path class="st11" d="M392.3,891.4h3.3l0.9,7.6h14.2v4h-13.8v29.8c0,6.2,2.3,9.3,6.8,9.3h6.9v4.1h-6.8c-7.7,0-11.5-4.2-11.5-12.7
	V891.4z"/>
<path class="st11" d="M422.9,922.6c0-16,7.3-24,22-24c14.7,0,22,8,22,24c0,16-7.3,24-22,24C430.3,946.6,423,938.6,422.9,922.6
	 M444.9,942.6c11.5,0,17.3-6.7,17.3-20.2c0-13.2-5.8-19.8-17.3-19.8c-11.5,0-17.3,6.6-17.3,19.8
	C427.6,935.9,433.4,942.6,444.9,942.6"/>
<path class="st11" d="M483.7,946.2v-47.2h3.4l0.6,7.8c4.7-5.2,10-7.8,15.8-7.8v3.8c-5.6,0-10.6,2.7-15.1,8.2v35.2H483.7z"/>
<path class="st11" d="M535.7,899.1c12.9,0,19.3,7.1,19.3,21.4c0,1,0,2.1-0.1,3.2h-35.8c0,12.3,6.5,18.5,19.6,18.5
	c5.4,0,10.1-0.8,14.3-2.2v4c-4.2,1.5-8.9,2.2-14.3,2.2c-16.2,0-24.3-8-24.3-24.1C514.4,906.7,521.5,899.1,535.7,899.1 M519.1,919.5
	h31.4c-0.2-11-5.1-16.4-14.8-16.4C525.2,903,519.7,908.5,519.1,919.5"/>
<path class="st11" d="M570.9,944v-4.5c5.2,1.8,10.4,2.7,15.5,2.7c9.9,0,14.9-3.1,14.9-9.4c0-5.1-3.7-7.6-11-7.6h-6
	c-9.9,0-14.8-4.2-14.8-12.6c0-9,6.5-13.5,19.6-13.5c5,0,10.2,0.7,15.4,2.2v4.5c-5.2-1.8-10.4-2.7-15.4-2.7c-9.9,0-14.9,3.1-14.9,9.4
	c0,5.4,3.4,8.1,10.1,8.1h6c10.5,0,15.7,4,15.7,12.1c0,9-6.5,13.5-19.6,13.5C581.3,946.2,576.1,945.5,570.9,944"/>
<polygon class="st12" points="5.5,843.3 5.5,672.5 11,672.5 11,839.3 55.5,839.3 55.5,843.3 "/>
<polygon class="st12" points="92.6,843.3 92.6,672.5 142.6,672.5 142.6,676.4 98.1,676.4 98.1,754.2 136,754.2 136,757.9 
	98.1,757.9 98.1,839.3 142.6,839.3 142.6,843.3 "/>
<polygon class="st12" points="195.3,843.3 195.3,676.4 172.8,676.4 172.8,672.5 223.1,672.5 223.1,676.4 200.8,676.4 200.8,843.3 
	"/>
<polygon class="st12" points="268.9,843.3 268.9,676.4 246.3,676.4 246.3,672.5 296.6,672.5 296.6,676.4 274.3,676.4 274.3,843.3 
	"/>
<rect x="326.3" y="672.2" class="st12" width="5.2" height="171"/>
<polygon class="st12" points="368.4,843.3 368.4,672.5 373.3,672.5 415.9,823.7 415.9,672.5 420.8,672.5 420.8,843.3 416.1,843.3 
	373.8,692.3 373.8,843.3 "/>
<path class="st12" d="M502.9,837.6c-5,3.8-11.3,5.7-18.7,5.7c-7.4,0-13.7-1.9-18.8-5.7c-5.1-3.8-7.7-8.6-7.7-14.4V692.5
	c0-5.6,2.6-10.3,7.7-14.2c5.1-3.9,11.4-5.8,18.8-5.8c3.6,0,7.1,0.5,10.3,1.6c3.2,1.1,6,2.5,8.3,4.3c2.3,1.8,4.2,3.9,5.6,6.3
	c1.4,2.4,2.1,5,2.1,7.8v13.1h-5.2v-13.1c0-4.5-2.1-8.2-6.2-11.4c-4.1-3.1-9.1-4.7-14.9-4.7c-5.9,0-10.9,1.6-15,4.7
	c-4,3.1-6.1,6.9-6.1,11.4v130.7c0,4.5,2,8.3,6.1,11.4c4,3.1,9,4.7,15,4.7c5.8,0,10.7-1.6,14.9-4.7c4.1-3.1,6.2-6.9,6.2-11.4v-64.1
	h-22.5v-3.7h27.7v67.8C510.4,829,507.9,833.8,502.9,837.6"/>
<path class="st12" d="M547.6,810.1h5.4v13.1c0,4.5,2,8.3,6.1,11.4c4,3.1,9,4.7,15,4.7c5.8,0,10.7-1.6,14.9-4.7
	c4.1-3.1,6.2-6.9,6.2-11.4v-49.8c0-2.5-0.8-4.7-2.4-6.8c-1.6-2.1-3.6-3.9-6.1-5.6c-1.3-0.8-3-1.6-5-2.3c-2-0.7-4.1-1.5-6.4-2.4h0.2
	H575c-0.2,0-0.3-0.1-0.5-0.2c-0.3-0.2-0.8-0.3-1.4-0.4c-0.6-0.1-1-0.2-1.4-0.4v0.3c-3.6-1.2-6.4-2.2-8.4-3c-2-0.8-4.1-1.9-6.4-3.2
	c-2.8-1.8-5.1-4-6.8-6.6c-1.8-2.6-2.6-5.5-2.6-8.8v-41.6c0-5.6,2.5-10.4,7.7-14.2c5.1-3.9,11.4-5.8,18.8-5.8c3.6,0,7.1,0.5,10.3,1.6
	c3.2,1.1,6,2.5,8.3,4.3c2.3,1.8,4.2,3.9,5.6,6.3c1.4,2.4,2.1,5,2.1,7.8v13.1h-5.2v-13.1c0-4.5-2.1-8.2-6.2-11.4
	c-4.1-3.1-9.1-4.7-14.9-4.7c-5.9,0-10.9,1.6-15,4.7c-4.1,3.1-6.1,6.9-6.1,11.4v41.6c0,5.4,2.4,9.7,7.2,12.6c1.3,1,2.9,1.8,4.8,2.4
	c1.9,0.6,4,1.2,6.3,1.9c0.6,0.3,1.3,0.5,2,0.6c0.6,0.1,1.3,0.3,2,0.6v-0.3c3.3,1,6,1.9,8,2.7c2.1,0.8,4.2,1.9,6.6,3.2
	c3.3,1.8,5.9,4,7.7,6.7c1.8,2.7,2.7,5.6,2.7,8.9v49.8c0,5.8-2.5,10.6-7.5,14.4c-5,3.8-11.3,5.7-18.7,5.7c-7.4,0-13.7-1.9-18.8-5.7
	c-5.1-3.8-7.7-8.6-7.7-14.4V810.1z"/>
</svg>
