<?xml version="1.0" encoding="utf-8"?>
<!-- Generator: Adobe Illustrator 21.1.0, SVG Export Plug-In . SVG Version: 6.00 Build 0)  -->
<svg version="1.1" id="Layer_1" xmlns="http://www.w3.org/2000/svg" xmlns:xlink="http://www.w3.org/1999/xlink" x="0px" y="0px"
	 viewBox="0 0 565.7 309.6" style="enable-background:new 0 0 565.7 309.6;" xml:space="preserve">
<style type="text/css">
	.st0{fill:#3C3C3B;}
	.st1{fill:#FFFFFF;}
	.st2{fill:#E30613;}
</style>
<title>Artboard 1</title>
<path class="st0" d="M296.4,38.2L296.4,38.2L296.4,38.2z"/>
<path class="st0" d="M312.4,42.5c-0.4-0.4-0.8-0.8-1.2-1.2c-0.2-0.1-0.4-0.2-0.6-0.3c-0.5-0.2-1.1-0.4-1.7-0.5
	c-1.6-0.3-3.3-0.3-4.9,0.1c-1.6,0.3-3.1,0.9-4.6,1.7c-2.4,1.4-1.9,7.2,1.7,5.5c1.1-0.6,2.3-1,3.5-1.3c1.1-0.3,2.3-0.3,3.5-0.1
	c0.5,0.1,1,0.2,1.4,0.4h0.4c0.1,0,0.3,0.1,0.4,0.1c0.2,0,0.3,0.1,0.5,0.1l0.5,0.2l0.4,0.2c0.2,0.1,0.4,0.2,0.4,0.2
	c0.6,0.3,1.1,0.7,1.6,0.5c0.2,0,0.4-0.2,0.5-0.7c0.1-0.7,0.1-1.4-0.1-2c-0.1-0.6-0.4-1.2-0.6-1.7C313,43.4,312.7,42.9,312.4,42.5"/>
<path class="st1" d="M410.9,58.2c-0.3-5.5-0.7-11.1-1.3-16.6l-0.2-2.1c0-0.3-0.1-0.8-0.2-1.3c-0.1-0.5-0.1-0.9-0.2-1.3
	c-0.4-1.9-1-3.7-1.8-5.5c-0.9-1.7-2-3.2-3.5-4.5c-1.2-1.1-2.6-1.9-4.1-2.5c-0.6-0.2-1.2-0.4-1.8-0.6c0.2-0.2,0.5-0.4,0.7-0.6
	c0.3-0.3,0.6-0.7,0.8-1.1l0.2-0.3c0.1-0.1,0.1-0.3,0.2-0.4c0.1-0.3,0.2-0.6,0.3-0.9c0.3-1,0.4-2,0.3-3.1c0-0.3-0.1-0.6-0.2-0.9
	c0-0.1-0.1-0.2-0.1-0.3c0,0-0.1-0.1-0.2-0.4c-0.2-0.4-0.5-0.7-0.8-1.1c-0.2-0.2-0.5-0.4-0.7-0.6c-0.3-0.2-0.6-0.4-0.9-0.5
	c-0.5-0.2-1-0.4-1.6-0.5c-2.5-0.4-5-0.2-7.3,0.5c-0.6,0.2-1.2,0.3-1.9,0.6s-1.2,0.4-1.8,0.7c-0.5,0.2-1,0.5-1.5,0.7
	c-1.4,0.7-2.2,2.3-1.9,3.8c0,0.5,0.6,3.7,0.7,4c0,0.2,0,0.3,0.1,0.4h-0.4h-0.7c-0.6,0-1.2,0-1.7,0.1l-0.8,0.1l0,0l0.1-0.2v-0.1
	l0.1-0.4l0.1-0.7c0.1-0.5,0.2-1,0.2-1.5c0.1-0.5,0.1-1.1,0.1-1.6c0.1-2.2-0.1-4.4-0.8-6.4c-0.6-1.9-1.5-3.8-2.6-5.4
	c-1-1.4-2.2-2.6-3.6-3.6c-2.2-1.5-4.7-2.6-7.3-3.3c-2.3-0.6-4.6-0.9-7-1c-2.3-0.1-4.5-0.1-6.8,0.2c-2.3,0.2-4.5,0.6-6.8,1.1
	c-1.2,0.3-2.3,0.6-3.4,1c-0.6,0.2-1.2,0.4-1.8,0.7c-0.6,0.3-1.2,0.5-1.8,0.9c-0.7,0.4-1.4,0.8-2.1,1.3c-0.3,0.3-0.7,0.5-1,0.8
	c-0.4,0.3-0.7,0.5-1,0.9c-1.5,1.4-2.8,3-3.8,4.7c-1.2,2.1-2,4.4-2.4,6.8c-0.2,1.4-0.3,2.7-0.3,4.1c-0.8,0.2-1.5,0.3-2.3,0.4
	c-2.4,0.3-4.8,0.5-7.2,0.5l-8.5,0.2c-3,0-6.1,0.3-9.1,0.9c-1.7,0.3-3.4,0.9-5,1.7l-0.7,0.3l-0.7,0.4l-0.7,0.4l-0.7,0.6
	c-0.5,0.4-1,0.9-1.4,1.4l-0.4,0.4c-0.1,0.2-0.2,0.3-0.4,0.5c-0.2,0.3-0.5,0.7-0.7,1.1c-0.2,0.4-0.4,0.8-0.5,1.1s-0.3,0.6-0.4,1
	c-0.2,0.6-0.4,1.2-0.6,1.7c-0.3,1.1-0.6,2.1-0.8,3.1c-0.4,2-0.7,3.9-1,5.8c-0.9,6.1-1.4,12-1.7,17.9s-0.6,11.8-0.7,17.7
	s-0.2,11.8,0,17.8c0.1,3,0.2,6,0.4,9s0.4,6.1,1,9.4c0.1,0.5,0.1,0.8,0.3,1.5s0.3,1.4,0.5,2.1c0.3,1.3,0.8,2.4,1.6,3.5
	c0.7,0.9,1.7,1.6,2.8,2c0.5,0.2,1.1,0.4,1.6,0.6l0.6,0.2l0.5,0.1c2.4,0.5,4.9,0.7,7.4,0.8c2.4,0.1,4.9,0,7.3-0.2
	c1.3-0.1,2.5-0.4,3.8-0.6c1.4-0.3,2.8-0.8,4.2-1.5c2.3-1.1,4-3.1,4.9-5.4l0.2-0.5c0.1-0.1,0.1-0.3,0.2-0.5c0.1-0.3,0.1-0.7,0.2-1.1
	s0.1-0.7,0.2-1.1l0.1-0.9c0.1-0.4,0.1-0.8,0.1-1.2l0.1-1.2c0.1-1.6,0.2-3.1,0.3-4.6c0-0.8,0.1-1.5,0.1-2.2l0.1-1.5
	c0.1-3,0.1-5.9,0.2-8.8c0,0-0.1-2.1-0.2-5.2s-0.3-7.3-0.5-11.4c-0.4-8.2-0.9-16.2-1-15.5c-0.6-6.7-1.3-12.1-2.1-13.3s-2,2-3,12.9
	c-0.7,6.4-1.2,14.1-1.6,20.2s-0.7,10.6-0.7,10.6c0,2.9-0.1,5.9-0.1,8.8l-0.1,2.3c0,1.4-0.1,2.9-0.2,4.3c0,0.7-0.1,1.4-0.1,2.1
	s-0.1,1.4-0.2,2v0.3l0,0c-0.3,0.2-0.7,0.3-1,0.4c-0.9,0.3-1.8,0.5-2.8,0.7c-2.1,0.3-4.2,0.5-6.3,0.4c-2.1,0-4.2-0.2-6.3-0.5
	c-0.5-0.1-1-0.2-1.5-0.3l-0.2-0.1l0,0l0-0.3c0-0.3-0.1-0.6-0.1-0.9c-0.1-0.6-0.2-1.2-0.2-1.9c-0.1-1.3-0.3-2.7-0.4-4.1
	c-0.2-2.8-0.3-5.7-0.4-8.6c-0.1-5.8-0.1-11.6,0-17.5s0.4-11.7,0.7-17.5s0.9-11.6,1.6-17.1c0.2-1.7,0.5-3.3,0.8-4.8
	c0.2-0.7,0.3-1.5,0.5-2.1c0.1-0.3,0.2-0.5,0.3-0.8c0-0.1,0.1-0.2,0.1-0.3l0,0l0,0l0,0l0,0c0.1-0.1,0.2-0.2,0.3-0.3l0.2-0.2l0.3-0.2
	l0.3-0.2l0.3-0.2c1-0.5,2.1-0.8,3.2-1c2.6-0.5,5.2-0.7,7.8-0.7l8.5-0.2c2.7,0,5.4-0.2,8.1-0.6c1.4-0.2,2.9-0.5,4.3-0.9
	c1.6-0.5,3.2-1.1,4.6-2c0.3-0.3,0.5-0.6,0.7-1c0.4-0.9,0.8-2,0.9-3c0.1-0.8,0-6.2,0.1-6.9c0.1-0.8,0.4-1.5,0.8-2.2
	c0.5-0.8,1.1-1.5,1.7-2.1c0.2-0.2,0.4-0.3,0.6-0.5c0.2-0.2,0.4-0.3,0.6-0.5c0.4-0.3,0.9-0.6,1.3-0.8c0.4-0.2,0.7-0.4,1.1-0.6
	c0.4-0.2,0.8-0.3,1.2-0.5c0.9-0.3,1.8-0.6,2.6-0.8c1.8-0.5,3.7-0.8,5.6-1c1.9-0.2,3.8-0.3,5.7-0.2c1.8,0.1,3.7,0.3,5.5,0.7
	c1.6,0.4,3.2,1,4.6,1.9c1,0.6,1.9,1.6,2.3,2.7c0.2,0.5,0.3,0.9,0.3,1.4c0,0.3,0,0.6,0,0.8c0,0.2,0,0.3-0.1,0.5v0.2v0.1
	c0,0,0,0,0,0.1l-0.2,0.4c-0.2,0.5-0.4,1-0.6,1.6l-0.8,1.8c-0.1,0.1-0.1,0.3-0.2,0.5l-0.1,0.4l-0.3,0.9c-0.1,0.5-0.2,1-0.2,1.6
	c-0.1,0.9,0,1.7,0.1,2.5c0.2,0.9,0.6,1.8,1.1,2.6c1,1.5,2.5,2.5,4.3,3c1.9,0.5,3.9,0.7,5.9,0.5l1.7-0.1h0.7h0.8
	c1.2,0,2.2-0.2,3.3-0.3c2.1-0.2,4.1-0.5,6-0.5c1.7-0.1,3.4,0,5.1,0.4c0.6,0.2,1.3,0.4,1.8,0.8c0.4,0.3,0.8,0.6,1.1,1
	c0.7,1.2,1.2,2.6,1.2,4l0.8,7.7l0.5,7.7c0.6,10.3,0.5,20.7-0.2,31c-0.4,5.1-0.8,10.3-1.5,15.3l-0.2,1.9c-0.1,0.6-0.2,1.4-0.3,2
	c-0.2,1.3-0.3,2.5-0.5,3.4c-0.1,0.6-0.3,1.1-0.5,1.7c-0.1,0.2-0.1,0.2-0.4,0.4l-0.1,0.1l-0.2,0.1c-0.1,0-0.2,0.1-0.4,0.1l-0.4,0.1
	h-0.7c-0.9,0.1-1.9,0.2-2.8,0.2l-3,0.1h-3l-12.5-0.2l-12.3-0.1l-6.1-0.1h-0.4h-0.3l-0.6-0.1c-0.4,0-0.8-0.1-1.2-0.2
	c-0.8-0.1-1.7-0.4-2.5-0.6c-3.5-1.3-6.6-3.4-9.1-6.1c-2.8-3.1-5.1-6.7-6.7-10.6c-1.7-4.1-2.8-8.5-3.3-13c-0.5-4.4-0.2-8.9,0.9-13.2
	c0.6-2.1,1.3-4.2,2.1-6.3c0.8-2,1.8-3.8,2.9-5.6c1-1.7,2.3-3.2,3.6-4.6c1.3-1.3,2.8-2.4,4.4-3.3c1.6-0.9,3.2-1.6,5-2
	c1.8-0.5,3.6-0.7,5.4-0.9c3.6-0.2,7.2,0.4,10.5,1.8c1.7,0.7,3.3,1.7,4.7,2.8c0.4,0.3,0.7,0.6,1.1,0.9c0.4,0.3,0.7,0.6,1.1,1
	c0.7,0.7,1.4,1.4,2,2.2c2.6,3.2,4.5,6.9,5.5,10.9c1.3,4.3,1.8,8.8,1.7,13.3c-0.1,2-0.4,3.9-1,5.8c-0.5,1.8-1.3,3.6-2.4,5.2
	c-1,1.6-2.2,3.1-3.6,4.3c-0.3,0.3-0.6,0.6-1,0.9l-0.7,0.5l-0.4,0.3c-0.5,0.4-1.1,0.7-1.6,1l-0.8,0.4l-0.9,0.3
	c-0.6,0.2-1.1,0.4-1.7,0.6c-0.3,0.1-0.6,0.2-0.9,0.3l-1,0.3c-0.4,0.1-0.8,0.2-1.3,0.2c-2.5,0.3-5.1,0.2-7.5-0.4
	c-2.5-0.6-4.9-1.7-7-3.1c-1.7-1.2-2.6-2.2-2.5-1.9c-1.6-1.5-2.9-3.4-3.9-5.4c-0.9-1.7-1.4-3.2-1.9-3.7s-1,0-1.2,2.2
	c-0.1,1.5,0,3.1,0.4,4.6c0.5,2.4,1.5,4.6,2.8,6.7c1.8,2.9,4.1,5.4,6.8,7.3c2.5,1.8,5.2,3.1,8.1,4c2.2,0.6,4.5,1,6.7,1
	c0.7,0,1.4,0,2.1-0.1l0.8-0.1c1.8-0.4,3.5-1,5.2-1.8c0.8-0.4,1.7-0.9,2.5-1.4l1.2-0.8c0.2-0.1,0.4-0.3,0.6-0.4l1.2-0.9
	c0.5-0.4,1.1-0.9,1.5-1.4c4.4-4.2,7.6-9.5,9.3-15.3l0.6-2.4c0.2-0.8,0.3-1.7,0.4-2.5s0.2-1.7,0.2-2.5l0.1-1.3v-1.2
	c0.1-3.1-0.2-6.2-0.6-9.3c-0.8-6-2.6-11.8-5.5-17.2c-1.4-2.6-3-4.9-5-7.1l-0.7-0.8l-0.7-0.7c-0.5-0.5-0.9-0.9-1.4-1.4
	s-1-0.9-1.5-1.3l-1.6-1.2c-4.1-2.9-8.8-4.8-13.8-5.3c-2.3-0.3-4.7-0.3-7.1,0c-2.4,0.2-4.7,0.7-7,1.5c-5,1.7-9.4,4.7-12.9,8.7
	c-3.8,4.4-6.7,9.5-8.5,14.9c-1.1,2.9-1.9,5.8-2.5,8.8c-0.6,3.1-0.9,6.2-0.9,9.4c0,6.1,0.9,12.3,2.8,18.1c1.7,5.5,4.3,10.7,7.7,15.4
	c3.1,4.4,7.2,7.9,11.9,10.5c3.3,1.7,7,2.7,10.8,2.9h3.1l12.6,0.1l12.6,0.1c2,0,4.2,0.1,6.3,0l3.3-0.1l3.4-0.3h0.2l0.3-0.1l0.6-0.1
	c0.4-0.1,0.8-0.2,1.2-0.3c0.9-0.3,1.7-0.7,2.4-1.2c0.9-0.6,1.7-1.3,2.4-2.2c0.4-0.4,0.7-0.9,1-1.4l0.4-0.8l0.4-0.7
	c0.7-1.7,1.3-3.6,1.6-5.4c0.3-1.6,0.5-3,0.6-4.2l1-8.2c0.3-2.8,0.5-5.5,0.8-8.3C411.3,80.4,411.5,69.2,410.9,58.2 M392,23.3
	c-1.9,0-3.6,0.2-5.3,0.4c0-0.1,0-0.3,0-0.4c0-0.3-0.1-0.6-0.2-1s-0.2-0.9-0.3-1.5l0,0l0.6-0.3l0.8-0.3c0.5-0.2,1-0.4,1.6-0.5
	c1.8-0.6,3.7-0.8,5.6-0.6c1.2,0.6-0.2,3.8-0.4,4.2C393.6,23.3,392.8,23.3,392,23.3"/>
<path class="st2" d="M196.9,26.9l22.3,92.1c-5.1,3.8-11.7,4.9-19.8,3.1l-4-17.1l-20.7,2.9l-5.1,17.3c-8.3,1.3-14.5-0.1-18.5-4
	l29.2-93.5C186.2,23.5,191.7,23.2,196.9,26.9 M187.4,57.4l-8.8,31.5l13.6-1.9L187.4,57.4z"/>
<path class="st2" d="M269,25.6c2.6,6.6,2.4,14-0.4,20.5L248,46.4l-3,74.4c-5.6,2.8-11.8,2.7-18.5-0.1l3.5-73.4l-20.2,0.5
	c-4.1-8-4.3-14.8-0.5-20.4L269,25.6z"/>
<path class="st2" d="M312.9,35.8c1.3,7.7-0.5,13.8-5.2,18.4c-3.2-2.4-8.3-4.3-15.2-5.7c-5.7-0.8-11.3,1.5-14.8,6
	c-3.8,4.7-6.2,10.8-7,18.3c-1.3,4.8-0.5,10.9,2.3,18.3c2.8,6.7,7.1,10.3,12.9,10.7c5.8,0.4,12.7-0.9,20.8-3.9
	c2.9,6.1,3.2,13,0.8,19.3c-9.5,5-17.3,7.4-23.2,7.2c-11-1.6-18.9-6.1-23.9-13.7c-6.7-10.1-8.9-24.4-6.8-42.8
	c1.7-14.6,5.7-25.6,12-33.1c8.3-7.7,18.3-10.9,30.1-9.5C303.9,25.9,309.6,29.4,312.9,35.8"/>
<g>
	<path class="st1" d="M138.8,285.2c-0.2-4.5-0.5-10-0.5-14.1h-0.1c-1.1,3.8-2.5,7.9-4.2,12.4l-5.8,15.8h-3.2l-5.3-15.5
		c-1.6-4.6-2.9-8.8-3.8-12.7h-0.1c-0.1,4.1-0.3,9.5-0.6,14.4l-0.9,14h-4.1l2.3-32.6h5.4l5.6,15.8c1.4,4,2.5,7.6,3.3,11h0.2
		c0.8-3.3,2-6.9,3.5-11l5.9-15.8h5.4l2.1,32.6h-4.2L138.8,285.2z"/>
	<path class="st1" d="M138.8,285.2c-0.2-4.5-0.5-10-0.5-14.1h-0.1c-1.1,3.8-2.5,7.9-4.2,12.4l-5.8,15.8h-3.2l-5.3-15.5
		c-1.6-4.6-2.9-8.8-3.8-12.7h-0.1c-0.1,4.1-0.3,9.5-0.6,14.4l-0.9,14h-4.1l2.3-32.6h5.4l5.6,15.8c1.4,4,2.5,7.6,3.3,11h0.2
		c0.8-3.3,2-6.9,3.5-11l5.9-15.8h5.4l2.1,32.6h-4.2L138.8,285.2z"/>
	<path class="st1" d="M163.7,299.5l-0.4-3h-0.1c-1.7,2.3-4.4,3.6-7.3,3.5c-4.8,0-7.3-3.3-7.3-6.7c0-5.7,5.1-8.8,14.3-8.7v-0.5
		c0-1.9-0.5-5.4-5.4-5.4c-2.2,0-4.3,0.6-6.2,1.7l-1-2.8c2.4-1.4,5.1-2.1,7.8-2.1c7.3,0,9,4.9,9,9.6v8.8c0,1.9,0.1,3.8,0.4,5.6
		L163.7,299.5z M163.1,287.5c-4.7-0.1-10.1,0.7-10.1,5.3c-0.2,2.1,1.4,3.9,3.5,4.1c0.2,0,0.4,0,0.6,0c2.6,0.1,4.9-1.5,5.7-3.9
		c0.2-0.4,0.2-0.9,0.2-1.4L163.1,287.5z M165.2,266l-6,6.9h-3.1l4.3-6.9H165.2z"/>
	<path class="st1" d="M163.7,299.5l-0.4-3h-0.1c-1.7,2.3-4.4,3.6-7.3,3.5c-4.8,0-7.3-3.3-7.3-6.7c0-5.7,5.1-8.8,14.3-8.7v-0.5
		c0-1.9-0.5-5.4-5.4-5.4c-2.2,0-4.3,0.6-6.2,1.7l-1-2.8c2.4-1.4,5.1-2.1,7.8-2.1c7.3,0,9,4.9,9,9.6v8.8c0,1.9,0.1,3.8,0.4,5.6
		L163.7,299.5z M163.1,287.5c-4.7-0.1-10.1,0.7-10.1,5.3c-0.2,2.1,1.4,3.9,3.5,4.1c0.2,0,0.4,0,0.6,0c2.6,0.1,4.9-1.5,5.7-3.9
		c0.2-0.4,0.2-0.9,0.2-1.4L163.1,287.5z M165.2,266l-6,6.9h-3.1l4.3-6.9H165.2z"/>
	<path class="st1" d="M173.6,295.2c1.7,1.1,3.7,1.6,5.7,1.7c3.1,0,4.6-1.5,4.6-3.5s-1.2-3.1-4.4-4.3c-4.3-1.5-6.3-3.8-6.3-6.6
		c0-3.8,3.1-6.9,8.2-6.9c2,0,4,0.5,5.8,1.5l-1.1,3.1c-1.5-0.9-3.1-1.4-4.9-1.4c-2.6,0-4,1.5-4,3.2c0,1.9,1.4,2.8,4.5,4
		c4.1,1.5,6.2,3.6,6.2,7.1c0,4.1-3.2,7-8.9,7c-2.3,0-4.6-0.5-6.7-1.6L173.6,295.2z"/>
	<path class="st1" d="M173.6,295.2c1.7,1.1,3.7,1.6,5.7,1.7c3.1,0,4.6-1.5,4.6-3.5s-1.2-3.1-4.4-4.3c-4.3-1.5-6.3-3.8-6.3-6.6
		c0-3.8,3.1-6.9,8.2-6.9c2,0,4,0.5,5.8,1.5l-1.1,3.1c-1.5-0.9-3.1-1.4-4.9-1.4c-2.6,0-4,1.5-4,3.2c0,1.9,1.4,2.8,4.5,4
		c4.1,1.5,6.2,3.6,6.2,7.1c0,4.1-3.2,7-8.9,7c-2.3,0-4.6-0.5-6.7-1.6L173.6,295.2z"/>
	<path class="st1" d="M220.2,295.9h-0.1c-1.6,2.7-4.6,4.3-7.8,4.2c-5.5,0-10.1-4.8-10.1-11.9c0-8.8,5.7-12.6,10.8-12.6
		c3-0.2,5.9,1.4,7.3,4.1h0.1l0.1-3.5h4.1c-0.1,2-0.1,4-0.1,6.4v26.6h-4.3L220.2,295.9z M220.2,285.6c0-0.6-0.1-1.2-0.2-1.8
		c-0.7-2.9-3.2-4.9-6.2-4.8c-4.5,0-7.2,3.7-7.2,9c0,4.6,2.3,8.7,7,8.7c2.9,0,5.4-1.9,6.2-4.6c0.2-0.6,0.3-1.3,0.4-2L220.2,285.6z"/>
	<path class="st1" d="M220.2,295.9h-0.1c-1.6,2.7-4.6,4.3-7.8,4.2c-5.5,0-10.1-4.8-10.1-11.9c0-8.8,5.7-12.6,10.8-12.6
		c3-0.2,5.9,1.4,7.3,4.1h0.1l0.1-3.5h4.1c-0.1,2-0.1,4-0.1,6.4v26.6h-4.3L220.2,295.9z M220.2,285.6c0-0.6-0.1-1.2-0.2-1.8
		c-0.7-2.9-3.2-4.9-6.2-4.8c-4.5,0-7.2,3.7-7.2,9c0,4.6,2.3,8.7,7,8.7c2.9,0,5.4-1.9,6.2-4.6c0.2-0.6,0.3-1.3,0.4-2L220.2,285.6z"/>
	<path class="st1" d="M251.5,293.1c0,2.4,0,4.5,0.2,6.4h-3.8l-0.2-3.8h-0.1c-1.7,2.7-4.6,4.4-7.9,4.4c-3.7,0-8.2-2-8.2-10.3v-13.7
		h4.3v13c0,4.5,1.4,7.5,5.3,7.5c3.3,0,6-2.6,6.1-5.9c0,0,0-0.1,0-0.1v-14.4h4.3L251.5,293.1z"/>
	<path class="st1" d="M251.5,293.1c0,2.4,0,4.5,0.2,6.4h-3.8l-0.2-3.8h-0.1c-1.7,2.7-4.6,4.4-7.9,4.4c-3.7,0-8.2-2-8.2-10.3v-13.7
		h4.3v13c0,4.5,1.4,7.5,5.3,7.5c3.3,0,6-2.6,6.1-5.9c0,0,0-0.1,0-0.1v-14.4h4.3L251.5,293.1z"/>
	<path class="st1" d="M261.1,288.6c0.1,5.8,3.8,8.1,8.1,8.1c2.3,0.1,4.5-0.3,6.6-1.2l0.7,3c-2.5,1-5.2,1.5-7.9,1.5
		c-7.3,0-11.7-4.8-11.7-11.8s4.2-12.6,11.1-12.6c7.8,0,9.8,6.7,9.8,11c0,0.7-0.1,1.3-0.1,2L261.1,288.6z M273.8,285.6
		c0-2.7-1.1-6.9-6-6.9c-4.4,0-6.3,4-6.6,6.9H273.8z"/>
	<path class="st1" d="M261.1,288.6c0.1,5.8,3.8,8.1,8.1,8.1c2.3,0.1,4.5-0.3,6.6-1.2l0.7,3c-2.5,1-5.2,1.5-7.9,1.5
		c-7.3,0-11.7-4.8-11.7-11.8s4.2-12.6,11.1-12.6c7.8,0,9.8,6.7,9.8,11c0,0.7-0.1,1.3-0.1,2L261.1,288.6z M273.8,285.6
		c0-2.7-1.1-6.9-6-6.9c-4.4,0-6.3,4-6.6,6.9H273.8z"/>
	<path class="st1" d="M293.7,283.4c0-2.8,0-5.1-0.2-7.3h3.8l0.1,4.6h0.2c0.9-3,3.5-5,6.6-5.1c0.4,0,0.8,0,1.2,0.1v4
		c-0.5-0.1-1-0.2-1.5-0.1c-3,0-5.2,2.3-5.8,5.5c-0.1,0.7-0.2,1.3-0.2,2v12.5h-4.3V283.4z"/>
	<path class="st1" d="M293.7,283.4c0-2.8,0-5.1-0.2-7.3h3.8l0.1,4.6h0.2c0.9-3,3.5-5,6.6-5.1c0.4,0,0.8,0,1.2,0.1v4
		c-0.5-0.1-1-0.2-1.5-0.1c-3,0-5.2,2.3-5.8,5.5c-0.1,0.7-0.2,1.3-0.2,2v12.5h-4.3V283.4z"/>
	<path class="st1" d="M311.7,288.6c0.1,5.8,3.8,8.1,8.1,8.1c2.3,0.1,4.5-0.3,6.6-1.2l0.7,3c-2.5,1-5.2,1.5-7.9,1.5
		c-7.3,0-11.7-4.8-11.7-11.8s4.2-12.6,11.1-12.6c7.8,0,9.8,6.7,9.8,11c0,0.7-0.1,1.3-0.1,2L311.7,288.6z M324.3,285.6
		c0-2.7-1.1-6.9-6-6.9c-4.4,0-6.3,4-6.6,6.9H324.3z"/>
	<path class="st1" d="M311.7,288.6c0.1,5.8,3.8,8.1,8.1,8.1c2.3,0.1,4.5-0.3,6.6-1.2l0.7,3c-2.5,1-5.2,1.5-7.9,1.5
		c-7.3,0-11.7-4.8-11.7-11.8s4.2-12.6,11.1-12.6c7.8,0,9.8,6.7,9.8,11c0,0.7-0.1,1.3-0.1,2L311.7,288.6z M324.3,285.6
		c0-2.7-1.1-6.9-6-6.9c-4.4,0-6.3,4-6.6,6.9H324.3z"/>
	<path class="st1" d="M350.8,298.6c-2.1,0.9-4.4,1.4-6.8,1.4c-7.2,0-11.8-4.8-11.8-12s5-12.4,12.8-12.4c2.1,0,4.1,0.4,6,1.2l-1,3.3
		c-1.5-0.8-3.3-1.2-5-1.1c-5.5,0-8.4,4-8.4,8.9c0,5.4,3.5,8.8,8.2,8.8c1.8,0,3.6-0.4,5.3-1.2L350.8,298.6z"/>
	<path class="st1" d="M350.8,298.6c-2.1,0.9-4.4,1.4-6.8,1.4c-7.2,0-11.8-4.8-11.8-12s5-12.4,12.8-12.4c2.1,0,4.1,0.4,6,1.2l-1,3.3
		c-1.5-0.8-3.3-1.2-5-1.1c-5.5,0-8.4,4-8.4,8.9c0,5.4,3.5,8.8,8.2,8.8c1.8,0,3.6-0.4,5.3-1.2L350.8,298.6z"/>
	<path class="st1" d="M375.7,293.1c0,2.4,0,4.5,0.2,6.4h-3.8l-0.2-3.8h-0.1c-1.7,2.7-4.6,4.4-7.9,4.4c-3.7,0-8.2-2-8.2-10.3v-13.7
		h4.3v13c0,4.5,1.4,7.5,5.3,7.5c3.3,0,6-2.6,6.1-5.9c0,0,0-0.1,0-0.1v-14.4h4.3L375.7,293.1z"/>
	<path class="st1" d="M375.7,293.1c0,2.4,0,4.5,0.2,6.4h-3.8l-0.2-3.8h-0.1c-1.7,2.7-4.6,4.4-7.9,4.4c-3.7,0-8.2-2-8.2-10.3v-13.7
		h4.3v13c0,4.5,1.4,7.5,5.3,7.5c3.3,0,6-2.6,6.1-5.9c0,0,0-0.1,0-0.1v-14.4h4.3L375.7,293.1z"/>
	<path class="st1" d="M385.3,288.6c0.1,5.8,3.8,8.1,8.1,8.1c2.3,0.1,4.5-0.3,6.6-1.2l0.7,3c-2.5,1-5.2,1.5-7.9,1.5
		c-7.3,0-11.7-4.8-11.7-11.8s4.2-12.6,11.1-12.6c7.8,0,9.8,6.7,9.8,11c0,0.7-0.1,1.3-0.1,2L385.3,288.6z M397.9,285.6
		c0-2.7-1.1-6.9-6-6.9c-4.4,0-6.3,4-6.6,6.9H397.9z"/>
	<path class="st1" d="M385.3,288.6c0.1,5.8,3.8,8.1,8.1,8.1c2.3,0.1,4.5-0.3,6.6-1.2l0.7,3c-2.5,1-5.2,1.5-7.9,1.5
		c-7.3,0-11.7-4.8-11.7-11.8s4.2-12.6,11.1-12.6c7.8,0,9.8,6.7,9.8,11c0,0.7-0.1,1.3-0.1,2L385.3,288.6z M397.9,285.6
		c0-2.7-1.1-6.9-6-6.9c-4.4,0-6.3,4-6.6,6.9H397.9z"/>
	<path class="st1" d="M407.5,283.4c0-2.8,0-5.1-0.2-7.3h3.7l0.1,4.6h0.2c0.9-3,3.5-5,6.6-5.1c0.4,0,0.8,0,1.2,0.1v4
		c-0.5-0.1-1-0.2-1.5-0.1c-3,0-5.2,2.3-5.8,5.5c-0.1,0.7-0.2,1.3-0.2,2v12.5h-4.3L407.5,283.4z"/>
	<path class="st1" d="M407.5,283.4c0-2.8,0-5.1-0.2-7.3h3.7l0.1,4.6h0.2c0.9-3,3.5-5,6.6-5.1c0.4,0,0.8,0,1.2,0.1v4
		c-0.5-0.1-1-0.2-1.5-0.1c-3,0-5.2,2.3-5.8,5.5c-0.1,0.7-0.2,1.3-0.2,2v12.5h-4.3L407.5,283.4z"/>
	<path class="st1" d="M443.5,265.2v28.3c0,2.1,0,4.5,0.2,6h-3.9l-0.2-4.1h-0.1c-1.6,3-4.7,4.7-8.1,4.6c-5.7,0-10.2-4.8-10.2-11.9
		c0-7.8,4.9-12.6,10.6-12.6c3.6,0,6.1,1.7,7.2,3.6h0.1v-14L443.5,265.2z M439.2,285.6c0-0.6-0.1-1.2-0.2-1.8c-0.7-2.9-3.3-5-6.2-4.9
		c-4.5,0-7.1,3.9-7.1,9c0,4.7,2.4,8.7,7,8.7c3,0,5.7-2.1,6.3-5.1c0.1-0.6,0.2-1.2,0.2-1.8L439.2,285.6z"/>
	<path class="st1" d="M443.5,265.2v28.3c0,2.1,0,4.5,0.2,6h-3.9l-0.2-4.1h-0.1c-1.6,3-4.7,4.7-8.1,4.6c-5.7,0-10.2-4.8-10.2-11.9
		c0-7.8,4.9-12.6,10.6-12.6c3.6,0,6.1,1.7,7.2,3.6h0.1v-14L443.5,265.2z M439.2,285.6c0-0.6-0.1-1.2-0.2-1.8c-0.7-2.9-3.3-5-6.2-4.9
		c-4.5,0-7.1,3.9-7.1,9c0,4.7,2.4,8.7,7,8.7c3,0,5.7-2.1,6.3-5.1c0.1-0.6,0.2-1.2,0.2-1.8L439.2,285.6z"/>
	<path class="st1" d="M472.2,287.6c0,8.7-6.1,12.4-11.8,12.4c-6.4,0-11.4-4.6-11.4-12c0-7.8,5.2-12.4,11.8-12.4
		C467.6,275.6,472.2,280.4,472.2,287.6 M453.4,287.8c0,5.1,3,9,7.2,9s7.2-3.8,7.2-9.1c0-4-2-9-7.1-9S453.4,283.3,453.4,287.8"/>
	<path class="st1" d="M472.2,287.6c0,8.7-6.1,12.4-11.8,12.4c-6.4,0-11.4-4.6-11.4-12c0-7.8,5.2-12.4,11.8-12.4
		C467.6,275.6,472.2,280.5,472.2,287.6z M453.4,287.8c0,5.1,3,9,7.2,9s7.2-3.8,7.2-9.1c0-4-2-9-7.1-9S453.4,283.4,453.4,287.8
		L453.4,287.8z"/>
	<path class="st1" d="M477,295.2c1.7,1.1,3.7,1.6,5.7,1.7c3.1,0,4.6-1.5,4.6-3.5s-1.2-3.1-4.4-4.3c-4.3-1.5-6.3-3.8-6.3-6.6
		c0-3.8,3.1-6.9,8.2-6.9c2,0,4,0.5,5.8,1.4l-1.1,3.1c-1.5-0.9-3.1-1.4-4.9-1.4c-2.5,0-4,1.5-4,3.2c0,1.9,1.4,2.8,4.5,4
		c4.1,1.5,6.2,3.6,6.2,7.1c0,4.1-3.2,7-8.9,7c-2.3,0-4.6-0.5-6.7-1.6L477,295.2z"/>
	<path class="st1" d="M477,295.2c1.7,1.1,3.7,1.6,5.7,1.7c3.1,0,4.6-1.5,4.6-3.5s-1.2-3.1-4.4-4.3c-4.3-1.5-6.3-3.8-6.3-6.6
		c0-3.8,3.1-6.9,8.2-6.9c2,0,4,0.5,5.8,1.4l-1.1,3.1c-1.5-0.9-3.1-1.4-4.9-1.4c-2.5,0-4,1.5-4,3.2c0,1.9,1.4,2.8,4.5,4
		c4.1,1.5,6.2,3.6,6.2,7.1c0,4.1-3.2,7-8.9,7c-2.3,0-4.6-0.5-6.7-1.6L477,295.2z"/>
	<path class="st1" d="M496.2,297c-0.1-1.6,1.1-2.9,2.7-3c0.1,0,0.1,0,0.2,0c1.7,0,3,1.3,3,3s-1.3,3-3,3c-1.6,0-2.9-1.2-2.9-2.8
		C496.2,297.1,496.2,297.1,496.2,297 M497.5,290.1l-0.7-23.2h4.7l-0.7,23.2H497.5z"/>
	<path class="st1" d="M496.2,297c-0.1-1.6,1.1-2.9,2.7-3c0.1,0,0.1,0,0.2,0c1.7,0,3,1.3,3,3s-1.3,3-3,3c-1.6,0-2.9-1.2-2.9-2.8
		C496.2,297.1,496.2,297.1,496.2,297z M497.5,290.1l-0.7-23.2h4.7l-0.7,23.2H497.5z"/>
</g>
<path class="st2" d="M30,220c-0.9,4.4-1.3,8.8-1.4,13.3c0,3.7,0.7,6.5,2,8.3c-5.8,0-9.8-0.6-12.1-1.8c-5-2.5-7.4-7.1-7.4-13.8
	c0-10.1,4.2-24.2,12.7-42.5c2.7-5.7,5.6-11.3,8.8-16.9c-3.8,0.1-7.6,0.8-11.2,2.1c-2.7,0.9-4.8,2.9-5.9,5.5c0.4,0,0.9,0.5,1.3,1.5
	c0.5,1.1,0.7,2.4,0.6,3.6c-0.1,1.6-1,3-2.4,3.7c-1.5,1-3.2,1.5-5,1.5c-3.2,0-5.6-0.8-7.3-2.2c-1.7-1.5-2.7-3.8-2.6-6.1
	c0-5,2.8-9.3,8.5-12.9s12.8-5.3,21.3-5.3c2,0,4.5,0.1,7.6,0.4c7.9-12.4,16.3-22.7,25.2-30.9s17.4-12.2,25.7-12.2
	c4.9,0,8.8,0.7,11.6,2.1L76.9,224.9H55.9l11.2-53c-6.2-2.9-12.8-4.7-19.6-5.3C38.8,186,32.9,203.8,30,220 M50.6,160.4
	c6.1,1.1,12.1,2.8,17.8,5.1l8.5-39.8C68.6,130.2,59.8,141.8,50.6,160.4"/>
<path class="st2" d="M144.4,198.8c-6.3,18-16.8,27-31.5,27c-3.9,0-7.6-1.5-10.3-4.1c-3-2.8-4.5-7.2-4.5-13.4
	c0.1-3.2,0.4-6.4,1.1-9.6l8.8-41h-4.8l1.2-5.9h4.8l4.4-20.2l21.6-2.9l-5,23.1h8.8l-1.1,5.9h-8.8l-9.3,43.8c-0.4,1.7-0.6,3.5-0.6,5.2
	c0,3.3,2,4.9,5.9,4.9c3.1-0.1,6-1.4,8-3.7c2.5-2.6,4.3-5.7,5.2-9.2L144.4,198.8z"/>
<path class="st2" d="M231.6,225.8c-12.5,0-18.7-5.5-18.7-16.5c0-4,1.1-10.4,3.3-19.1c2.2-8.8,3.3-14.8,3.3-18.1c0-5-1.8-7.5-5.3-7.5
	c-3.5,0-6.7,2.8-9.4,8.4c-0.8,1.6-1.5,3.4-2,5.1l-9.9,46.9h-21.1l10.7-50.5c0.3-1.2,0.4-2.4,0.4-3.6c0-4.3-1.4-6.4-4.3-6.4
	s-5.3,1.3-7.4,4c-2.1,2.9-3.7,6.1-4.6,9.6l-9.9,46.9h-21l15.5-73.1h21.1l-1.6,7.6c4.4-5.3,10.9-8.3,17.8-8.3c8.6,0,13.6,4.2,15,12.6
	c5.4-8.3,12.2-12.4,20.3-12.4c4.2-0.1,8.3,1.2,11.6,3.9c3.1,2.6,4.6,6.4,4.6,11.3c-0.1,5.8-0.9,11.5-2.4,17.1l-3.4,14.3
	c-0.7,2.5-1.1,5-1.1,7.6c0,4.2,1.8,6.3,5.4,6.3c2.9,0.2,5.7-1,7.6-3.1c2.2-3,4-6.3,5.2-9.8h6.1c-3.6,10.8-8.2,18.3-13.7,22.6
	C240.2,224.2,236,225.7,231.6,225.8"/>
<path class="st2" d="M333.3,225.8c-13.6,0-20.3-6.5-20.3-19.4c-0.1-3.6,1-7.2,3.2-10c2.1-2.6,4.6-3.9,7.4-3.9c5,0,7.6,2,7.6,6.1
	c0,1.8-0.7,3.5-2.1,4.7c-1.3,1.3-3.1,2-5,2c-1.9,0-3.2-0.6-3.9-1.9c0,7.3,2.8,10.9,8.4,10.9c3.2,0,5.6-1,7.1-2.9
	c1.5-1.9,2.2-5.5,2.2-10.7c-0.1-3-0.3-6-0.7-9l-0.9-8.5l-1.1-13.2c-0.2-2.7-0.4-5.7-0.6-9.1c-6.9,10.7-15.1,17.4-24.5,20.2
	c-1,13.4-4.7,24.1-11.2,32.2c-6.5,8.1-14.3,12.2-23.5,12.2c-11.2,0-18.5-4.1-21.7-12.4c-1.2-3.1-1.8-6.3-1.7-9.6
	c0-7.5,1.2-14.9,3.6-22c2.9-8.8,6.9-15.9,12.3-21.2c6.2-6.3,14.8-9.8,23.7-9.7c12.2,0,18.5,7.6,18.7,22.9
	c7.2-0.4,15.1-8.1,23.8-23.3l21.6-2.9l0.6,12.8c0.2,3.8,0.4,7.2,0.6,10.1l0.6,8c0.1,2.4,0.3,4.5,0.4,6.3l0.7,8.9
	c0.2,2.3,0.3,5.2,0.3,8.9c0,3.5-0.8,7-2.4,10.2C352.3,221.4,344.5,225.8,333.3,225.8 M297.7,182.1c-2.3-0.9-3.5-3.1-3.5-6.8
	s1.4-6.1,4.1-7.4c-0.2-3.1-0.8-5.3-1.6-6.6c-0.8-1.3-2.3-1.9-4.6-1.9c-2.3,0-4.5,1.5-6.8,4.4c-4.5,5.8-7.9,13.9-10.1,24.2
	c-0.9,3.8-1.4,7.7-1.5,11.6c0,5.3,0.5,8.7,1.6,10.3c1.2,1.6,3.1,2.5,5.1,2.4c4.2,0,7.8-2.9,10.9-8.7S296.6,190.6,297.7,182.1"/>
<path class="st2" d="M417.7,137c0.2-1.4,0.3-2.9,0.3-4.4c0-1.3-0.6-2.6-1.7-3.3c-0.9-0.8-2.1-1.2-3.3-1.2c-2.5,0-4.8,1-6.5,2.8
	c-2,1.8-3.4,4.9-4.2,9.2l-2.5,11.6h10.7l-1.1,5.9h-10.8l-16.8,79c-3.3,16.6-12,24.8-26.1,24.8c-4.4,0-8.7-1.6-12-4.5
	c-3.5-3-5.2-6.4-5.2-10.4s0.7-7.1,2-9.4c1.4-2.4,3.2-4.4,5.4-6c3.3-2.3,9.2-4.8,17.7-7.4l17.7-83.5c3.5-16.6,12.3-24.8,26.6-24.8
	c4.4,0,8.7,1.5,12,4.4c3.4,2.8,5.3,7,5.2,11.3c0,2-0.1,4-0.4,6H417.7z M362.4,228.4c-5.2,1.8-8.8,3.5-10.7,5.1
	c-3.6,3-5.4,6.3-5.4,10c0,1.9,1.2,3.4,3.5,4.4c0.9,0.3,1.9,0.5,2.9,0.4c1.2,0,2.6-0.8,4.1-2.5c1.5-1.7,2.7-4.6,3.6-8.9L362.4,228.4z
	"/>
<path class="st2" d="M471.8,198.5c-10.9,18-24.3,27-40.2,27c-6.9,0-12.5-1.8-16.6-5.4c-4.1-3.6-6.2-9.5-6.2-17.8
	c0-11.3,3-22.4,8.5-32.3c4.3-7.9,10.2-13.6,17.7-17c3.7-1.8,7.8-2.7,12-2.7c6.8,0,11.3,1.3,13.8,3.8c2.4,2.5,3.6,5.9,3.6,10.2
	c0,8.3-3.4,15.4-10.1,21.2c-6.5,5.8-14.8,9.1-23.5,9.6c-0.2,2.8-0.4,4.7-0.4,5.9c0,5,0.9,8.3,2.6,9.9c1.8,1.6,4.2,2.4,7.4,2.4
	c5.6,0,10.3-1.2,14.2-3.8c4.5-3.1,8.6-6.8,12.2-11L471.8,198.5z M453.1,163.4c0-3.5-1.2-5.3-3.6-5.3c-3.6,0.1-7,3.2-10.4,9.5
	c-3.4,6.5-5.9,13.4-7.2,20.7c5.6-0.4,10.6-3,14.8-7.9C450.9,175.7,453.1,169.6,453.1,163.4"/>
<path class="st2" d="M530.8,198.5c-10.9,18-24.3,27-40.2,27c-6.9,0-12.5-1.8-16.6-5.4c-4.1-3.6-6.2-9.5-6.2-17.8
	c0-11.3,3-22.4,8.5-32.3c4.3-7.9,10.2-13.6,17.7-17c3.7-1.8,7.8-2.7,12-2.7c6.8,0,11.3,1.3,13.8,3.8c2.4,2.5,3.6,5.9,3.6,10.2
	c0,8.3-3.4,15.4-10.1,21.2c-6.5,5.8-14.8,9.1-23.5,9.6c-0.2,2.8-0.4,4.7-0.4,5.9c0,5,0.9,8.3,2.6,9.9c1.8,1.6,4.2,2.4,7.4,2.4
	c5.6,0,10.3-1.2,14.2-3.8c4.5-3.1,8.6-6.8,12.2-11L530.8,198.5z M512.1,163.4c0-3.5-1.2-5.3-3.6-5.3c-3.6,0.1-7,3.2-10.4,9.5
	c-3.4,6.5-5.9,13.5-7.2,20.7c5.6-0.4,10.6-3,14.8-7.9C509.9,175.7,512.2,169.6,512.1,163.4"/>
<path class="st2" d="M559,210.2c-0.4,5-2.1,8.7-5.1,11.4c-3.1,2.7-7,4.1-11.1,4c-4.1,0.1-8-1.4-11-4.2c-3-2.8-4.5-7.3-4.5-13.7
	c0.1-3.2,0.4-6.4,1.1-9.5L544,125l21.6-2.9L548.9,201c-0.4,1.5-0.6,3.1-0.6,4.7c0,1.3,0.5,2.7,1.3,3.7c1,1.2,2.6,1.8,4.2,1.7
	C555.6,211.2,557.3,210.8,559,210.2"/>
<path class="st2" d="M342.4,224.6c0,0,19.7-4.2,24.4-16.8c-4.5,3.1-9,7.1-10.2,4.1S342.4,224.6,342.4,224.6z"/>
</svg>
