<?xml version="1.0" encoding="utf-8"?>
<!-- Generator: Adobe Illustrator 27.2.0, SVG Export Plug-In . SVG Version: 6.00 Build 0)  -->
<svg version="1.1" id="Layer_1" xmlns="http://www.w3.org/2000/svg" xmlns:xlink="http://www.w3.org/1999/xlink" x="0px" y="0px"
	 viewBox="0 0 456.4 74.9" style="enable-background:new 0 0 456.4 74.9;" xml:space="preserve">
<style type="text/css">
	.st00{fill:#fff;}
	.st11{fill:#fff;}
</style>
<g>
	<g>
		<g>
			<path class="st00" d="M151.2,49.5h-7.5l-3.9-9.1h-15.2l-3.8,9.1h-7.4l15.1-33.6h7.5L151.2,49.5z M132.2,22.3L132.2,22.3l-5.6,13.1
				h11.2L132.2,22.3z"/>
			<path class="st00" d="M166.1,49.5h-5.8l-11.6-24h7.4l7.1,15.8h0.1l7.2-15.8h7.2L166.1,49.5z"/>
			<path class="st00" d="M191.3,24.9c8.1,0,11.9,4.8,11.9,12.2v2.1h-18.6c0.5,3.3,2.9,5.4,7.8,5.4c4.8,0,7.5-1.9,8.5-2.5l2.1,4.6
				c-1.6,1.2-5.2,3.5-11.8,3.5c-8.3,0-13.2-4.6-13.2-12.7C178,29.4,184,24.9,191.3,24.9z M184.5,35h12.4c-0.1-2.8-2.2-4.9-5.7-4.9
				S185,31.9,184.5,35z"/>
			<path class="st00" d="M214.2,28.4L214.2,28.4c1.3-1.2,4-3.5,9.2-3.5c6.1,0,10.5,3.3,10.5,10.8v13.8h-6.7V37.2
				c0-4.8-2.3-6.6-6.1-6.6c-3.3,0-5.5,1.9-6.5,2.9v16.1h-6.7v-24h6.3V28.4z"/>
			<path class="st00" d="M265.7,49.5h-6.4v-2.9h-0.1c-1.1,1.3-3.8,3.5-9.1,3.5c-6.2,0-10.5-3.3-10.5-10.9V25.5h6.7v12.1
				c0,5,2.1,6.7,6.2,6.7c3.3,0,5.5-1.8,6.5-2.8v-16h6.7V49.5z"/>
			<path class="st00" d="M283.3,24.9c8.1,0,11.9,4.8,11.9,12.2v2.1h-18.6c0.5,3.3,2.9,5.4,7.8,5.4c4.8,0,7.5-1.9,8.5-2.5l2.1,4.6
				c-1.6,1.2-5.2,3.5-11.8,3.5c-8.3,0-13.2-4.6-13.2-12.7C270,29.4,276,24.9,283.3,24.9z M276.6,35H289c-0.1-2.8-2.2-4.9-5.7-4.9
				C279.7,30.1,277.1,31.9,276.6,35z"/>
		</g>
		<g>
			<path class="st00" d="M321.5,43.5h19.9v6h-26.8V15.9h6.9V43.5z"/>
			<path class="st00" d="M351.6,49.5H345v-24h6.7V49.5z"/>
			<path class="st00" d="M371.7,49.5H366l-11.6-24h7.4l7.1,15.8h0.1l7.2-15.8h7.2L371.7,49.5z"/>
			<path class="st00" d="M392.7,49.5h-6.7v-24h6.7V49.5z"/>
			<path class="st00" d="M405.2,28.4L405.2,28.4c1.3-1.2,4-3.5,9.2-3.5c6.1,0,10.5,3.3,10.5,10.8v13.8h-6.7V37.2
				c0-4.8-2.3-6.6-6.1-6.6c-3.3,0-5.5,1.9-6.5,2.9v16.1h-6.7v-24h6.3V28.4z"/>
			<path class="st00" d="M456.4,45.5c0,9-4.5,14.4-15.5,14.4c-6.5,0-9.9-2.5-11.4-3.7l2.3-5.3c1.1,1,3.7,3.5,9.2,3.5
				c6.6,0,9-2.8,9-7.5v-0.3h-0.1c-0.8,0.9-3,3.2-8.6,3.2c-6.8,0-12-4.1-12-12.4c0-8.1,5.5-12.4,12.2-12.4c5.5,0,7.5,2.4,8.5,3.5h0.1
				v-2.9h6.3V45.5z M443.1,43.9c4,0,5.8-1.9,6.7-2.9v-7.6c-0.9-1.1-2.6-3-6.5-3c-4.1,0-7.2,2.3-7.2,6.7
				C436.1,41.6,438.9,43.9,443.1,43.9z"/>
			<ellipse class="st00" cx="348.2" cy="19.2" rx="4.5" ry="4.1"/>
			<ellipse class="st00" cx="389.3" cy="19.2" rx="4.5" ry="4.1"/>
		</g>
	</g>
	<polygon class="st11" points="101,74.9 66,0 35.1,0 0,74.9 25.4,74.9 50.5,21.2 59.9,41.1 50.4,61.2 69.3,61.2 75.7,74.9 	"/>
</g>
</svg>
