<svg enable-background="new 0 0 475.5 482.8" viewBox="0 0 475.5 482.8" xmlns="http://www.w3.org/2000/svg" xmlns:xlink="http://www.w3.org/1999/xlink"><linearGradient id="a"><stop offset="0"/><stop offset=".08983216" stop-color="#282828"/><stop offset=".2566" stop-color="#545453"/><stop offset=".4819" stop-color="#898988"/><stop offset=".7539" stop-color="#c8c7c7"/><stop offset="1" stop-color="#fff"/></linearGradient><linearGradient id="b" gradientUnits="userSpaceOnUse" x1="285.8674" x2="285.8674" xlink:href="#a" y1="332.006" y2="224.5857"/><linearGradient id="c" gradientUnits="userSpaceOnUse" x1="296.4867" x2="296.4867" xlink:href="#a" y1="452.2175" y2="-102.712"/><linearGradient id="d" gradientUnits="userSpaceOnUse" x1="193.089" x2="193.089" y1="-30377.4336" y2="31455.582"><stop offset="0"/><stop offset=".401" stop-color="#070707"/><stop offset=".5329" stop-color="#1d1d1c"/><stop offset=".625" stop-color="#363635"/><stop offset=".6986" stop-color="#484847"/><stop offset=".761" stop-color="#5e5e5d"/><stop offset=".816" stop-color="#777"/><stop offset=".8654" stop-color="#949493"/><stop offset=".9106" stop-color="#b3b3b2"/><stop offset=".9524" stop-color="#d4d4d4"/><stop offset=".9893" stop-color="#f5f5f5"/><stop offset="1" stop-color="#fff"/></linearGradient><g clip-rule="evenodd" fill-rule="evenodd"><path d="m37.4 329.2h404.9c23 0 37.4 18.8 32.1 41.8l-18.6 80.5c-4 17.2-21.4 31.4-38.6 31.4h-401.6c-10.8 0-17.6-8.8-15.1-19.6l29.7-128.3c.7-3.2 4-5.8 7.2-5.8z"/><path d="m353.7 279.6-13.7 35.2-1.2 7.7-5.5 6.7h-173.6l-10.3-11.3-58.4-135-.7-1.5v-1.6l1.8-57.6v-1.4l.5-1.2 19.5-46.5 1-2.3 2.1-1.2 69.7-39 37.4-29.1 1.9-1.4h2.5l20-.1h2.4l1.9 1.5 28.9 22.3 15.3 4.1 1.9.5 1.4 1.4s7 7.2 14.9 12c8.2 4.9 21.7 10.1 21.8 10.1l.9.3.7.5 40.2 28.3 2.3 1.6.5 2.8 17.1 90 .5 2.4-1.1 2.2-24.9 48.1-17.6 51.2z" fill="#ededed"/><path d="m326.9 329.2 20.4-52.2 17.7-51.6 25.2-48.6-17.1-90-40.2-28.2s-14.3-5.4-23-10.6c-8.7-5.3-16.3-13.2-16.3-13.2l-16.7-4.5-30.1-23.2-19.9.1-37.8 29.4-70.2 39.3-19.5 46.5-1.8 57.6 59.4 132.6 15.4 16.5h154.5z"/><path d="m292.8 262.4c4.3 0 7.4 2.1 8.9 5.4-1.2-.8-2.8-1.2-4.6-1.2-6.9 0-14.8 6.3-17.8 14.1s.2 14.1 7 14.1h.6c-2.4 1.1-4.8 1.7-7.1 1.7-8.3 0-12.1-7.6-8.5-17 3.6-9.5 13.3-17.1 21.5-17.1z" fill="url(#b)"/><path d="m244.6 20.3-.9 24.8-33.1 16.8s22.2-4.5 46.5 10.8 32.5 37.1 32.5 37.1l40.5-37.1s15.2 25 6.2 48.1c-1.7 4.3-3.6 8-5.7 11.2l28.5 82.6 23.4-42.3-18.3-77.9-33.9-25.3s-10.3-3.6-19.2-9.5c-8.9-5.8-8.5-5.8-9.3-6.5-.8-.6-3.5-3-8.7-7.2s-18.1-5.2-24.4-9c-6.4-3.7-24.1-16.6-24.1-16.6zm83.6 115 24.5 90.7-8.4 30.7-37.2 72.5h-36l5.4-18.2 43.8-17.7-6-40.8s.5-1.4 1.8-6.6 5.6-20.7 5.6-20.7v-15.5s10.4-7.1 5-18.8-7.6-12.5-11.5-19.2c-3.9-6.8-5-21.6-5-21.6s9.4-3.4 18-14.8zm-72.8-20 48.7 48.6 14.7 29.2-28.7 16.5s3.8 6.9 11.9 7.4c8.1.4 12.6-1.6 12.6-1.6v8.4l-14.6 2.4 13.1 10.6-5.6 16-7.2 6.9s-15.8-6.2-31.1 9.6-4 22.1-4 22.1l-18.1 17.5-2.1-46.1 39-24.3c-11-41.1-20.4-82.2-28.6-123.2z" fill="url(#c)"/><path d="m299.3 210.3 17.6-9.4s1.9 4.8-3.1 8.4-14.5 1-14.5 1z" fill="#fff"/><path d="m242.6 95 30 140.1-30.6 19.5-31.5-17.4 31.5 6.3 16.8-13.8z" fill="#fc0"/><path d="m147.9 79.9-2.4.2s-12.1 25.9-.2 45.2c11.8 19.4 26.1 25.7 26.1 25.7s-2.5 19.4-7.6 25.5c-5.2 6.1-10.6 16-10.2 23 .4 6.9 6.1 10.9 6.1 10.9l.5 17s6.3 16.8 6.5 25.5c.1 8.7-5.1 40.2-5.1 40.2l42.5 16.9s9.6 10.6 20.7 14.2 21.4 1.9 21.4 1.9-9.4 1.5-21.8-4.9c-12.5-6.4-16.7-12.3-16.7-12.3l-42.8-17 5.6-40.9-7.2-25.8-.2-16.2s-6.1-3.3-6.4-11.6c-.2-8.3 6.4-16.6 9-20.2s7.4-15 8.3-19.5.4-8.2.4-8.2-14.2-7.1-25.7-26.1c-11.8-19-.8-43.5-.8-43.5z" fill="url(#d)"/><path d="m40.6 336.1h402.6c16.9 0 27.5 13.8 23.6 30.8l-13 56.2c-3.3 14.4-17.8 26.1-32.2 26.1h-397.1c-7.9 0-12.9-6.5-11.1-14.4l21.9-94.3c.5-2.4 2.9-4.4 5.3-4.4z" fill="#fc0"/><path d="m60.4 461h-15.3l-.7 2.8h14.3l-1.1 4.3h-14.3l-.7 2.8h15.3l-1.1 4.3h-19.6l4.6-18.4h19.6zm58.7 8.3c-.4 1.7-1.3 3.1-2.8 4.2-1.4 1.1-3 1.7-4.7 1.7h-3.3l-.7 2.8h-4.3l.7-2.8h-3.3c-1.7 0-2.9-.6-3.8-1.7s-1.1-2.5-.7-4.2l1.7-6.8c.4-1.7 1.3-3.1 2.8-4.2 1.4-1.1 3-1.7 4.7-1.7h10.8c1.7 0 2.9.6 3.8 1.7s1.1 2.5.7 4.2zm-4.3 0 1.7-6.8c.3-1-.2-1.5-1.3-1.5h-10.8c-1.1 0-1.8.5-2.1 1.5l-1.7 6.8c-.3 1 .2 1.5 1.3 1.5h3.3l.7-2.8h4.3l-.7 2.8h3.3c1 .1 1.7-.5 2-1.5zm64.7.1c-.4 1.5-1.2 2.9-2.5 4s-2.6 1.7-4.2 1.7h-12.2c-1.5 0-2.7-.6-3.4-1.7s-.8-2.5-.4-4l3.2-12.7h4.3l-3.2 12.7c-.2.9 0 1.4.6 1.4h12.3c.6 0 1-.5 1.2-1.4l3.2-12.7h4.3zm40.8 5.7h-4.3l4.6-18.4h4.3zm64-12.1c-.4 1.6-1.2 3.1-2.4 4.2-1.3 1.3-2.8 2-4.4 2h-13.5l-1.5 6h-4.3l4.6-18.4h17.8c1.6 0 2.7.7 3.4 2 .6 1.1.7 2.5.3 4.2zm-4.3 0c.3-1.3.2-1.9-.4-1.9h-13.6l-1 3.8h13.5c.7-.1 1.2-.7 1.5-1.9zm63.4 6.3c-.4 1.7-1.3 3.1-2.8 4.2-1.4 1.1-3 1.7-4.7 1.7h-10.8c-1.7 0-2.9-.6-3.8-1.7s-1.1-2.5-.7-4.2l1.7-6.8c.4-1.7 1.3-3.1 2.8-4.2 1.4-1.1 3-1.7 4.7-1.7h10.8c1.7 0 2.9.6 3.8 1.7s1.1 2.5.7 4.2zm-4.3 0 1.7-6.8c.3-1-.2-1.5-1.3-1.5h-10.8c-1.1 0-1.8.5-2.1 1.5l-1.7 6.8c-.3 1 .2 1.5 1.3 1.5h10.8c1.1.1 1.8-.5 2.1-1.5zm64.1.2c-.4 1.5-1.2 2.9-2.4 4-1.3 1.1-2.7 1.7-4.2 1.7h-15.9l1.1-4.3h15.9c.6 0 1-.5 1.2-1.4s.1-1.4-.5-1.4h-11.5c-1.5 0-2.6-.6-3.4-1.7-.7-1.1-.8-2.4-.4-3.9s1.2-2.9 2.5-4 2.6-1.7 4.2-1.7h15.9l-1.1 4.3h-15.9c-.6 0-1 .5-1.2 1.4s0 1.4.6 1.4h11.5c1.5 0 2.6.6 3.4 1.7.4 1 .6 2.3.2 3.9z" fill="#fff" stroke="#000" stroke-miterlimit="22.9256" stroke-width=".216"/><path d="m39.9 337.3h393c2.9 0 6.2.7 9.3 1.1h-403.1c-.7 0-1.4.6-1.4 1.3 0 0 .2-1.4.7-1.9s.9-.5 1.5-.5z" fill="#fff"/><path d="m45.9 345.4h112.9c10.3 0 16.8 8.5 14.4 18.8l-3.2 13.7c-1.8 7.6-9.2 13.8-16.8 14 7.4.8 11.8 7.3 10 15.1l-2.8 12.2c-2.6 11.1-13.8 20.2-24.9 20.2h-111.4c7.3-31.3 14.6-62.6 21.8-94zm53.1 8.9c-1.3 0-2.7 1.1-3 2.4l-6.7 28.9c-.3 1.3.5 2.4 1.8 2.4h22c1.3 0 2.7-1.1 3-2.4l6.7-28.9c.3-1.3-.5-2.4-1.8-2.4zm-10 42.9c-1.3 0-2.7 1.1-3 2.4l-6.7 28.9c-.3 1.3.5 2.4 1.8 2.4h22c1.3 0 2.7-1.1 3-2.4l6.7-28.9c.3-1.3-.5-2.4-1.8-2.4z"/><path d="m117.6 385-.4 1.8c-.4 1.9-2.4 3.5-4.3 3.5h-22.9l1.6-.8h21.4c2 0 3.9-1.6 4.4-3.5zm-10.1 42.8-.4 1.8c-.4 1.9-2.4 3.5-4.3 3.5h-22.9l1.6-.8h21.3c2 0 3.9-1.6 4.4-3.5z" fill="#fff"/><path d="m188.1 345.4h112.9c10.3 0 16.8 8.5 14.4 18.8l-3.2 13.7c-1.8 7.6-9.2 13.8-16.8 14 7.4.8 11.8 7.3 10 15.1l-2.8 12.2c-2.6 11.1-13.8 20.2-24.9 20.2h-111.5c7.3-31.3 14.6-62.6 21.9-94zm53 8.9c-1.3 0-2.7 1.1-3 2.4l-6.7 28.9c-.3 1.3.5 2.4 1.8 2.4h22c1.3 0 2.7-1.1 3-2.4l6.7-28.9c.3-1.3-.5-2.4-1.8-2.4zm-10 42.9c-1.3 0-2.7 1.1-3 2.4l-6.7 28.9c-.3 1.3.5 2.4 1.8 2.4h22c1.3 0 2.7-1.1 3-2.4l6.7-28.9c.3-1.3-.5-2.4-1.8-2.4z"/><path d="m259.7 385-.4 1.8c-.4 1.9-2.4 3.5-4.3 3.5h-22.9l1.6-.8h21.3c2 0 3.9-1.6 4.4-3.5zm-10.1 42.8-.4 1.8c-.4 1.9-2.4 3.5-4.3 3.5h-22.9l1.6-.8h21.4c2 0 3.9-1.6 4.4-3.5z" fill="#fff"/><path d="m330.2 345.4h112.9c10.3 0 16.8 8.5 14.4 18.8l-3.2 13.7c-1.8 7.6-9.2 13.8-16.8 14 7.4.8 11.8 7.3 10 15.1l-2.8 12.2c-2.6 11.1-13.8 20.2-24.9 20.2h-111.5c7.3-31.3 14.6-62.6 21.9-94zm53.1 8.9c-1.3 0-2.7 1.1-3 2.4l-6.7 28.9c-.3 1.3.5 2.4 1.8 2.4h22c1.3 0 2.7-1.1 3-2.4l6.7-28.9c.3-1.3-.5-2.4-1.8-2.4zm-10 42.9c-1.3 0-2.7 1.1-3 2.4l-6.7 28.9c-.3 1.3.5 2.4 1.8 2.4h22c1.3 0 2.7-1.1 3-2.4l6.7-28.9c.3-1.3-.5-2.4-1.8-2.4z"/><g fill="#fff"><path d="m401.8 385-.4 1.8c-.4 1.9-2.4 3.5-4.3 3.5h-22.9l1.6-.8h21.3c2 0 3.9-1.6 4.4-3.5zm-10.1 42.8-.4 1.8c-.4 1.9-2.4 3.5-4.3 3.5h-22.9l1.6-.8h21.3c2 0 3.9-1.6 4.4-3.5z"/><path d="m46.9 346h101.8l8.2.7h-110.1z"/><path d="m189.5 346h101.8l8.2.7h-110.1z"/><path d="m332.1 346h101.8l8.2.7h-110.1z"/></g></g></svg>