<?xml version="1.0" encoding="utf-8"?>
<!-- Generator: Adobe Illustrator 19.0.0, SVG Export Plug-In . SVG Version: 6.00 Build 0)  -->
<svg version="1.1" id="Capa_1" xmlns="http://www.w3.org/2000/svg" xmlns:xlink="http://www.w3.org/1999/xlink" x="0px" y="0px"
	 viewBox="0 0 312 147.3" style="enable-background:new 0 0 312 147.3;" xml:space="preserve">
<style type="text/css">
	.st0{fill-rule:evenodd;clip-rule:evenodd;fill:#FFFFFF;}
	.st1{fill-rule:evenodd;clip-rule:evenodd;fill:#010101;}
	.st2{fill:#010101;}
	.st3{fill:none;}
</style>
<g>
	<defs>
		<rect id="SVGID_1_" x="23.4" y="9.5" width="265.6" height="128.3"/>
	</defs>
	<clipPath id="SVGID_2_">
		<use xlink:href="#SVGID_1_"  style="overflow:visible;"/>
	</clipPath>
</g>
<path class="st0" d="M37.8,34c79.2-19.8,158.6-19.6,237.8,0l4.6,1.1v77.4l-4.6,1.1c-79.3,19.2-158.6,19.3-237.8,0l-4.6-1.1V35.2
	L37.8,34z M37,30.5c79.7-19.9,159.9-19.7,239.6,0l7.3,1.8v83l-7.4,1.8c-79.7,19.3-159.8,19.4-239.5,0l-7.3-1.8v-83L37,30.5z"/>
<path class="st0" d="M39.3,39.8c77.7-19.4,156-19.5,234.9,0v68c-78.6,19.1-156.8,19.1-234.9,0V39.8z"/>
<path class="st1" d="M63.2,78.7h12.8c0.6,0,1,0.5,1,1v3.2c0,0.6-0.5,1-1,1H63.2c-0.6,0-1-0.5-1-1v-3.2
	C62.2,79.2,62.7,78.7,63.2,78.7L63.2,78.7z M63.2,64.4h12.8c0.6,0,1,0.5,1,1v3.2c0,0.6-0.5,1-1,1H63.2c-0.6,0-1-0.5-1-1v-3.2
	C62.2,64.9,62.7,64.4,63.2,64.4L63.2,64.4z M82.9,52.9H48.4v43.3h34.5c4.9-0.2,7.5-3.7,7.8-6.6c0.4-4.2,0.2-7.4,0.2-10.6
	c0-2.3-0.8-4.3-3.5-5.5c1.5-1.1,3.2-2.9,3.3-5.1c0.1-4.2,0-6.1-0.1-9.5C90.5,54.8,86.1,52.7,82.9,52.9L82.9,52.9z M97.8,52.7h14
	v43.3h-14V52.7z M128.8,52.7h29.1v11.8l-24,0H133c-0.6,0-1,0.4-1,0.8v2.6c0,0.5,0.5,0.8,1,0.8h0.9l0,0h18.4c4.6,0.5,7.8,2.5,7.8,7.2
	v12.4c-0.1,4.5-2.7,7.1-7.9,7.6h-33.6v-12l26-0.1l0,0h1.2c0.6,0,1-0.4,1-0.8v-2.6c0-0.5-0.5-0.8-1-0.8h-1.2l0,0h-14
	c-7.6-0.2-12.2-2.4-11.8-8.1V60.4C119.5,55.3,122.7,52.8,128.8,52.7L128.8,52.7z M244.9,72.4l-0.1-19.7h13.5v43.3h-13.4l-16.1-25.6
	v25.6h-13.5V52.7h16.9L244.9,72.4z M176.9,52.6h21.8c5.4,0,9.9,4.3,9.9,9.6v24.2c0,5.3-4.4,9.6-9.9,9.6h-21.8
	c-5.4,0-9.9-4.3-9.9-9.6V62.2C167,57,171.4,52.6,176.9,52.6L176.9,52.6z M181.9,64.3h11.9c0.5,0,0.9,0.5,0.9,1v17.9
	c0,0.6-0.4,1-0.9,1h-11.9c-0.6,0-1-0.5-1-1V65.3C180.9,64.8,181.3,64.3,181.9,64.3L181.9,64.3z"/>
<path class="st2" d="M270.7,98.9c1,1,1.5,2.2,1.5,3.7c0,1.5-0.5,2.7-1.5,3.7c-1,1-2.3,1.5-3.8,1.5c-1.5,0-2.8-0.5-3.8-1.5
	c-1-0.9-1.5-2.2-1.5-3.7c0-1.5,0.5-2.7,1.5-3.7c1-1,2.2-1.5,3.8-1.5C268.4,97.5,269.7,98,270.7,98.9L270.7,98.9z M269.6,99.8
	L269.6,99.8c-0.7-0.8-1.6-1.1-2.7-1.1c-1.1,0-2,0.3-2.7,1.1c-0.7,0.7-1.1,1.7-1.1,2.8c0,1.1,0.4,2.1,1.1,2.8
	c0.7,0.7,1.6,1.1,2.7,1.1c1.1,0,2-0.4,2.7-1.1c0.7-0.7,1.1-1.7,1.1-2.8C270.7,101.5,270.3,100.5,269.6,99.8L269.6,99.8z M264.6,99.9
	L264.6,99.9h0.6h1.6c0.7,0,1.3,0.1,1.7,0.4c0.4,0.2,0.6,0.6,0.6,1.1c0,0.6-0.2,1-0.5,1.3c-0.2,0.1-0.5,0.2-0.8,0.3l1.4,2.3h-0.7
	h-0.7l-1.3-2.3h-0.6v2.3h-0.6h-0.6V99.9z M265.9,102.1L265.9,102.1h0.9c0.4,0,0.6-0.1,0.7-0.2c0.2-0.1,0.2-0.3,0.2-0.5
	c0-0.2-0.1-0.4-0.2-0.5c-0.1-0.1-0.4-0.2-0.7-0.2h-0.9V102.1z"/>
<polygon class="st3" points="23.5,137.8 289,137.8 289,9.6 23.5,9.6 23.5,137.8 "/>
</svg>
