<?xml version="1.0" encoding="utf-8"?>
<!-- Generator: Adobe Illustrator 19.0.0, SVG Export Plug-In . SVG Version: 6.00 Build 0)  -->
<svg version="1.1" id="Capa_1" xmlns="http://www.w3.org/2000/svg" xmlns:xlink="http://www.w3.org/1999/xlink" x="0px" y="0px"
	 viewBox="-410 312 256.6 170.7" style="enable-background:new -410 312 256.6 170.7;" xml:space="preserve">
<style type="text/css">
	.st0{opacity:0.1;fill:#E9E9E9;enable-background:new    ;}
</style>
<path id="XMLID_48_" class="st0" d="M-216.2,492.9c-18.8,13.5-43.1,1.3-63.7,2.7c-3.3-0.1-6.6-0.3-9.9-0.4c-3.3-0.1-6.6-0.2-9.8-0.3
	c-3.6,0.2-7.3,0.4-10.9,0.6c-18.3,1.2-36.5,2.6-52.4-4.4c12.2,2,22.3,7.1,34.5,4.1c-14.2-8.1-31.5-5.1-46.7-11.3
	c-3.4-1.4-6.2-3.1-7.7-5.1c0,0,2.8,0.7,7,1.5c24-0.3,48.4,11.9,73.8,5.8c-6.1-2-13.2-1-19.3-1c3-3,8.1,1,10.2-3c-2,1-3,2-5.1,1
	c-3-1-1-6.1,2-6.1c-1,1-1,4.1-1,4.1c3-0.3,6.2-0.3,9.3-0.1s6.3,0.6,9.4,1.2c3.3,0.8,6.7,1.8,10.1,2.8s6.8,2,10.3,2.9
	c15.9,2.3,32.1,8.4,47.3-0.7c3-2,7.1-2,9.9,0.4C-216.4,488.5-215.3,490.6-216.2,492.9z"/>
<path id="XMLID_49_" class="st0" d="M-298,479.2c0,0,1.8,0.6,4.7,1.5c-10.5-0.1-10.8,0.4-12.1-1.5
	C-303.2,477.4-301.4,479.3-298,479.2z"/>
<path id="XMLID_50_" class="st0" d="M-289.1,481.1c-1.4,0-3.4-0.2-4.2-0.5C-292.1,480.8-290.7,480.9-289.1,481.1z"/>
<path id="XMLID_37_" class="st0" d="M-181.3,390.6c0,0,8.1-6.4,15-7.9s6.1,3.3,8.3,4s10.9,1.3,9.9-4.4c-1-5.7-16.2-11.4-19.2-10.9
	s-5.8-5.5-8.3-5c-2.7-0.9-13.4,7.3-8.1,10.8C-175.2,382.8-184.6,387.5-181.3,390.6z"/>
<path id="XMLID_36_" class="st0" d="M-230.9,392.6c0,0,13.1,1.1,14.1,7.1c1.1,6,7.1,1.4,9.7,2.8c2.6,1.4,10.4,1.8,6.5,8.1
	c-3.9,6.4-3.2,12.4-21.2,11.3s-20.3-4.4-18-8.5s1.4,1.8,6,0c-3.7-4.1-2.1-3.2,2.1-2.5c4.2,0.7,10.2,4.2,8.5,1.1
	c-1.8-3.2-1.6-6.8-4.7-10.1c-3.1-3.3-7.7-5.8-7.7-5.8S-238.3,388.4-230.9,392.6z"/>
<path id="XMLID_35_" class="st0" d="M-293.4,333.2c0,0,10.6-6.3,12.3-1.5c1.7,4.8,17.9,4,20.3-1.6s-8.5-12.6-12.7-10.2
	s-22.6-1.5-21.7,2.6C-294.4,326.6-305.7,330.8-293.4,333.2z"/>
<path id="XMLID_34_" class="st0" d="M-238.7,284.4c0,0,9.5-6.3,9.5-11.8s3.2-5.1,2.6,5.9c-0.5,11.1,1.6,11.6,5.3,11.6
	s11.1,6.9,6.9,10.1c-4.2,3.2-13.2,6.8-20.7,2.9C-242.4,299.1-241.9,290.9-238.7,284.4z"/>
<path id="XMLID_33_" class="st0" d="M-357.9,322.7c0,0-15.4-8.3-10.5-10.1c4.9-1.8,10.3-9.7,22.2-6.8c11.9,2.9,31.4,8.2,22.4,14.6
	s-14.9,0.6-19.8,4.7C-348.5,329.2-352.2,326.2-357.9,322.7z"/>
<path id="XMLID_32_" class="st0" d="M-397,264c0,0-4.9,3.8-1.9,8.8s8.8,4.1,12.2,3.8c3.4-0.3,12.6-1.8,17.6-2s12.4-1,11.2-2.4
	c-1.2-1.4-5.1-1.2-2.2-2.7s6.5-1.8,4.4-2.7c-2.2-1-7.2-0.4-7.2-0.4s-2.9-1.5,1.1-3.7c3.9-2.3,4.3-4.2,5.8-4.7s3.6-1.7,8.5-0.7
	s9.5,2.9,10.9,1.6c1.4-1.4,0.4-2.9,0.4-2.9s-24.8-7.7-59.7-0.9C-393.2,256.8-395.5,262.4-397,264z"/>
<path id="XMLID_31_" class="st0" d="M-228.9,251.3c-3.1,4.6-3.1,11,1.6,14c10.1,6.3,14,5.5,14.2,3.3s-1.8-6.7-2.6-6.7
	s4.9,3.4,5.9,5.9c1,2.6,2.4,8.3,4.2,7.1s4-3.4,1.6-5.3c-2.4-2-10.7-13.1-11.5-12.7s-4-9.3,0.4-6.3s12.6,5.5,12.1,3.2
	c-0.5-2.4-7.8-14.6-14.5-15.2s-12.2-0.2-12.8,2.4s6.3,2.2,5.1,4.4C-227.6,249.4-228.9,251.3-228.9,251.3z"/>
<path id="XMLID_30_" class="st0" d="M-183,294.3c0,0,2.4,1.9,0.3,2.9c-2.1,1-2.9-0.9-2.6-1.7s-1.3-1.4-2.6-0.4s-4.4-3.1-2.6-3.7
	c1.8-0.6,5.6,1,6-0.2s-2.5-2.8-1.4-3s7.4-1.6,8.8-0.6s8.6,2.4,10.3,5.1s0.3,4.3-2.4,3.6c-2.7-0.7,1.5-3.8-3.8-3s-5.9,0.7-7.3-0.1
	C-181.7,292.3-184.1,292.9-183,294.3z"/>
<path id="XMLID_29_" class="st0" d="M-322.4,402.9c0,0,1.5,3.2-0.9,3.1c-2.5-0.1-2.8,1.6-5.5,0.8c-2.7-0.8-6.6-1-5.1-4.5
	s8.5-3.9,10.1-4.9s4.5-3.2,6-1.9c1.5,1.3,4.4,2.6,6.6,1s9.2,2,9,0.7s-3.9-2.4-1.8-3.1c2.1-0.6,9.3,4.3,13.7,5.1
	c4.4,0.7,3,2.4,1.4,2.9s0.1,4.7-4.5,3.4c-4.6-1.3-7.5-5.3-10-1.1c-2.5,4.2,6.2,6.1-0.9,5.6s-2.7-3.5-5.3-5.3
	C-312.1,402.9-319.3,401.7-322.4,402.9z"/>
<path id="XMLID_28_" class="st0" d="M-326.1,214c4.7-2.7,7.4-7.2,10.1-11.8c1.5-4.3-1.2-11.4-3.9-6.8c-4.8,6.3-10,10.2-14.8,16.5
	c-0.9,1.5-0.4,4-0.1,5.2c-3.1-3.1-15.2-8-15.4,2.4c2.3-0.6,4.9,0.1,4.3,2.9c-0.9,1.5-3.5,0.8-4.9-0.1c6.6,2.3,13.2,4.6,19,3.2
	c22-0.1,42.9,0,63.3,4.1c4.9,0.1,11.6-2.8,16.3-6.1c3.6-2.5,6.9-5.6,9.8-9.2c-1.2,0.3-3.2,2.1-4.9-0.1c2.3-0.6,3-3.3,3.9-4.8
	c-4.1,2.4-7.9,5.9-11.9,8.6c-5.8,6-15.6,5.8-22.8,1.1c0.3,1.2,0.8,3.7,1.1,4.9c-2.7,4.5-9.3,2.2-10.4-2.7c0,0,0.9-1.5,2.1-1.8
	c-14.3-9.6-27.8,1.4-42.1,3.6c14.6-6.1,28.3-10.7,43.4-14.4c-4.3-2.9-8.9-1.7-13.2-4.6c2.1-1.8,3-3.3,3.9-4.8
	c-9.6,1-16.1,10.4-25.9,12.6C-321.7,213.2-324.1,214.4-326.1,214z"/>
<path id="XMLID_59_" class="st0" d="M-457.7,397.2c0,0,13.6-7.4,24.2-7.9s8.2,6.4,11.3,7.9c3.1,1.5,15.8,4.7,15.8-4
	s-21-20.9-25.6-20.9s-7.2-9.5-10.9-9.5c-3.8-2.1-21.7,7.3-14.7,14C-446.7,387.3-461.9,391.9-457.7,397.2z"/>
<path id="XMLID_39_" class="st0" d="M-233.8,335.1c0,0-3.7,2.6-7.7,0s-2.3-5.7,1.4-5.7s6.8,3.4,15.4,2.3c8.6-1.1,2.3,9.2,10.3,3.5
	s10.6-4.2,11.4,0c0.8,4.2,2.8,11.9-2.9,12.8s9.7,7.4,2.9,8s-8.3-8.5-13.7-8.8s-9.1-0.3-9.4,3.7c-0.3,4-6,12.9-11.1,5.2
	c-5.1-7.7,7.7-6.5,9.4-10.4s-0.6-0.9-0.6-5.6C-228.4,335.4-230.3,334-233.8,335.1z"/>
<path id="XMLID_40_" class="st0" d="M-351,353.5c0,0,9.6,17.9,15.1,18.4c5.5,0.4,6.5,6.8-3.4,6.4c-10-0.4-8.9-9.8-14.5-8.5
	s-17.9,4.3-16.9-3.9C-369.6,357.7-353.5,339.4-351,353.5z"/>
<path id="XMLID_41_" class="st0" d="M-439.1,331.9c0,0-2-4-6.4-1.3s-4,0.7-3.7-6.4c0.3-7,0.3-7.8-6-6.1c-6.3,1.7-2.3-1-2-7.7
	s-8-5-3.4-7.7s10,2.7,10-4s5.1-6.7,6.4-11.7s5.7-17.8,7.4,0c1.7,17.8-1,22.9,4.7,20.5s-5-8.4,0-6.8c5,1.7,8.4,14.9,10.7,12.3
	c2.3-2.6,10.7,5.4,5.7,10.5c-5,5-11.1-1.3-11.1,2.3c0,3.7-3,7-5.4,1C-434.6,320.8-432.7,333.3-439.1,331.9z"/>
<path id="XMLID_27_" class="st0" d="M-310.9,454.8c0,0,2.8,1.2,2.4,0s-2.7-1.1-0.5-2.1s1.5-3.9-2-3.2c-3.4,0.7-3.9,2.7-4.5-0.1
	s-1,1.5-1.8,2.3c-0.9,0.8-1.2,4.4,1.1,4.4s4.2,3.5,5.3,2.4C-309.8,457.5-308.7,456.4-310.9,454.8z"/>
</svg>
