<?xml version="1.0" encoding="utf-8"?>
<!-- Generator: Adobe Illustrator 21.1.0, SVG Export Plug-In . SVG Version: 6.00 Build 0)  -->
<svg version="1.1" id="Capa_1" xmlns="http://www.w3.org/2000/svg" xmlns:xlink="http://www.w3.org/1999/xlink" x="0px" y="0px"
	 viewBox="0 0 149 207" style="enable-background:new 0 0 149 207;" xml:space="preserve">
<style type="text/css">
	.st0{fill:#FED328;}
	.st1{fill:#E64017;}
	.st2{opacity:0.25;fill:#D1D2D4;}
</style>
<title>Mesa de trabajo 1</title>
<path class="st0" d="M12,0h125c6.6,0,12,5.4,12,12v168c0,6.6-5.4,12-12,12H12c-6.6,0-12-5.4-12-12V12C0,5.4,5.4,0,12,0z"/>
<path class="st1" d="M136.9,51.5c-0.4,0-0.7,0.5-1,0.2c0.7-0.3,1.4-0.7,2.1-1.1c-0.8,0.4-1.7,0.6-2.6,0.7c0.2-0.1,0.5-0.4,0.5-0.6
	c-0.3,0.2-0.8,0.8-1,0.5c-0.4,0.2-0.8,0.4-1.3,0.5v-0.1c0.3,0,0.7-0.2,0.9-0.3c-0.1-0.1-0.4,0.2-0.3,0c0.4-0.3,0.4,0.2,0.7-0.2
	c-0.5-0.2-0.9,0.2-1.3,0.3v-0.1c0.3-0.2,0.6-0.6,0.9-0.7c-0.3,0-0.5,0.4-0.8,0.4c0-0.1,0.1-0.2,0-0.2l-0.2,0.1
	c-0.1,0-0.1-0.1-0.1-0.2c0.3-0.1,0.2-0.6,0-1c0.3-0.1,0.4-0.5,0.3-0.8c0,0,0,0,0-0.1c0.1,0,0.2,0,0.2-0.1c-0.1-0.2-0.1-0.5-0.4-0.6
	c0.1,0,0.2,0,0.2,0h0.2c0-0.1-0.1,0-0.2,0c0-0.1,0-0.2,0-0.2c0-0.1,0-0.2,0-0.2c0.1,0,0.1,0,0.2,0h-0.2c0,0-0.1,0-0.2,0
	c0.1-0.1,0.2-0.2,0.2-0.3c0.2-0.1,0.3-0.3,0.4-0.5c-0.2,0-0.3,0.1-0.5,0.1c0.2-0.3,0.1-0.6-0.2-0.8c0,0,0,0,0,0
	c0-0.1,0.1-0.2,0.1-0.3c0.1,0,0.1-0.1,0.1-0.1c0,0-0.1,0-0.1,0c0-0.1,0-0.2,0-0.3c0.3-0.5,0.7-0.7,0.8-1.1c0,0-0.1,0-0.1,0
	c0.1-0.4,0.3-0.7,0.6-1c-0.1,0-0.1,0-0.2,0c0-0.3,0.4-0.2,0.3-0.3c-0.1,0.1-0.1-0.1-0.2,0c0.4-0.3,0.7-0.7,0.9-1.2
	c-0.2,0.3-0.7,0.6-0.6,0.8c-0.2,0-0.1-0.4-0.3-0.2c0-0.1,0.2-0.3,0-0.3c-0.2,0.6-0.4,0.8-0.9,0.9c0.1-0.4-0.1-0.6,0.1-0.9
	c-0.4,0.3-0.3,0.8-0.6,1.2c-0.1-0.4-0.1-0.7-0.2-1c0.1-0.2,0.2-0.4,0.3-0.5c-0.1,0-0.1,0.1-0.3,0c0.1-0.4,0.2-0.8,0.3-1.3
	c-0.2,0-0.3,0.2-0.4,0.4l0.2,0.1c-0.1,0.2-0.4,0.3-0.6,0.2c0-0.1-0.1-0.1-0.2-0.2c0.1-0.1,0.2,0,0.3-0.3c-0.1,0-0.2,0-0.2-0.1
	c0.2,0,0.2-0.3,0.3-0.6c-0.3-0.1,0.1-1-0.3-1.2c0.1,0,0.3-0.3,0.2-0.4c-0.1,0.2-0.3,0.3-0.5,0.6c0.1,0.1,0.1-0.1,0.2-0.1
	s-0.2,0.2-0.1,0.3c0,0,0.1-0.1,0.1-0.1c0,0.2,0,0.4-0.1,0.6c-0.1,0-0.1,0.1-0.1,0.2c-0.1,0.1-0.1,0.2-0.2,0.2
	c-0.1-0.2-0.1-0.3-0.2-0.5h0.1h-0.1c-0.1-0.1-0.1-0.2-0.1-0.3v-0.1c0.2,0,0.3-0.1,0.3-0.3c-0.1-0.1-0.1-0.2-0.2-0.2l0,0l0,0
	c-0.1-0.2-0.1-0.5,0-0.7c-0.4,0-0.2,0.5-0.6,0.5c0.2-0.4,0.3-0.8,0.6-1c-0.2-0.1-0.3,0.2-0.5-0.1c0-0.4,0.3-0.4,0.4-0.7
	c0.2,0,0.2,0.1,0.3,0.1s0.1-0.2,0.2-0.4c-0.2-0.1-0.3,0.3-0.4,0.2s0.1-0.1,0.2-0.2s-0.1,0-0.2,0c0.4-0.6,0.1-1.4,0.3-2
	c-0.1-0.2-0.3,0.2-0.3,0c0.2-0.2,0.2-0.7-0.1-0.8c0-0.2,0.2-0.2,0.3-0.3s-0.2,0.1-0.2-0.2s0.8,0,0.7-0.5c-0.2,0-0.6-0.2-0.5-0.5
	c0,0-0.2,0-0.2,0.1c-0.1-0.1,0.1-0.3,0.1-0.5c-0.2-0.3-0.4-0.6-0.5-0.9c-0.1,0.1-0.3,0.1-0.4,0.1c0.2-0.2,0.4-0.5,0.8-0.5
	c0-0.3-0.4-0.2-0.4-0.4c-0.2,0.1-0.4,0.1-0.6,0.2c0.2-0.2,0.6-0.2,0.7-0.6c-0.1-0.1-0.3-0.1-0.3-0.4c-0.3,0-0.3,0.2-0.6,0.2
	c0.2-0.8-1.1-1.6-2.1-1.8c0-0.3,0.3-0.2,0.4-0.4c-0.4,0.1-0.8-0.3-1.3-0.2c0.2-0.2,0-0.4,0.2-0.5c-0.1-0.1-0.3,0.1-0.4,0.2
	c-0.3,0-0.6-0.1-0.6-0.4c0.2,0,0.4-0.1,0.5-0.1c0,0.1,0,0.2-0.1,0.2c0.2-0.2,0.6-0.2,0.7-0.5c-1.6-0.2-2.3-1.5-3.9-1.6
	c-0.1-0.3-0.4-0.4-0.8-0.5c0-0.3,0.3-0.2,0.3-0.4c-0.4-0.1-0.3,0.4-0.6,0.4s0.1-0.4,0.3-0.4c-0.5-0.3-1.1-0.3-1.6-0.2
	c0.2-0.5,0.6-0.2,0.9-0.4c-0.3-0.4-1,0-1.1-0.5c-0.2,0.3-0.4,0-0.8,0c-0.1-0.1,0-0.1,0-0.3s-0.1-0.1-0.3-0.1
	c0.1-0.3,0.5-0.4,0.9-0.5c-0.4-0.1-0.8-0.1-1.1,0.2c-0.2-0.2,0.1-0.3,0.1-0.5c-0.2,0.2-0.8,0.2-0.8,0c0.3-0.5,0.9-0.6,1.4-0.4
	c0,0-0.1,0.1-0.1,0.1s0.2-0.2,0.3,0s-0.2,0-0.2,0.2c0.3,0,0.6-0.2,0.8-0.2c0-0.2-0.4-0.1-0.5,0c-0.1-0.4-1-0.3-1-0.7
	c-0.2,0-0.6-0.1-0.6,0.1c-0.1,0,0-0.1,0-0.2c-0.3-0.1-0.2,0.2-0.5,0.2c0-0.4,0.1-0.6,0.3-0.7v0.2c0.2,0,0.5,0,0.5-0.2
	c-0.4-0.1-0.8-0.2-1.3-0.2c0-0.2,0.1-0.1,0.1-0.2c-0.5,0.1-1,0.1-1.4,0c0-0.2,0.2-0.2,0.2-0.4c-0.2-0.1-0.4,0.3-0.5,0.1
	c0.5-0.5,1-0.1,1.6-0.4c-0.3,0.1-0.4-0.1-0.9-0.2c0.2-0.4,0.7-0.6,1.2-0.5c0-0.1-0.2,0-0.3-0.1c0.2-0.2-0.2-0.2-0.1-0.4
	c0.1,0.1,0.6-0.2,0.9-0.3c-0.5,0-1,0.2-1.4,0.5c0.1-0.1,0-0.1,0.1-0.2c-0.1-0.1-0.2,0.3-0.4,0.2c0-0.1,0.1-0.1,0.1-0.2
	c-0.4,0.1-0.7,0.2-1.1,0.2c0-0.1,0-0.1,0.1-0.1c-0.5,0-0.9,0.5-1.7,0.5c0-0.1,0.1-0.1,0.1-0.2c-0.2,0-0.1,0.3-0.4,0.3
	c0.1-0.2-0.4-0.1-0.3-0.4c-0.2,0.2-0.5,0.1-0.6,0.4c-0.1,0-0.1-0.1-0.1-0.3c-0.2,0.1-0.2,0.1-0.3-0.1c0.1-0.2,0.5-0.4,0.6-0.2
	c0.2-0.1,0.3-0.4,0.4-0.5c-0.5,0.2-1.1,0.4-1.6,0.7c-0.4-0.3-0.6,0.2-1.1,0.1c0-0.2,0.1-0.1,0.1-0.3c-0.2,0-0.2,0.2-0.3,0.2
	c-0.2-0.1,0.2-0.2,0.2-0.4c0,0-0.2,0-0.2,0.1c-0.1-0.1,0.2-0.3,0.2-0.4c-0.4,0.1-0.7,0.3-1,0.6c-0.1-0.3,0.3-0.6,0.5-0.9
	c-0.3,0.2-0.9,0.3-1.3,0.5c0.2-0.2,0.4-0.4,0.5-0.6c0-0.1-0.2,0-0.2-0.1c0-0.3,0.2-0.4,0.3-0.5s-0.1,0-0.2-0.1
	c0.1-0.3,0.5-0.3,0.6-0.6c-0.2,0.2-0.9,0.4-1.2,0.8c0.1-0.4,0.9-0.6,0.9-1.3c-0.5,0.2,0,0.3-0.4,0.6c-0.3,0,0.1-0.2,0.1-0.3
	c-0.4,0.2-0.5,0.9-1,1.1c0.3-0.5,0.7-1,1.1-1.4c-0.2-0.4,0.5-0.6,0.8-0.8c-0.2-0.1-0.6,0.2-0.8,0.3c0.4-0.8,0.9-1.6,1.6-2.2
	c-0.7,0.4-1.2,1.2-1.7,1.6c-0.1-0.4,0.5-0.5,0.6-0.9c-0.8,0.7-1.6,1.5-2.2,2.4c-0.2,0-0.1-0.2-0.2-0.1c-0.1,0.3-0.3,0.6-0.6,0.7
	c0.1-0.2,0.3-0.3,0.4-0.5c-0.1-0.1-0.3,0.2-0.4,0.3s0-0.1-0.1-0.2c-0.2,0.1-0.3,0.5-0.4,0.7c-0.2,0-0.4,0.1-0.6,0.1
	c0-0.1,0-0.1-0.1-0.1c0-0.2,0.2-0.3,0.3-0.5c0.1,0,0.1,0.1,0.1,0.3c0.1,0,0.2-0.1,0.3-0.1c0-0.3-0.1-0.2-0.3-0.4
	c0-0.1,0-0.2,0.1-0.2c-0.1-0.2-0.1,0.1-0.3,0.1s0.2-0.2,0.1-0.4c-0.2,0-0.4,0.4-0.6,0.6c-0.2-0.1,0.2-0.5,0.1-0.8
	c-0.1-0.2-0.2,0.1-0.2-0.2c-0.3,0.1-0.1,0.5-0.4,0.6c0,0.1,0.2-0.1,0.2,0.1c-0.3,0.2-0.4,0.5-0.7,0.7c-0.1-0.1,0.1-0.2,0.1-0.4
	c-0.1,0-0.2,0.1-0.3,0c0.1,0.4-0.2,0.6-0.6,0.6c0.1-0.2,0.4-0.2,0.4-0.5s-0.1,0.1-0.3,0.1c0-0.1,0-0.3-0.2-0.2
	c0-0.1,0.1-0.1,0.1-0.2s-0.1,0-0.1,0.1c-0.1-0.4,0-0.8,0.1-1.2c-0.2,0.2-0.2,0.5-0.4,0.7c-0.1-0.7,0.6-1.1,0.7-1.8
	c-0.2,0.3-0.4,0.6-0.6,0.9c-0.2-0.6,0.1-1.1,0.2-1.6c-0.2,0.1-0.2,0.5-0.3,0.7c-0.1,0-0.1,0-0.1-0.1c-0.1,0.3-0.3,0.7-0.5,1
	c-0.2-0.8,0-1.7,0.6-2.4c-0.3-0.2-0.3,0.4-0.6,0.2c0.1-0.2,0.2-0.4,0.3-0.5c-0.4,0.1-0.5,0.6-1,0.7c0-0.2,0.1-0.2,0-0.4
	c-0.3,0.1-0.3,0.5-0.5,0.7c-0.1,0-0.1,0-0.1,0c-0.2,0.6-0.3,1.2-0.4,1.9c-0.2-0.1-0.1-0.4-0.1-0.5c-0.4,0-0.7,0.6-0.8,1
	c-0.2-0.1-0.2-0.2-0.2-0.5c0,0-0.2,0-0.2,0.1c-0.1-0.1,0-0.5,0.1-0.6c-0.2,0.1-0.3,0.1-0.5,0.2s0,0.4-0.2,0.5
	c-0.1-0.2-0.2-0.4-0.1-0.6c-0.3-0.4-0.6-0.4-0.4-1.1c-0.1-0.1-0.2-0.1-0.2-0.2c0.1-0.6-0.4-1.2-0.3-2.1c-0.4,0.3,0.2,0.8-0.3,0.9
	c0.2-0.2-0.1-0.4-0.1-0.6s-0.2,0.1-0.2,0.1c-0.2-0.3-0.6-0.7-0.5-1.2c-0.3,0.5,0,0.9,0.1,1.6c0,0.2,0.2-0.2,0.3,0s-0.2,0.3-0.3,0.5
	c0.3,0.4,0.9,1.3,0.6,1.9c0.3-0.1,0.1,0.3,0.3,0.4c0.1,0.3-0.1,0.3-0.2,0.5s0.1-0.1,0.2-0.1c-0.1,0.5,0.2,0.4,0.2,0.9
	c-0.3,0-0.1-0.2-0.2-0.3c-0.1,0.1-0.2,0.3-0.3,0.5c-0.1-0.4-0.4-0.5-0.2-0.9c-0.1,0.1-0.4,0.1-0.2-0.1c-0.2,0-0.3,0.2-0.4,0.3
	s-0.2-0.3-0.4-0.1c0.5,0.5-4,1.1-3.8,0.9c-0.3,0.5-0.8-0.3-1.2,0.2c-0.1-0.3-0.2-0.2-0.5-0.2c0-0.1-0.1-0.3,0-0.4
	c-0.4-0.1-0.8-0.6-1.2-0.4c-0.1-0.2-0.1-0.4,0-0.6c-0.4-0.2-0.6-0.1-0.8-0.5c-0.3,0.2-0.8-0.1-1.1-0.6c-0.4,0.1-0.9-0.6-1.3-1
	c-1.3,0-1.9-1.6-2.9-1.8c0,0.2,0.2,0.1,0.1,0.4c-0.2,0.1-0.3-0.3-0.4,0c-0.9-0.8-2-1.3-3.2-1.5c0.2,0.2,1.2,0.2,1.2,0.8
	c0.2-0.1,0.9,0.2,1.1,0.7c-0.1,0.2-0.1-0.2-0.2-0.2s-0.1,0.1-0.2,0.2s0.1-0.2-0.1-0.4c-0.2,0.4-1.1-0.4-1.6-0.1
	c-0.1-0.1,0.1-0.2,0.1-0.3c-0.3-0.1-0.2,0.2-0.4,0.2c0-0.2-1-0.5-1,0c0.7,0.2,1.5,0.4,2.2,0.7c-0.2,0.6-0.7,0-1.1,0
	c-0.1,0-0.2,0.1-0.2,0.2c1,0.4,2,0.9,2.9,1.5c0,0.2-0.2,0.2-0.3,0.4c0.2,0,0.1-0.2,0.3-0.2c0,0.2,0.1,0.2,0.1,0.4
	c0.3,0.1,0.2-0.2,0.4-0.2c-0.3,0.1,0.2,0.4,0.1,0.6c-0.2,0.3-0.6,0.1-0.6,0.4c0.2-0.1,0.4,0,0.8,0.1c0-0.1,0-0.3,0.3-0.3
	c0,0.3-0.4,0.2-0.3,0.5c0.5,0,0.9,0.2,1.3,0.5c0,0,0,0,0.1,0s0,0,0,0.1c0.1,0.1,0.2,0.1,0.3,0.2c-0.2,0-0.3-0.1-0.3-0.2l-0.1-0.1
	c-0.2,0.1-0.3-0.1-0.5,0.1s0.1,0.2,0,0.4c-0.5,0.1-0.7-0.5-1.2-0.2c-0.2,0,0-0.1-0.1-0.3c-0.2,0.1-0.5-0.1-0.6,0
	c0-0.1-0.1-0.2-0.1-0.3c-0.1,0.3-0.5-0.1-0.6,0.2c-0.3-0.3-1.1-0.2-1.6-0.5c0-0.3,0.4-0.1,0.4-0.5c-0.2-0.1-0.5,0.3-0.6,0.5
	c0.2-0.1,0.2,0.2,0.1,0.4c0.3-0.3,0.4,0.3,0.6,0c0,0.2,0.3,0.2,0.4,0.5c-0.1,0,0,0.1-0.1,0.1c-0.2,0-0.4-0.1-0.6-0.2
	c-0.1,0.1-0.4,0.3-0.3,0.5c0.2,0,0.1-0.4,0.3-0.4c0,0.2,0.2,0.2,0.4,0.1c-0.3,0.3,0.5,0.2,0.2,0.6c0.2,0,0.4,0,0.6,0.1
	c0,0.2,0.1,0.1,0.1,0.3C82.5,15.3,82,15.4,82,15c-0.3,0-0.3,0.1-0.5-0.1c-0.1,0-0.2,0.1-0.2,0.4s0.5,0.2,0.6,0.5
	c0.2,0.1,0.2-0.2,0.3-0.1c-0.2,0.1,0,0.2-0.2,0.3c-0.2-0.1-0.5-0.1-0.5,0.1c-0.1,0,0-0.2-0.1-0.2c-0.4,0.4-1.4,0.3-2.3,0.4
	c0.3,0.1-0.1,0.1-0.2,0.5c0.1,0,0.5,0,0.5,0.1c-0.2,0.3-1,0.3-1.2,0.8c0,0.1,0.2,0.2,0.3,0.2c0.2-0.1,0-0.2,0-0.4
	c0.5-0.1,1.1,0,1.6-0.5c0.1,0.1,0.1,0.2,0.1,0.4c-0.5,0.1-1.1,0.5-1.5,0.5c0.3,0.3,1.1-0.5,1.4-0.2c-0.1,0.2-0.4,0.2-0.5,0.5
	c0.2,0.1,0.4,0.1,0.6,0.1c-0.1,0.1-0.6,0.3-0.8,0.1c-0.1,0.1-0.1,0.1-0.2,0.2c-0.2-0.1,0.2-0.2,0.1-0.4c-0.2,0-0.2,0.3-0.4,0.3
	c0.1-0.1,0-0.2-0.2-0.2s0.2,0.3,0.2,0.5c-0.6,0.4-1.3,0.6-2,0.6c0.1,0.1,0.3-0.1,0.3,0.2c-0.4,0.1-0.9,0.1-1,0.5
	c0.2,0.1,0.4-0.1,0.5,0.2c0.4-0.5,1.5-0.2,2.1-0.2c0.1,0.2-0.5,0.4-0.5,0.1c-0.1,0-0.1,0.1-0.1,0.2c-0.4-0.2-0.7,0.5-1.5,0.2
	c0.1,0.2,0.3,0.2,0.6,0.2c0,0.2-0.4,0.2-0.5,0.3c0.2,0.1,0.3,0,0.6-0.1c-0.4,0.8-1.9,0.2-2.6,1c-0.2-0.2,0.2-0.1,0.2-0.3
	c-0.2,0-0.4,0.4-0.6,0.5s0.1-0.1,0.1-0.3c-0.3,0-0.7,0.3-0.6,0.6c0.2,0,0.2-0.3,0.3-0.4c0.1,0.3,0.2,0.2,0.4,0.4
	c0.5-0.4,1.1-0.2,1.5-0.4c0.2,0.1-0.2,0.1-0.2,0.3c0.3-0.1,0.7-0.4,1.1-0.3c-0.3,0-0.4,0.4-0.8,0.5c-0.1,0.1,0.1,0.1,0,0.4
	c0.1,0.2,0.2-0.2,0.4-0.1c-0.3,0.4-0.9,0.4-0.9,0.8c-0.1-0.3-0.3,0.1-0.6,0c-0.1,0.1-0.2,0.3-0.2,0.5s0.2,0,0.2-0.1
	c0.1,0.4-0.6,0.4-0.6,0.9c-0.5-0.1-0.8,0.5-1,0.9c0.3-0.2,0.4-0.7,0.7-0.9c0.3,0.1,0.3,0,0.5,0c-0.4,0.3-0.9,0.7-1.2,1.1
	c-0.2,0,0-0.1-0.1-0.2c-0.2,0.4-0.5,0.8-0.9,1.2c0.1,0.1,0.1,0,0.2-0.1s-0.1,0.1,0,0.2s0.2-0.3,0.4-0.2c-0.6,0.6-1.3,1.2-2,1.6
	c-0.2,0.8-1.5,1.1-1.8,2c0.1,0.1,0.4-0.2,0.4-0.5c0.2,0,0.2,0.1,0.3,0s-0.2-0.2,0.1-0.4s-0.1,0.1,0.1,0.4c-0.3,0.1-0.7,0.5-0.5,0.8
	c-0.3,0.3-0.6,0.5-0.8,0.8c0.3-0.2,1-0.5,1.2-1c0.2,0.1-0.1,0.1-0.1,0.3c0.3,0,0.2-0.3,0.5-0.3c-0.1,0.3-0.4,0.3-0.5,0.5
	c0.1,0.1,0.2-0.1,0.3-0.1c-0.5,0.6-1,1.2-1.4,1.9c0.2,0,0.3-0.1,0.5-0.2c-0.3,0,0.1-0.3,0.3-0.3c-0.3,0.7-0.8,1.4-1.5,1.9
	c0.2,0.3,0.4-0.4,0.6-0.5c0,0,0.1,0.5-0.1,0.3c0,0.1,0.2,0.1,0.2,0.3c-0.6,0.8-1,1.6-1.3,2.5c0.2,0.1,0.3-0.5,0.6-0.5
	c0,0.1-0.1,0.2-0.1,0.3c0.2-0.2,0.2-0.4,0.5-0.5c-0.3,0.8-1.2,1.5-1.2,2.3h0.1c-0.4,0.8-0.8,1.6-1.2,2.4c0.4-0.5,0.7-1.1,1-1.8
	c-0.1,0.3-0.2,0.6-0.2,1c0,0,0,0.1,0,0.1l-0.1,0.5c-0.1,0-0.2-0.1-0.3-0.1c0,0.2,0.1,0.2,0.2,0.2v0.2l-0.1-0.1v0.2
	c0,0.1-0.1,0.2-0.1,0.3s0.2-0.1,0.2,0.2c-0.1-0.1-0.1,0-0.2,0.2c0,0-0.1-0.1-0.1-0.1c-0.1,0.1-0.1,0.3,0,0.4c0,0.2-0.1,0.4-0.2,0.6
	c0,0.2,0.1-0.1,0.1-0.2c0,0.4,0,0.8-0.1,1.2c-0.1-0.1-0.2-0.2-0.3-0.4c0.1,0.2,0.2,0.4,0.3,0.6c-0.1,0.3-0.2,0.6-0.3,0.8
	c0.1,0,0.1-0.2,0.2-0.1c0,0.1-0.1,0.2-0.1,0.3c-0.3-0.2-0.5-0.6-0.6-1c0.1,0,0.1,0,0.2,0c0.1-0.1-0.2-0.1-0.1-0.2s0.1,0.2,0.2,0.1
	c-0.2-0.3-0.5-0.4-0.6-0.5c-0.2,0.1,0.1,0.4,0.2,0.4c-0.3,0.3,0.2,1.1-0.1,1.3c0.1,0.2,0.2,0.5,0.4,0.5c0,0.1-0.1,0.1-0.2,0.1
	c0.1,0.3,0.3,0.1,0.4,0.3c-0.3,0.2-0.6,0.3-0.8,0l0.2-0.1c-0.1-0.2-0.3-0.4-0.4-0.3c0.1,0.4,0.3,0.8,0.5,1.2c-0.1,0.1-0.2,0-0.3,0
	c0.3,0.4,0.5,0.8,0.7,1.3c-0.2,0.1-0.2,0-0.4,0c0.1,0.2,0.5,0.2,0.3,0.4c-0.7-0.2-0.6-0.8-1.1-1.2c0.2,0.2,0.1,0.4,0.3,0.8
	c-0.5,0-0.8-0.2-1-0.8c-0.1,0,0.1,0.2,0.1,0.3C64,47.7,64.2,48,64,48.1c0.1-0.2-0.4-0.4-0.7-0.7c0.3,0.4,0.6,0.8,1.1,1
	c-0.2,0-0.1,0.1-0.2,0.1c-0.1,0.2,0.3,0,0.3,0.3c-0.1,0.1-0.1,0-0.2,0.1c0.3,0.4,0.6,0.8,0.8,1.2c-0.1,0-0.1,0-0.1,0
	c0.2,0.4,0.9,0.6,1.2,1.3c-0.1,0-0.1,0-0.2,0c0.1,0.2,0.3,0,0.4,0.2c-0.2,0,0.1,0.4-0.2,0.5c0.2,0,0.3,0.3,0.6,0.4v0.1
	c0,0.1-0.1,0.1-0.2,0.1c0.2,0.1,0.2,0.2,0.1,0.3c-0.2,0-0.6-0.2-0.5-0.4c-0.2-0.2-0.4-0.1-0.7-0.1c0.4,0.4,0.9,0.7,1.4,1
	c0,0.1,0,0.2,0.1,0.3c0.1,0.4,0.2,0.7,0.3,1.1c-0.1,0-0.2-0.1-0.3-0.1c0.1,0.1,0.2,0.2,0.3,0.3l0.1,0.4h-0.2
	c-0.2-0.4-0.4-0.8-0.7-1.1c0.2,0.4,0.3,0.7,0.5,1.1h-0.1l0.1,0.1c0.1,0.2,0.2,0.5,0.4,0.7h-0.2c-0.1,0.1,0,0.2,0.1,0.2
	c-0.2,0.1-0.4,0-0.6,0s0,0.1,0,0.2c-0.3,0.1-0.5-0.3-0.9-0.2c0.3,0.1,0.8,0.6,1.3,0.6c-0.4,0.2-1-0.5-1.6-0.1
	c0.4,0.4,0.3-0.2,0.7,0.1c0.1,0.2-0.2,0-0.3,0.1c0.4,0.3,1,0,1.4,0.3c-0.6,0-1.1-0.2-1.7-0.3c-0.2,0.4-0.8-0.2-1.1-0.3
	c0,0.2,0.4,0.4,0.6,0.5c-0.9,0-1.8-0.1-2.7-0.3c0.7,0.3,1.5,0.6,2.3,0.8c-0.3,0.3-0.7-0.2-1-0.1c1,0.4,2.1,0.7,3.2,0.8
	c0.1,0.2-0.1,0.2,0.1,0.2c0.3-0.1,0.6,0,0.9,0.2c-0.2,0-0.4-0.1-0.6-0.1c0,0.1,0.3,0.1,0.4,0.2s-0.1,0.1-0.2,0.2
	c0.2,0.1,0.5,0.1,0.7,0c0.3,0.6,0.6,1.2,1,1.8c0,0.2-0.2,0.2-0.2,0.3c0.2-0.2,0.1,0.3,0.1,0.3c-0.2-0.1-0.4-0.8-0.6-0.5
	c0.7,0.5,1.2,1.1,1.5,1.8c-0.2-0.1-0.6-0.3-0.3-0.3c-0.1-0.1-0.3-0.2-0.5-0.2c0.4,0.7,0.9,1.3,1.4,1.9c-0.2,0.1-0.3-0.2-0.3-0.1
	c0.1,0.2,0.5,0.2,0.5,0.5c-0.3,0-0.2-0.3-0.5-0.3c-0.1,0.2,0.2,0.2,0.1,0.3c-0.2-0.5-0.9-0.8-1.2-1c0.2,0.4,0.6,0.5,0.8,0.8
	c-0.2,0.2,0.2,0.6,0.5,0.8c-0.1,0.2,0.2,0.3-0.1,0.3s0-0.2-0.1-0.3s-0.2,0-0.3,0c0-0.3-0.3-0.5-0.4-0.5c0.3,1,1.5,1.2,1.8,2
	c0.7,0.4,1.4,1,2,1.6c-0.2,0.1-0.3-0.3-0.4-0.2s0.2,0.2,0,0.2s-0.1-0.2-0.2-0.1c0.3,0.3,0.6,0.7,0.9,1.2c0.1-0.1-0.1-0.2,0.1-0.2
	c0.4,0.4,0.8,0.8,1.2,1.1c-0.1,0-0.2-0.2-0.5,0c-0.3-0.2-0.4-0.6-0.7-0.9c0.2,0.5,0.4,1.1,1,0.9c0,0.4,0.8,0.5,0.6,0.9
	c0,0-0.2-0.2-0.2-0.1s0.1,0.4,0.2,0.5c0.3-0.1,0.4,0.3,0.6,0c0,0.4,0.6,0.4,0.9,0.8c-0.2,0.1-0.3-0.3-0.4-0.1c0.1,0.2-0.1,0.3,0,0.3
	c0.4,0.1,0.5,0.4,0.8,0.5c-0.4,0.1-0.8-0.2-1.1-0.3c0,0.1,0.4,0.2,0.2,0.3c-0.4-0.2-1,0-1.5-0.3c-0.2,0.2-0.3,0.1-0.4,0.3
	c-0.2,0-0.2-0.3-0.3-0.3c-0.1,0.2,0.3,0.5,0.6,0.6c0.1-0.2-0.3-0.3-0.1-0.3s0.5,0.5,0.6,0.5c0-0.2-0.3-0.1-0.2-0.3
	c0.7,0.9,2.2,0.2,2.6,1.1c-0.3,0-0.4-0.2-0.6-0.1c0.2,0.1,0.5,0,0.5,0.3c-0.2,0-0.5,0-0.6,0.2c0.8-0.3,1.1,0.4,1.5,0.2
	c0,0.1,0,0.2,0.1,0.2c-0.1-0.3,0.5-0.1,0.5,0.1c-0.6,0-1.6,0.2-2.1-0.2c0,0.3-0.3,0.1-0.5,0.2c0.2,0.3,0.6,0.4,1,0.5
	c0,0.3-0.2,0.1-0.3,0.2c0.7,0,1.4,0.2,2,0.6c0,0.2-0.3,0.3-0.2,0.5s0.3-0.1,0.2-0.2c0.2,0,0.2,0.3,0.4,0.3c0.1-0.2-0.3-0.2-0.1-0.3
	c0,0.1,0.1,0.2,0.2,0.2c0.2-0.2,0.7,0,0.8,0.1c-0.2,0-0.4,0-0.6,0.1c0,0.3,0.3,0.3,0.5,0.5c-0.3,0.3-1.1-0.5-1.4-0.2
	c0.4,0,1,0.4,1.5,0.5c-0.1,0.1,0,0.3-0.1,0.3c-0.4-0.5-1-0.3-1.6-0.5c0-0.1,0.2-0.3,0-0.3c-0.1-0.1-0.3,0-0.3,0.2c0,0,0,0,0,0
	c0.2,0.4,1,0.4,1.2,0.8c0,0.1-0.5,0-0.5,0.1c0.1,0.3,0.5,0.3,0.2,0.5c0.9,0.1,1.9,0,2.3,0.4c0.1,0,0-0.2,0.1-0.2
	c0,0.2,0.3,0.2,0.5,0.1c0.2,0.1,0,0.3,0.2,0.3c-0.2,0.2-0.1-0.1-0.3-0.1c-0.1,0.3-0.4,0.3-0.6,0.5s0,0.3,0.2,0.3
	c0.2-0.2,0.2-0.2,0.5-0.1c0-0.4,0.5-0.3,0.9-0.5c0,0.1-0.1,0.1-0.1,0.3c-0.2,0-0.4,0.1-0.6,0.1c0.3,0.3-0.5,0.3-0.2,0.6
	c-0.2-0.1-0.4-0.1-0.4,0.1c-0.2,0-0.1-0.4-0.3-0.4c-0.1,0.2,0.1,0.4,0.3,0.5c0.2-0.1,0.4-0.2,0.6-0.2c0,0,0,0.1,0.1,0.1
	c-0.1,0.3-0.4,0.3-0.4,0.5c-0.3-0.3-0.4,0.3-0.6,0c0.2,0.1,0.1,0.4-0.1,0.3c0.2,0.2,0.4,0.5,0.6,0.5c0-0.3-0.4-0.2-0.4-0.5
	c0.5-0.3,1.3-0.2,1.6-0.5c0.1,0.3,0.5-0.1,0.6,0.2c-0.1-0.1,0.1-0.2,0.1-0.3c0.1,0.1,0.5-0.1,0.6,0c0.1-0.2-0.2-0.3,0.1-0.3
	c0.5,0.3,0.7-0.3,1.2-0.2c0.1,0.2-0.1,0.4,0,0.4s0.3,0,0.5,0.1l0.1-0.1c0-0.2,0.1-0.3,0.3-0.2c-0.1,0.1-0.2,0.2-0.3,0.2
	c0,0,0,0,0,0.1s0,0-0.1,0c-0.3,0.3-0.8,0.5-1.3,0.5c-0.1,0.4,0.4,0.2,0.3,0.5c3.6-1.5,4.2,1.1,7.6-2c0.4,0.5,0.9-0.3,1.2,0.2
	c-0.2-0.1-0.2,0.2-0.3,0.3c0.2,0,0.2,0.1,0.3,0.2c-0.3,0,0,0.4-0.2,0.5c-0.1-0.2-0.5,0.1-0.6-0.1c0.1,0.2,0.2,0.5,0.1,0.8
	c0.3-0.1,0.7,0.3,0.9-0.1C94.2,81.8,94,82,94,81.8s0.2-0.1,0.1-0.3c0.2-0.1,0.1,0.3,0.3,0.3c0-0.4,0.4-0.4,0.4-0.8
	c0-0.1-0.2,0-0.2-0.1s0.2-0.2,0.2-0.4c0.1,0.2-0.1,0.3,0.1,0.4c0.4-0.7,1.6-1.4,1.6-2.2c0.4-0.1,0.5-0.6,0.8-0.3
	c-0.1-0.1,0-0.3,0.1-0.4c0.3,0.1,0.3,0.6,0.8,0.6c-0.1-0.3-0.5-0.4-0.5-0.8c0.1,0,0.2,0,0.1-0.1c0-0.3,0.3,0.2,0.3,0
	s-0.2-0.1-0.2-0.3c0.3,0,0.1-0.1,0.1-0.2c0.2-0.1,0.3,0.1,0.3,0s-0.2-0.1-0.1-0.3c0.1,0,0.2,0,0.3,0.1c-0.2-0.2,0-0.4,0.2-0.5
	c0.1,0.3,0.3,0.5,0.3,0.8c-0.2,0.4-0.3,0.9-0.3,1.3c-0.1,0-0.2-0.1-0.2,0s0.3,0.6,0.2,0.7c-0.1-0.1-0.1-0.2-0.2-0.2
	c-0.1,0.2-0.2,0.1-0.3,0.2c0.9,0.5,0.2,1.5-0.3,2c0.2,0.2,0.2-0.2,0.4-0.1s0.2,0.3,0.4,0.3c-0.2-0.2,0.1-0.3,0.2-0.1
	c-0.2-0.4,0.1-0.5,0.2-0.9c0.1,0.2,0.2,0.3,0.3,0.5c0.1-0.1-0.1-0.3,0.2-0.3c0,0.5-0.3,0.5-0.2,0.9c-0.2,0.1-0.2-0.2-0.2-0.1
	s0.2,0.2,0.2,0.5c-0.3,0-0.1,0.5-0.3,0.3c0.4,0.6-0.3,1.4-0.6,1.9c0.1,0.2,0.5,0.2,0.3,0.5s-0.3-0.2-0.3,0c0,0.7-0.4,1.1-0.1,1.6
	c-0.1-0.5,0.2-0.9,0.5-1.2c0,0.1,0.2,0.3,0.2,0.1s0.3-0.4,0.1-0.6c0.5,0.2-0.1,0.6,0.3,0.9c-0.1-0.8,0.4-1.4,0.3-2.1
	c0-0.1,0.2-0.1,0.2-0.2c-0.2-0.7,0.2-0.7,0.4-1.1c-0.2-0.2-0.1-0.4,0.1-0.6c0.1,0.1,0.1,0.3,0.2,0.5s0.3,0.1,0.5,0.2
	c-0.1-0.1-0.2-0.5-0.1-0.6c0,0.1,0.1,0.1,0.2,0.1c0-0.3,0-0.3,0.2-0.5c0.2,0.4,0.4,1.1,0.8,1.1c-0.1-0.2-0.1-0.4,0.1-0.5
	c0.1,0.6,0.2,1.3,0.4,1.9c0,0,0,0,0.1,0c0.2,0.2,0.2,0.6,0.5,0.7c0.1-0.1,0-0.2,0-0.3c0.4,0.1,0.6,0.6,1,0.7
	c-0.1-0.2-0.3-0.3-0.4-0.5c0.2-0.2,0.3,0.4,0.6,0.2c-0.6-0.6-0.8-1.6-0.6-2.4c0.2,0.3,0.3,0.7,0.5,1.1c0-0.1,0-0.1,0.1-0.1
	s0.1,0.6,0.3,0.7c-0.1-0.5-0.4-1-0.2-1.6c0.3,0.3,0.5,0.6,0.6,0.9c-0.1-0.7-0.8-1.2-0.7-1.8c0.2,0.2,0.2,0.5,0.4,0.7
	c-0.2-0.4-0.2-0.8-0.1-1.2c0,0.1,0.1,0.1,0.1,0.1s-0.1-0.2-0.1-0.2c0.2,0.1,0.2-0.1,0.2-0.2c0.2-0.1,0.2,0.2,0.3,0.1
	s-0.3-0.3-0.4-0.5c0.4,0,0.7,0.2,0.6,0.7c0.1-0.1,0.2,0,0.3,0c0-0.2-0.2-0.2-0.1-0.3c0.3,0.2,0.4,0.5,0.7,0.7
	c-0.1,0.1-0.2-0.1-0.2,0.1c0.3,0.2,0.1,0.6,0.4,0.6c-0.1-0.3,0.1,0,0.2-0.2c0.2-0.3-0.2-0.7-0.1-0.8c0.2,0.1,0.4,0.6,0.6,0.6
	c0.1-0.2-0.2-0.2-0.1-0.4s0.2,0.2,0.3,0.1c-0.1,0-0.1-0.1-0.1-0.2c0.2-0.1,0.2,0,0.3-0.3c-0.1-0.1-0.2-0.1-0.3-0.1
	c0,0.1,0,0.3-0.1,0.3c-0.1-0.2-0.3-0.2-0.3-0.5c0.1,0,0.1,0,0.1-0.1c0.3,0.1,0.3,0.1,0.6,0.1c0.1,0.2,0.2,0.6,0.4,0.7
	c0.1-0.1,0-0.2,0.1-0.2s0.3,0.4,0.4,0.3c-0.1-0.2-0.3-0.3-0.4-0.5c0.3,0.1,0.5,0.4,0.6,0.7c0.2,0.2,0-0.1,0.2-0.1
	c0.7,0.9,1.4,1.7,2.3,2.4c-0.1-0.3-0.7-0.5-0.6-0.9c0.5,0.4,1,1.3,1.7,1.6c-0.6-0.7-1.2-1.4-1.6-2.2c0.2,0.1,0.6,0.3,0.8,0.3
	c-0.3-0.2-1-0.4-0.8-0.8c-0.4-0.4-0.8-0.9-1.1-1.4c0.5,0.2,0.5,0.9,1,1.1c0-0.1-0.3-0.3-0.1-0.3c0.4,0.2-0.1,0.4,0.4,0.6
	c0-0.7-0.8-0.9-0.9-1.3c0.2,0.4,1,0.6,1.2,0.8c-0.1-0.3-0.5-0.3-0.6-0.6c0.1,0,0.2,0,0.2-0.1s-0.3-0.3-0.3-0.5c0.1,0,0.2,0,0.2-0.1
	c-0.2-0.2-0.4-0.4-0.5-0.6c0.4,0.2,1,0.3,1.3,0.5c-0.2-0.2-0.6-0.6-0.5-0.9c0.3,0.3,0.6,0.5,1,0.6c-0.1-0.1-0.4-0.3-0.2-0.4
	c0,0.1,0.1,0.1,0.2,0.1c0-0.1-0.3-0.2-0.2-0.3c0.1,0.1,0.2,0.2,0.3,0.2c0-0.1-0.1-0.1-0.1-0.3c0.5-0.1,0.7,0.4,1.1,0.1
	c0.5,0.3,1,0.6,1.6,0.7c-0.1-0.2-0.2-0.4-0.4-0.5c-0.1,0.2-0.5,0-0.6-0.2c0.1-0.1,0.2-0.2,0.3-0.1c0-0.2,0-0.3,0.1-0.3
	c0.1,0.2,0.5,0.2,0.6,0.3c-0.1-0.3,0.4-0.2,0.3-0.4c0.3,0,0.2,0.3,0.4,0.3c0-0.1-0.1-0.1-0.1-0.2c0.8,0,1.2,0.5,1.7,0.5
	c0,0-0.1-0.1-0.1-0.1c0.4,0,0.7,0.1,1.1,0.2c0-0.1-0.1-0.1-0.1-0.2c0.2-0.1,0.3,0.3,0.4,0.2c-0.1-0.1,0-0.1-0.1-0.2
	c0.4,0.3,0.9,0.4,1.4,0.5c-0.4-0.1-0.8-0.4-0.9-0.3c-0.1-0.2,0.3-0.2,0.1-0.4c0.1,0,0.3,0.1,0.3-0.1c-0.5,0.1-0.9-0.1-1.2-0.5
	c0.4-0.1,0.6-0.3,0.9-0.2c-0.6-0.3-1.1,0.1-1.6-0.4c0.1-0.3,0.2,0.1,0.5,0.1c0-0.2-0.2-0.2-0.2-0.3c0.5-0.1,1-0.1,1.4,0
	c0-0.1-0.2-0.1-0.1-0.2c0.4,0,0.9-0.1,1.3-0.2c-0.1-0.2-0.3-0.2-0.5-0.2v0.2c-0.3-0.1-0.4-0.3-0.3-0.7c0.3-0.1,0.2,0.2,0.5,0.2
	c0-0.1-0.1-0.1,0-0.2c0.1,0.2,0.4,0.1,0.6,0.1c0-0.4,0.9-0.3,1-0.7c0,0.1,0.4,0.2,0.5,0c-0.2,0-0.4-0.2-0.8-0.2
	c0,0.1,0.2,0.1,0.2,0.2s-0.2-0.2-0.3,0s0.1,0.1,0.1,0.1c-0.5,0.2-1.1,0.1-1.4-0.3c0-0.2,0.6-0.2,0.8,0c0-0.2-0.3-0.4-0.1-0.5
	c0.3,0.2,0.7,0.3,1.1,0.2c-0.4-0.1-0.8-0.1-0.9-0.5c0.2,0,0.2,0.1,0.3-0.1s-0.1-0.2,0-0.3c0.4,0,0.6-0.3,0.8,0
	c0.1-0.5,0.8-0.1,1.1-0.5c-0.3-0.2-0.8,0-0.9-0.4c0.5,0.2,1.1,0.1,1.6-0.2c-0.2,0-0.5-0.4-0.3-0.4s0.2,0.5,0.6,0.3
	c0-0.2-0.4-0.2-0.3-0.4c0.4,0,0.7-0.2,0.8-0.5c1.6-0.2,2.3-1.4,3.9-1.6c-0.1-0.2-0.5-0.3-0.7-0.5c0,0.1,0.1,0.1,0.1,0.2
	c-0.2,0-0.4-0.1-0.5-0.1c0-0.3,0.3-0.4,0.6-0.4c0.1,0.1,0.3,0.3,0.4,0.2c-0.2-0.1,0-0.4-0.2-0.5c0.6,0.1,0.9-0.4,1.3-0.2
	c0-0.2-0.4-0.2-0.4-0.4c1-0.2,2.3-1,2.1-1.8c0.2,0,0.3,0.2,0.6,0.2c0-0.2,0.1-0.3,0.3-0.3c-0.1-0.3-0.5-0.4-0.7-0.6
	c0.2,0,0.4,0.1,0.6,0.2c0-0.2,0.4-0.2,0.4-0.4c-0.4,0-0.6-0.3-0.8-0.5c0.1,0,0.3,0,0.4,0.1c0.1-0.3,0.3-0.6,0.5-0.9
	c0-0.1-0.2-0.4-0.1-0.5c0,0.1,0.1,0.1,0.2,0.1c-0.2-0.4,0.2-0.5,0.5-0.5c0.1-0.5-0.6-0.2-0.7-0.5s0.1-0.1,0.2-0.2s-0.4-0.1-0.4-0.3
	c0.3-0.1,0.3-0.6,0.1-0.8c0-0.2,0.2,0.2,0.3,0c-0.2-0.7,0.1-1.5-0.3-2c0.1,0,0.1,0.1,0.2,0s-0.2,0-0.2-0.2s0.1,0.3,0.4,0.2
	c0-0.2-0.2-0.3-0.2-0.4s-0.1,0.2-0.3,0.1c0-0.3-0.4-0.3-0.4-0.7c0.2-0.2,0.4,0.1,0.5-0.1c-0.4-0.2-0.4-0.7-0.6-1
	c0.4,0,0.3,0.5,0.6,0.5c0-0.3,0.1-0.5,0.3-0.7c-0.1-0.3-0.1-0.3-0.4-0.3c0-0.4,0.3-0.6,0.4-1h0.1c0.1,0.1,0,0.4,0.2,0.5
	c0.1-0.2,0-0.4-0.1-0.6v-0.1c0.2-0.1,0.4-0.1,0.6-0.2c0.1,0.1-0.1,0.2,0,0.2c0.2-0.2,0.6,0.1,0.7-0.2c-0.3,0,0-0.1-0.1-0.2
	c-0.2-0.3-0.8,0-0.8-0.2c0.2-0.2,0.7-0.2,0.7-0.3c-0.2-0.1-0.2,0.1-0.4,0c0-0.2,0.3-0.2,0.1-0.2c0,0.1-0.1,0.1-0.2,0
	c0,0,0-0.1,0-0.1c0-0.1,0.1-0.2,0.1-0.4c0.1,0,0.1,0,0.2-0.1c0-0.1-0.1-0.1-0.1-0.1v-0.1c0.1-0.1,0.4-0.1,0.3-0.2
	c-0.1,0-0.2,0.1-0.3,0.1v-0.1c0.2-0.1,0.4-0.1,0.5-0.1c0.2-0.1-0.1-0.1,0-0.2C134.9,52.5,136,52,136.9,51.5z M89.2,36.5
	c-1.9-0.1-3.4-1.7-3.5-3.5c0.1-1.8,1.6-3.3,3.5-3.3c1.9,0,3.4,1.5,3.4,3.4C92.6,34.9,91.1,36.5,89.2,36.5L89.2,36.5z M99.3,34
	c-1.9-0.1-3.4-1.7-3.5-3.5c0.1-1.8,1.6-3.3,3.5-3.3c1.9,0,3.4,1.5,3.4,3.4C102.7,32.5,101.2,34,99.3,34L99.3,34z M132.5,55.4
	c0-0.1,0-0.2,0-0.3V55.4L132.5,55.4z"/>
<path class="st1" d="M64,36c-19.5,1.5-22.8,8.2-23.5,12.5C38.9,58,56.5,62.5,64,63L51.5,84.5c0,0-23-3-32-17c-23-37,26-54,30-53
	C50.5,16.5,64,36,64,36z"/>
<path class="st1" d="M64,109c-19.5,1.5-22.8,8.2-23.5,12.5c-1.6,9.5,16,14,23.5,14.5l-12.5,21.5c0,0-23-3-32-17c-23-37,26-54,30-53
	C50.5,89.5,64,109,64,109z"/>
<path class="st1" d="M106,91H89c-4,0-20,7-22,20c-3,12,0,24,0,24c8,21,27,22,27,22h12c21-3,25-23,25-23v-16C130,93,106,91,106,91z
	 M99.5,133c-5.8,0-10.5-4.7-10.5-10.5c0-5.8,4.7-10.5,10.5-10.5s10.5,4.7,10.5,10.5C110,128.3,105.3,133,99.5,133z"/>
<path class="st1" d="M20.8,174.5c0.1,0.3,0.3,0.5,0.6,0.7c0.3,0.2,0.5,0.3,0.8,0.4c0.3,0.1,0.7,0.1,1,0.1c0.3,0,0.5,0,0.8-0.1
	c0.3,0,0.5-0.1,0.8-0.2c0.2-0.1,0.4-0.3,0.6-0.5c0.2-0.2,0.2-0.5,0.2-0.7c0-0.3-0.1-0.6-0.3-0.8c-0.2-0.2-0.5-0.4-0.8-0.5
	c-0.4-0.1-0.7-0.3-1.1-0.4c-0.4-0.1-0.9-0.2-1.3-0.3c-0.4-0.1-0.9-0.2-1.3-0.4c-0.4-0.2-0.8-0.4-1.1-0.6c-0.3-0.3-0.6-0.6-0.8-1
	c-0.2-0.4-0.3-0.9-0.3-1.4c0-0.6,0.1-1.1,0.4-1.6c0.2-0.4,0.6-0.8,1-1.1c0.4-0.3,0.9-0.5,1.4-0.7c0.5-0.1,1.1-0.2,1.6-0.2
	c0.6,0,1.2,0.1,1.8,0.2c0.5,0.1,1.1,0.4,1.5,0.7c0.4,0.3,0.8,0.7,1.1,1.2c0.3,0.5,0.4,1.1,0.4,1.8h-2.5c0-0.3-0.1-0.6-0.2-0.9
	c-0.1-0.2-0.3-0.4-0.5-0.6c-0.2-0.1-0.5-0.2-0.7-0.3c-0.3-0.1-0.6-0.1-0.9-0.1c-0.2,0-0.4,0-0.6,0.1c-0.2,0-0.4,0.1-0.6,0.2
	c-0.2,0.1-0.3,0.3-0.4,0.4c-0.1,0.2-0.2,0.4-0.2,0.6c0,0.2,0,0.4,0.1,0.6c0.1,0.2,0.3,0.3,0.5,0.4c0.4,0.2,0.7,0.3,1.1,0.4l1.8,0.5
	c0.2,0,0.5,0.1,0.9,0.2c0.4,0.1,0.8,0.3,1.2,0.6c0.4,0.3,0.7,0.6,1,1c0.3,0.5,0.5,1.1,0.4,1.6c0,0.5-0.1,1-0.3,1.5
	c-0.2,0.5-0.5,0.9-0.9,1.2c-0.5,0.4-1,0.6-1.5,0.8c-0.7,0.2-1.4,0.3-2.1,0.3c-0.6,0-1.3-0.1-1.9-0.2c-0.6-0.1-1.1-0.4-1.6-0.8
	c-0.5-0.3-0.9-0.8-1.1-1.3c-0.3-0.6-0.4-1.2-0.4-1.9h2.5C20.6,173.8,20.7,174.1,20.8,174.5z"/>
<path class="st1" d="M29.5,169c0.3-0.7,0.6-1.4,1.1-2c0.5-0.6,1.1-1,1.9-1.3c1.6-0.6,3.4-0.6,4.9,0c0.7,0.3,1.3,0.8,1.8,1.3
	c0.5,0.6,0.9,1.3,1.2,2c0.3,0.8,0.4,1.6,0.4,2.5c0,0.8-0.1,1.6-0.4,2.4c-0.2,0.7-0.6,1.4-1.2,2c-0.5,0.6-1.1,1-1.8,1.3
	c-1.6,0.6-3.3,0.6-4.9,0c-0.7-0.3-1.3-0.7-1.9-1.3c-0.5-0.6-0.9-1.3-1.1-2c-0.3-0.8-0.4-1.6-0.4-2.4C29.1,170.6,29.3,169.8,29.5,169
	z M31.9,172.9c0.1,0.5,0.3,0.9,0.6,1.3c0.3,0.4,0.6,0.7,1,0.9c0.9,0.5,2.1,0.5,3,0c0.4-0.2,0.7-0.5,1-0.9c0.3-0.4,0.5-0.8,0.6-1.3
	c0.1-0.5,0.2-1,0.2-1.5c0-0.5-0.1-1-0.2-1.5c-0.1-0.5-0.3-0.9-0.6-1.3c-0.3-0.4-0.6-0.7-1-0.9c-0.9-0.5-2.1-0.5-3,0
	c-0.4,0.2-0.7,0.5-1,0.9c-0.3,0.4-0.5,0.8-0.6,1.3c-0.1,0.5-0.2,1-0.2,1.5C31.8,172,31.8,172.5,31.9,172.9L31.9,172.9z"/>
<path class="st1" d="M50.3,168.7c-0.2-0.3-0.4-0.5-0.6-0.7c-0.2-0.2-0.5-0.3-0.8-0.4c-0.3-0.1-0.6-0.2-0.9-0.2c-0.5,0-1,0.1-1.5,0.3
	c-0.4,0.2-0.7,0.5-1,0.9c-0.3,0.4-0.5,0.8-0.6,1.3c-0.1,0.5-0.2,1-0.2,1.5c0,0.5,0.1,1,0.2,1.5c0.1,0.5,0.3,0.9,0.6,1.3
	c0.3,0.4,0.6,0.7,1,0.9c0.5,0.2,1,0.4,1.5,0.3c0.7,0,1.4-0.2,1.9-0.7c0.5-0.5,0.8-1.2,0.8-1.9h2.5c-0.1,0.7-0.2,1.4-0.5,2
	c-0.3,0.6-0.6,1.1-1.1,1.5c-0.5,0.4-1,0.8-1.6,1c-0.6,0.2-1.3,0.3-2,0.3c-0.8,0-1.7-0.2-2.5-0.5c-0.7-0.3-1.3-0.7-1.8-1.3
	c-0.5-0.6-0.9-1.3-1.2-2c-0.3-0.8-0.4-1.6-0.4-2.4c0-0.8,0.1-1.7,0.4-2.5c0.3-0.7,0.6-1.4,1.2-2c0.5-0.6,1.1-1,1.8-1.3
	c1.4-0.6,2.9-0.6,4.3-0.2c0.6,0.2,1.1,0.5,1.6,0.8c0.5,0.4,0.9,0.8,1.1,1.3c0.3,0.6,0.5,1.2,0.6,1.8h-2.6
	C50.5,169.2,50.4,168.9,50.3,168.7z"/>
<path class="st1" d="M57.6,165.5v11.9H55v-11.9H57.6z"/>
<path class="st1" d="M65.9,165.5l4.5,11.9h-2.7l-0.9-2.7h-4.5l-0.9,2.7h-2.6l4.5-11.9H65.9z M66,172.8l-1.5-4.4l0,0l-1.5,4.4H66z"/>
<path class="st1" d="M74,165.5v9.7h5.8v2.2h-8.4v-11.9H74z"/>
<path class="st1" d="M85.1,177.4v-12h1.7l3.9,10.6l0,0l3.9-10.6h1.7v12h-1.1v-10.7l0,0l-3.9,10.7h-1.1l-4-10.7l0,0v10.7H85.1z"/>
<path class="st1" d="M99,177.4v-12h8v1h-6.9v4.3h6.2v1h-6.2v4.8h7v1L99,177.4z"/>
<path class="st1" d="M107.9,177.4v-12h4.1h1c0.3,0,0.7,0.1,1,0.1c0.3,0.1,0.6,0.2,0.9,0.3c0.3,0.1,0.6,0.3,0.9,0.5
	c0.4,0.3,0.7,0.6,1,1.1c0.3,0.4,0.5,0.9,0.6,1.3c0.1,0.5,0.3,0.9,0.3,1.4c0.1,0.8,0.1,1.7,0,2.5c0,0.4-0.1,0.8-0.2,1.2
	c-0.1,0.4-0.3,0.8-0.4,1.1c-0.2,0.4-0.4,0.7-0.7,1c-0.3,0.3-0.6,0.6-0.9,0.8c-0.3,0.2-0.7,0.3-1,0.4c-0.4,0.1-0.7,0.2-1.1,0.2
	c-0.4,0-0.8,0.1-1.2,0.1L107.9,177.4z M109,176.4h2.7c0.5,0,1,0,1.4-0.1c0.5-0.1,1-0.2,1.4-0.5c0.4-0.2,0.7-0.5,1-0.8
	c0.3-0.3,0.5-0.7,0.6-1.1c0.2-0.4,0.3-0.8,0.3-1.3c0.1-0.4,0.1-0.9,0.1-1.3c0-0.4,0-0.9-0.1-1.3c-0.1-0.4-0.2-0.9-0.3-1.3
	c-0.2-0.4-0.4-0.8-0.6-1.1c-0.3-0.3-0.6-0.6-1-0.8c-0.4-0.2-0.8-0.3-1.3-0.4c-0.5-0.1-1-0.1-1.5-0.1H109L109,176.4z"/>
<path class="st1" d="M120.4,177.4v-12h1.1v12H120.4z"/>
<path class="st1" d="M122.5,177.4l4.7-12h1.3l4.6,12H132l-1.4-3.8h-5.5l-1.4,3.8H122.5z M125.5,172.7h4.7l-2.3-6.3L125.5,172.7z"/>
<ellipse class="st2" cx="70.5" cy="201" rx="61.5" ry="6"/>
</svg>
