<?xml version="1.0" encoding="utf-8"?>
<!-- Generator: Adobe Illustrator 24.0.1, SVG Export Plug-In . SVG Version: 6.00 Build 0)  -->
<svg version="1.1" id="Capa_1" xmlns="http://www.w3.org/2000/svg" xmlns:xlink="http://www.w3.org/1999/xlink" x="0px" y="0px"
	 viewBox="0 0 512 512" style="enable-background:new 0 0 512 512;" xml:space="preserve">
<style type="text/css">
	.st0{fill:#00E7FF;}
</style>
<g>
	<g>
		<path class="st0" d="M404.3,274.6H143.6c-4.1,0-7.5,3.4-7.5,7.5s3.4,7.5,7.5,7.5h260.7c4.1,0,7.5-3.4,7.5-7.5
			S408.4,274.6,404.3,274.6L404.3,274.6z"/>
		<path class="st0" d="M404.3,323H143.6c-4.1,0-7.5,3.4-7.5,7.5s3.4,7.5,7.5,7.5h260.7c4.1,0,7.5-3.4,7.5-7.5S408.4,323,404.3,323
			L404.3,323z"/>
		<path class="st0" d="M404.3,371.3H143.6c-4.1,0-7.5,3.4-7.5,7.5s3.4,7.5,7.5,7.5h260.7c4.1,0,7.5-3.4,7.5-7.5
			S408.4,371.3,404.3,371.3L404.3,371.3z"/>
		<path class="st0" d="M404.3,419.6H143.6c-4.1,0-7.5,3.4-7.5,7.5s3.4,7.5,7.5,7.5h260.7c4.1,0,7.5-3.4,7.5-7.5
			S408.4,419.6,404.3,419.6L404.3,419.6z"/>
		<path class="st0" d="M404.3,175.7h-95.8c-4.1,0-7.5,3.4-7.5,7.5s3.4,7.5,7.5,7.5h95.8c4.1,0,7.5-3.4,7.5-7.5
			S408.4,175.7,404.3,175.7z"/>
		<path class="st0" d="M404.3,136.1h-95.8c-4.1,0-7.5,3.4-7.5,7.5s3.4,7.5,7.5,7.5h95.8c4.1,0,7.5-3.4,7.5-7.5
			S408.4,136.1,404.3,136.1z"/>
		<path class="st0" d="M456.2,417.1c4.1,0,7.5-3.4,7.5-7.5V73.2c0-16.3-13.2-29.5-29.5-29.5H420V29.5C420,13.2,406.7,0,390.5,0H77.8
			C61.5,0,48.3,13.2,48.3,29.5v409.3c0,16.3,13.2,29.5,29.5,29.5H92v14.3c0,16.3,13.2,29.5,29.5,29.5h312.7
			c16.3,0,29.5-13.2,29.5-29.5v-37.9c0-4.1-3.4-7.5-7.5-7.5s-7.5,3.4-7.5,7.5v37.9c0,8-6.5,14.5-14.5,14.5H121.5
			c-8,0-14.5-6.5-14.5-14.5V73.2c0-8,6.5-14.5,14.5-14.5h312.7c8,0,14.5,6.5,14.5,14.5v336.3C448.7,413.7,452.1,417.1,456.2,417.1z
			 M92,73.2v380H77.8c-8,0-14.5-6.5-14.5-14.5V29.5c0-8,6.5-14.5,14.5-14.5h312.7c8,0,14.5,6.5,14.5,14.5v14.3H121.5
			C105.3,43.8,92,57,92,73.2L92,73.2z"/>
		<path class="st0" d="M143,148.2c-4.1,0-7.5,3.4-7.5,7.5v56.6c0,11.8,8.8,21.6,20.5,22.8c2.8,0.3,83.7,0,83.8,0h0.1
			c11.7-1.3,20.5-11.1,20.5-22.8v-97.8c0-12.7-10.3-23-23-23h-78.9c-12.7,0-23,10.3-23,23v5.9c0,4.1,3.4,7.5,7.5,7.5
			s7.5-3.4,7.5-7.5v-5.9c0-4.4,3.6-8,8-8h78.9c4.4,0,8,3.6,8,8v76.8c-5.7-6.1-12.6-11-20.3-14.5c3.2-5.1,5-11,5-17.2
			c0-17.7-14.4-32.1-32.1-32.1s-32.1,14.4-32.1,32.1c0,6.2,1.8,12.1,5,17.2c-7.7,3.5-14.6,8.4-20.3,14.5v-35.6
			C150.5,151.5,147.1,148.2,143,148.2L143,148.2z M197.9,142.4c9.4,0,17.1,7.7,17.1,17.1c0,5.7-2.8,11-7.6,14.2
			c-2.8,1.9-6.1,2.9-9.5,2.9s-6.7-1-9.5-2.9c-4.8-3.2-7.6-8.5-7.6-14.2C180.8,150.1,188.5,142.4,197.9,142.4z M183.2,188.1
			c4.5,2.4,9.6,3.6,14.7,3.6c5.2,0,10.2-1.2,14.7-3.6c14.2,4.3,25.7,14.7,31.5,28.4c-1.3,2-3.4,3.5-5.9,3.7c-0.5,0-79.3,0.1-80.4,0
			h-0.2l0,0c-2.5-0.3-4.7-1.7-5.9-3.7C157.5,202.8,169,192.4,183.2,188.1z"/>
	</g>
</g>
</svg>
