<?xml version="1.0" encoding="utf-8"?>
<!-- Generator: Adobe Illustrator 19.0.0, SVG Export Plug-In . SVG Version: 6.00 Build 0)  -->
<svg version="1.1" id="Capa_1" xmlns="http://www.w3.org/2000/svg" xmlns:xlink="http://www.w3.org/1999/xlink" x="0px" y="0px"
	 viewBox="-488 350.6 99.8 92.1" style="enable-background:new -488 350.6 99.8 92.1;" xml:space="preserve">
<style type="text/css">
	.trazoeditorial{fill:#FFFFFF;}
</style>
<g>
	<path class="trazoeditorial" d="M-449,422.3h-21.9c-1.2,0-2.2,1-2.2,2.2c0,1.2,1,2.2,2.2,2.2h21.9c1.2,0,2.2-1,2.2-2.2
		C-446.8,423.3-447.8,422.3-449,422.3z"/>
	<path class="trazoeditorial" d="M-416.3,422.3h-21.9c-1.2,0-2.2,1-2.2,2.2c0,1.2,1,2.2,2.2,2.2h21.9c1.2,0,2.2-1,2.2-2.2
		C-414.1,423.3-415.1,422.3-416.3,422.3z"/>
	<path class="trazoeditorial" d="M-416.3,368.2h-54.6c-1.2,0-2.2,1-2.2,2.2c0,1.2,1,2.2,2.2,2.2h54.6c1.2,0,2.2-1,2.2-2.2
		C-414.1,369.2-415.1,368.2-416.3,368.2z"/>
	<path class="trazoeditorial" d="M-416.3,379h-21.9c-1.2,0-2.2,1-2.2,2.2c0,1.2,1,2.2,2.2,2.2h21.9c1.2,0,2.2-1,2.2-2.2
		C-414.1,380-415.1,379-416.3,379z"/>
	<path class="trazoeditorial" d="M-416.3,389.8h-21.9c-1.2,0-2.2,1-2.2,2.2c0,1.2,1,2.2,2.2,2.2h21.9c1.2,0,2.2-1,2.2-2.2
		C-414.1,390.8-415.1,389.8-416.3,389.8z"/>
	<path class="trazoeditorial" d="M-416.3,400.7h-21.9c-1.2,0-2.2,1-2.2,2.2c0,1.2,1,2.2,2.2,2.2h21.9c1.2,0,2.2-1,2.2-2.2
		C-414.1,401.6-415.1,400.7-416.3,400.7z"/>
	<path class="trazoeditorial" d="M-416.3,411.5h-21.9c-1.2,0-2.2,1-2.2,2.2c0,1.2,1,2.2,2.2,2.2h21.9c1.2,0,2.2-1,2.2-2.2
		C-414.1,412.5-415.1,411.5-416.3,411.5z"/>
	<path class="trazoeditorial" d="M-449,411.5h-21.9c-1.2,0-2.2,1-2.2,2.2c0,1.2,1,2.2,2.2,2.2h21.9c1.2,0,2.2-1,2.2-2.2
		C-446.8,412.5-447.8,411.5-449,411.5z"/>
	<path class="trazoeditorial" d="M-449,379h-21.9c-1.2,0-2.2,1-2.2,2.2v21.9c0,1.2,1,2.2,2.2,2.2h21.9c1.2,0,2.2-1,2.2-2.2v-21.9
		C-446.8,380-447.8,379-449,379z M-451.1,400.9h-17.5v-17.5h17.5V400.9z"/>
	<path class="trazoeditorial" d="M-394.6,366h-6.5v-6.5c0-2.4-1.9-4.3-4.3-4.3h-76.2c-2.4,0-4.3,1.9-4.3,4.3v69.3c0,6,4.9,10.8,10.8,10.8h74.1
		c6,0,10.8-4.9,10.8-10.8v-58.5C-390.3,368-392.2,366-394.6,366z M-394.6,428.8c0,3.6-2.9,6.5-6.5,6.5h-74.1c-3.6,0-6.5-2.9-6.5-6.5
		v-69.3h76.2v66.1c0,3,2.4,5.4,5.4,5.4c1.2,0,2.2-1,2.2-2.2c0-1.2-1-2.2-2.2-2.2c-0.6,0-1.1-0.5-1.1-1.1v-55.2h6.5V428.8z"/>
</g>
</svg>
