<svg id="Capa_1" data-name="Capa 1" xmlns="http://www.w3.org/2000/svg" viewBox="0 0 178.14 123.63"><defs><style>.cls-1{fill:#99173d;}</style></defs><title>Mesa de trabajo 1</title><path class="cls-1" d="M28.94,114.45a9.16,9.16,0,0,1-.31,2.43,19.28,19.28,0,0,1-13.8,6.74c-4.47,0-7.84-1.41-10.19-3.76C1.33,116.65,0,111.79,0,107.08,0,100.57,3.06,95.63,7.21,93a19,19,0,0,1,9.1-2.59c8.39,0,11.67,7.44,13.17,12.23a4.4,4.4,0,0,1-.55,2c-2.67.86-13.88,1.57-19.76,1.8-.24,0-.39.47-.39.78a11.25,11.25,0,0,0,3.06,6.9,10.11,10.11,0,0,0,7.76,3,13.9,13.9,0,0,0,9-3.14C28.7,114.06,28.94,114.22,28.94,114.45ZM8.7,102.53c0,.08.16.47.47.47a80.2,80.2,0,0,0,10-.31.87.87,0,0,0,.55-.71c-.39-4.63-2.35-8.55-5.72-8.55C10.9,93.44,8.78,97.2,8.7,102.53Z"/><path class="cls-1" d="M52.93,92.5a5.22,5.22,0,0,1,0,1.57,26.73,26.73,0,0,1-3.14,6.43,1.41,1.41,0,0,1-.94.24c-1.65-1.65-3.76-3.06-5.88-3.06a4.13,4.13,0,0,0-2.9,1.65A3.15,3.15,0,0,0,39.6,101c-.08,4.47,0,14.35.08,15.53.16,2,.39,2.74,2,3.14a22.43,22.43,0,0,0,4.31.71,4.3,4.3,0,0,1-.39,2.59c-1.41,0-5.65-.24-10.59-.24-3.29,0-6.82.24-8.63.24a4.17,4.17,0,0,1,0-2.59,10.12,10.12,0,0,0,3.06-.63c.71-.24,1.18-.86,1.25-2.43.16-1.41.23-7.29.23-12.39,0-2.75,0-5.1-.16-6.27-.08-1-.55-2-4.08-3.29a5.55,5.55,0,0,1,.39-2c3-.24,9.25-1.65,12-3.21a.73.73,0,0,1,.55.39c-.08,1-.31,4.78-.31,6,0,.24.31.24.47.16A36.87,36.87,0,0,1,44.38,92a7.48,7.48,0,0,1,4.31-1.65A4.65,4.65,0,0,1,52.93,92.5Z"/><path class="cls-1" d="M84,106.53c0,6.35-2.67,11.29-7.21,14.11a20.53,20.53,0,0,1-10.19,3c-11.76,0-16.7-7.92-16.7-16.86a15.39,15.39,0,0,1,7-13.25,20.25,20.25,0,0,1,10.82-3.14C78.08,90.38,84,97.52,84,106.53ZM62.87,94.3c-2,1.41-3.37,4.31-3.37,10.27,0,10.27,3.69,15.92,8.7,15.92a4.72,4.72,0,0,0,3.22-1.1c1.88-1.73,2.74-5,2.74-10.51,0-9.33-3.22-15.37-8.63-15.37A4.79,4.79,0,0,0,62.87,94.3Z"/><path class="cls-1" d="M95.34,95.87c-.16,0-.31.31-.31.47-.08,3.21-.08,9.17-.08,12.94a25.89,25.89,0,0,0,.39,5.8,4.07,4.07,0,0,0,4.23,3.06A7,7,0,0,0,104,117a6.21,6.21,0,0,1-.08,2.67,11.33,11.33,0,0,1-8.86,4c-3.45,0-6.27-1.25-7.68-3.84-1.18-2-1.18-4.16-1.18-8.78,0-4.08.08-11.13.08-14.43a.75.75,0,0,0-.47-.71c-1.1-.08-2.74-.16-3.92-.31a11.44,11.44,0,0,1,.71-3.06,20.49,20.49,0,0,0,3.29-.78c.16,0,.31-.31.39-.63V84.42a31.42,31.42,0,0,0,7.45-4,5.8,5.8,0,0,1,1.65-.08c-.16,1.57-.31,5.33-.31,10.59,0,.24.16.55.31.55,2.35,0,7.14-.24,8.94-.39a35,35,0,0,0-.78,4.86C101.3,95.87,98.08,95.87,95.34,95.87Z"/><path class="cls-1" d="M121.21,122.92c-1.57,0-4.31-.24-8.94-.24-4,0-7,.24-8.7.24a4.17,4.17,0,0,1,0-2.59,13.91,13.91,0,0,0,3.06-.63c1-.39,1.25-1.1,1.33-3s.16-6.82.16-10.74c0-2.75-.08-5.8-.08-7.21a2.74,2.74,0,0,0-.63-1.88c-.63-.71-1.41-1.1-3.29-1.8a3.25,3.25,0,0,1,.24-2.27A49.27,49.27,0,0,0,117,90.22c0,3.29-.08,8.94-.08,13.49,0,4.08,0,9.33.08,12.94,0,2,.47,2.67,1.49,3.06a18,18,0,0,0,3.06.63A3.7,3.7,0,0,1,121.21,122.92Zm-6.35-38.58c-.63.47-4.23.86-5.1.39a4.68,4.68,0,0,1-2.43-3.37,5.58,5.58,0,0,1,.47-3.37A9,9,0,0,1,113,76.34a4.54,4.54,0,0,1,3.14.94,4.86,4.86,0,0,1,.71,2.67A6,6,0,0,1,114.86,84.34Z"/><path class="cls-1" d="M133.23,123.63c-5.1,0-8.86-1.8-11.61-5.41-2.27-2.82-3.29-6.74-3.29-10.82a16,16,0,0,1,7.92-13.72,24.19,24.19,0,0,1,11.13-3.29,15.36,15.36,0,0,1,6.59,1.1,5.29,5.29,0,0,1,2.67,2.2,2.91,2.91,0,0,1-.08,1.41,10.29,10.29,0,0,1-3.37,4.16c-.24.08-.86.16-1,0-1.65-1.72-4.71-5.41-8.63-5.41-4.23,0-6.67,4.16-6.67,10a16,16,0,0,0,2.59,9.25,10.24,10.24,0,0,0,8.63,4.08,12.58,12.58,0,0,0,8.55-3.29c.16,0,.39.24.47.47a5.22,5.22,0,0,1-.55,2.75A17.29,17.29,0,0,1,133.23,123.63Z"/><path class="cls-1" d="M163.85,98.14a6.66,6.66,0,0,0-5.57-2.59,5.87,5.87,0,0,0-3.61.94c-.71.63-2.2,3.61-2.82,5-.31.31-2.75-.86-2.67-1.41.08-.78,1.18-4.55,1.72-4.94,3.76-2.75,9.33-4.78,11.61-4.78a10.16,10.16,0,0,1,8.78,4.55,13.88,13.88,0,0,1,2,7.92c0,3.76-.24,9.17-.24,12.31,0,1.57.55,3.06,2.43,3.06a7.86,7.86,0,0,0,2.67-.39,9,9,0,0,1-.39,2.9c-2,2-5.41,2.9-7.84,2.9s-4-.94-4.55-2.27l-.47-1.49c0-.16-.24-.16-.31-.16-3.84,2.59-7.45,3.92-8.94,3.92a6.76,6.76,0,0,1-4.55-1.88,10.41,10.41,0,0,1-3-7.53,14.45,14.45,0,0,1,1.33-4.63c2.43-1.33,12-3.61,14.9-4.94a1.39,1.39,0,0,0,.63-.86,8.45,8.45,0,0,0,.08-1.41A7.54,7.54,0,0,0,163.85,98.14Zm.78,9c-2.27.86-6.51,2.12-7.53,2.9a6.42,6.42,0,0,0-.71,2.59,5.23,5.23,0,0,0,5.25,5.57,4.66,4.66,0,0,0,2.51-.71,1.74,1.74,0,0,0,.63-1.57c.16-2.2.16-7.06.16-8.39C164.95,107.47,164.71,107.16,164.64,107.16Z"/><path class="cls-1" d="M82.82,84.74a.69.69,0,0,1,.16.48,81.64,81.64,0,0,1-5.1,6.41A2,2,0,0,1,76.8,91c.68-1.79,2-5.26,2.39-6.05A12.35,12.35,0,0,1,82.82,84.74Z"/><path class="cls-1" d="M107,.7l-.35-.23c-.75-.17-3.59-1.91-.81,2.61s-2.08,4.69-7.12,6.43-6.6,5.73-6.25,8.86,3.3,6.08-6.95,8.69-19.81,2.08-19.81,5.56,6.43,3,11.07,4.34a4.8,4.8,0,0,1,0,9.21c-4.57,1.56-5.16,4.52-2,7.3s5.13,6.08,3.65,9.85c-3.13,8.81-12.16,2.14-16.85.4s-.72,3-.72,3a41.8,41.8,0,0,0,26.52,9.39c22.79,0,41.26-18,41.26-40.13A40,40,0,0,0,107,.7Zm-13,65.79S81.54,64.58,83.8,52.25c1-5.21,8.69-8.86,2.43-16.51-5.21-5.39,4.86-7.3,4.86-7.3s10.6-2.26,9-5.39-9.24-7.12.16-10.77,9.22-4.69,9.57-7.12c0,0,7.47,5.56,9.9,14.77S125,56.24,94.05,66.49Z"/></svg>