<?xml version="1.0" encoding="utf-8"?>
<!-- Generator: Adobe Illustrator 21.1.0, SVG Export Plug-In . SVG Version: 6.00 Build 0)  -->
<svg version="1.1" id="Layer_1" xmlns="http://www.w3.org/2000/svg" xmlns:xlink="http://www.w3.org/1999/xlink" x="0px" y="0px"
	 viewBox="0 0 506.7 144.1" style="enable-background:new 0 0 506.7 144.1;" xml:space="preserve">
<style type="text/css">
	.st0{fill:none;stroke:#34485E;stroke-miterlimit:10;}
	.st1{fill:#1998D5;}
	.st2{fill:#C1C1B6;}
	.st3{fill:#D7D9DF;}
	.st4{fill:#FFFFFF;}
	.st5{fill:none;stroke:#FFFFFF;stroke-width:2;stroke-miterlimit:10;}
</style>
<title>Artboard 1 copia</title>
<g>
	<path class="st0" d="M71.3,101.4"/>
	<g>
		<polygon class="st1" points="0,51.7 75.2,0 150.2,51.7 130.9,69.4 75.2,31.8 19.3,69.4 		"/>
		<polygon class="st2" points="19.3,88.7 19.3,69.4 0,51.7 0,70.2 		"/>
		<polygon class="st2" points="131,88.7 131,69.4 150.3,51.7 150.3,70.2 		"/>
		<polyline class="st3" points="75.2,50.2 131,88.7 131,69.4 75.2,31.9 75.2,31.8 75.2,31.9 75.1,31.8 75.1,31.9 19.3,69.4 
			19.3,88.7 75.1,50.2 		"/>
	</g>
	<g>
		<polygon class="st2" points="45.1,113.8 45.1,94.5 25.8,76.8 25.8,95.3 		"/>
		<polyline class="st1" points="75.2,74.3 105.2,94.5 124.5,76.8 75.3,40.8 75.3,40.7 75.2,40.8 75.1,40.7 75.1,40.8 25.8,76.8 
			45.1,94.5 75.1,74.3 		"/>
		<polygon class="st2" points="105.2,113.8 105.2,94.5 124.5,76.8 124.5,95.3 		"/>
		<polygon class="st3" points="105.2,94.5 75.3,73.9 75.3,73.7 75.2,73.8 75,73.7 75,73.9 45.1,94.5 45.1,113.8 75.2,92.1 
			105.2,113.8 		"/>
	</g>
	<g>
		<polygon class="st1" points="50.8,101.4 75.1,124.2 99.7,101.4 75.3,82.9 		"/>
		<g>
			<polygon class="st2" points="50.8,118.7 50.8,101.4 75.1,124.2 75.1,144.1 			"/>
			<polygon class="st2" points="99.6,118.7 99.6,101.4 75.3,124.2 75.3,144.1 			"/>
		</g>
	</g>
</g>
<g>
	<path class="st4" d="M203,52c9.2,0,15.8,4.1,20.2,8.5l-8.1,9.1c-3.3-3-6.4-4.9-11.9-4.9c-9.9,0-17.1,7.9-17.1,20.9
		c0,13.3,6.1,21.1,18.3,21.1c2.6,0,5.3-0.7,6.9-2V93.5h-10.7V81.5h23.8v29.8c-4.7,4.1-12.7,7.9-21.8,7.9C185,119.2,171,107.8,171,86
		C171,64.5,185.3,52,203,52z"/>
	<path class="st4" d="M230.3,85.3c0-21.2,12-33.3,29.4-33.3c17.5,0,29.5,12.2,29.5,33.3c0,21.2-11.9,33.9-29.5,33.9
		C242.4,119.2,230.3,106.5,230.3,85.3z M274.2,85.3c0-12.9-5.6-20.7-14.4-20.7c-8.8,0-14.4,7.8-14.4,20.7c0,13,5.7,21.3,14.4,21.3
		C268.6,106.6,274.2,98.3,274.2,85.3z"/>
</g>
<g>
	<path class="st4" d="M324,55h20.8v5.2h-14.6V69h12.4v5.2h-12.4v10.2h15.2v5.2H324V55z"/>
	<path class="st4" d="M351.3,80.9c2.5,2.3,5.8,3.9,9,3.9c3.9,0,6-1.7,6-4.4c0-2.9-2.2-3.8-5.4-5.1l-4.7-2.1c-3.4-1.4-7-4.1-7-9.2
		c0-5.5,4.9-9.7,11.6-9.7c4.1,0,8,1.7,10.7,4.4l-3.2,3.9c-2.2-1.8-4.5-3-7.5-3c-3.3,0-5.4,1.5-5.4,4.1c0,2.7,2.6,3.7,5.5,4.9l4.7,2
		c4.1,1.7,7,4.3,7,9.4c0,5.6-4.7,10.3-12.4,10.3c-4.7,0-9.1-1.9-12.4-5.1L351.3,80.9z"/>
	<path class="st4" d="M382.6,60.1h-10V55h26.1v5.2h-9.9v29.4h-6.1V60.1z"/>
	<path class="st4" d="M402,55h6.1v19.9c0,7.5,2.9,10,7,10c4.2,0,7.1-2.5,7.1-10V55h5.9v19.4c0,11.4-5.1,15.8-13.1,15.8
		c-8,0-13.2-4.4-13.2-15.8V55z"/>
	<path class="st4" d="M434.6,55h9.2c10.6,0,16.9,5.7,16.9,17.1c0,11.5-6.3,17.4-16.6,17.4h-9.5V55z M443.3,84.6c7,0,11-4,11-12.5
		c0-8.5-4-12.2-11-12.2h-2.6v24.6H443.3z"/>
	<path class="st4" d="M465.4,55h6.1v34.6h-6.1V55z"/>
	<path class="st4" d="M476.2,72.1c0-11.2,6.2-17.8,15.3-17.8c9,0,15.2,6.6,15.2,17.8c0,11.2-6.2,18.1-15.2,18.1
		C482.4,90.2,476.2,83.3,476.2,72.1z M500.4,72.1c0-7.7-3.5-12.4-8.9-12.4c-5.4,0-9,4.7-9,12.4c0,7.8,3.5,12.7,9,12.7
		C496.9,84.8,500.4,79.9,500.4,72.1z"/>
</g>
<g>
	<path class="st4" d="M326.6,103.7c1.5,0,2.5,0.6,3.7,1.5l-0.1-2.2v-5.1h2.2v19.3h-1.8l-0.2-1.5h-0.1c-1,1-2.4,1.9-4,1.9
		c-3.3,0-5.4-2.5-5.4-6.9C320.9,106.3,323.6,103.7,326.6,103.7z M326.8,115.6c1.2,0,2.3-0.6,3.4-1.8v-6.9c-1.1-1-2.1-1.4-3.2-1.4
		c-2.1,0-3.8,2-3.8,5C323.2,113.7,324.5,115.6,326.8,115.6z"/>
	<path class="st4" d="M351.6,103.7c3.4,0,5.3,2.4,5.3,6.2c0,0.5,0,0.9-0.1,1.2h-8.9c0.2,2.8,1.9,4.6,4.4,4.6c1.2,0,2.3-0.4,3.3-1
		l0.8,1.5c-1.1,0.7-2.5,1.4-4.3,1.4c-3.5,0-6.3-2.6-6.3-6.9C345.7,106.3,348.6,103.7,351.6,103.7z M354.9,109.6
		c0-2.7-1.2-4.2-3.3-4.2c-1.8,0-3.5,1.5-3.8,4.2H354.9z"/>
	<path class="st4" d="M389.9,103.7c1.5,0,2.5,0.6,3.7,1.5l-0.1-2.2v-5.1h2.2v19.3h-1.8l-0.2-1.5h-0.1c-1,1-2.4,1.9-4,1.9
		c-3.3,0-5.4-2.5-5.4-6.9C384.1,106.3,386.9,103.7,389.9,103.7z M390.1,115.6c1.2,0,2.3-0.6,3.4-1.8v-6.9c-1.1-1-2.1-1.4-3.2-1.4
		c-2.1,0-3.8,2-3.8,5C386.5,113.7,387.8,115.6,390.1,115.6z"/>
	<path class="st4" d="M409.5,99.8c0-0.9,0.7-1.4,1.5-1.4c0.9,0,1.5,0.6,1.5,1.4c0,0.8-0.7,1.4-1.5,1.4
		C410.2,101.3,409.5,100.7,409.5,99.8z M409.9,104h2.2v13.2h-2.2V104z"/>
	<path class="st4" d="M426,114.2c1.1,0.9,2.3,1.6,3.9,1.6c1.7,0,2.6-0.9,2.6-2.1c0-1.4-1.6-2-3-2.5c-1.9-0.7-3.9-1.6-3.9-3.8
		c0-2.1,1.7-3.7,4.5-3.7c1.7,0,3.1,0.7,4.1,1.5l-1.1,1.4c-0.9-0.7-1.8-1.2-3-1.2c-1.7,0-2.4,0.9-2.4,1.9c0,1.2,1.4,1.7,2.9,2.3
		c1.9,0.7,4,1.5,4,4c0,2.1-1.7,3.9-4.8,3.9c-1.9,0-3.7-0.8-4.9-1.8L426,114.2z"/>
	<path class="st4" d="M452.4,103.7c3.4,0,5.3,2.4,5.3,6.2c0,0.5,0,0.9-0.1,1.2h-8.9c0.2,2.8,1.9,4.6,4.4,4.6c1.2,0,2.3-0.4,3.3-1
		l0.8,1.5c-1.1,0.7-2.5,1.4-4.3,1.4c-3.5,0-6.3-2.6-6.3-6.9C446.5,106.3,449.4,103.7,452.4,103.7z M455.7,109.6
		c0-2.7-1.2-4.2-3.3-4.2c-1.8,0-3.5,1.5-3.8,4.2H455.7z"/>
	<path class="st4" d="M470.6,104h1.8l0.2,1.9h0.1c1.2-1.2,2.6-2.2,4.4-2.2c2.8,0,4,1.8,4,5.1v8.3H479v-8c0-2.5-0.8-3.5-2.5-3.5
		c-1.4,0-2.3,0.7-3.6,2v9.5h-2.2V104z M474.8,98.6c1.4,0,2.2,1.4,3.1,1.4c0.5,0,0.8-0.5,1-1.4h1.3c-0.1,1.6-0.9,2.9-2.2,2.9
		c-1.4,0-2.2-1.4-3.1-1.4c-0.5,0-0.8,0.5-1,1.4h-1.2C472.7,99.8,473.4,98.6,474.8,98.6z"/>
	<path class="st4" d="M500.3,103.7c3.2,0,6.1,2.5,6.1,6.9c0,4.4-2.9,6.9-6.1,6.9c-3.2,0-6.1-2.5-6.1-6.9
		C494.2,106.2,497.1,103.7,500.3,103.7z M500.3,115.6c2.3,0,3.8-2,3.8-5c0-3-1.5-5.1-3.8-5.1c-2.2,0-3.8,2.1-3.8,5.1
		C496.6,113.6,498.1,115.6,500.3,115.6z"/>
</g>
<line class="st5" x1="305.8" y1="54.5" x2="305.8" y2="118"/>
</svg>
