<?xml version="1.0" encoding="utf-8"?>
<!-- Generator: Adobe Illustrator 21.1.0, SVG Export Plug-In . SVG Version: 6.00 Build 0)  -->
<svg version="1.1" id="Layer_1" xmlns="http://www.w3.org/2000/svg" xmlns:xlink="http://www.w3.org/1999/xlink" x="0px" y="0px"
	 viewBox="0 0 114.7 101.6" style="enable-background:new 0 0 114.7 101.6;" xml:space="preserve">
<style type="text/css">
	.st0{fill:#FFFFFF;}
	.st1{fill:none;stroke:#FFFFFF;stroke-linecap:round;stroke-miterlimit:10;}
	.st2{stroke:#FFFFFF;stroke-miterlimit:10;}
	.st3{fill:#522B7A;}
</style>
<title>Mesa de trabajo 1</title>
<path class="st0" d="M16.6,70.8c0,0,1.8,4.1-1.3,3.5s-1.8-5.4-1.8-5.4l-0.1-4.7c0,0-3.4,1.5-3.4-0.9s3.4-2.9,3.4-2.9l-0.2-17.2
	c0,0,0.9-4.4,3.1-3.8s2,3.7,0.8,6.8c0,0-0.6,12.2-0.6,13.8c3.5-0.2,12.9-1,13.9-1c-0.3-6.8,0.4-17.8,2.4-20.5s5.9,2,2,4.5
	c-0.6,2.3-0.6,12.8-1.2,14.5c1.6,1.2,2.8,2.8,0.9,4c-0.3,2.5-0.3,5.1,0,7.6c0.3,2.1-0.9,4.2-2.8,0.9c-0.5-2.6-0.7-5.3-0.6-8
	c-4,0.2-14.4,2.2-14.4,2.2S16.1,68.8,16.6,70.8z"/>
<path class="st0" d="M57.8,38.1c0,0-1.4,31,0,33.6c1.2,2.1,4.8,1.6,3.2-1.5S60,46.6,60.1,46c0,0,0.8-1,1.3,1.3s4.7,24.8,9.9,24.2
	s8.4-15.7,8.7-18.9c0.3,0.7,0.4,3.1,0,9.4s-0.3,12.7,2.8,12.4s2.5-0.6,1.6-3s-0.7-4.6-0.7-8.1S84.1,44.1,85,41s-3.2-5.4-5.2-0.2
	c-1.3,5.7-6.4,40.3-11.9,20.4c-4.5-12.2-3.7-21.6-3.7-21.6S63.6,35.3,57.8,38.1z"/>
<path class="st0" d="M89.4,68.7l-0.6-15.5c0,0,0-2.6,1.9-2.8s1.9,1,1.8,4.4s0.1,12,0.1,12c0.1,1.6,1.5,2.8,3.2,2.8
	c2.9,0,4,0.2,4.2-2.9s0-12.5,0-12.5s-0.6-3.2,2-3.2s2.8,3.6,1.5,5.5c-0.4,2.6-0.3,22.3-0.3,22.3s-0.8,6.3-6.6,6.3s-8.6-2.1-9.5-5.4
	s2.9-1.6,4.2,0s7,4.6,8.4-0.2c0.8-2.6,0.8-5.5-0.2-8.1C99.6,71.5,91.8,74.9,89.4,68.7z"/>
<path class="st1" d="M34.8,101c0,0,0.2-18.9,0-20"/>
<path class="st1" d="M35.6,85.1c1.1-2.5,3.6-4.2,6.4-4.1c4.8,0,5.2,10.6,1.5,14.2s-7.2-1-7.9-2.5S35,86.2,35.6,85.1z"/>
<line class="st1" x1="49.5" y1="88.8" x2="49.5" y2="101"/>
<path class="st1" d="M54.5,91c0,0-1.4-3.6-5-1"/>
<line class="st1" x1="57.2" y1="89.5" x2="57.2" y2="101"/>
<path class="st1" d="M60.1,89.5c0,0-0.2,9.1,4.1,11.5c2.1-2.1,3.4-7.2,3-11.5"/>
<path class="st1" d="M78,96.9c-0.4,0.6-0.9,1.1-1.4,1.6c-1.8,1.6-5.6,4-6.8-0.9c-1.6-6.6,0.8-8.1,2.5-8.1c2,0.1,3.5,1.8,3.4,3.8
	c0,0.7-0.3,1.4-0.7,2c-1.7,2.6-5,0-5.6-0.8"/>
<path class="st1" d="M85.9,97.6c0,0-6.1,6.6-7.8,0s0.8-8.1,2.5-8.1c2,0.1,3.5,1.8,3.4,3.8c0,0.7-0.3,1.4-0.7,2c-1.7,2.6-5,0-5.6-0.8
	"/>
<path class="st1" d="M72.6,87.5c0,0,2.4-3,3-3"/>
<path class="st2" d="M58.6,87.4c0,0-2.3-2.2-1.4-2.4S59.1,85.6,58.6,87.4z"/>
<path class="st3" d="M0,42.3L57,0l57.7,42.3C114.7,42.3,55-19.7,0,42.3z"/>
<path class="st0" d="M46.3,48.5c-5.1,0-9.2,6.3-9.2,14.2s4.1,14.2,9.2,14.2s9.2-6.3,9.2-14.2S51.4,48.5,46.3,48.5z M46.3,73.5
	c-3.9,0-7-4.8-7-10.8s3.2-10.8,7-10.8s7,4.8,7,10.8S50.2,73.4,46.3,73.5L46.3,73.5z"/>
</svg>
