<?xml version="1.0" encoding="utf-8"?>
<!-- Generator: Adobe Illustrator 28.0.0, SVG Export Plug-In . SVG Version: 6.00 Build 0)  -->
<svg version="1.1" id="Layer_1" xmlns="http://www.w3.org/2000/svg" xmlns:xlink="http://www.w3.org/1999/xlink" x="0px" y="0px"
	 viewBox="0 0 286 84" style="enable-background:new 0 0 286 84;" xml:space="preserve">
<style type="text/css">
	.st0{fill:#DAABA1;}
	.st1{fill:#FFFFFF;}
</style>
<g>
	<path id="Path_23" class="st0" d="M114.8,18.4l0.2,4.3h-0.5c0-0.6-0.2-1.1-0.4-1.6c-0.2-0.5-0.6-0.9-1.1-1.1
		c-0.6-0.3-1.2-0.4-1.8-0.4h-2.6v13.9c-0.1,0.7,0,1.4,0.4,2.1c0.4,0.4,1,0.6,1.6,0.6h0.6v0.5h-7.7v-0.5h0.6c0.6,0.1,1.2-0.2,1.6-0.7
		c0.3-0.6,0.4-1.3,0.3-2V19.5h-2.2c-0.6,0-1.2,0-1.8,0.2c-0.5,0.2-0.9,0.5-1.2,1c-0.4,0.6-0.6,1.3-0.6,2h-0.5l0.2-4.3H114.8z"/>
	<path id="Path_24" class="st0" d="M121.4,26.8h8.4v-5.2c0-0.6,0-1.2-0.2-1.8c-0.1-0.3-0.3-0.5-0.6-0.6c-0.4-0.2-0.8-0.3-1.2-0.3
		h-0.6v-0.5h7.8v0.5h-0.6c-0.4,0-0.8,0.1-1.2,0.3c-0.3,0.1-0.5,0.4-0.6,0.6c-0.1,0.6-0.2,1.2-0.2,1.8v11.7c0,0.6,0,1.2,0.2,1.8
		c0.1,0.2,0.3,0.5,0.6,0.6c0.4,0.2,0.8,0.3,1.2,0.3h0.6v0.5h-7.8v-0.5h0.6c0.6,0.1,1.2-0.2,1.6-0.7c0.3-0.6,0.4-1.4,0.3-2.1v-5.5
		h-8.4v5.5c0,0.6,0,1.2,0.2,1.8c0.1,0.3,0.3,0.5,0.6,0.6c0.4,0.2,0.8,0.3,1.2,0.3h0.7v0.5h-7.8v-0.5h0.6c0.6,0.1,1.2-0.2,1.6-0.7
		c0.3-0.6,0.4-1.4,0.3-2.1V21.6c0-0.6,0-1.2-0.2-1.8c-0.1-0.2-0.3-0.5-0.5-0.6c-0.4-0.2-0.8-0.3-1.2-0.3h-0.6v-0.5h7.8v0.5h-0.7
		c-0.4,0-0.8,0.1-1.2,0.3c-0.3,0.1-0.5,0.4-0.6,0.6c-0.1,0.6-0.2,1.2-0.2,1.8V26.8z"/>
	<path id="Path_25" class="st0" d="M141.3,19.4v7.2h4c0.7,0.1,1.5-0.1,2.1-0.5c0.5-0.6,0.8-1.4,0.8-2.2h0.5v6.3h-0.5
		c-0.1-0.6-0.2-1.2-0.4-1.7c-0.2-0.3-0.5-0.6-0.8-0.7c-0.5-0.2-1.1-0.3-1.7-0.3h-4v6c0,0.5,0,1,0.1,1.5c0.1,0.2,0.2,0.3,0.4,0.4
		c0.3,0.1,0.7,0.2,1,0.2h3.1c0.8,0,1.5,0,2.2-0.2c0.5-0.2,1-0.5,1.3-0.8c0.7-0.7,1.3-1.6,1.7-2.5h0.5l-1.6,4.6h-14v-0.5h0.6
		c0.4,0,0.8-0.1,1.2-0.3c0.3-0.1,0.5-0.4,0.6-0.6c0.1-0.6,0.2-1.2,0.2-1.8V21.6c0.1-0.7,0-1.5-0.3-2.1c-0.4-0.4-1-0.6-1.6-0.5h-0.6
		v-0.5h14l0.2,4h-0.5c-0.1-0.7-0.3-1.4-0.6-2c-0.2-0.4-0.6-0.7-1-0.8c-0.6-0.2-1.3-0.2-1.9-0.2L141.3,19.4z"/>
	<path id="Path_26" class="st0" d="M170.4,36.6l-7-15.3v12.2c-0.1,0.7,0,1.4,0.4,2.1c0.4,0.4,1,0.6,1.6,0.6h0.6v0.5h-6.3v-0.5h0.6
		c0.6,0.1,1.2-0.2,1.6-0.7c0.3-0.6,0.4-1.3,0.3-2V21.6c0-0.6-0.1-1.2-0.3-1.7c-0.2-0.3-0.4-0.5-0.7-0.6c-0.5-0.2-1.1-0.3-1.6-0.3
		v-0.5h5.1l6.6,14.2l6.5-14.2h5.1v0.5h-0.6c-0.6-0.1-1.3,0.2-1.6,0.7c-0.3,0.6-0.4,1.3-0.3,2v11.9c-0.1,0.7,0,1.4,0.4,2.1
		c0.4,0.4,1,0.6,1.6,0.6h0.6v0.5h-7.7v-0.5h0.6c0.6,0.1,1.2-0.2,1.6-0.7c0.3-0.6,0.4-1.3,0.3-2V21.3l-7,15.3L170.4,36.6z"/>
	<path id="Path_27" class="st0" d="M196.2,30.5h-7l-1.2,2.9c-0.2,0.5-0.4,1-0.5,1.6c0,0.3,0.2,0.6,0.4,0.7c0.5,0.3,1.1,0.4,1.7,0.4
		v0.5h-5.7v-0.5c0.5,0,1-0.2,1.5-0.5c0.7-0.8,1.2-1.7,1.5-2.6l6.4-15h0.5l6.3,15.1c0.3,0.9,0.8,1.7,1.4,2.4c0.5,0.4,1.1,0.6,1.7,0.6
		v0.5H196v-0.5c0.5,0,1-0.1,1.5-0.4c0.2-0.2,0.4-0.5,0.4-0.8c-0.1-0.6-0.2-1.3-0.5-1.9L196.2,30.5z M195.8,29.5l-3.1-7.3l-3.2,7.3
		H195.8z"/>
	<path id="Path_28" class="st0" d="M203.9,36.6v-0.5h0.7c0.6,0.1,1.3-0.2,1.6-0.7c0.3-0.6,0.4-1.3,0.3-2V21.6c0.1-0.7,0-1.5-0.4-2.1
		c-0.4-0.4-1-0.6-1.6-0.6h-0.7v-0.5h7.4c2.1-0.1,4.2,0.2,6.2,0.9c1.4,0.6,2.6,1.7,3.4,3.1c0.9,1.5,1.3,3.2,1.3,5
		c0.1,2.3-0.8,4.6-2.3,6.3c-1.7,1.9-4.4,2.8-7.9,2.8L203.9,36.6z M209.1,35.3c0.9,0.2,1.9,0.4,2.9,0.4c2,0,3.8-0.7,5.2-2.2
		c1.4-1.6,2.2-3.8,2.1-5.9c0.1-2.2-0.6-4.3-2.1-5.9c-1.4-1.4-3.3-2.2-5.3-2.2c-0.9,0-1.9,0.1-2.7,0.4L209.1,35.3z"/>
	<path id="Path_29" class="st0" d="M231.7,36.1v0.5H224v-0.5h0.6c0.6,0.1,1.2-0.2,1.6-0.7c0.3-0.6,0.4-1.4,0.3-2.1V21.6
		c0-0.6,0-1.2-0.2-1.8c-0.1-0.2-0.3-0.5-0.5-0.6c-0.4-0.2-0.8-0.3-1.2-0.3H224v-0.5h7.8v0.5h-0.7c-0.6-0.1-1.2,0.2-1.6,0.7
		c-0.3,0.6-0.4,1.4-0.3,2.1v11.7c0,0.6,0,1.2,0.2,1.8c0.1,0.3,0.3,0.5,0.6,0.6c0.4,0.2,0.8,0.3,1.2,0.3L231.7,36.1z"/>
	<path id="Path_30" class="st0" d="M245,18v6.3h-0.5c-0.1-1-0.4-2-0.9-2.9c-0.4-0.7-1-1.3-1.8-1.7c-0.7-0.4-1.6-0.6-2.4-0.6
		c-0.9,0-1.7,0.3-2.3,0.9c-0.6,0.5-0.9,1.2-0.9,1.9c0,0.6,0.2,1.1,0.6,1.5c1.2,1.1,2.5,2,4,2.7c1.2,0.6,2.4,1.3,3.5,2.1
		c0.6,0.5,1.1,1,1.4,1.7c0.3,0.6,0.5,1.4,0.5,2.1c0,1.4-0.6,2.7-1.6,3.6c-1.1,1-2.6,1.6-4.1,1.5c-0.5,0-1,0-1.5-0.1
		c-0.6-0.1-1.2-0.3-1.7-0.5c-0.5-0.2-1.1-0.3-1.7-0.4c-0.2,0-0.4,0.1-0.5,0.2c-0.2,0.2-0.3,0.5-0.3,0.8h-0.5v-6.2h0.5
		c0.1,1,0.5,2,0.9,2.9c0.4,0.7,1.1,1.3,1.8,1.6c0.8,0.4,1.7,0.7,2.7,0.6c1,0.1,1.9-0.3,2.6-0.9c0.6-0.5,1-1.3,1-2.1
		c0-0.5-0.1-0.9-0.4-1.4c-0.3-0.5-0.7-0.9-1.1-1.3c-0.9-0.6-1.9-1.2-2.9-1.7c-1.2-0.6-2.3-1.3-3.3-2.1c-0.6-0.5-1.1-1-1.5-1.7
		c-0.3-0.6-0.5-1.3-0.5-2.1c0-1.3,0.5-2.5,1.5-3.4c1-1,2.4-1.5,3.8-1.4c1.1,0,2.1,0.3,3.1,0.7c0.3,0.2,0.7,0.3,1.1,0.3
		c0.2,0,0.4-0.1,0.6-0.2c0.2-0.2,0.3-0.5,0.4-0.8L245,18z"/>
	<path id="Path_31" class="st0" d="M257.7,18c2.3,0,4.6,1,6.1,2.7c1.7,1.8,2.7,4.2,2.6,6.7c0.1,2.5-0.9,5-2.6,6.9
		c-3.3,3.5-8.8,3.7-12.4,0.3c-0.1-0.1-0.2-0.2-0.3-0.3c-1.7-1.9-2.7-4.4-2.6-6.9c-0.1-2.7,1-5.3,3-7.1C253.3,18.8,255.5,18,257.7,18
		 M257.5,19c-1.5-0.1-3,0.6-3.9,1.8c-1.2,1.5-1.8,3.7-1.8,6.6c0,3,0.6,5.3,1.9,6.9c0.9,1.2,2.4,1.9,3.9,1.8c1.6,0,3.2-0.7,4.2-2
		c1.1-1.3,1.7-3.4,1.7-6.3c0-3.1-0.6-5.4-1.8-7C260.6,19.6,259,18.9,257.5,19"/>
	<path id="Path_32" class="st0" d="M267.2,18.4h4.9L283.2,32V21.6c0.1-0.7,0-1.4-0.4-2.1c-0.4-0.4-1-0.6-1.6-0.6h-0.6v-0.5h6.3v0.5
		h-0.6c-0.6-0.1-1.2,0.2-1.6,0.7c-0.3,0.6-0.4,1.3-0.3,2v15.3h-0.5l-12-14.6v11.2c-0.1,0.7,0,1.4,0.4,2.1c0.4,0.4,1,0.6,1.6,0.6h0.6
		v0.5h-6.3v-0.5h0.6c0.6,0.1,1.3-0.2,1.6-0.7c0.3-0.6,0.4-1.3,0.3-2V20.8c-0.4-0.4-0.8-0.9-1.2-1.2c-0.4-0.2-0.8-0.4-1.2-0.5
		c-0.4-0.1-0.8-0.1-1.2-0.1L267.2,18.4z"/>
	<path id="Path_33" class="st1" d="M103.5,47.7h1.9v5.8h7.2v-5.8h1.9v14.1h-1.9v-6.6h-7.2v6.6h-1.9V47.7z"/>
	<path id="Path_34" class="st1" d="M123.8,51.5h1.9c-0.2,0.7-0.8,2.2-1.6,4.5c-0.6,1.8-1.1,3.2-1.6,4.3c-0.6,1.7-1.3,3.3-2.1,4.8
		c-0.5,0.6-1.3,0.9-2.1,0.9c-0.2,0-0.4,0-0.6,0c-0.2,0-0.3-0.1-0.5-0.1v-1.6c0.2,0.1,0.4,0.1,0.6,0.2c0.1,0,0.2,0,0.4,0
		c0.2,0,0.5,0,0.7-0.2c0.1-0.1,0.3-0.2,0.4-0.4c0-0.1,0.1-0.3,0.3-0.8c0.2-0.5,0.3-0.8,0.4-1.1l-3.8-10.6h2l2.7,8.4L123.8,51.5z"/>
	<path id="Path_35" class="st1" d="M132.9,51.9c0.4,0.3,0.7,0.6,1,1v-5.2h1.7v14.1H134v-1.4c-0.3,0.6-0.8,1-1.4,1.4
		c-0.6,0.3-1.2,0.4-1.9,0.4c-1.2,0-2.2-0.5-3-1.4c-0.9-1.1-1.3-2.4-1.2-3.8c0-1.4,0.4-2.7,1.1-3.9c0.7-1.1,2-1.7,3.3-1.6
		C131.6,51.3,132.3,51.5,132.9,51.9 M129,59.6c0.5,0.8,1.3,1.2,2.2,1.1c0.8,0,1.5-0.4,2-1c0.6-0.9,0.8-1.9,0.8-3
		c0.1-1-0.2-2-0.8-2.9c-0.5-0.6-1.2-0.9-2-0.9c-0.8,0-1.6,0.4-2.1,1c-0.6,0.9-0.9,1.9-0.8,2.9C128.3,57.8,128.5,58.7,129,59.6"/>
	<path id="Path_36" class="st1" d="M144.5,51.8c0.6,0.3,1.2,0.8,1.6,1.3c0.4,0.5,0.6,1.2,0.7,1.8c0.1,0.7,0.2,1.5,0.2,2.3h-7.5
		c0,0.9,0.2,1.8,0.7,2.5c0.5,0.7,1.3,1,2.1,0.9c0.8,0,1.6-0.3,2.1-0.9c0.3-0.3,0.5-0.8,0.6-1.2h1.7c-0.1,0.4-0.2,0.9-0.4,1.3
		c-0.2,0.4-0.5,0.8-0.8,1.1c-0.5,0.5-1.2,0.9-1.9,1c-0.5,0.1-0.9,0.2-1.4,0.2c-1.2,0-2.4-0.5-3.2-1.4c-0.9-1.1-1.4-2.5-1.3-3.9
		c-0.1-1.5,0.4-2.9,1.3-4c0.9-1,2.1-1.6,3.5-1.5C143.1,51.3,143.8,51.5,144.5,51.8 M145.1,55.9c0-0.6-0.2-1.2-0.5-1.8
		c-0.5-0.8-1.4-1.3-2.3-1.2c-0.8,0-1.5,0.3-2,0.9c-0.5,0.6-0.8,1.4-0.8,2.2L145.1,55.9z"/>
	<path id="Path_37" class="st1" d="M154.9,47.7h6.3c1.1-0.1,2.2,0.3,3,1.1c0.8,0.8,1.2,1.9,1.1,3c0,1-0.3,2.1-1,2.9
		c-0.8,0.9-2,1.3-3.1,1.2h-4.4v5.9h-1.9L154.9,47.7z M162.3,49.7c-0.5-0.2-1.1-0.3-1.7-0.3h-3.8v4.9h3.8c0.7,0,1.5-0.2,2.1-0.5
		c0.6-0.5,0.9-1.2,0.8-1.9C163.5,50.9,163.1,50.1,162.3,49.7"/>
	<path id="Path_38" class="st1" d="M173.1,55.6c0.3,0,0.6-0.2,0.8-0.5c0.1-0.2,0.1-0.4,0.1-0.7c0-0.5-0.2-1-0.6-1.3
		c-0.5-0.3-1.2-0.4-1.8-0.4c-0.7-0.1-1.4,0.2-1.9,0.7c-0.2,0.4-0.4,0.8-0.4,1.2h-1.6c-0.1-1,0.4-2,1.2-2.6c0.8-0.5,1.8-0.8,2.7-0.7
		c1,0,2,0.2,2.9,0.7c0.7,0.5,1.2,1.3,1.1,2.1V60c0,0.2,0,0.3,0.1,0.4c0.1,0.1,0.3,0.2,0.5,0.2c0.1,0,0.2,0,0.3,0s0.2,0,0.3,0v1.3
		c-0.2,0.1-0.4,0.1-0.6,0.1c-0.2,0-0.4,0-0.6,0c-0.5,0-1-0.2-1.3-0.6c-0.2-0.3-0.3-0.6-0.3-0.9c-0.4,0.5-0.9,0.9-1.5,1.2
		c-0.7,0.3-1.4,0.5-2.2,0.5c-0.9,0-1.7-0.3-2.3-0.9c-0.6-0.6-0.9-1.3-0.9-2.2c0-0.8,0.3-1.6,0.9-2.2c0.7-0.6,1.5-0.9,2.3-1
		L173.1,55.6z M169.4,60.2c0.4,0.3,0.8,0.4,1.3,0.4c0.6,0,1.2-0.1,1.8-0.4c0.9-0.4,1.5-1.3,1.4-2.3v-1.4c-0.3,0.2-0.5,0.3-0.8,0.3
		c-0.3,0.1-0.6,0.2-1,0.2l-1,0.1c-0.5,0-1,0.2-1.4,0.4c-0.5,0.3-0.8,0.8-0.8,1.4C168.9,59.5,169.1,60,169.4,60.2"/>
	<path id="Path_39" class="st1" d="M178.5,51.5h1.6v1.8c0.2-0.5,0.6-0.9,1-1.3c0.5-0.5,1.1-0.7,1.8-0.7c0,0,0.1,0,0.2,0s0.2,0,0.4,0
		v1.8c-0.1,0-0.2,0-0.3,0c-0.1,0-0.2,0-0.3,0c-0.8,0-1.5,0.3-2,0.8c-0.5,0.5-0.7,1.2-0.7,1.9v5.9h-1.7L178.5,51.5z"/>
	<path id="Path_40" class="st1" d="M185,47.7h1.7v8.2l4.4-4.4h2.2l-3.9,3.8l4.2,6.4h-2.2l-3.2-5.2l-1.4,1.4v3.9H185V47.7z"/>
	<path id="Path_41" class="st1" d="M41.6,55.6L31.1,32.9v18c0,1.7,0.2,2.7,0.5,3.1c0.6,0.6,1.5,0.9,2.3,0.8h1v0.7h-9.4v-0.7h1
		c0.9,0.1,1.9-0.3,2.4-1c0.4-0.9,0.5-1.9,0.4-2.9V33.3c0.1-0.9-0.1-1.8-0.4-2.6c-0.2-0.4-0.6-0.8-1-1c-0.8-0.3-1.6-0.4-2.4-0.4v-0.7
		h7.6L43,49.7l9.6-21.1h7.6v0.7h-0.9c-0.9-0.1-1.9,0.3-2.5,1c-0.4,0.9-0.5,1.9-0.4,2.9v17.6c0,1.7,0.2,2.7,0.6,3.1
		c0.6,0.6,1.5,0.9,2.3,0.8h0.9v0.7H48.8v-0.7h1c0.9,0.1,1.9-0.3,2.4-1c0.4-0.9,0.5-1.9,0.4-2.9v-18L42.2,55.6H41.6z"/>
	<path id="Path_42" class="st0" d="M84.2,37.5l-8.3-20.7c-1.4-3.1-3.9-5.6-7-7.1L48.5,0.9c-3.2-1.2-6.7-1.2-10-0.1L17.8,9.1
		c-3.1,1.4-5.6,3.9-7.1,7L1.9,36.5c-1.2,3.2-1.2,6.7-0.1,10l8.3,20.7c1.4,3.1,3.9,5.6,7,7.1l20.5,8.8c1.7,0.6,3.4,0.9,5.2,0.9
		c1.6,0,3.3-0.2,4.8-0.8l20.7-8.3c3.1-1.4,5.6-3.9,7.1-7l8.8-20.5C85.3,44.2,85.3,40.7,84.2,37.5 M36.9,79.2l-9.8-9.8
		c1,0.3,2.1,0.5,3.1,0.5c0.8,0,1.7-0.1,2.5-0.3L43,66.2l10.4,3.3c0.8,0.2,1.6,0.4,2.5,0.3c1.1,0,2.1-0.2,3.1-0.5l-9.8,9.8
		C45.7,82.6,40.3,82.6,36.9,79.2 M5.8,35.9l9.8-9.8c-0.4,1.5-0.4,3-0.1,4.5l3.1,12.3l-2.9,10.5c-0.4,1.5-0.3,3.1,0.1,4.7l-10-10
		C2.4,44.7,2.4,39.3,5.8,35.9 M25.1,16.6c1.3-0.6,2.7-1,4.1-1c0.6,0,1.1,0.1,1.7,0.2l9.3,2.6l-10.5,2.9c-3.2,1.1-5.7,3.6-6.8,6.8
		l-3.3,11.7l-2.4-9.6c-0.4-2.4,0-4.9,1.3-6.9L25.1,16.6z M43,2.3c2.3,0,4.5,0.9,6.1,2.5l9.4,9.4C57.3,14,56,14,54.8,14.3L43,17.6
		l-11.8-3.3C30,14,28.7,14,27.5,14.2l9.4-9.4C38.5,3.2,40.7,2.2,43,2.3 M67.6,23.3c1.3,2.1,1.8,4.5,1.3,6.9l-2.4,9.6l-3.3-11.7
		c-1.1-3.2-3.6-5.7-6.8-6.8l-10.5-2.9l9.3-2.6c0.5-0.1,1.1-0.2,1.7-0.2c1.4,0,2.8,0.4,4.1,1L67.6,23.3z M66.7,61.4l-5.1,4.8
		c-2.2,1.8-5.1,2.5-7.8,1.8l-8.2-2.6l12.3-3.9c3.2-1.2,5.6-3.8,6.6-7l2.1-8.5l2.2,7.8C69.4,56.6,68.6,59.4,66.7,61.4 M63,54.1
		c-0.9,2.7-2.9,4.9-5.5,5.9L43,64.6L28.6,60c-2.7-1-4.7-3.2-5.5-5.9l-2.8-11.2l4-14.4l0,0c0.9-2.7,3-4.8,5.7-5.7L43,19.2l13.1,3.6
		c2.7,0.9,4.8,3,5.7,5.7l4,14.4L63,54.1z M19.3,61.4c-1.9-2-2.7-4.9-2.1-7.6l2.2-7.8l2.1,8.5c1,3.2,3.4,5.8,6.6,7l12.3,3.9L32.2,68
		c-2.7,0.7-5.6,0-7.8-1.8L19.3,61.4z M70.3,53.4l-2.9-10.5l3.1-12.3c0.3-1.5,0.3-3-0.1-4.5l9.8,9.8c3.4,3.4,3.4,8.8,0,12.2l-10,10
		C70.7,56.6,70.7,55,70.3,53.4 M61.9,15.4L50.2,3.7c-0.2-0.2-0.4-0.4-0.6-0.6l18.7,8c2.7,1.3,4.9,3.6,6.1,6.3L81.5,35
		c-0.1-0.1-0.1-0.1-0.2-0.2L68.8,22.3L61.9,15.4z M17.2,22.3L4.7,34.8c-0.2,0.2-0.4,0.4-0.6,0.6l8-18.7c1.3-2.7,3.6-4.9,6.3-6.1
		L36,3.5c-0.1,0.1-0.1,0.1-0.2,0.2L24.1,15.4L17.2,22.3z M11.5,66.6L4.5,49c0.1,0.1,0.1,0.1,0.2,0.2l31.1,31.1
		c0.2,0.2,0.4,0.4,0.6,0.6l-18.7-8C15,71.5,12.8,69.3,11.5,66.6 M73.9,67.3c-1.3,2.7-3.6,4.9-6.3,6.1L50,80.5
		c0.1-0.1,0.1-0.1,0.2-0.2l31.1-31.1c0.2-0.2,0.4-0.4,0.6-0.6L73.9,67.3z"/>
</g>
</svg>
