<?xml version="1.0" encoding="utf-8"?>
<!-- Generator: Adobe Illustrator 19.0.0, SVG Export Plug-In . SVG Version: 6.00 Build 0)  -->
<svg version="1.1" id="Capa_1" xmlns="http://www.w3.org/2000/svg" xmlns:xlink="http://www.w3.org/1999/xlink" x="0px" y="0px"
	 viewBox="0 0 1077.2 507.7" style="enable-background:new 0 0 1077.2 507.7;" xml:space="preserve">
<style type="text/css">
	.st0{fill:#FFFFFF;}
	.st1{fill:#34B297;}
	.st2{fill:#CEDF9A;}
</style>
<path id="XMLID_121_" class="st0" d="M186.7,7.6v218.8c0,5.1-2.5,7.6-7.6,7.6h-30.9c-5.1,0-7.6-2.5-7.6-7.6V7.6
	c0-5.1,2.5-7.6,7.6-7.6H179C184.1,0,186.7,2.5,186.7,7.6z"/>
<path id="XMLID_118_" class="st0" d="M272.6,55.3v44.8c0,5.1-2.3,7.6-6.9,7.6h-32.4c-4.9,0-7.3-2.8-7.3-8.4V55.7
	c0-4.8,2.4-7.3,7.3-7.3h32.4C270.3,48.4,272.6,50.7,272.6,55.3z M272.6,181.7v44.8c0,5.1-2.3,7.6-6.9,7.6h-32.4
	c-4.9,0-7.3-2.7-7.3-8v-44c0-4.9,2.4-7.3,7.3-7.3h32.4C270.3,174.7,272.6,177,272.6,181.7z"/>
<path id="XMLID_20_" class="st0" d="M582.7,51.2h-11.6c-18.4,0-30.3,4-35.7,19H531V56c0-5.1,0.4-4.8-4.7-4.8h-30.9
	c-5.1,0-7.4-0.3-7.4,4.8v141.2H371.7c-7.8,0-13.4-2.9-16.7-6.1c-3.3-3.3-5-9.9-5-17.4v-8c0-2.7,1.7-1.4,4.6-1.4H446
	c5.1,0,2-5.1,2-10.2v-46.2c0-19.2-2.4-32.5-12.9-42.7c-10.4-10.2-22.4-13.9-41.6-13.9h-28.8c-19.2,0-34.9,3.7-45.3,13.9
	C309.1,75.3,303,88.6,303,107.7v67c0,19.2,6.1,34.4,16.5,44.6c10.4,10.2,26.1,15.9,45.3,15.9h127.1c0.7,0,1.3,0,1.9-0.1
	c0.5,0.1,1,0.1,1.5,0.1h30.9c5.1,0,4.7-3.7,4.7-8.8V116.1c0-18.4,11.3-21.9,28.1-21.9h13.1c7.8,0,13.5-1.2,16.8,2
	c3.3,3.3,5.1,5.9,5.1,13.7v116.5c0,5.1,2.2,8.8,7.3,8.8h30.6c5.4,0,5.1-3.7,5.1-8.8V107.7C637,68.2,620.8,51.2,582.7,51.2z
	 M350,109.2c0-7.8,1.9-12.2,5-15.3c3.1-3.2,8.9-3.7,16.7-3.7H387c7.8,0,11.7,0.5,14.8,3.7c3.2,3.2,3.2,7.6,3.2,15.3v17.5
	c0,2.7,1.8,7.5-0.9,7.5h-49.5c-2.7,0-4.6-4.8-4.6-7.5V109.2z"/>
<path id="XMLID_116_" class="st0" d="M716.2,234.1h-30.9c-5.1,0-7.6-2.5-7.6-7.6V56c0-5.1,2.5-7.6,7.6-7.6h30.9
	c5.1,0,7.6,2.5,7.6,7.6v12h1.4c5.3-13.1,17.2-19.7,35.7-19.7h11.7c38.1,0,57.2,19.8,57.2,59.4v118.7c0,5.1-2.7,7.6-8,7.6h-30.6
	c-5.1,0-7.6-2.5-7.6-7.6V109.9c0-7.8-1.6-13.3-4.9-16.6c-3.3-3.3-8.8-4.9-16.6-4.9h-13.1c-16.8,0-25.1,9.2-25.1,27.7v110.3
	C723.8,231.5,721.3,234.1,716.2,234.1z"/>
<g id="XMLID_114_">
	<path id="XMLID_115_" class="st1" d="M85.9,81l15,15c5.1,5.1,5.1,10,0,15.1l-28.2,28.2c-3.2,3.2-3.2,6.4,0,9.6l34,34
		c5.1,5.1,5,10,0,15.1l-15,15c-5,5-9.9,5-15-0.1l-61.8-61.8c-4.7-4.7-4.5-9.5,0.5-14.5l55.6-55.6C76,76,81,76,85.9,81z"/>
</g>
<path id="XMLID_111_" class="st0" d="M363.5,507.7h-30.9c-5.1,0-7.6-2.5-7.6-7.6V281.2c0-5.1,2.5-7.6,7.6-7.6h86.6
	c18.9,0,33.7,5.2,44.4,15.7s16,25.1,16,44v28.4c0,27.4-10.8,45.6-32.4,54.6v1.5l39,81.2c2.2,5.8,0.1,8.7-6.2,8.7h-29.5
	c-4.4,0-7.5-0.5-9.5-1.5c-1.9-1-3.5-3-4.7-6.2l-36.4-78.6h-24.4c-2.9,0-4.4,1.3-4.4,4V500C371.1,505.1,368.6,507.7,363.5,507.7z
	 M375.2,384.3h35.7c7.8,0,13.5-1.6,17.1-4.9c3.6-3.3,5.5-8.5,5.5-15.8v-28.4c0-7.5-1.8-13-5.5-16.4c-3.6-3.4-9.3-5.1-17.1-5.1h-35.7
	c-2.7,0-4,1.3-4,4v62.6C371.1,382.9,372.5,384.3,375.2,384.3z"/>
<path id="XMLID_110_" class="st2" d="M500.4,290.7V259c0-4.9,2.4-7.3,7.3-7.3h31.7c4.8,0,7.3,2.3,7.3,6.9v32c0,4.9-2.4,7.3-7.3,7.3
	h-31.7C502.8,298,500.4,295.6,500.4,290.7z"/>
<path id="XMLID_109_" class="st0" d="M500.4,500V329.7c0-5.1,2.4-7.6,7.3-7.6H539c5.1,0,7.6,2.5,7.6,7.6V500c0,3.2-0.5,5.2-1.6,6.2
	c-1.1,1-3,1.5-5.6,1.5H508C502.9,507.7,500.4,505.1,500.4,500z"/>
<path id="XMLID_8_" class="st0" d="M1005.1,51.2h-30.6c-5.1,0-8.1,2.1-9.1,7.2l-30.9,133.8H933L901.7,58.4c-1.2-5.1-4.3-7.2-9.1-7.2
	h-32.4c-5.1,0-6.9,1.2-5.5,6.3l42.6,159.3c1.5,5.1,4.5,6.4,9.1,6.4h19.3c-2.9,16-7.1,88.9-12.6,93.1c-5.5,4.2-15.8,9.9-31.1,9.9
	h-60.8c-19.2,0-33.3,1.9-42.2,9.9c-9,8-13.5,19.4-13.5,36.4c0,11.4,2.9,20.2,8.7,27.5c5.8,7.3,14.9,13.8,27.3,20.1l35.8,19.9
	c10,5.3,14.7,10.8,14.7,16.6v1.8c0,7.3-5.5,12.7-17.4,12.7H734.2c1.8-4,1.8-15.1,1.8-22.9v-67c0-18.9-4.9-31.5-15.4-41.8
	c-10.6-10.3-24.9-13.4-43.8-13.4h-32.4c-19.2,0-35.6,3-46.1,13.2c-10.5,10.2-17.3,22.8-17.3,42v67c0,19.2,6.9,35.1,17.3,45.3
	c10.4,10.2,26.9,16.5,46.1,16.5H843c38.1,0,57.2-17.5,57.2-50.1c0-11.6-2.5-21.6-7.6-28.8c-5.1-7.1-14-14.5-26.6-21.3l-38.5-22
	c-10.4-5.6-17.4-11.2-17.4-16.6v-1.8c0-6.1,9.5-8.5,21.4-8.5h50.6c0.4,0,0.7,0,1,0h13.3c19.2,0,35.7-4.5,46.9-14.9
	c11.2-10.4,19.4-91.8,24.8-111.9l44.4-176.4C1013.6,52.6,1011.1,51.2,1005.1,51.2z M688,446.9c0,7.8,0,14.8-3.2,18
	c-3.3,3.2-7.1,6.3-14.9,6.3h-18.6c-7.8,0-15.9-3.2-19-6.3c-3.2-3.1-7.3-10.2-7.3-18v-64.1c0-7.8,4.2-11.5,7.3-14.6
	c3.2-3.2,11.2-3,19-3h18.6c7.8,0,11.6-0.2,14.9,3c3.3,3.2,3.2,6.9,3.2,14.6V446.9z"/>
<g id="XMLID_93_">
	<path id="XMLID_108_" class="st1" d="M987.3,345.3l-15,15c-5.1,5.1-5.1,10,0,15.1l28.2,28.2c3.2,3.2,3.2,6.4,0,9.6l-34,34
		c-5.1,5.1-5,10,0,15.1l15,15c5,5,9.9,5,15-0.1l61.8-61.8c4.7-4.7,4.5-9.5-0.5-14.5l-55.6-55.6C997.2,340.4,992.2,340.4,987.3,345.3
		z"/>
</g>
</svg>
