<?xml version="1.0" encoding="utf-8"?>
<!-- Generator: Adobe Illustrator 19.0.0, SVG Export Plug-In . SVG Version: 6.00 Build 0)  -->
<svg version="1.1" id="Capa_1" xmlns="http://www.w3.org/2000/svg" xmlns:xlink="http://www.w3.org/1999/xlink" x="0px" y="0px"
	 viewBox="0 0 248.1 129.1" style="enable-background:new 0 0 248.1 129.1;" xml:space="preserve">
<style type="text/css">
	.st0{fill:#FFFFFF;}
	.st1{fill:#34B297;}
	.st2{fill:#CEDF9A;}
</style>
<g>
	<g id="XMLID_26_">
		<path id="XMLID_65_" class="st0" d="M44.5,1.9v55.7c0,1.3-0.6,1.9-1.9,1.9h-7.9c-1.3,0-1.9-0.6-1.9-1.9V1.9c0-1.3,0.6-1.9,1.9-1.9
			h7.9C43.9,0,44.5,0.6,44.5,1.9z"/>
		<path id="XMLID_49_" class="st0" d="M66.4,14.1v11.4c0,1.3-0.6,1.9-1.8,1.9h-8.2c-1.2,0-1.9-0.7-1.9-2.1V14.2
			c0-1.2,0.6-1.9,1.9-1.9h8.2C65.8,12.3,66.4,12.9,66.4,14.1z M66.4,46.2v11.4c0,1.3-0.6,1.9-1.8,1.9h-8.2c-1.2,0-1.9-0.7-1.9-2
			V46.3c0-1.2,0.6-1.9,1.9-1.9h8.2C65.8,44.4,66.4,45,66.4,46.2z"/>
		<path id="XMLID_35_" class="st0" d="M114.1,59.5H86.6c-4.9,0-8.6-1.3-11.3-3.9c-2.7-2.6-4-6.3-4-11.2v-17c0-4.9,1.3-8.6,4-11.2
			c2.7-2.6,6.4-3.9,11.3-3.9h7.3c4.9,0,8.6,1.3,11.3,3.9c2.7,2.6,4,6.3,4,11.2v11.8c0,1.3-0.6,1.9-1.9,1.9H84c-0.7,0-1.1,0.3-1.1,1
			v2c0,1.9,0.4,3.3,1.3,4.1c0.8,0.8,2.2,1.3,4.2,1.3h25.7c1.3,0,1.9,0.7,1.9,2v6.1c0,0.7-0.1,1.2-0.4,1.4
			C115.3,59.4,114.8,59.5,114.1,59.5z M84,33.2h12.6c0.7,0,1-0.3,1-1v-4.4c0-2-0.4-3.4-1.2-4.2c-0.8-0.8-2.2-1.2-4.2-1.2h-3.9
			c-2,0-3.4,0.4-4.2,1.2c-0.8,0.8-1.2,2.2-1.2,4.2v4.4C83,32.9,83.3,33.2,84,33.2z"/>
		<path id="XMLID_31_" class="st0" d="M122.3,59.5h-7.9c-1.3,0-1.9-0.6-1.9-1.9V14.3c0-1.3,0.6-1.9,1.9-1.9h7.9
			c1.3,0,1.9,0.6,1.9,1.9v3.1h0.4c1.4-3.3,4.4-5,9.1-5h3c9.7,0,14.5,5,14.5,15.1v30.2c0,1.3-0.7,1.9-2,1.9h-7.8
			c-1.3,0-1.9-0.6-1.9-1.9V28c0-2-0.4-3.4-1.2-4.2c-0.8-0.8-2.2-1.3-4.2-1.3h-3.3c-4.3,0-6.4,2.3-6.4,7v28.1
			C124.2,58.9,123.6,59.5,122.3,59.5z"/>
		<path id="XMLID_29_" class="st0" d="M165.1,59.5h-7.9c-1.3,0-1.9-0.6-1.9-1.9V14.3c0-1.3,0.6-1.9,1.9-1.9h7.9
			c1.3,0,1.9,0.6,1.9,1.9v3.1h0.4c1.4-3.3,4.4-5,9.1-5h3c9.7,0,14.5,5,14.5,15.1v30.2c0,1.3-0.7,1.9-2,1.9h-7.8
			c-1.3,0-1.9-0.6-1.9-1.9V28c0-2-0.4-3.4-1.2-4.2c-0.8-0.8-2.2-1.3-4.2-1.3h-3.3c-4.3,0-6.4,2.3-6.4,7v28.1
			C167.1,58.9,166.4,59.5,165.1,59.5z"/>
		<path id="XMLID_27_" class="st0" d="M205.9,82.2H200c-1.2,0-1.9-0.7-1.9-2v-6.2c0-1.4,0.6-2,1.9-2h1.9c3.9,0,6.5-0.5,7.9-1.6
			c1.4-1.1,2.5-10.2,3.2-13.2h-4.9c-1.2,0-1.9-0.6-2.3-1.9L195,14.3c-0.4-1.3,0.1-1.9,1.4-1.9h8.2c1.2,0,2,0.6,2.3,1.9l8,34.2h0.4
			l7.9-34.2c0.2-1.3,1-1.9,2.3-1.9h7.8c1.5,0,2.2,0.7,1.8,2l-11.3,45.2c-1.4,5.1-3.5,16-6.3,18.7C214.6,80.9,210.8,82.2,205.9,82.2z
			"/>
	</g>
	<g id="XMLID_24_">
		<path id="XMLID_25_" class="st1" d="M18.9,20.6l3.8,3.8c1.3,1.3,1.3,2.5,0,3.8l-7.2,7.2c-0.8,0.8-0.8,1.6,0,2.5l8.6,8.6
			c1.3,1.3,1.3,2.5,0,3.8l-3.8,3.8c-1.3,1.3-2.5,1.3-3.8,0L0.9,38.4C-0.3,37.2-0.3,36,1,34.8l14.1-14.1
			C16.4,19.3,17.7,19.3,18.9,20.6z"/>
	</g>
	<path id="XMLID_21_" class="st0" d="M91.7,129.1h-7.9c-1.3,0-1.9-0.6-1.9-1.9V71.5c0-1.3,0.6-1.9,1.9-1.9h22c4.8,0,8.6,1.3,11.3,4
		c2.7,2.7,4.1,6.4,4.1,11.2V92c0,7-2.8,11.6-8.2,13.9v0.4l9.9,20.7c0.6,1.5,0,2.2-1.6,2.2h-7.5c-1.1,0-1.9-0.1-2.4-0.4
		c-0.5-0.2-0.9-0.8-1.2-1.6l-9.3-20h-6.2c-0.7,0-1.1,0.3-1.1,1v19C93.6,128.5,93,129.1,91.7,129.1z M94.7,97.8h9.1
		c2,0,3.4-0.4,4.4-1.3c0.9-0.8,1.4-2.2,1.4-4v-7.2c0-1.9-0.5-3.3-1.4-4.2c-0.9-0.9-2.4-1.3-4.4-1.3h-9.1c-0.7,0-1,0.3-1,1v15.9
		C93.6,97.4,94,97.8,94.7,97.8z"/>
	<path id="XMLID_20_" class="st2" d="M126.5,74v-8.1c0-1.2,0.6-1.9,1.8-1.9h8.1c1.2,0,1.9,0.6,1.9,1.8V74c0,1.2-0.6,1.9-1.9,1.9
		h-8.1C127.1,75.8,126.5,75.2,126.5,74z"/>
	<path id="XMLID_19_" class="st0" d="M126.5,127.2V83.9c0-1.3,0.6-1.9,1.8-1.9h8c1.3,0,1.9,0.6,1.9,1.9v43.3c0,0.8-0.1,1.3-0.4,1.6
		c-0.3,0.2-0.8,0.4-1.4,0.4h-8C127.2,129.1,126.5,128.5,126.5,127.2z"/>
	<path id="XMLID_8_" class="st0" d="M166,129.1h-8.2c-4.9,0-8.6-1.3-11.3-3.9c-2.7-2.6-4-6.3-4-11.2V97c0-4.9,1.3-8.6,4-11.2
		c2.7-2.6,6.4-3.9,11.3-3.9h8.2c4.8,0,8.6,1.3,11.2,3.9c2.7,2.6,4,6.3,4,11.2v17c0,4.8-1.3,8.5-4,11.2
		C174.5,127.8,170.8,129.1,166,129.1z M159.5,119.1h4.7c2,0,3.4-0.4,4.2-1.2c0.8-0.8,1.2-2.2,1.2-4.2V97.4c0-2-0.4-3.4-1.2-4.2
		c-0.8-0.8-2.2-1.2-4.2-1.2h-4.7c-2,0-3.4,0.4-4.2,1.2s-1.2,2.2-1.2,4.2v16.3c0,2,0.4,3.4,1.2,4.2
		C156.1,118.7,157.5,119.1,159.5,119.1z"/>
	<path id="XMLID_6_" class="st0" d="M202.8,129.1h-42.1c-1.2,0-1.9-0.6-1.9-1.9v-5.9c0-0.7,0.1-1.2,0.4-1.4c0.2-0.3,0.7-0.4,1.5-0.4
		h39.9c3,0,4.5-0.9,4.5-2.8v-0.5c0-1.5-1.3-2.9-3.8-4.3l-9.2-5.1c-3.1-1.6-5.5-3.3-6.9-5.2c-1.5-1.9-2.2-4.2-2.2-7.1
		c0-4.3,1.1-7.5,3.4-9.5s5.9-3.1,10.7-3.1h15.5c1.2,0,1.9,0.6,1.9,1.9v6c0,0.7-0.1,1.2-0.4,1.4c-0.2,0.3-0.7,0.4-1.5,0.4h-12.9
		c-3,0-4.5,0.8-4.5,2.3v0.5c0,1.4,1.3,2.7,4,4.2l9.4,5.6c3.2,1.7,5.5,3.5,6.8,5.3c1.3,1.8,1.9,4.2,1.9,7.2
		C217.4,125,212.5,129.1,202.8,129.1z"/>
	<g id="XMLID_3_">
		<path id="XMLID_5_" class="st1" d="M229.2,87.9l-3.8,3.8c-1.3,1.3-1.3,2.5,0,3.8l7.2,7.2c0.8,0.8,0.8,1.6,0,2.5l-8.6,8.6
			c-1.3,1.3-1.3,2.5,0,3.8l3.8,3.8c1.3,1.3,2.5,1.3,3.8,0l15.7-15.7c1.2-1.2,1.1-2.4-0.1-3.7L233,87.9
			C231.7,86.6,230.5,86.6,229.2,87.9z"/>
	</g>
</g>
</svg>
