<?xml version="1.0" encoding="utf-8"?>
<!-- Generator: Adobe Illustrator 21.0.0, SVG Export Plug-In . SVG Version: 6.00 Build 0)  -->
<svg version="1.1" id="Capa_1" xmlns="http://www.w3.org/2000/svg" xmlns:xlink="http://www.w3.org/1999/xlink" x="0px" y="0px"
	 viewBox="0 0 512 460" style="enable-background:new 0 0 512 460;" xml:space="preserve">
<style type="text/css">
	.st0{fill:#FFFFFF;}
</style>
<title></title>
<g id="icomoon-ignore">
</g>
<path class="st0" d="M465,123H49c-9.4,0-17-7.7-17-17V62c0-9.4,7.7-17,17-17h416c9.4,0,17,7.7,17,17v44C482,115.3,474.3,123,465,123
	z"/>
<path class="st0" d="M465,271H49c-9.4,0-17-7.7-17-17v-44c0-9.4,7.7-17,17-17h416c9.4,0,17,7.7,17,17v44
	C482,263.3,474.3,271,465,271z"/>
<path class="st0" d="M465,419H49c-9.4,0-17-7.7-17-17v-44c0-9.4,7.7-17,17-17h416c9.4,0,17,7.7,17,17v44
	C482,411.3,474.3,419,465,419z"/>
</svg>
