<?xml version="1.0" encoding="utf-8"?>
<!-- Generator: Adobe Illustrator 28.0.0, SVG Export Plug-In . SVG Version: 6.00 Build 0)  -->
<svg version="1.1" id="Mini_Mall_-_Colour_Logo" xmlns="http://www.w3.org/2000/svg" xmlns:xlink="http://www.w3.org/1999/xlink"
	 x="0px" y="0px" viewBox="0 0 249.7 64.6" style="enable-background:new 0 0 249.7 64.6;" xml:space="preserve">
<style type="text/css">
	.st0{fill:#DB6015;}
	.st1{fill:#FFFFFF;}
</style>
<path class="st0" d="M60.1,47.8V9h8.8v38.8H60.1z"/>
<path class="st0" d="M92.6,47.8l-9-23.6h-0.2l0.2,23.6h-7.8V9h9.6l8.9,23.9h0.2L94.4,9h7.6v38.8H92.6z"/>
<path class="st0" d="M108.8,47.8V9h8.8v38.8H108.8z"/>
<path class="st0" d="M162.2,47.8l0.3-26.6h-0.2l-6.5,26.6h-6.2l-6.3-26.6h-0.2l0.3,26.6h-7.9V9h11.1l6.2,25h0.2l6.1-25h11.7v38.8
	H162.2z"/>
<path class="st0" d="M194.8,47.8l-1.6-7.1h-8.7l-1.6,7.1h-8.8L183.6,9h11l9.4,38.8H194.8z M189,17.5h-0.2l-3.3,16.5h6.6L189,17.5z"
	/>
<path class="st0" d="M207.4,47.8V9h8.9v30.7h10.3v8.1L207.4,47.8z"/>
<path class="st0" d="M230.5,47.8V9h8.9v30.7h10.3v8.1L230.5,47.8z"/>
<polygon class="st0" points="49.7,21.2 49.5,21.2 43,47.8 36.8,47.8 30.5,21.2 30.3,21.2 30.6,47.8 22.7,47.8 22.7,9 33.7,9 40,34 
	40.2,34 46.2,9 54.5,9 54.5,0 0,0 0,54.5 54.5,54.5 54.5,47.8 49.4,47.8 "/>
<path class="st1" d="M133.4,63.1c0.6,0.4,1.3,0.6,2,0.6c1.1,0,1.8-0.6,1.8-1.5s-0.5-1.3-1.6-1.7c-1.4-0.5-2.3-1.2-2.3-2.4
	s1.1-2.3,2.8-2.3c0.7,0,1.3,0.1,1.9,0.4l-0.3,0.9c-0.5-0.3-1.1-0.4-1.6-0.4c-1.2,0-1.6,0.7-1.6,1.3c0,0.8,0.5,1.2,1.7,1.7
	c1.4,0.6,2.2,1.3,2.2,2.5s-1,2.5-3,2.5c-0.8,0-1.5-0.2-2.2-0.6L133.4,63.1z"/>
<path class="st1" d="M141.5,56.8h-2.6v-0.9h6.4v0.9h-2.6v7.7h-1.1V56.8z"/>
<path class="st1" d="M153.2,60c0,3-1.8,4.5-4,4.5s-3.9-1.8-3.9-4.4s1.7-4.5,4-4.5S153.2,57.5,153.2,60z M146.6,60.1
	c0,1.8,1,3.5,2.7,3.5s2.8-1.6,2.8-3.6c0-1.7-0.9-3.5-2.8-3.5S146.6,58.3,146.6,60.1L146.6,60.1z"/>
<path class="st1" d="M154.7,55.9c0.7-0.1,1.4-0.2,2.1-0.2c0.9-0.1,1.8,0.2,2.5,0.7c0.4,0.4,0.7,1,0.7,1.6c0,1-0.6,1.9-1.6,2.2l0,0
	c0.7,0.3,1.2,1,1.3,1.7c0.1,0.8,0.4,1.6,0.7,2.4h-1.1c-0.3-0.7-0.4-1.3-0.6-2c-0.3-1.2-0.7-1.6-1.7-1.7h-1.1v3.7h-1.1V55.9z
	 M155.8,59.9h1.2c1.2,0,1.9-0.7,1.9-1.6s-0.8-1.6-2-1.6c-0.4,0-0.7,0-1.1,0.1L155.8,59.9z"/>
<path class="st1" d="M163,61.7l-0.9,2.7H161l2.9-8.6h1.3l2.9,8.6H167l-0.9-2.7H163z M165.8,60.9l-0.8-2.5c-0.2-0.6-0.3-1.1-0.4-1.6
	l0,0c-0.1,0.5-0.3,1-0.4,1.6l-0.9,2.5H165.8z"/>
<path class="st1" d="M175.8,64.1c-0.8,0.3-1.7,0.5-2.6,0.5c-2.2,0.2-4.2-1.3-4.4-3.5c0-0.3,0-0.5,0-0.8c-0.1-2.4,1.8-4.4,4.2-4.5
	c0.2,0,0.3,0,0.5,0c0.7,0,1.5,0.1,2.1,0.4l-0.3,0.9c-0.6-0.3-1.3-0.4-1.9-0.4c-1.8-0.1-3.3,1.2-3.5,3c0,0.2,0,0.3,0,0.5
	c-0.2,1.7,1.1,3.3,2.8,3.5c0.2,0,0.3,0,0.5,0c0.5,0,1-0.1,1.5-0.2v-2.6H173v-0.9h2.8V64.1z"/>
<path class="st1" d="M182,60.4h-3.4v3.1h3.7v0.9h-4.9v-8.6h4.7v0.9h-3.5v2.7h3.4V60.4z"/>
<path class="st1" d="M186.5,55.9c0.7-0.1,1.4-0.2,2.1-0.2c0.9-0.1,1.7,0.2,2.4,0.7c0.5,0.5,0.8,1.1,0.8,1.8c0,0.7-0.2,1.3-0.7,1.8
	c-0.7,0.7-1.7,1-2.6,1c-0.3,0-0.6,0-0.9-0.1v3.4h-1.1V55.9z M187.6,60.1c0.3,0.1,0.6,0.1,0.9,0.1c1.3,0,2.2-0.7,2.2-1.8
	s-0.8-1.7-2-1.7c-0.3,0-0.7,0-1,0.1L187.6,60.1z"/>
<path class="st1" d="M193.3,55.9c0.7-0.1,1.4-0.2,2.1-0.2c0.9-0.1,1.8,0.2,2.5,0.7c0.4,0.4,0.7,1,0.7,1.6c0,1-0.6,1.9-1.6,2.2l0,0
	c0.7,0.3,1.2,1,1.3,1.7c0.1,0.8,0.4,1.6,0.7,2.4h-1.2c-0.3-0.7-0.5-1.4-0.6-2c-0.2-1.2-0.7-1.6-1.7-1.7h-1.1v3.7h-1.1V55.9z
	 M194.4,59.9h1.1c1.2,0,1.9-0.7,1.9-1.6s-0.8-1.6-2-1.6c-0.4,0-0.7,0-1.1,0.1L194.4,59.9z"/>
<path class="st1" d="M207.6,60c0,3-1.8,4.5-4,4.5s-3.9-1.8-3.9-4.4s1.7-4.5,4-4.5S207.6,57.5,207.6,60z M200.9,60.1
	c0,1.8,1,3.5,2.8,3.5s2.8-1.6,2.8-3.6c0-1.7-0.9-3.5-2.8-3.5S200.9,58.3,200.9,60.1L200.9,60.1z"/>
<path class="st1" d="M209.1,55.9c0.7-0.1,1.4-0.2,2.1-0.2c0.9-0.1,1.7,0.2,2.4,0.7c0.5,0.5,0.8,1.1,0.8,1.8c0,0.7-0.2,1.3-0.7,1.8
	c-0.7,0.7-1.7,1-2.6,1c-0.3,0-0.6,0-0.9-0.1v3.4h-1.1V55.9z M210.2,60.1c0.3,0.1,0.6,0.1,0.9,0.1c1.3,0,2.2-0.7,2.2-1.8
	s-0.8-1.7-2-1.7c-0.3,0-0.7,0-1,0.1L210.2,60.1z"/>
<path class="st1" d="M220.3,60.4H217v3.1h3.7v0.9h-4.8v-8.6h4.6v0.9H217v2.7h3.4L220.3,60.4z"/>
<path class="st1" d="M222.2,55.9c0.7-0.1,1.4-0.2,2.1-0.2c0.9-0.1,1.8,0.2,2.5,0.7c0.4,0.4,0.7,1,0.7,1.6c0,1-0.6,1.9-1.6,2.2l0,0
	c0.7,0.3,1.2,1,1.3,1.7c0.1,0.8,0.4,1.6,0.7,2.4h-1.1c-0.3-0.7-0.5-1.4-0.6-2c-0.2-1.2-0.7-1.6-1.7-1.7h-1v3.7h-1.1L222.2,55.9z
	 M223.3,59.9h1.1c1.2,0,1.9-0.7,1.9-1.6s-0.8-1.6-2-1.6c-0.4,0-0.7,0-1.1,0.1L223.3,59.9z"/>
<path class="st1" d="M230.8,56.8h-2.6v-0.9h6.4v0.9h-2.6v7.7h-1.1L230.8,56.8z"/>
<path class="st1" d="M236.6,55.8v8.6h-1.1v-8.6H236.6z"/>
<path class="st1" d="M243,60.4h-3.4v3.1h3.7v0.9h-4.9v-8.6h4.7v0.9h-3.5v2.7h3.4V60.4z"/>
<path class="st1" d="M244.7,63.1c0.6,0.4,1.3,0.6,2,0.6c1.1,0,1.8-0.6,1.8-1.5s-0.5-1.3-1.6-1.7c-1.4-0.5-2.3-1.2-2.3-2.4
	s1.1-2.3,2.8-2.3c0.7,0,1.3,0.1,1.9,0.4L249,57c-0.5-0.3-1.1-0.4-1.6-0.4c-1.2,0-1.6,0.7-1.6,1.3c0,0.8,0.5,1.2,1.7,1.7
	c1.4,0.6,2.2,1.3,2.2,2.5s-1,2.5-3,2.5c-0.8,0-1.5-0.2-2.2-0.6L244.7,63.1z"/>
</svg>
