<?xml version="1.0" encoding="utf-8"?>
<!-- Generator: Adobe Illustrator 19.0.0, SVG Export Plug-In . SVG Version: 6.00 Build 0)  -->
<svg version="1.1" id="Capa_1" xmlns="http://www.w3.org/2000/svg" xmlns:xlink="http://www.w3.org/1999/xlink" x="0px" y="0px"
	 viewBox="-488 350.6 99.8 92.1" style="enable-background:new -488 350.6 99.8 92.1;" xml:space="preserve">
<style type="text/css">
	.trazomusica{fill:#FFFFFF;}
</style>
<g>
	<path class="trazomusica" d="M-398.6,374.2v-16.5c0-0.8-0.4-1.5-1-2c-0.6-0.5-1.4-0.6-2.2-0.4l-49.2,15.6c-1,0.3-1.7,1.3-1.7,2.3v16.5v0
		v31.6c-2.6-1.8-5.9-2.8-9.3-2.8c-3.7,0-7.1,1.1-9.8,3.1c-2.8,2.1-4.4,5-4.4,8.2c0,3.2,1.6,6.1,4.4,8.2c2.7,2,6.1,3.1,9.8,3.1
		c3.7,0,7.1-1.1,9.8-3.1c2.8-2.1,4.4-5,4.4-8.2v-38.4l44.3-14.1v28.2c-2.6-1.8-5.9-2.8-9.3-2.8c-3.7,0-7.1,1.1-9.8,3.1
		c-2.8,2.1-4.4,5-4.4,8.2c0,3.2,1.6,6.1,4.4,8.2c2.7,2,6.1,3.1,9.8,3.1c3.7,0,7.1-1.1,9.8-3.1c2.8-2.1,4.4-5,4.4-8.2V374.2
		C-398.6,374.2-398.6,374.2-398.6,374.2z M-462,436.4c-5.1,0-9.3-2.9-9.3-6.4c0-3.5,4.3-6.4,9.3-6.4c5.1,0,9.3,2.9,9.3,6.4
		C-452.6,433.5-456.9,436.4-462,436.4z M-447.8,386.5v-11.4l44.3-14.1v11.4L-447.8,386.5z M-412.8,420.7c-5.1,0-9.3-2.9-9.3-6.4
		c0-3.5,4.3-6.4,9.3-6.4c5.1,0,9.3,2.9,9.3,6.4C-403.4,417.8-407.7,420.7-412.8,420.7z"/>
</g>
</svg>
