<?xml version="1.0" encoding="utf-8"?>
<!-- Generator: Adobe Illustrator 24.0.1, SVG Export Plug-In . SVG Version: 6.00 Build 0)  -->
<svg version="1.1" id="Capa_1" xmlns="http://www.w3.org/2000/svg" xmlns:xlink="http://www.w3.org/1999/xlink" x="0px" y="0px"
	 viewBox="0 0 139.07 27.39" style="enable-background:new 0 0 139.07 27.39;" xml:space="preserve">
<style type="text/css">
	.st0{fill:#AD1A19;}
	.st1{fill:#FFFFFF;}
</style>
<g>
	<g>
		<path class="st0" d="M0,13.4c0.22-0.6,0.27-1.41,0.27-1.93V5.68c0-0.81-0.03-1.38-0.1-1.93C0.38,3.5,1.29,3.46,1.44,3.61
			c1.66,2.36,4.6,5.93,5.3,7.47L6.28,4.8C6.21,4.09,6.5,3.6,7.12,3.54c0.25-0.01,0.55,0.04,0.76,0.18C7.69,4.27,7.69,5.01,7.69,5.44
			L7.68,11.5c0,0.83,0.01,1.36,0.08,1.9c-0.18,0.21-0.94,0.31-1.23,0.15c-3.12-3.65-4.5-5.79-5.26-7.2l0.39,6.24
			c0.06,0.63-0.46,1.05-0.91,1.05C0.49,13.64,0.21,13.56,0,13.4"/>
		<path class="st0" d="M16.69,12.51c0,0.53-0.49,0.96-1.29,0.96c-0.85,0-1.4-0.49-1.48-1.87c-0.5,1.09-1.44,1.87-2.71,1.87
			c-1.08,0-1.83-0.59-1.83-1.65c0-1.31,1.23-2,2.42-2.35c0.76-0.21,1.45-0.27,2-0.28V8.84c0-1.52-0.31-2.31-1.24-2.31
			c-0.56,0-1.01,0.29-1.01,1.05c0,0.38,0.11,0.81,0.5,1.03c-0.21,0.22-0.59,0.32-0.97,0.32c-0.88,0-1.38-0.57-1.38-1.29
			c0-1.12,1.16-1.73,2.97-1.73c2.06,0,2.99,0.88,2.99,3.04v2.43c0,0.49,0.15,0.74,0.46,0.74c0.11,0,0.29-0.06,0.39-0.2
			C16.63,12.12,16.69,12.34,16.69,12.51 M13.85,9.78c-0.56,0-1.2,0.06-1.65,0.31c-0.5,0.25-0.85,0.71-0.85,1.3
			c0,0.49,0.22,0.97,0.78,0.91C12.9,12.23,13.85,11.18,13.85,9.78"/>
		<path class="st0" d="M23.71,6.66c0,0.24-0.04,0.6-0.2,0.95l-2.11,5.59c-0.41,0.18-0.81,0.27-1.22,0.27
			c-0.42,0-0.81-0.14-0.95-0.59l-1.92-5.71c-0.07-0.21-0.2-0.63-0.42-0.87c0.15-0.2,0.46-0.42,1.02-0.42c0.56,0,0.97,0.24,1.06,0.71
			l1.53,5.75l1.31-5.2c0.04-0.21,0.08-0.41,0.08-0.62c0-0.21-0.04-0.35-0.13-0.45c0.25-0.1,0.5-0.2,0.94-0.2
			C23.42,5.89,23.71,6.13,23.71,6.66"/>
		<path class="st0" d="M27.36,13.29c-0.17,0.15-0.53,0.41-1.05,0.41c-0.56,0-1.01-0.35-1.01-0.94v-4.5c0-0.53-0.04-1.18-0.27-1.78
			c0.15-0.14,0.5-0.39,1.01-0.39c0.6,0,1.03,0.34,1.03,0.94l0.01,4.5C27.09,12.06,27.12,12.7,27.36,13.29 M25.08,4.36
			c0-0.59,0.46-1.05,1.05-1.05c0.57,0,1.02,0.46,1.02,1.05c0,0.57-0.45,1.03-1.02,1.03C25.54,5.4,25.08,4.94,25.08,4.36"/>
		<path class="st0" d="M35.92,12.43c0,0.55-0.52,0.94-1.19,0.94c-0.9,0-1.36-0.69-1.47-1.82c-0.42,1.26-1.22,1.89-2.35,1.89
			c-1.8,0-2.49-1.54-2.49-3.54c0-2.59,1.08-4.07,2.99-4.07c0.87,0,1.45,0.32,1.72,0.87V5.94c0-0.64-0.04-1.66-0.29-2.55
			c0.15-0.14,0.52-0.41,1.03-0.41c0.57,0,1.04,0.35,1.04,0.95L34.9,11.3c0,0.49,0.17,0.73,0.48,0.73c0.1,0,0.28-0.03,0.36-0.17
			C35.87,12.05,35.92,12.27,35.92,12.43 M32.82,9.01c0-1.02-0.17-2.01-1.23-2.01c-1.08,0-1.5,1.15-1.5,3.12
			c0,1.68,0.24,2.59,1.08,2.59C32.31,12.7,32.82,10.87,32.82,9.01"/>
		<path class="st0" d="M44.07,12.53c0,0.53-0.49,0.96-1.29,0.96c-0.85,0-1.4-0.49-1.48-1.87c-0.5,1.09-1.44,1.87-2.71,1.87
			c-1.08,0-1.83-0.59-1.83-1.65c0-1.31,1.23-2,2.42-2.35c0.76-0.21,1.45-0.27,2-0.28V8.86c0-1.52-0.31-2.31-1.24-2.31
			c-0.56,0-1.01,0.29-1.01,1.05c0,0.38,0.11,0.81,0.5,1.03c-0.21,0.22-0.59,0.32-0.97,0.32c-0.88,0-1.38-0.57-1.38-1.29
			c0-1.12,1.16-1.73,2.97-1.73c2.06,0,2.99,0.88,2.99,3.04v2.43c0,0.49,0.15,0.74,0.46,0.74c0.11,0,0.29-0.06,0.39-0.2
			C44.02,12.13,44.07,12.36,44.07,12.53 M40.86,9.95c-0.56,0-1.2,0.06-1.65,0.31c-0.5,0.25-0.85,0.71-0.85,1.3
			c0,0.49,0.22,0.97,0.78,0.91C39.91,12.39,40.86,11.34,40.86,9.95"/>
		<path class="st0" d="M52.05,12.52c0,0.55-0.52,0.94-1.19,0.94c-0.9,0-1.36-0.69-1.47-1.82c-0.42,1.26-1.22,1.89-2.35,1.89
			c-1.8,0-2.49-1.54-2.49-3.54c0-2.59,1.08-4.07,2.99-4.07c0.87,0,1.45,0.32,1.72,0.87V6.03c0-0.64-0.04-1.66-0.29-2.55
			c0.15-0.14,0.52-0.41,1.03-0.41c0.57,0,1.03,0.35,1.03,0.95l-0.01,7.36c0,0.49,0.17,0.73,0.48,0.73c0.1,0,0.28-0.03,0.36-0.17
			C51.99,12.15,52.05,12.37,52.05,12.52 M49.22,8.84c0-1.02-0.17-2.01-1.23-2.01c-1.08,0-1.5,1.15-1.5,3.12
			c0,1.68,0.24,2.59,1.08,2.59C48.72,12.54,49.22,10.7,49.22,8.84"/>
		<path class="st0" d="M17.04,24.2c-0.15,0.15-0.55,0.41-1.05,0.41c-0.57,0-0.99-0.35-0.99-0.94l-0.01-6.97l-2.42,6.56
			c-0.66,0.22-1.16,0.27-1.68,0.06c-0.91-1.87-1.92-4.39-2.69-6.66l0.01,5.78c0,0.53,0.04,1.34,0.27,1.94
			c-0.15,0.15-0.41,0.22-0.64,0.22c-0.45,0-0.61-0.28-0.61-0.73V16.6c0-0.81-0.01-1.34-0.1-1.89c0.15-0.15,0.55-0.24,1.27-0.24
			c0.46,0,0.73,0.11,0.95,0.34c0.9,2.35,1.79,4.7,2.66,6.91c0.77-2.13,1.83-5.13,2.46-7.06c0.45-0.17,0.91-0.18,1.16-0.18
			c0.56,0,1.08,0.2,1.15,0.39v7.57C16.78,22.97,16.82,23.61,17.04,24.2"/>
		<path class="st0" d="M25.84,23.58c0,0.53-0.49,0.96-1.29,0.96c-0.85,0-1.4-0.49-1.48-1.87c-0.5,1.09-1.44,1.87-2.71,1.87
			c-1.08,0-1.83-0.59-1.83-1.65c0-1.31,1.23-2,2.42-2.35c0.76-0.21,1.45-0.27,2-0.28v-0.35c0-1.52-0.31-2.31-1.24-2.31
			c-0.56,0-1.01,0.29-1.01,1.05c0,0.38,0.11,0.81,0.5,1.03c-0.21,0.22-0.59,0.32-0.97,0.32c-0.88,0-1.38-0.57-1.38-1.29
			c0-1.12,1.16-1.73,2.97-1.73c2.06,0,2.99,0.88,2.99,3.04v2.43c0,0.49,0.15,0.74,0.46,0.74c0.11,0,0.29-0.06,0.39-0.2
			C25.79,23.19,25.84,23.42,25.84,23.58 M23,20.86c-0.56,0-1.2,0.06-1.65,0.31c-0.5,0.25-0.85,0.71-0.85,1.3
			c0,0.49,0.22,0.97,0.78,0.91C22.05,23.3,23,22.26,23,20.86 M21.94,16.44c-0.22-0.01-0.55-0.06-0.66-0.13l1.26-2.21
			c0.43-0.07,1.44,0.21,1.61,0.35L21.94,16.44z"/>
		<path class="st0" d="M26.58,25.78c0-0.71,0.53-1.16,1.26-1.16c0.38,0,0.67,0.11,0.84,0.31c-0.28,0.24-0.42,0.59-0.42,0.95
			c0,0.55,0.31,0.95,1.01,0.95c1.24,0,1.85-1.19,1.85-2.98c0-0.25,0-0.7,0.01-1.04c-0.32,0.91-1.05,1.41-2.11,1.41
			c-1.47,0-2.49-0.94-2.49-3.47c0-2.21,0.88-3.93,3.41-3.93c1.17,0,2.28,0.34,2.97,0.92v5.87c0,2.8-1.57,3.76-3.69,3.76
			C27.83,27.39,26.58,26.94,26.58,25.78 M31.1,20.76l0.01-2.98c-0.25-0.2-0.66-0.32-1.08-0.32c-1.29,0-1.58,1.36-1.58,3.48
			c0,1.8,0.27,2.45,1.11,2.45C30.6,23.39,31.09,22.36,31.1,20.76"/>
		<path class="st0" d="M36.84,24.05c-0.17,0.15-0.53,0.41-1.05,0.41c-0.56,0-1.01-0.35-1.01-0.94v-4.5c0-0.53-0.04-1.18-0.27-1.78
			c0.15-0.14,0.5-0.39,1.01-0.39c0.6,0,1.03,0.34,1.03,0.94l0.01,4.5C36.58,22.82,36.61,23.46,36.84,24.05 M34.51,15.28
			c0-0.59,0.46-1.05,1.05-1.05c0.57,0,1.02,0.46,1.02,1.05c0,0.57-0.45,1.04-1.02,1.04C34.98,16.31,34.51,15.85,34.51,15.28"/>
		<path class="st0" d="M38.19,20.9c0-2.35,1.27-3.79,3.57-3.79c1.73,0,2.56,0.82,2.56,1.79c0,0.76-0.53,1.23-1.26,1.23
			c-0.36,0-0.74-0.11-0.95-0.34c0.28-0.22,0.41-0.56,0.41-1.05c0-0.74-0.38-1.01-0.91-1.01c-0.91,0-1.47,1.03-1.47,2.88
			c0,2.1,0.8,2.97,2.11,2.97c0.99,0,1.71-0.53,1.9-1.29c0.2,0.08,0.31,0.32,0.18,0.85c-0.28,0.99-1.29,1.57-2.63,1.57
			C39.46,24.72,38.19,23.34,38.19,20.9"/>
		<path class="st0" d="M52.41,23.53c0,0.53-0.49,0.96-1.29,0.96c-0.85,0-1.4-0.49-1.48-1.87c-0.5,1.09-1.44,1.87-2.71,1.87
			c-1.08,0-1.83-0.59-1.83-1.65c0-1.31,1.23-2,2.42-2.35c0.76-0.21,1.45-0.27,2-0.28v-0.35c0-1.52-0.31-2.31-1.24-2.31
			c-0.56,0-1.01,0.29-1.01,1.05c0,0.38,0.11,0.81,0.5,1.03c-0.21,0.22-0.59,0.32-0.97,0.32c-0.88,0-1.38-0.57-1.38-1.29
			c0-1.12,1.16-1.73,2.97-1.73c2.06,0,2.99,0.88,2.99,3.04v2.43c0,0.49,0.15,0.74,0.46,0.74c0.11,0,0.29-0.06,0.39-0.2
			C52.35,23.14,52.41,23.36,52.41,23.53 M49.57,20.8c-0.56,0-1.2,0.06-1.65,0.31c-0.5,0.25-0.85,0.71-0.85,1.3
			c0,0.49,0.22,0.97,0.78,0.91C48.62,23.25,49.57,22.2,49.57,20.8"/>
		<path class="st1" d="M0.7,12.71c0.22-0.6,0.27-1.41,0.27-1.93V4.99c0-0.81-0.03-1.38-0.1-1.93C1.08,2.8,1.99,2.76,2.14,2.92
			c1.66,2.36,4.6,5.93,5.3,7.47L6.98,4.11C6.91,3.39,7.21,2.9,7.82,2.85c0.25-0.01,0.55,0.04,0.76,0.18C8.4,3.57,8.4,4.32,8.4,4.75
			l-0.01,6.06c0,0.83,0.01,1.36,0.08,1.9c-0.18,0.21-0.94,0.31-1.23,0.15c-3.12-3.65-4.5-5.79-5.26-7.2l0.39,6.24
			c0.06,0.63-0.46,1.05-0.91,1.05C1.19,12.95,0.91,12.86,0.7,12.71"/>
		<path class="st1" d="M17.39,11.92c0,0.53-0.49,0.96-1.29,0.96c-0.85,0-1.4-0.49-1.48-1.87c-0.5,1.09-1.44,1.87-2.71,1.87
			c-1.08,0-1.83-0.59-1.83-1.65c0-1.31,1.23-2,2.42-2.35c0.76-0.21,1.45-0.27,2-0.28V8.26c0-1.52-0.31-2.31-1.24-2.31
			c-0.56,0-1.01,0.29-1.01,1.05c0,0.38,0.11,0.81,0.5,1.03c-0.21,0.22-0.59,0.32-0.97,0.32c-0.88,0-1.38-0.57-1.38-1.29
			c0-1.12,1.16-1.73,2.97-1.73c2.06,0,2.99,0.88,2.99,3.04v2.43c0,0.49,0.15,0.74,0.46,0.74c0.11,0,0.29-0.06,0.39-0.2
			C17.34,11.53,17.39,11.76,17.39,11.92 M14.55,9.2c-0.56,0-1.2,0.06-1.65,0.31c-0.5,0.25-0.85,0.71-0.85,1.3
			c0,0.49,0.22,0.97,0.78,0.91C13.6,11.64,14.55,10.6,14.55,9.2"/>
		<path class="st1" d="M24.41,6.13c0,0.24-0.04,0.6-0.2,0.95l-2.11,5.59c-0.41,0.18-0.81,0.27-1.22,0.27
			c-0.42,0-0.81-0.14-0.95-0.59l-1.92-5.71c-0.07-0.21-0.2-0.63-0.42-0.87c0.15-0.2,0.46-0.42,1.02-0.42c0.56,0,0.97,0.24,1.06,0.71
			l1.53,5.75l1.31-5.2c0.04-0.21,0.08-0.41,0.08-0.62c0-0.21-0.04-0.35-0.13-0.45c0.25-0.1,0.5-0.2,0.94-0.2
			C24.12,5.36,24.41,5.6,24.41,6.13"/>
		<path class="st1" d="M27.87,12.96c-0.17,0.15-0.53,0.41-1.05,0.41c-0.56,0-1.01-0.35-1.01-0.94v-4.5c0-0.53-0.04-1.18-0.27-1.78
			c0.15-0.14,0.5-0.39,1.01-0.39c0.6,0,1.03,0.34,1.03,0.94l0.01,4.5C27.61,11.73,27.63,12.38,27.87,12.96 M25.59,4.04
			c0-0.59,0.46-1.05,1.05-1.05c0.57,0,1.02,0.46,1.02,1.05c0,0.57-0.45,1.04-1.02,1.04C26.05,5.07,25.59,4.61,25.59,4.04"/>
		<path class="st1" d="M36.4,11.94c0,0.55-0.52,0.94-1.19,0.94c-0.9,0-1.36-0.69-1.47-1.82c-0.42,1.26-1.22,1.89-2.35,1.89
			c-1.8,0-2.49-1.54-2.49-3.54c0-2.59,1.08-4.07,2.99-4.07c0.87,0,1.45,0.32,1.72,0.87V5.45c0-0.64-0.04-1.66-0.29-2.55
			c0.15-0.14,0.52-0.41,1.03-0.41c0.57,0,1.04,0.35,1.04,0.95l-0.01,7.36c0,0.49,0.17,0.73,0.48,0.73c0.1,0,0.28-0.03,0.36-0.17
			C36.35,11.56,36.4,11.78,36.4,11.94 M33.58,8.26c0-1.02-0.17-2.01-1.23-2.01c-1.08,0-1.5,1.15-1.5,3.12
			c0,1.68,0.24,2.59,1.08,2.59C33.07,11.95,33.58,10.12,33.58,8.26"/>
		<path class="st1" d="M44.46,11.92c0,0.53-0.49,0.96-1.29,0.96c-0.85,0-1.4-0.49-1.48-1.87c-0.5,1.09-1.44,1.87-2.71,1.87
			c-1.08,0-1.83-0.59-1.83-1.65c0-1.31,1.23-2,2.42-2.35c0.76-0.21,1.45-0.27,2-0.28V8.26c0-1.52-0.31-2.31-1.24-2.31
			c-0.56,0-1.01,0.29-1.01,1.05c0,0.38,0.11,0.81,0.5,1.03c-0.21,0.22-0.59,0.32-0.97,0.32c-0.88,0-1.38-0.57-1.38-1.29
			c0-1.12,1.16-1.73,2.97-1.73c2.06,0,2.99,0.88,2.99,3.04v2.43c0,0.49,0.15,0.74,0.46,0.74c0.11,0,0.29-0.06,0.39-0.2
			C44.4,11.53,44.46,11.76,44.46,11.92 M41.62,9.2c-0.56,0-1.2,0.06-1.65,0.31c-0.5,0.25-0.85,0.71-0.85,1.3
			c0,0.49,0.22,0.97,0.78,0.91C40.67,11.64,41.62,10.6,41.62,9.2"/>
		<path class="st1" d="M52.53,11.94c0,0.55-0.52,0.94-1.19,0.94c-0.9,0-1.36-0.69-1.47-1.82c-0.42,1.26-1.22,1.89-2.35,1.89
			c-1.8,0-2.49-1.54-2.49-3.54c0-2.59,1.08-4.07,2.99-4.07c0.87,0,1.45,0.32,1.72,0.87V5.45c0-0.64-0.04-1.66-0.29-2.55
			c0.15-0.14,0.52-0.41,1.03-0.41c0.57,0,1.03,0.35,1.03,0.95l-0.01,7.36c0,0.49,0.17,0.73,0.48,0.73c0.1,0,0.28-0.03,0.36-0.17
			C52.48,11.56,52.53,11.78,52.53,11.94 M49.71,8.26c0-1.02-0.17-2.01-1.23-2.01c-1.08,0-1.5,1.15-1.5,3.12
			c0,1.68,0.24,2.59,1.08,2.59C49.2,11.95,49.71,10.12,49.71,8.26"/>
		<path class="st1" d="M17.8,23.56c-0.15,0.15-0.55,0.41-1.05,0.41c-0.57,0-0.99-0.35-0.99-0.94l-0.01-6.97l-2.42,6.56
			c-0.66,0.22-1.16,0.27-1.68,0.06c-0.91-1.87-1.92-4.39-2.69-6.66l0.01,5.78c0,0.53,0.04,1.34,0.27,1.94
			c-0.15,0.15-0.41,0.22-0.64,0.22c-0.45,0-0.61-0.28-0.61-0.73v-7.27c0-0.81-0.01-1.34-0.1-1.89c0.15-0.15,0.55-0.24,1.27-0.24
			c0.46,0,0.73,0.11,0.95,0.34c0.9,2.35,1.79,4.7,2.66,6.91c0.77-2.13,1.83-5.13,2.46-7.06c0.45-0.17,0.91-0.18,1.16-0.18
			c0.56,0,1.08,0.2,1.15,0.39v7.57C17.54,22.33,17.58,22.97,17.8,23.56"/>
		<path class="st1" d="M26.55,22.95c0,0.53-0.49,0.96-1.29,0.96c-0.85,0-1.4-0.49-1.48-1.87c-0.5,1.09-1.44,1.87-2.71,1.87
			c-1.08,0-1.83-0.59-1.83-1.65c0-1.31,1.23-2,2.42-2.35c0.76-0.21,1.45-0.27,2-0.28v-0.35c0-1.52-0.31-2.31-1.24-2.31
			c-0.56,0-1.01,0.29-1.01,1.05c0,0.38,0.11,0.81,0.5,1.03c-0.21,0.22-0.59,0.32-0.97,0.32c-0.88,0-1.38-0.57-1.38-1.29
			c0-1.12,1.16-1.73,2.97-1.73c2.06,0,2.99,0.88,2.99,3.04v2.43c0,0.49,0.15,0.74,0.46,0.74c0.11,0,0.29-0.06,0.39-0.2
			C26.49,22.55,26.55,22.78,26.55,22.95 M23.71,20.22c-0.56,0-1.2,0.06-1.65,0.31c-0.5,0.25-0.85,0.71-0.85,1.3
			c0,0.49,0.22,0.97,0.78,0.91C22.76,22.67,23.71,21.62,23.71,20.22 M22.64,15.8c-0.22-0.01-0.55-0.06-0.66-0.13l1.26-2.21
			c0.43-0.07,1.44,0.21,1.61,0.35L22.64,15.8z"/>
		<path class="st1" d="M27.18,25.31c0-0.71,0.53-1.16,1.26-1.16c0.38,0,0.67,0.11,0.84,0.31c-0.28,0.24-0.42,0.59-0.42,0.95
			c0,0.55,0.31,0.95,1.01,0.95c1.25,0,1.85-1.19,1.85-2.98c0-0.25,0-0.7,0.01-1.04c-0.32,0.91-1.05,1.41-2.11,1.41
			c-1.47,0-2.49-0.94-2.49-3.47c0-2.21,0.88-3.93,3.41-3.93c1.17,0,2.28,0.34,2.97,0.92v5.87c0,2.8-1.57,3.76-3.69,3.76
			C28.42,26.92,27.18,26.47,27.18,25.31 M31.69,20.29l0.01-2.98c-0.25-0.2-0.66-0.32-1.08-0.32c-1.29,0-1.58,1.36-1.58,3.48
			c0,1.8,0.27,2.45,1.11,2.45C31.19,22.92,31.68,21.88,31.69,20.29"/>
		<path class="st1" d="M37.39,23.56c-0.17,0.15-0.53,0.41-1.05,0.41c-0.56,0-1.01-0.35-1.01-0.94v-4.5c0-0.53-0.04-1.18-0.27-1.78
			c0.15-0.14,0.5-0.39,1.01-0.39c0.6,0,1.03,0.34,1.03,0.94l0.01,4.5C37.12,22.33,37.15,22.97,37.39,23.56 M35.11,14.64
			c0-0.59,0.46-1.05,1.05-1.05c0.57,0,1.02,0.46,1.02,1.05c0,0.57-0.45,1.03-1.02,1.03C35.57,15.67,35.11,15.21,35.11,14.64"/>
		<path class="st1" d="M38.56,20.15c0-2.35,1.27-3.79,3.57-3.79c1.73,0,2.56,0.83,2.56,1.79c0,0.76-0.53,1.23-1.26,1.23
			c-0.36,0-0.74-0.11-0.95-0.34c0.28-0.22,0.41-0.56,0.41-1.05c0-0.74-0.38-1.01-0.91-1.01c-0.91,0-1.47,1.04-1.47,2.88
			c0,2.1,0.8,2.97,2.11,2.97c0.99,0,1.71-0.53,1.9-1.29c0.2,0.08,0.31,0.32,0.18,0.85c-0.28,0.99-1.29,1.57-2.63,1.57
			C39.84,23.97,38.56,22.6,38.56,20.15"/>
		<path class="st1" d="M53.06,22.95c0,0.53-0.49,0.96-1.29,0.96c-0.85,0-1.4-0.49-1.48-1.87c-0.5,1.09-1.44,1.87-2.71,1.87
			c-1.08,0-1.83-0.59-1.83-1.65c0-1.31,1.23-2,2.42-2.35c0.76-0.21,1.45-0.27,2-0.28v-0.35c0-1.52-0.31-2.31-1.24-2.31
			c-0.56,0-1.01,0.29-1.01,1.05c0,0.38,0.11,0.81,0.5,1.03c-0.21,0.22-0.59,0.32-0.97,0.32c-0.88,0-1.38-0.57-1.38-1.29
			c0-1.12,1.16-1.73,2.97-1.73c2.06,0,2.99,0.88,2.99,3.04v2.43c0,0.49,0.15,0.74,0.46,0.74c0.11,0,0.29-0.06,0.39-0.2
			C53,22.55,53.06,22.78,53.06,22.95 M50.22,20.22c-0.56,0-1.2,0.06-1.65,0.31c-0.5,0.25-0.85,0.71-0.85,1.3
			c0,0.49,0.22,0.97,0.78,0.91C49.27,22.67,50.22,21.62,50.22,20.22"/>
	</g>
	<g>
		<path class="st0" d="M56.01,15.35c0-1.52,0.81-2.46,2.26-2.46c1.08,0,1.63,0.51,1.63,1.16c0,0.47-0.3,0.77-0.74,0.77
			c-0.2,0-0.42-0.06-0.54-0.2c0.19-0.13,0.27-0.35,0.27-0.65c0-0.51-0.31-0.7-0.7-0.7c-0.68,0-1.11,0.68-1.11,1.93
			c0,1.42,0.58,1.97,1.44,1.97c0.65,0,1.14-0.34,1.28-0.89c0.13,0.06,0.2,0.19,0.11,0.52c-0.19,0.65-0.83,1-1.68,1
			C56.83,17.81,56.01,16.94,56.01,15.35"/>
		<path class="st0" d="M60.66,15.35c0-1.55,0.8-2.46,2.17-2.46c1.38,0,2.18,0.91,2.18,2.46c0,1.55-0.8,2.45-2.18,2.45
			C61.46,17.81,60.66,16.91,60.66,15.35 M63.94,15.35c0-1.37-0.37-2.09-1.1-2.09c-0.73,0-1.11,0.72-1.11,2.09
			c0,1.36,0.37,2.08,1.11,2.08C63.56,17.44,63.94,16.71,63.94,15.35"/>
		<path class="st0" d="M70.2,17.58c-0.14,0.13-0.33,0.23-0.58,0.23c-0.34,0-0.58-0.2-0.58-0.53V14.9c-0.01-0.95-0.17-1.48-0.79-1.48
			c-0.58,0-1.11,0.63-1.11,2.1c0,1.32,0,1.65,0.17,2.07c-0.09,0.08-0.3,0.22-0.57,0.22c-0.35,0-0.59-0.22-0.59-0.57v-3.11
			c-0.01-0.34-0.08-0.48-0.25-0.48c-0.06,0-0.18,0.02-0.24,0.13c-0.08-0.12-0.12-0.22-0.12-0.35c0-0.31,0.24-0.54,0.66-0.54
			c0.51,0,0.82,0.36,0.82,1.07v0.04c0.26-0.7,0.78-1.1,1.54-1.1c1,0,1.47,0.63,1.47,1.86v1.74C70.05,16.8,70.07,17.25,70.2,17.58"/>
		<path class="st1" d="M56.6,14.97c0-1.52,0.81-2.46,2.26-2.46c1.08,0,1.63,0.51,1.63,1.16c0,0.47-0.3,0.77-0.74,0.77
			c-0.2,0-0.42-0.06-0.54-0.2c0.19-0.13,0.27-0.35,0.27-0.65c0-0.51-0.31-0.7-0.7-0.7c-0.68,0-1.11,0.68-1.11,1.93
			c0,1.42,0.58,1.97,1.44,1.97c0.65,0,1.14-0.34,1.28-0.89c0.13,0.06,0.2,0.19,0.11,0.52c-0.19,0.65-0.83,1-1.68,1
			C57.41,17.43,56.6,16.56,56.6,14.97"/>
		<path class="st1" d="M61.24,14.97c0-1.55,0.8-2.46,2.17-2.46c1.38,0,2.18,0.91,2.18,2.46c0,1.55-0.8,2.45-2.18,2.45
			C62.04,17.43,61.24,16.52,61.24,14.97 M64.52,14.97c0-1.37-0.37-2.09-1.1-2.09c-0.73,0-1.11,0.72-1.11,2.09
			c0,1.36,0.37,2.08,1.11,2.08C64.14,17.05,64.52,16.33,64.52,14.97"/>
		<path class="st1" d="M70.79,17.2c-0.14,0.13-0.33,0.23-0.58,0.23c-0.34,0-0.58-0.2-0.58-0.53v-2.38
			c-0.01-0.95-0.17-1.48-0.79-1.48c-0.58,0-1.11,0.63-1.11,2.1c0,1.32,0,1.65,0.17,2.07c-0.09,0.08-0.3,0.22-0.57,0.22
			c-0.35,0-0.59-0.22-0.59-0.57v-3.11c-0.01-0.34-0.08-0.47-0.25-0.47c-0.06,0-0.18,0.02-0.24,0.13c-0.08-0.12-0.12-0.22-0.12-0.35
			c0-0.31,0.24-0.54,0.66-0.54c0.51,0,0.82,0.36,0.82,1.07v0.04c0.26-0.7,0.78-1.1,1.54-1.1c1,0,1.47,0.63,1.47,1.86v1.74
			C70.63,16.41,70.65,16.87,70.79,17.2"/>
	</g>
	<g>
		<g>
			<polygon class="st0" points="126.39,11.63 129.29,8.95 132.5,12.54 135.63,8.21 139.07,11.14 134.79,15.9 135.08,20.45 
				130.91,20.47 130.85,15.69 			"/>
			<polygon class="st0" points="127.2,11.68 123.23,11.59 123.21,12.96 126.26,12.99 125.99,15.87 123.16,15.78 123.16,17.23 
				127.69,17.28 127.66,20.48 119.2,20.19 119.42,8.42 127.5,8.61 			"/>
			<polygon class="st0" points="114.98,14.28 119.53,17.42 116.2,20.67 112.18,16.77 112.7,20.3 108.96,20.95 106.91,9.18 
				110.91,8.56 111.59,13.05 115.3,7.7 118.36,9.87 			"/>
			<path class="st0" d="M102.65,20.57c-3.49-0.42-6.41-2.77-5.95-6.65c0.38-3.22,3.12-5.74,6.9-5.29c1.56,0.18,2.97,0.7,4.12,1.85
				l-1.69,2.8c-0.51-0.46-0.88-0.87-2.04-1.01c-1.44-0.17-2.67,0.55-2.85,2.07c-0.17,1.44,0.87,2.61,2.49,2.82
				c0.9,0.1,1.51-0.12,1.98-0.28l1.13,3.04C105.58,20.53,104.18,20.75,102.65,20.57"/>
			<polygon class="st0" points="92.54,20.42 93.09,8.3 97.14,8.59 96.4,20.61 			"/>
			<polygon class="st0" points="88.41,20.8 87.02,16.29 87,16.29 84.67,20.01 82.04,16.36 82.01,16.36 80.41,20.55 76.26,19.07 
				80.74,8.4 84.34,13.68 84.37,13.68 88.34,7.62 93.08,19.11 			"/>
			<path class="st0" d="M105.46,4c-0.14-0.54-0.64-1.23-1.37-1.8c-1.31-1.01-3.48-1.78-5.26-1.25c-0.12,0.03-0.32,0.3-0.33,0.45
				C98.48,1.56,98.78,1.62,99,1.57c0.06-0.01,0.17-0.02,0.15-0.11c-0.09-0.12-0.24-0.07-0.32-0.14c0.03-0.05,0.11-0.06,0.18-0.08
				c1.14-0.17,2.01,0,2.99,0.4c1.08,0.46,2.35,1.09,2.8,2.28c0.14,0.44,0.05,1.04-0.34,1.33c-0.71,0.55-1.85,0.61-2.72,0.42
				c-0.02-0.55,0.02-1.05,0.02-1.64c0.62,0.01,1.52,0.12,1.66,0.37c0.02,0.04-0.02,0.12-0.09,0.16c-0.13,0.07-0.26,0.14-0.23,0.19
				c0.04,0.06,0.31,0.18,0.43,0.12c0.16-0.07,0.3-0.23,0.36-0.4c0.05-0.16-0.01-0.37-0.13-0.48c-0.43-0.41-1.61-0.51-1.99-0.5
				c0,0-0.02-0.55-0.03-0.74c-0.02-0.32-0.27-0.56-0.31-0.45c-0.16,0.39-0.19,0.96-0.21,1.21c-0.16,0.03-0.47,0.07-0.89,0.22
				c-0.24,0.09-0.52,0.19-0.73,0.39c-0.1,0.1-0.13,0.29-0.09,0.4c0.15,0.41,0.96,1.08,1.63,1.39c0.03,0.2,0.02,0.5,0.15,0.57
				c0.1,0.05,0.19,0.07,0.32,0.04c0.14-0.04,0.14-0.3,0.15-0.38c1.02,0.28,2.2,0.23,3.06-0.36C105.49,5.25,105.6,4.54,105.46,4
				 M101.12,5.5c-0.49-0.17-1.11-0.53-1.41-0.95c-0.08-0.12-0.1-0.21,0.13-0.3c0.4-0.15,1.04-0.19,1.33-0.19
				C101.15,4.44,101.12,5.03,101.12,5.5"/>
			<path class="st0" d="M106.28,3.91c0.08,0.63,0.09,1.85,0.02,2c-0.05,0.11-0.22,0.11-0.33,0.08c-0.23-0.06-0.17-0.35-0.2-0.55
				c0.01-0.58,0.02-1.18,0.13-1.73c0.02-0.11,0.06-0.15,0.15-0.14C106.13,3.56,106.26,3.76,106.28,3.91"/>
			<path class="st0" d="M106.91,5.31c0.1,0.19,0.66,0.23,0.88,0.2c0.49-0.06,0.77-0.25,0.81-0.4c0.05-0.22-0.29-0.3-0.54-0.35
				c-0.44-0.1-0.83-0.04-1.27-0.14c-0.12-0.03-0.17-0.1-0.18-0.2c-0.03-0.22,0.05-0.45,0.2-0.57c0.43-0.33,1.79-0.4,2.22-0.18
				c0.08,0.04,0.04,0.16,0,0.22c-0.1,0.13-0.29,0.09-0.47,0.11c-0.5,0.05-1.01,0-1.46,0.16c-0.07,0.03-0.06,0.16,0.09,0.18
				c0.6,0.09,1.51,0.03,1.7,0.46c0.1,0.22,0.07,0.68-0.08,0.84c-0.35,0.35-1.02,0.33-1.31,0.27c-0.2-0.04-0.68-0.21-0.81-0.62
				c-0.03-0.15,0.03-0.27,0.12-0.35c0.26-0.19,0.57-0.14,0.92-0.09c0.2,0.03,0.52,0.15,0.55,0.2c0.05,0.09,0.02,0.18-0.37,0.23
				c-0.41,0.04-0.62-0.33-0.92-0.19C106.92,5.13,106.89,5.27,106.91,5.31"/>
			<path class="st0" d="M109.72,3.8c0.31,0.29,0.64,0.99,0.88,1.34c0.04,0.07,0.12,0.02,0.12-0.04c0.01-0.62-0.24-1.1-0.32-1.67
				c-0.01-0.05-0.03-0.17,0.03-0.18c0.14-0.02,0.27,0.16,0.35,0.27c0.3,0.37,0.46,1.11,0.38,1.68c-0.02,0.18-0.12,0.57-0.29,0.64
				c-0.08,0.03-0.28,0.06-0.35,0.01c-0.3-0.21-0.69-1.29-0.81-1.28c-0.03,0-0.05,0.04-0.07,0.13c-0.04,0.3-0.07,1.1-0.07,1.1
				c-0.02,0.19-0.16,0.17-0.23,0.17c-0.12,0-0.21-0.07-0.22-0.13c-0.04-0.27-0.03-0.65,0.01-0.92c0.04-0.34,0.15-0.79,0.29-1.05
				C109.51,3.74,109.65,3.73,109.72,3.8"/>
			<path class="st0" d="M111.69,4.6l0.17-0.41c-0.12-0.03-0.38-0.14-0.43-0.35c0-0.03,0.18-0.08,0.26-0.09
				c0.56-0.06,0.94-0.11,1.44-0.09c0.11,0,0.39,0.33,0.32,0.45c-0.05,0.09-0.46,0.07-0.63,0.07c-0.16-0.01-0.46,0.02-0.46,0.02
				l-0.15,0.38c0.24-0.01,0.62-0.05,0.73,0.02c0.04,0.03,0.05,0.22,0.03,0.27c-0.05,0.11-0.32,0.08-0.48,0.08
				c-0.17,0-0.44,0.01-0.44,0.01c0.01-0.02-0.2,0.42-0.16,0.51c0.04,0.08,0.84-0.14,1.04-0.11c0.13,0.02,0.22,0.24,0.14,0.31
				c-0.37,0.33-0.97,0.6-1.31,0.49c-0.31-0.09-0.45-0.41-0.38-0.66c0.05-0.2,0.16-0.56,0.16-0.56c-0.01,0-0.06-0.03-0.08-0.26
				C111.45,4.61,111.7,4.6,111.69,4.6"/>
			<path class="st0" d="M115.56,4c-0.08-0.09-0.25-0.16-0.39-0.11c-0.36,0.13-0.57,0.39-0.84,0.68c-0.18,0.2-0.37,0.52-0.49,0.7
				c-0.04-0.04-0.06-0.15-0.06-0.24c0.07-0.52,0.63-0.92,0.57-1.38c-0.01-0.09-0.23,0.11-0.29,0.17c-0.37,0.41-0.7,0.92-0.63,1.51
				c0.02,0.2,0.14,0.4,0.14,0.4s-0.41,0.81-0.53,1.36c-0.06,0.28-0.08,0.55,0.01,0.76c0.09,0.19,0.41,0.44,0.44,0.28
				c0.14-0.7,0.37-1.39,0.59-2.03c0,0,0.14,0.05,0.3,0.03c0.58-0.05,1.13-0.55,1.29-1.16C115.75,4.61,115.76,4.26,115.56,4
				 M115.06,5.28c-0.21,0.17-0.49,0.3-0.71,0.28c0.12-0.2,0.26-0.44,0.42-0.66c0.12-0.16,0.36-0.45,0.55-0.55
				c0.06-0.03,0.1,0.04,0.1,0.14C115.42,4.8,115.29,5.08,115.06,5.28"/>
			<path class="st0" d="M107.51,1.74c-0.08-0.07-0.22-0.09-0.33-0.08c-0.05-0.31-0.69-0.28-0.94-0.22
				c-0.47,0.11-0.79,0.41-0.96,0.74c-0.12,0.23-0.06,0.58,0.11,0.68c-0.03,0.06-0.03,0.16-0.02,0.22c0.02,0.13,0.14,0.25,0.22,0.25
				c0.08,0,0.16-0.19,0.18-0.22c0.22,0.06,0.46,0.11,0.72,0.05c0.52-0.12,0.91-0.47,1.06-0.82C107.65,2.13,107.66,1.88,107.51,1.74
				 M105.59,2.54c-0.06-0.06-0.04-0.2-0.01-0.26c0.03-0.06,0.08-0.14,0.15-0.19c0.09-0.08,0.18-0.15,0.29-0.2
				c0.06-0.03,0.18-0.06,0.26-0.03C106.02,2.02,105.75,2.3,105.59,2.54 M106.69,2.72c-0.28,0.1-0.62,0.06-0.71,0.02
				c0.24-0.4,0.68-0.76,0.98-0.8c0.16-0.03,0.3-0.03,0.33,0.1C107.34,2.22,107.19,2.53,106.69,2.72"/>
			<polygon class="st0" points="91.1,25.62 89.64,23.06 90.52,23.06 91.52,24.92 92.52,23.06 93.37,23.06 91.91,25.62 91.91,27.31 
				91.1,27.31 			"/>
			<path class="st0" d="M98.65,23.04h0.49l1.8,4.26h-0.85l-0.31-0.78h-1.85l-0.32,0.78h-0.83L98.65,23.04z M99.54,25.93l-0.67-1.71
				l-0.69,1.71H99.54z"/>
			<polygon class="st0" points="102.29,23.04 102.86,23.04 104.6,25.43 106.34,23.04 106.91,23.04 106.91,27.31 106.14,27.31 
				106.14,24.5 104.74,26.38 104.45,26.38 103.06,24.5 103.06,27.31 102.29,27.31 			"/>
			<rect x="108.74" y="23.06" class="st0" width="0.81" height="4.25"/>
			<path class="st0" d="M111.16,25.18c0-1.31,0.83-2.21,2.3-2.21c0.54,0,1.02,0.12,1.35,0.27v0.73c-0.31-0.19-0.78-0.35-1.32-0.35
				c-0.94,0-1.49,0.58-1.49,1.56c0,0.99,0.59,1.55,1.54,1.55c0.22,0,0.46-0.04,0.65-0.1v-0.82h-0.71v-0.56h1.46v1.86
				c-0.35,0.15-0.87,0.27-1.45,0.27C111.95,27.39,111.16,26.52,111.16,25.18"/>
			<path class="st0" d="M116.42,25.19c0-1.31,0.88-2.22,2.19-2.22c1.33,0,2.19,0.9,2.19,2.22c0,1.3-0.86,2.2-2.19,2.2
				C117.3,27.39,116.42,26.49,116.42,25.19 M119.96,25.19c0-0.93-0.54-1.56-1.35-1.56c-0.81,0-1.35,0.62-1.35,1.56
				c0,0.93,0.54,1.55,1.35,1.55C119.42,26.74,119.96,26.11,119.96,25.19"/>
			<path class="st0" d="M122.18,27.12V26.4c0.28,0.21,0.7,0.36,1.14,0.36c0.53,0,0.8-0.21,0.8-0.59c0-0.36-0.43-0.55-0.93-0.8
				c-0.49-0.24-0.98-0.58-0.98-1.25c0-0.71,0.53-1.15,1.44-1.15c0.46,0,0.83,0.12,1.05,0.23v0.72c-0.24-0.16-0.6-0.33-1.04-0.33
				c-0.46,0-0.7,0.17-0.7,0.49c0,0.35,0.38,0.51,0.81,0.72c0.63,0.3,1.11,0.63,1.11,1.34c0,0.76-0.59,1.25-1.55,1.25
				C122.82,27.39,122.4,27.24,122.18,27.12"/>
		</g>
		<g>
			<polygon class="st1" points="126,10.85 128.91,8.17 132.11,11.76 135.24,7.44 138.69,10.36 134.4,15.13 134.69,19.67 
				130.52,19.7 130.47,14.92 			"/>
			<polygon class="st1" points="126.81,10.9 122.84,10.82 122.82,12.18 125.87,12.22 125.6,15.09 122.78,15 122.77,16.45 
				127.31,16.51 127.27,19.71 118.82,19.41 119.04,7.65 127.11,7.84 			"/>
			<polygon class="st1" points="114.59,13.5 119.15,16.64 115.81,19.9 111.79,16 112.31,19.53 108.57,20.17 106.52,8.41 
				110.53,7.79 111.21,12.28 114.92,6.92 117.98,9.1 			"/>
			<path class="st1" d="M102.27,19.8c-3.49-0.42-6.41-2.77-5.95-6.65c0.38-3.22,3.12-5.74,6.9-5.29c1.56,0.18,2.97,0.7,4.12,1.85
				l-1.69,2.8c-0.51-0.46-0.88-0.87-2.04-1.01c-1.44-0.17-2.67,0.55-2.85,2.07c-0.17,1.44,0.87,2.61,2.49,2.82
				c0.9,0.1,1.51-0.12,1.98-0.28l1.13,3.04C105.19,19.76,103.79,19.98,102.27,19.8"/>
			<polygon class="st1" points="92.16,19.65 92.7,7.52 96.75,7.81 96.01,19.83 			"/>
			<polygon class="st1" points="88.02,20.03 86.63,15.52 86.62,15.52 84.28,19.24 81.66,15.59 81.62,15.59 80.02,19.77 75.87,18.3 
				80.35,7.62 83.95,12.91 83.99,12.91 87.95,6.85 92.69,18.33 			"/>
			<path class="st1" d="M105.07,3.23c-0.14-0.54-0.64-1.23-1.37-1.8c-1.31-1.01-3.48-1.78-5.26-1.25c-0.12,0.03-0.32,0.3-0.33,0.45
				c-0.01,0.17,0.28,0.23,0.51,0.19c0.06-0.01,0.17-0.02,0.15-0.11c-0.09-0.12-0.24-0.07-0.32-0.14c0.03-0.05,0.11-0.06,0.18-0.08
				c1.14-0.17,2.01,0,2.99,0.4c1.08,0.46,2.35,1.09,2.8,2.28c0.14,0.44,0.05,1.04-0.34,1.33c-0.71,0.55-1.85,0.61-2.72,0.42
				c-0.02-0.55,0.02-1.05,0.02-1.64c0.62,0.01,1.52,0.12,1.66,0.37c0.02,0.04-0.02,0.12-0.09,0.16c-0.13,0.07-0.26,0.14-0.23,0.19
				c0.04,0.06,0.31,0.18,0.43,0.12c0.16-0.07,0.3-0.23,0.36-0.4c0.05-0.15-0.01-0.37-0.13-0.48c-0.43-0.41-1.61-0.51-1.99-0.5
				c0,0-0.02-0.55-0.03-0.74c-0.02-0.32-0.27-0.56-0.31-0.45c-0.16,0.39-0.19,0.96-0.21,1.21c-0.16,0.03-0.47,0.07-0.89,0.22
				c-0.24,0.09-0.52,0.19-0.73,0.39c-0.1,0.1-0.13,0.29-0.09,0.4c0.15,0.41,0.96,1.08,1.63,1.39c0.03,0.2,0.02,0.5,0.15,0.57
				c0.1,0.05,0.19,0.07,0.32,0.04c0.14-0.04,0.14-0.3,0.15-0.38c1.02,0.28,2.2,0.23,3.06-0.36C105.1,4.48,105.21,3.76,105.07,3.23
				 M100.73,4.72c-0.49-0.17-1.11-0.53-1.41-0.95c-0.08-0.12-0.1-0.21,0.13-0.3c0.4-0.15,1.04-0.19,1.33-0.19
				C100.76,3.67,100.74,4.26,100.73,4.72"/>
			<path class="st1" d="M105.89,3.13c0.08,0.63,0.09,1.85,0.02,2c-0.05,0.11-0.22,0.11-0.33,0.08c-0.23-0.06-0.17-0.35-0.2-0.55
				c0.01-0.58,0.02-1.18,0.13-1.73c0.02-0.11,0.06-0.15,0.15-0.14C105.74,2.78,105.87,2.99,105.89,3.13"/>
			<path class="st1" d="M106.52,4.54c0.1,0.19,0.66,0.23,0.88,0.2c0.49-0.06,0.77-0.25,0.81-0.4c0.05-0.22-0.29-0.3-0.54-0.35
				c-0.44-0.1-0.83-0.04-1.27-0.14c-0.12-0.03-0.17-0.1-0.18-0.2c-0.03-0.22,0.05-0.45,0.2-0.57c0.43-0.33,1.79-0.4,2.22-0.18
				c0.08,0.04,0.04,0.16,0,0.22c-0.1,0.13-0.29,0.09-0.47,0.11c-0.5,0.05-1.01,0-1.46,0.16c-0.07,0.03-0.06,0.16,0.09,0.18
				c0.6,0.09,1.51,0.03,1.7,0.46c0.1,0.22,0.07,0.68-0.08,0.84c-0.35,0.35-1.02,0.33-1.31,0.27c-0.2-0.04-0.68-0.21-0.81-0.62
				c-0.03-0.15,0.03-0.27,0.12-0.35c0.26-0.19,0.57-0.14,0.92-0.09c0.2,0.03,0.52,0.15,0.55,0.2c0.05,0.09,0.02,0.18-0.37,0.23
				c-0.41,0.04-0.62-0.33-0.92-0.19C106.53,4.36,106.5,4.49,106.52,4.54"/>
			<path class="st1" d="M109.34,3.03c0.31,0.29,0.64,0.99,0.88,1.34c0.04,0.07,0.12,0.02,0.12-0.04c0.01-0.62-0.24-1.1-0.32-1.67
				c-0.01-0.05-0.03-0.17,0.03-0.18c0.14-0.02,0.27,0.16,0.35,0.27c0.3,0.37,0.46,1.11,0.38,1.68c-0.02,0.18-0.12,0.57-0.29,0.64
				c-0.08,0.03-0.28,0.06-0.35,0.01c-0.3-0.22-0.69-1.29-0.81-1.28c-0.03,0-0.05,0.04-0.07,0.13c-0.04,0.3-0.07,1.1-0.07,1.1
				c-0.02,0.19-0.16,0.17-0.23,0.17c-0.12,0-0.21-0.07-0.22-0.13c-0.04-0.27-0.03-0.65,0.01-0.92c0.04-0.34,0.15-0.79,0.29-1.05
				C109.12,2.97,109.26,2.96,109.34,3.03"/>
			<path class="st1" d="M111.31,3.83l0.17-0.41c-0.12-0.03-0.38-0.14-0.43-0.35c0-0.03,0.18-0.08,0.26-0.09
				c0.56-0.06,0.94-0.11,1.44-0.09c0.11,0,0.39,0.33,0.32,0.45c-0.05,0.09-0.46,0.07-0.63,0.07c-0.16-0.01-0.46,0.02-0.46,0.02
				l-0.15,0.38c0.24-0.01,0.62-0.05,0.73,0.02c0.04,0.03,0.05,0.22,0.03,0.27c-0.05,0.11-0.32,0.08-0.48,0.08
				c-0.17,0-0.44,0.01-0.44,0.01c0.01-0.02-0.2,0.42-0.16,0.51c0.04,0.08,0.84-0.14,1.04-0.11c0.13,0.02,0.22,0.24,0.14,0.31
				c-0.37,0.33-0.97,0.6-1.3,0.49c-0.31-0.09-0.45-0.41-0.38-0.66c0.05-0.2,0.16-0.56,0.16-0.56c-0.01,0-0.06-0.03-0.08-0.26
				C111.06,3.84,111.31,3.83,111.31,3.83"/>
			<path class="st1" d="M115.17,3.22c-0.08-0.09-0.25-0.16-0.39-0.11c-0.36,0.13-0.57,0.39-0.84,0.68c-0.18,0.2-0.37,0.52-0.49,0.7
				c-0.04-0.04-0.06-0.15-0.06-0.24c0.07-0.52,0.63-0.92,0.57-1.38c-0.01-0.09-0.23,0.11-0.29,0.17c-0.37,0.41-0.7,0.92-0.63,1.51
				c0.02,0.2,0.14,0.4,0.14,0.4s-0.41,0.81-0.53,1.36c-0.06,0.28-0.08,0.55,0.01,0.76c0.09,0.19,0.41,0.44,0.44,0.28
				c0.14-0.7,0.37-1.39,0.59-2.03c0,0,0.14,0.05,0.3,0.03c0.58-0.05,1.13-0.55,1.29-1.16C115.36,3.83,115.37,3.49,115.17,3.22
				 M114.67,4.51c-0.21,0.17-0.49,0.3-0.71,0.28c0.12-0.2,0.26-0.44,0.42-0.66c0.12-0.16,0.36-0.45,0.55-0.55
				c0.06-0.03,0.1,0.04,0.1,0.14C115.03,4.03,114.9,4.31,114.67,4.51"/>
			<path class="st1" d="M107.12,0.96c-0.08-0.07-0.22-0.09-0.33-0.08c-0.05-0.31-0.69-0.28-0.94-0.22
				c-0.47,0.11-0.79,0.41-0.96,0.74c-0.12,0.23-0.06,0.58,0.11,0.68c-0.03,0.06-0.03,0.16-0.02,0.22c0.02,0.13,0.14,0.25,0.22,0.25
				c0.08,0,0.16-0.19,0.18-0.22c0.21,0.06,0.46,0.11,0.72,0.05c0.52-0.12,0.91-0.47,1.06-0.82C107.26,1.35,107.28,1.1,107.12,0.96
				 M105.21,1.77c-0.06-0.06-0.04-0.2-0.01-0.26c0.03-0.06,0.08-0.14,0.15-0.19c0.09-0.08,0.18-0.15,0.3-0.2
				c0.06-0.03,0.18-0.06,0.26-0.03C105.63,1.24,105.36,1.53,105.21,1.77 M106.31,1.95c-0.28,0.1-0.62,0.06-0.71,0.02
				c0.24-0.4,0.68-0.76,0.98-0.8c0.16-0.03,0.3-0.03,0.33,0.1C106.96,1.45,106.81,1.76,106.31,1.95"/>
			<polygon class="st1" points="90.71,24.85 89.26,22.28 90.13,22.28 91.14,24.15 92.13,22.28 92.98,22.28 91.52,24.85 91.52,26.53 
				90.71,26.53 			"/>
			<path class="st1" d="M98.26,22.27h0.49l1.8,4.26H99.7l-0.31-0.78h-1.85l-0.32,0.78H96.4L98.26,22.27z M99.15,25.16l-0.67-1.71
				l-0.69,1.71H99.15z"/>
			<polygon class="st1" points="101.9,22.27 102.47,22.27 104.22,24.66 105.95,22.27 106.53,22.27 106.53,26.53 105.75,26.53 
				105.75,23.72 104.36,25.61 104.07,25.61 102.67,23.72 102.67,26.53 101.9,26.53 			"/>
			<rect x="108.35" y="22.28" class="st1" width="0.81" height="4.25"/>
			<path class="st1" d="M110.77,24.41c0-1.31,0.83-2.21,2.3-2.21c0.54,0,1.02,0.12,1.35,0.27v0.73c-0.31-0.19-0.78-0.35-1.32-0.35
				c-0.94,0-1.49,0.58-1.49,1.56c0,0.99,0.59,1.55,1.54,1.55c0.23,0,0.46-0.04,0.65-0.1v-0.82h-0.71v-0.56h1.46v1.86
				c-0.35,0.15-0.87,0.27-1.45,0.27C111.56,26.62,110.77,25.75,110.77,24.41"/>
			<path class="st1" d="M116.03,24.41c0-1.31,0.88-2.22,2.19-2.22c1.33,0,2.19,0.9,2.19,2.22c0,1.3-0.86,2.2-2.19,2.2
				C116.91,26.62,116.03,25.71,116.03,24.41 M119.57,24.41c0-0.93-0.54-1.56-1.35-1.56c-0.81,0-1.35,0.62-1.35,1.56
				c0,0.93,0.54,1.55,1.35,1.55C119.03,25.96,119.57,25.34,119.57,24.41"/>
			<path class="st1" d="M121.79,26.35v-0.72c0.28,0.21,0.7,0.36,1.14,0.36c0.53,0,0.8-0.21,0.8-0.59c0-0.36-0.43-0.55-0.93-0.8
				c-0.49-0.24-0.98-0.58-0.98-1.25c0-0.71,0.53-1.15,1.44-1.15c0.46,0,0.83,0.12,1.05,0.23v0.72c-0.24-0.16-0.6-0.33-1.04-0.33
				c-0.46,0-0.7,0.17-0.7,0.49c0,0.35,0.38,0.51,0.81,0.72c0.63,0.3,1.11,0.63,1.11,1.34c0,0.76-0.59,1.25-1.55,1.25
				C122.43,26.61,122.01,26.47,121.79,26.35"/>
		</g>
	</g>
</g>
</svg>
