<?xml version="1.0" encoding="utf-8"?>
<!-- Generator: Adobe Illustrator 21.0.0, SVG Export Plug-In . SVG Version: 6.00 Build 0)  -->
<svg version="1.1" id="Capa_1" xmlns="http://www.w3.org/2000/svg" xmlns:xlink="http://www.w3.org/1999/xlink" x="0px" y="0px"
	 viewBox="0 0 476.8 420.3" style="enable-background:new 0 0 476.8 420.3;" xml:space="preserve">
<style type="text/css">
	.st0{clip-path:url(#SVGID_2_);fill:#F7F5F5;}
	.st1{fill:#F7F5F5;}
	.st2{clip-path:url(#SVGID_4_);fill:#F7F5F5;}
	.st3{clip-path:url(#SVGID_6_);fill:#F7F5F5;}
	.st4{clip-path:url(#SVGID_8_);fill:#F7F5F5;}
	.st5{clip-path:url(#SVGID_10_);fill:#F7F5F5;}
	.st6{clip-path:url(#SVGID_12_);fill:#F7F5F5;}
	.st7{clip-path:url(#SVGID_14_);fill:#F7F5F5;}
	.st8{clip-path:url(#SVGID_16_);fill:#F7F5F5;}
</style>
<g>
	<defs>
		<rect id="SVGID_1_" width="476.8" height="420.3"/>
	</defs>
	<clipPath id="SVGID_2_">
		<use xlink:href="#SVGID_1_"  style="overflow:visible;"/>
	</clipPath>
	<path class="st0" d="M287.7,125.5c-23-39.2-44.2-36.9-60.6-35.4C210.7,91.7,208.5-31,11.8,7.5c0,0,0,0,0.1,0
		c41-7.5,88.9,12.9,120,55.1c40.7,55.3,37.1,127-8,160.1c-22.5,16.6-51.2,20.4-79.2,13.2c31,21.9,93.1,50.1,162.6-6
		c88.2-71.3,170.9-39.8,243.6,11.3C450.7,241.2,435.5,111.9,287.7,125.5"/>
</g>
<polygon class="st1" points="0,376.6 0,419.4 19.3,419.4 19.3,410.8 11.1,410.8 11.1,401.4 18.1,401.4 18.1,393.3 11.1,393.3 
	11.1,385.2 18.5,385.2 18.5,376.6 "/>
<rect x="33" y="376.6" class="st1" width="11" height="42.8"/>
<g>
	<defs>
		<rect id="SVGID_3_" width="476.8" height="420.3"/>
	</defs>
	<clipPath id="SVGID_4_">
		<use xlink:href="#SVGID_3_"  style="overflow:visible;"/>
	</clipPath>
	<path class="st2" d="M104.8,392.4H93.7v-3.9c0-2.4-0.1-4-0.3-4.6c-0.2-0.6-0.7-0.9-1.5-0.9c-0.7,0-1.2,0.3-1.4,0.8
		c-0.2,0.5-0.4,1.9-0.4,4.1v20.5c0,1.9,0.1,3.2,0.4,3.8c0.2,0.6,0.7,0.9,1.5,0.9c0.8,0,1.4-0.3,1.6-1c0.3-0.7,0.4-2,0.4-4v-5.1h-2.2
		v-6.5h13v22.9h-7l-1-3.1c-0.8,1.3-1.7,2.3-2.9,3c-1.2,0.7-2.5,1-4.1,1c-1.9,0-3.6-0.5-5.3-1.4c-1.6-0.9-2.9-2-3.7-3.4
		c-0.8-1.3-1.4-2.7-1.6-4.2c-0.2-1.5-0.3-3.7-0.3-6.6V392c0-4.1,0.2-7.1,0.7-8.9c0.4-1.9,1.7-3.5,3.8-5.1c2.1-1.5,4.8-2.3,8.1-2.3
		c3.3,0,6,0.7,8.1,2c2.2,1.3,3.5,2.9,4.2,4.8c0.7,1.8,1,4.5,1,8V392.4z"/>
	<path class="st2" d="M119.9,376.6h7.9c5.2,0,8.8,0.2,10.7,0.6c1.9,0.4,3.4,1.4,4.5,3.1c1.2,1.7,1.8,4.3,1.8,8
		c0,3.3-0.4,5.6-1.2,6.7c-0.8,1.1-2.5,1.8-4.9,2.1c2.2,0.5,3.7,1.3,4.4,2.2c0.8,0.9,1.2,1.8,1.4,2.5c0.2,0.8,0.3,2.9,0.3,6.3v11.3
		h-10.3v-14.2c0-2.3-0.2-3.7-0.5-4.2c-0.4-0.5-1.3-0.8-2.8-0.8v19.3h-11.1V376.6z M131,384v9.5c1.3,0,2.1-0.2,2.6-0.5
		c0.5-0.3,0.8-1.5,0.8-3.3v-2.4c0-1.4-0.2-2.2-0.7-2.7C133.2,384.2,132.3,384,131,384"/>
	<path class="st2" d="M179.1,376.6l6.4,42.8h-11.4l-0.6-7.7h-4l-0.7,7.7h-11.5l5.7-42.8H179.1z M173.2,404.1
		c-0.6-4.8-1.1-10.8-1.7-18c-1.1,8.2-1.8,14.2-2.1,18H173.2z"/>
</g>
<polygon class="st1" points="213.7,376.6 213.7,395.9 207.4,376.6 198.1,376.6 198.1,419.4 207.4,419.4 207.4,400 213.2,419.4 
	223,419.4 223,376.6 "/>
<g>
	<defs>
		<rect id="SVGID_5_" width="476.8" height="420.3"/>
	</defs>
	<clipPath id="SVGID_6_">
		<use xlink:href="#SVGID_5_"  style="overflow:visible;"/>
	</clipPath>
	<path class="st3" d="M284,401.7c0,4.3-0.1,7.3-0.3,9.1c-0.2,1.8-0.8,3.4-1.9,4.9c-1.1,1.5-2.5,2.6-4.3,3.4
		c-1.8,0.8-3.9,1.2-6.3,1.2c-2.3,0-4.3-0.4-6.2-1.1c-1.8-0.7-3.3-1.9-4.4-3.4c-1.1-1.5-1.8-3.1-2-4.9c-0.2-1.8-0.3-4.8-0.3-9.2v-7.3
		c0-4.3,0.1-7.3,0.3-9.1c0.2-1.8,0.8-3.4,1.9-4.9c1.1-1.5,2.5-2.6,4.3-3.4c1.8-0.8,3.9-1.2,6.3-1.2c2.3,0,4.3,0.4,6.2,1.1
		c1.8,0.7,3.3,1.9,4.4,3.4c1.1,1.5,1.8,3.1,2,4.9c0.2,1.8,0.3,4.8,0.3,9.3V401.7z M272.9,387.6c0-2-0.1-3.3-0.3-3.8
		c-0.2-0.6-0.7-0.8-1.4-0.8c-0.6,0-1,0.2-1.3,0.7c-0.3,0.4-0.5,1.8-0.5,4v20c0,2.5,0.1,4,0.3,4.6c0.2,0.6,0.7,0.9,1.4,0.9
		c0.8,0,1.2-0.3,1.4-1c0.2-0.7,0.3-2.3,0.3-4.8V387.6z"/>
	<path class="st3" d="M324.9,395.3h-11.1v-7.4c0-2.2-0.1-3.5-0.4-4c-0.2-0.5-0.8-0.8-1.6-0.8c-0.9,0-1.5,0.3-1.7,1
		c-0.2,0.7-0.4,2.1-0.4,4.2V408c0,2.1,0.1,3.4,0.4,4.1c0.2,0.6,0.8,1,1.7,1c0.8,0,1.4-0.3,1.6-1s0.4-2.1,0.4-4.5v-5.4h11.1v1.7
		c0,4.4-0.3,7.6-0.9,9.4c-0.6,1.9-2,3.5-4.1,4.9c-2.1,1.4-4.8,2.1-7.9,2.1c-3.3,0-5.9-0.6-8.1-1.8s-3.5-2.8-4.2-4.9
		c-0.7-2.1-1-5.2-1-9.4v-12.5c0-3.1,0.1-5.4,0.3-6.9c0.2-1.5,0.8-3,1.9-4.5c1.1-1.4,2.5-2.6,4.4-3.4c1.9-0.8,4-1.2,6.4-1.2
		c3.3,0,6,0.6,8.1,1.9c2.1,1.3,3.5,2.8,4.2,4.7c0.7,1.9,1,4.8,1,8.8V395.3z"/>
</g>
<polygon class="st1" points="339.7,376.6 339.7,419.4 359,419.4 359,410.8 350.9,410.8 350.9,401.4 357.8,401.4 357.8,393.3 
	350.9,393.3 350.9,385.2 358.3,385.2 358.3,376.6 "/>
<g>
	<defs>
		<rect id="SVGID_7_" width="476.8" height="420.3"/>
	</defs>
	<clipPath id="SVGID_8_">
		<use xlink:href="#SVGID_7_"  style="overflow:visible;"/>
	</clipPath>
	<path class="st4" d="M392.3,376.6l6.4,42.8h-11.4l-0.6-7.7h-4l-0.7,7.7h-11.5l5.7-42.8H392.3z M386.4,404.1
		c-0.6-4.8-1.1-10.8-1.7-18c-1.1,8.2-1.8,14.2-2.1,18H386.4z"/>
</g>
<polygon class="st1" points="426.9,376.6 426.9,395.9 420.6,376.6 411.3,376.6 411.3,419.4 420.6,419.4 420.6,400 426.4,419.4 
	436.2,419.4 436.2,376.6 "/>
<g>
	<defs>
		<rect id="SVGID_9_" width="476.8" height="420.3"/>
	</defs>
	<clipPath id="SVGID_10_">
		<use xlink:href="#SVGID_9_"  style="overflow:visible;"/>
	</clipPath>
	<path class="st5" d="M476.8,401.7c0,4.3-0.1,7.3-0.3,9.1c-0.2,1.8-0.8,3.4-1.9,4.9c-1.1,1.5-2.5,2.6-4.3,3.4
		c-1.8,0.8-3.9,1.2-6.3,1.2c-2.3,0-4.3-0.4-6.2-1.1c-1.8-0.7-3.3-1.9-4.4-3.4c-1.1-1.5-1.8-3.1-2-4.9c-0.2-1.8-0.3-4.8-0.3-9.2v-7.3
		c0-4.3,0.1-7.3,0.3-9.1c0.2-1.8,0.8-3.4,1.9-4.9c1.1-1.5,2.5-2.6,4.3-3.4c1.8-0.8,3.9-1.2,6.3-1.2c2.3,0,4.3,0.4,6.2,1.1
		c1.8,0.7,3.3,1.9,4.4,3.4c1.1,1.5,1.8,3.1,2,4.9c0.2,1.8,0.3,4.8,0.3,9.3V401.7z M465.7,387.6c0-2-0.1-3.3-0.3-3.8
		c-0.2-0.6-0.7-0.8-1.4-0.8c-0.6,0-1,0.2-1.3,0.7c-0.3,0.4-0.5,1.8-0.5,4v20c0,2.5,0.1,4,0.3,4.6c0.2,0.6,0.7,0.9,1.4,0.9
		c0.8,0,1.2-0.3,1.4-1c0.2-0.7,0.3-2.3,0.3-4.8V387.6z"/>
</g>
<polygon class="st1" points="0.5,292.8 0.5,367.4 31.7,367.4 31.7,352.5 19.9,352.5 19.9,292.8 "/>
<g>
	<defs>
		<rect id="SVGID_11_" width="476.8" height="420.3"/>
	</defs>
	<clipPath id="SVGID_12_">
		<use xlink:href="#SVGID_11_"  style="overflow:visible;"/>
	</clipPath>
	<path class="st6" d="M72.3,292.8l11.1,74.7H63.6l-1-13.4h-6.9l-1.2,13.4H34.3l9.9-74.7H72.3z M62,340.8c-1-8.5-2-18.9-3-31.4
		c-2,14.3-3.2,24.7-3.7,31.4H62z"/>
	<path class="st6" d="M149.5,292.8l-9.9,74.7h-29.5l-11.2-74.7h20.5c2.4,20.6,4.1,38,5.1,52.2c1-14.4,2.1-27.2,3.2-38.3l1.3-13.9
		H149.5z"/>
</g>
<rect x="152.8" y="292.8" class="st1" width="19.4" height="74.7"/>
<g>
	<defs>
		<rect id="SVGID_13_" width="476.8" height="420.3"/>
	</defs>
	<clipPath id="SVGID_14_">
		<use xlink:href="#SVGID_13_"  style="overflow:visible;"/>
	</clipPath>
	<path class="st7" d="M180,292.8h14.5c9.4,0,15.7,0.4,19,1.3c3.3,0.9,5.8,2.3,7.5,4.2c1.7,2,2.8,4.2,3.2,6.6
		c0.4,2.4,0.6,7.2,0.6,14.2v26.1c0,6.7-0.3,11.2-0.9,13.4c-0.6,2.3-1.7,4-3.3,5.3c-1.6,1.3-3.5,2.2-5.8,2.7
		c-2.3,0.5-5.8,0.8-10.4,0.8H180V292.8z M199.4,305.6v49.1c2.8,0,4.5-0.6,5.2-1.7c0.6-1.1,1-4.2,1-9.2v-29c0-3.4-0.1-5.5-0.3-6.5
		c-0.2-1-0.7-1.7-1.5-2.1C203,305.8,201.5,305.6,199.4,305.6"/>
	<path class="st7" d="M265.7,292.8l11.1,74.7H257l-1-13.4H249l-1.2,13.4h-20.1l9.9-74.7H265.7z M255.5,340.8c-1-8.5-2-18.9-3-31.4
		c-2,14.3-3.2,24.7-3.7,31.4H255.5z"/>
</g>
<polygon class="st1" points="296.8,292.8 329.2,292.8 329.2,307.7 316.2,307.7 316.2,321.9 328.3,321.9 328.3,336.1 316.2,336.1 
	316.2,352.5 330.4,352.5 330.4,367.4 296.8,367.4 "/>
<polygon class="st1" points="379.4,292.8 379.4,367.4 362.4,367.4 352.3,333.5 352.3,367.4 336,367.4 336,292.8 352.3,292.8 
	363.1,326.4 363.1,292.8 "/>
<polygon class="st1" points="403.8,292.8 436.2,292.8 436.2,307.7 423.2,307.7 423.2,321.9 435.4,321.9 435.4,336.1 423.2,336.1 
	423.2,352.5 437.5,352.5 437.5,367.4 403.8,367.4 "/>
<polygon class="st1" points="462.5,292.8 462.5,352.5 474.3,352.5 474.3,367.4 443,367.4 443,292.8 "/>
<g>
	<defs>
		<rect id="SVGID_15_" width="476.8" height="420.3"/>
	</defs>
	<clipPath id="SVGID_16_">
		<use xlink:href="#SVGID_15_"  style="overflow:visible;"/>
	</clipPath>
	<path class="st8" d="M111.7,89.8c0,7.9-6.4,14.2-14.2,14.2s-14.2-6.4-14.2-14.2c0-7.9,6.4-14.2,14.2-14.2S111.7,82,111.7,89.8"/>
	<path class="st8" d="M309.3,225.3c0,7.9-6.4,14.2-14.2,14.2s-14.2-6.4-14.2-14.2c0-7.9,6.4-14.2,14.2-14.2S309.3,217.5,309.3,225.3
		"/>
</g>
</svg>
