<?xml version="1.0" encoding="utf-8"?>
<!-- Generator: Adobe Illustrator 24.0.1, SVG Export Plug-In . SVG Version: 6.00 Build 0)  -->
<svg version="1.1" id="Capa_1" xmlns="http://www.w3.org/2000/svg" xmlns:xlink="http://www.w3.org/1999/xlink" x="0px" y="0px"
	 viewBox="0 0 448 199.2" style="enable-background:new 0 0 448 199.2;" xml:space="preserve">
<style type="text/css">
	.st0{stroke:#FFFFFF;stroke-width:2;stroke-miterlimit:10;}
	.st1{fill:#E9560D;stroke:#FFFFFF;stroke-miterlimit:10;}
	.st2{stroke:#FFFFFF;stroke-miterlimit:10;}
	.st3{fill:#E84E0F;stroke:#FFFFFF;stroke-miterlimit:10;}
	.st4{fill:#FFED00;}
	.st5{fill:#009FE3;}
	.st6{fill:#E30613;}
</style>
<g id="Group_74" transform="translate(141 116)">
	<g id="Group_68" transform="translate(-22.293 -21.378)">
		<path id="Path_118" class="st0" d="M10.3,51.4H0V-0.3h20.7c1.9,0,3.7,0.2,5.5,0.7c1.7,0.5,3.4,1.2,4.9,2.1c1.5,0.9,2.9,2,4.2,3.2
			c1.3,1.3,2.3,2.7,3.2,4.2c0.9,1.5,1.6,3.2,2.1,4.9c1.2,4.5,0.9,9.2-0.9,13.5c-2.1,5-6,8.9-11,11c-2.5,1.1-5.3,1.6-8,1.6H10.4
			L10.3,51.4L10.3,51.4z M10.3,10.1v20.7h10.3c1.4,0,2.7-0.3,4-0.8c2.5-1.1,4.4-3,5.5-5.5c1.1-2.6,1.1-5.5,0-8c-1-2.5-3-4.5-5.5-5.5
			c-1.3-0.5-2.6-0.8-4-0.8L10.3,10.1L10.3,10.1z"/>
		<path id="Path_119" class="st0" d="M57.7,51.4H47.4V-0.3h10.3V51.4z"/>
		<path id="Path_120" class="st0" d="M118.6,51.4h-10.3V14.5c0-0.7-0.1-1.4-0.4-2c-0.3-0.6-0.6-1.2-1.1-1.6c-0.5-0.5-1-0.8-1.6-1.1
			c-0.6-0.3-1.3-0.4-2-0.4c-2.1,0-4,1.2-4.8,3.1c-0.3,0.6-0.4,1.3-0.4,2v36.9H87.6V14.5c0-0.7-0.1-1.4-0.4-2
			c-0.3-0.6-0.6-1.2-1.1-1.6c-0.5-0.5-1-0.8-1.6-1.1c-0.6-0.3-1.3-0.4-2-0.4c-2.1,0-4,1.2-4.8,3.1c-0.3,0.6-0.4,1.3-0.4,2v36.9H66.9
			V14.5c0-2.1,0.4-4.1,1.2-6c1.6-3.7,4.5-6.7,8.2-8.2C81.9-2.1,88.3-1.1,92.8,3c4.4-4,10.8-5.1,16.3-2.8c3.7,1.6,6.7,4.5,8.2,8.2
			c0.8,1.9,1.2,4,1.2,6V51.4z"/>
		<path id="Path_121" class="st0" d="M168.5,51.4h-10.3V41h-20.7v10.3h-10.3v-31c0-2.8,0.5-5.5,1.6-8.1c1-2.5,2.5-4.7,4.4-6.6
			c1.9-1.9,4.1-3.4,6.6-4.4c5.2-2.2,11-2.2,16.1,0c5,2.1,8.9,6,11,11c1.1,2.5,1.6,5.3,1.6,8.1L168.5,51.4z M158.2,30.7V20.4
			c0-1.4-0.3-2.7-0.8-4c-1-2.5-3-4.5-5.5-5.5c-2.6-1.1-5.5-1.1-8,0c-2.5,1-4.5,3-5.5,5.5c-0.5,1.3-0.8,2.6-0.8,4v10.3L158.2,30.7z"
			/>
		<path id="Path_122" class="st0" d="M197.7,51.4h-10.3V10.1h-15.5V-0.3h41.3v10.3h-15.5L197.7,51.4L197.7,51.4z"/>
		<path id="Path_123" class="st0" d="M254,51.4h-35.4V-0.3H254v10.3H229v10.3h17v10.3h-17V41H254V51.4z"/>
		<path id="Path_124" class="st0" d="M301.4,51.4h-12.5l-9.9-16.7l-10,16.7h-12.5l15.9-25.8L256.5-0.3H269l10,16.7l9.9-16.7h12.5
			l-15.9,25.8L301.4,51.4z"/>
	</g>
	<g id="Group_70" transform="translate(97.22 -61.067)">
		<g id="Group_69">
			<path id="Path_125" class="st1" d="M5.7,27.9H0V-0.6h5.7L5.7,27.9z"/>
			<path id="Path_126" class="st1" d="M33.8,27.9h-6.1l-11-18.8v18.8H11V-0.6h6.1l11,18.8V-0.6h5.7L33.8,27.9L33.8,27.9z"/>
			<path id="Path_127" class="st1" d="M37.4,8c0-1.1,0.2-2.3,0.7-3.3c0.4-1,1.1-1.9,1.8-2.7c0.8-0.8,1.7-1.4,2.7-1.8
				c1-0.5,2.2-0.7,3.3-0.7h13.1v5.7H46c-0.4,0-0.8,0.1-1.1,0.2c-0.3,0.1-0.6,0.4-0.9,0.6c-0.3,0.3-0.5,0.6-0.6,0.9
				c-0.1,0.4-0.2,0.7-0.2,1.1c0,0.4,0.1,0.8,0.2,1.1c0.1,0.3,0.3,0.7,0.6,0.9c0.3,0.3,0.6,0.5,0.9,0.6c0.4,0.1,0.7,0.2,1.1,0.2h5.7
				c1.1,0,2.3,0.2,3.3,0.7c2.1,0.9,3.7,2.5,4.6,4.6c0.9,2.1,0.9,4.5,0,6.7c-0.9,2.1-2.5,3.7-4.6,4.6c-1.1,0.5-2.2,0.7-3.3,0.7H39
				v-5.7h12.7c0.4,0,0.8-0.1,1.1-0.2c0.3-0.1,0.6-0.4,0.9-0.6c0.3-0.3,0.5-0.6,0.6-0.9c0.1-0.4,0.2-0.7,0.2-1.1
				c0-0.4-0.1-0.8-0.2-1.1c-0.1-0.3-0.4-0.6-0.6-0.9c-0.3-0.3-0.6-0.5-0.9-0.6c-0.4-0.1-0.7-0.2-1.1-0.2H46c-1.1,0-2.3-0.2-3.3-0.7
				c-1-0.4-1.9-1.1-2.7-1.8c-0.8-0.8-1.4-1.7-1.8-2.7C37.7,10.2,37.4,9.1,37.4,8z"/>
			<path id="Path_128" class="st1" d="M86.5,16.5c0,1.5-0.3,3-0.9,4.4c-0.6,1.4-1.4,2.6-2.4,3.6c-1,1-2.3,1.9-3.6,2.4
				c-2.8,1.2-6,1.2-8.9,0c-1.4-0.6-2.6-1.4-3.6-2.4c-1-1-1.9-2.3-2.4-3.6c-0.6-1.4-0.9-2.9-0.9-4.4V-0.6h5.7v17.1
				c0,0.8,0.1,1.5,0.4,2.2c0.6,1.4,1.7,2.5,3,3c1.4,0.6,3,0.6,4.4,0c0.7-0.3,1.3-0.7,1.8-1.2c0.5-0.5,0.9-1.1,1.2-1.8
				c0.3-0.7,0.5-1.5,0.4-2.2V-0.6h5.7L86.5,16.5L86.5,16.5z"/>
			<path id="Path_129" class="st1" d="M119.8,27.9h-5.7V7.6c0-0.4-0.1-0.8-0.2-1.1c-0.1-0.3-0.4-0.6-0.6-0.9
				c-0.3-0.3-0.6-0.5-0.9-0.6c-0.4-0.1-0.7-0.2-1.1-0.2c-0.4,0-0.8,0.1-1.1,0.2c-0.3,0.1-0.6,0.4-0.9,0.6c-0.3,0.3-0.5,0.6-0.6,0.9
				c-0.1,0.4-0.2,0.7-0.2,1.1v20.4h-5.7V7.6c0-0.4-0.1-0.8-0.2-1.1c-0.1-0.3-0.4-0.6-0.6-0.9c-0.3-0.3-0.6-0.5-0.9-0.6
				c-0.4-0.1-0.7-0.2-1.1-0.2c-0.8,0-1.5,0.3-2,0.8c-0.3,0.3-0.5,0.6-0.6,0.9C97,6.8,96.9,7.2,97,7.6v20.4h-5.7V7.6
				c0-1.1,0.2-2.3,0.7-3.3c0.9-2.1,2.5-3.7,4.6-4.6C97.5-0.8,98.7-1,99.8-1c1,0,2.1,0.2,3.1,0.6c1,0.4,1.9,0.9,2.6,1.6
				c2.4-2.2,6-2.8,9-1.5c2.1,0.9,3.7,2.5,4.6,4.6c0.4,1.1,0.7,2.2,0.7,3.3L119.8,27.9L119.8,27.9z"/>
			<path id="Path_130" class="st1" d="M152.8,13.8c0,1.3-0.2,2.6-0.5,3.9c-0.3,1.2-0.8,2.4-1.5,3.5c-0.6,1.1-1.4,2.1-2.3,3
				c-0.9,0.9-1.9,1.7-3,2.3c-1.1,0.7-2.3,1.2-3.5,1.5c-1.3,0.4-2.6,0.5-3.9,0.5c-1.3,0-2.6-0.2-3.9-0.5c-3.7-1-6.9-3.5-8.8-6.8
				c-0.6-1.1-1.1-2.3-1.5-3.5c-0.4-1.3-0.5-2.6-0.5-3.9c0-2.6,0.7-5.2,2-7.4c0.6-1.1,1.4-2.1,2.3-3c0.9-0.9,1.9-1.7,3-2.3
				c1.1-0.6,2.3-1.1,3.5-1.5c1.3-0.4,2.6-0.5,3.9-0.5c1.3,0,2.6,0.2,3.9,0.5c1.2,0.3,2.4,0.8,3.5,1.5c2.2,1.3,4,3.1,5.3,5.3
				c0.6,1.1,1.1,2.3,1.5,3.5C152.6,11.1,152.8,12.5,152.8,13.8z M147.2,13.8c0-1.2-0.2-2.4-0.7-3.5c-0.5-1.1-1.1-2.1-1.9-2.9
				c-0.8-0.8-1.8-1.5-2.9-1.9c-2.3-1-4.8-1-7.1,0c-1.1,0.5-2.1,1.1-2.9,1.9c-0.8,0.8-1.5,1.8-2,2.9c-0.5,1.1-0.7,2.3-0.7,3.5
				c0,1.2,0.2,2.4,0.7,3.5c0.9,2.2,2.7,3.9,4.8,4.8c2.3,1,4.8,1,7.1,0c1.1-0.5,2.1-1.1,2.9-1.9c0.8-0.8,1.5-1.8,1.9-2.9
				C146.9,16.2,147.2,15,147.2,13.8z"/>
			<path id="Path_131" class="st1" d="M154.9,8c0-1.1,0.2-2.3,0.7-3.3c0.4-1,1.1-1.9,1.8-2.7c0.8-0.8,1.7-1.4,2.7-1.8
				c1-0.5,2.2-0.7,3.3-0.7h13.1v5.7h-13.1c-0.4,0-0.8,0.1-1.1,0.2c-0.3,0.1-0.6,0.4-0.9,0.6c-0.3,0.3-0.5,0.6-0.6,0.9
				c-0.1,0.4-0.2,0.7-0.2,1.1c0,0.4,0.1,0.8,0.2,1.1c0.1,0.3,0.3,0.7,0.6,0.9c0.3,0.3,0.6,0.5,0.9,0.6c0.4,0.1,0.7,0.2,1.1,0.2h5.7
				c1.1,0,2.3,0.2,3.3,0.7c2.1,0.9,3.7,2.5,4.6,4.6c0.9,2.1,0.9,4.5,0,6.7c-0.9,2.1-2.5,3.7-4.6,4.6c-1.1,0.5-2.2,0.7-3.3,0.7h-12.7
				v-5.7h12.7c0.4,0,0.8-0.1,1.1-0.2c0.3-0.1,0.6-0.4,0.9-0.6c0.3-0.3,0.5-0.6,0.6-0.9c0.1-0.4,0.2-0.7,0.2-1.1
				c0-0.4-0.1-0.8-0.2-1.1c-0.1-0.3-0.4-0.6-0.6-0.9c-0.3-0.3-0.6-0.5-0.9-0.6c-0.4-0.1-0.7-0.2-1.1-0.2h-5.7
				c-1.1,0-2.3-0.2-3.3-0.7c-1-0.4-1.9-1.1-2.7-1.8c-0.8-0.8-1.4-1.7-1.8-2.7C155.1,10.2,154.9,9.1,154.9,8z"/>
		</g>
	</g>
	<g id="Group_73" transform="translate(-112.139 -80.48)">
		<g id="Group_71" transform="translate(1.682)">
			<path id="Path_132" class="st2" d="M0,115.9L14.8,8.2c0,0,4.2,5,20.6,5.2c10.4,0.1,18.5-1.4,20.4-6.1
				c1.9,7.6,19.3,108.5,19.3,108.5s-8.2,16.5-34.4,15.1S-0.9,127,0,115.9z"/>
			<ellipse id="Ellipse_8" class="st3" cx="35.5" cy="5.8" rx="19.6" ry="6.8"/>
		</g>
		<g id="Group_72" transform="translate(0 18.564)">
			<path id="Path_133" class="st4" d="M59.1-1c0,0,1.4-0.2,1.7,0.9s0.8,2.1-2.8,2.8S35.6,7.8,35.6,7.8l25.5-1.3c0,0,2.1,1.5,0.5,2.7
				S30.8,17,30.8,17l30.8-1.8c0,0,3.2,0.5,0.6,2.3c-2.6,1.7-27.8,6.7-27.8,6.7l28.8-1.6c0,0,2.6,1.1,0.6,2.4
				c-1.9,1.2-31.2,7.6-31.2,7.6l31.9-2.2c0,0,2.8,1.2,0,2.6c-2.8,1.3-35,8.4-35,8.4l36.8-2.6c0,0,2.2,1.1,0,2.6s-34.6,8-34.6,8
				L6.9,52.3l35.5-8.9L8.1,45.8c0,0-1.6-2.2,0.7-2.8c2.4-0.6,31.9-8,31.9-8L9,37.9c0,0-3.9-1.6,1.4-3.4S41.6,27,41.6,27l-30,1.9
				c0,0-2.9-2.6,1.7-3.2S38.9,20,38.9,20l-27,1.6c0,0-2.6-2.4,0.2-3.1s28.5-7.1,28.5-7.1L13,13c0,0-3.4-1.5,0.4-3.1S59.1-1,59.1-1z"
				/>
			<path id="Path_134" class="st5" d="M7.7,54.9c0,0-3.7-0.9-0.8-2.6c3.9-0.5,60.3-7.4,60.3-7.4s3.4,1.3,0,2.8
				c-3.4,1.4-36.5,9.7-36.5,9.7l38-5c0,0,4.9,1.9,0,3.2s-36.2,9.3-36.2,9.3l37.3-4.9c0,0,2.8,2.2,0.2,2.9s-23.6,5.7-23.6,5.7
				l24.7-3.7c0,0,0.6,2-3.9,2.6S3.5,78.7,3.5,78.7S0.8,75.6,4.9,75s34-8.1,34-8.1L3.4,71c0,0-0.8-1.8,3.5-3.1s33.3-8.3,33.3-8.3
				L6,63.8c0,0-2.6-1.7,0.9-2.9s35.9-9.8,35.9-9.8L7.7,54.9z"/>
			<path id="Path_135" class="st6" d="M25.6,78.7l45.6-10.4c0,0,2.3-1.9-3.9-0.9S2.7,81.1,2.7,81.1s-2.9,2.3,1.5,1.9
				s36.6-3.7,36.6-3.7L2.6,86.2c0,0-2.5,2.1,0,2.1s38-2.8,38-2.8L2,91.4c0,0-3.5,2.6-0.5,2.4s29.2-2.2,29.2-2.2L1.1,95.4
				c0,0-2.8,2,0.7,1.9s71.5-3.1,73.7-3.7c2.2-0.7,1.2-2.5,0.1-2.5s-43.8,2.6-43.8,2.6l42.5-5.3c0,0,3.2-1.7-0.5-1.7s-43,2.7-43,2.7
				L73.9,83c0,0,2.2-1.6-0.1-1.6s-47.3,2.8-47.3,2.8l46.3-8.5c0,0,2.2-2-0.6-2C66.2,73.7,25.6,78.7,25.6,78.7z"/>
		</g>
		<ellipse id="Ellipse_9" cx="37.2" cy="5.8" rx="11.3" ry="2.7"/>
	</g>
</g>
</svg>
