<svg xmlns="http://www.w3.org/2000/svg" viewBox="31 23 204.138 114.364">
  <defs>
    <style>
      .cls-1, .cls-3 {
        fill: #a6a8aa;
      }

      .cls-2 {
        fill: #71b99b;
      }

      .cls-3 {
        fill-rule: evenodd;
      }

      .cls-4 {
        fill: #f3d558;
      }

      .cls-5 {
        fill: #779bb1;
      }
    </style>
  </defs>
  <g id="Group_57" data-name="Group 57" transform="translate(31 23)">
    <path id="Path_1" data-name="Path 1" class="cls-1" d="M3.83,109.521a31.681,31.681,0,0,1,.721,4.543c-.216.577-.793.072-.721-.793,0-.865-.577-.793-.649-.072a2.1,2.1,0,0,0,.361,1.658c.072.144-.216.793-.793,0,0,0-.433.216-.577-.361,0,0-.216.144-.361-.361a.983.983,0,0,1-.361-.649c0-.361-.793-.721,1.586-4.687" transform="translate(-0.369 -30.346)"/>
    <path id="Path_2" data-name="Path 2" class="cls-2" d="M62.81,19.491a2.055,2.055,0,0,1-4.11,0,2.055,2.055,0,1,1,4.11,0" transform="translate(-16.372 -4.853)"/>
    <path id="Path_3" data-name="Path 3" class="cls-2" d="M27.91,19.491a2.015,2.015,0,0,1-2.019,2.019,2.055,2.055,0,1,1,2.019-2.019" transform="translate(-6.638 -4.853)"/>
    <path id="Path_4" data-name="Path 4" class="cls-2" d="M43.291,39.038A2.079,2.079,0,0,1,41.2,37.019a2.055,2.055,0,0,1,4.11,0,1.971,1.971,0,0,1-2.019,2.019" transform="translate(-11.491 -9.762)"/>
    <path id="Path_5" data-name="Path 5" class="cls-2" d="M43.291,4.11A2.079,2.079,0,0,1,41.2,2.091a2.091,2.091,0,0,1,4.182,0A2.079,2.079,0,0,1,43.291,4.11" transform="translate(-11.491)"/>
    <path id="Path_6" data-name="Path 6" class="cls-2" d="M57.154,33.254a2.04,2.04,0,1,1,0-2.884,2.046,2.046,0,0,1,0,2.884" transform="translate(-14.971 -8.305)"/>
    <path id="Path_7" data-name="Path 7" class="cls-2" d="M32.454,8.654a2.04,2.04,0,1,1,0-2.884,2.046,2.046,0,0,1,0,2.884" transform="translate(-8.082 -1.443)"/>
    <path id="Path_8" data-name="Path 8" class="cls-2" d="M21.97,40.854a2.04,2.04,0,1,1,2.884,0,2.046,2.046,0,0,1-2.884,0" transform="translate(-5.962 -10.425)"/>
    <path id="Path_9" data-name="Path 9" class="cls-1" d="M8.878,73.469a29.2,29.2,0,0,0-3.75,1.8c-.144.288-1.3.288-.865,2.091.5,1.731,1.875,7.5,1.875,7.5a20.117,20.117,0,0,1,.072,3.389c-.072,1.3.577,12.979.577,12.979a1.127,1.127,0,0,0,1.586-.072c.721-.793,6.2-3.461,6.49-4.038s-1.154-11.682-1.226-13.773c-.144-2.091,1.514-10.888-2.235-9.879a3.888,3.888,0,0,1-2.524,0" transform="translate(-1.162 -20.469)"/>
    <path id="Path_10" data-name="Path 10" class="cls-1" d="M9.561,110.975s0,9.086.433,11.321v.361s.5,7.86.361,10.311l-.649.072-.216.144L9.2,135.348s5.192-.649,5.913-.288c.793.361-.433-2.091-.433-2.091L14.1,132.9l1.226-25.887V106l-5.913,2.74Z" transform="translate(-2.566 -29.565)"/>
    <path id="Path_11" data-name="Path 11" class="cls-1" d="M6.808,81.643s-.793,7.571-1.226,9.446v.288s-.721,6.562-.865,8.581l-.072.216h.216l-.144,1.658s-2.524-.288-3.317-.361l.288-1.731h.288l1.442-21.7.072-.937,3.461,2.668Z" transform="translate(-0.39 -21.505)"/>
    <path id="Path_12" data-name="Path 12" class="cls-1" d="M15.671,72.026s3.173-9.3,3.533-11.249a1.636,1.636,0,0,1,.072-.288s1.37-6.057,1.658-8.581v-.216l.216.072.5-1.586L18.771,49.6l-.361,1.731.288.072a81.212,81.212,0,0,1-2.019,8.653c-1.3,3.245-3.173,7.716-3.173,7.716L11.2,74.045l3.894-1.586Z" transform="translate(-3.124 -13.834)"/>
    <path id="Path_13" data-name="Path 13" class="cls-1" d="M17.9,149.985s.216-3.1-1.947-2.956c0,0,.072-.793-.361-.721-.361.072-.937-.216-.865-.433.144-.216-3.029-1.8-3.029-1.8L11.052,144l-1.082.288-1.37,1.37,1.947,1.731.5-.5,1.3,2.38" transform="translate(-2.399 -40.164)"/>
    <path id="Path_14" data-name="Path 14" class="cls-1" d="M7.038,110.238s-1.37,8.941-1.3,11.249a1.467,1.467,0,0,1-.072.361s-.721,7.86-1.226,10.239H3.793l-.216.144L3,134.25s5.192.216,5.913.649-.072-2.163-.072-2.163l.649-.721,3.966-24.733L13.6,106.2,7.326,108Z" transform="translate(-0.837 -29.621)"/>
    <path id="Path_15" data-name="Path 15" class="cls-1" d="M11.325,148.985a1.932,1.932,0,0,0-1.8-2.38s.144-.793-.216-.721-.937-.361-.793-.5a19.916,19.916,0,0,0-2.668-2.235L5.268,143l-1.082.144L2.6,144.3l1.658,2.019.577-.433,1.082,2.884" transform="translate(-0.725 -39.885)"/>
    <path id="Path_16" data-name="Path 16" class="cls-3" d="M21.448,49.465a6.007,6.007,0,0,1,.288-1.082.65.65,0,0,1,.072-.361c.072-.216.216-.361.216-.577,0-.144.072-.288.072-.5v-.216a.434.434,0,0,1,.072-.288v-1.3c0-.144-.072-.288-.072-.433a1.077,1.077,0,0,1,.216-.5c.072-.144.072-.288.144-.433a.592.592,0,0,0,.072-.5H22.6a3.622,3.622,0,0,1,.361-.937.434.434,0,0,1,.072-.288c0-.144.072-.216.144-.361,0-.072.072-.144.072-.216s.216-.144.288-.072c.144.072.216.5.144.721,0,.072-.072.216-.072.288a4.205,4.205,0,0,0-.144,1.658,3.885,3.885,0,0,1,.937-.5.288.288,0,0,1,.361.216c.072.144,0,.288,0,.433.072-.072.144-.072.288-.144.216-.072.361.072.361.288a.434.434,0,0,1-.072.288c.144.144.072.288,0,.5,0,.072-.072.216-.072.288a1.138,1.138,0,0,1-.577.361v.072c0,.072,0,.144-.072.144v.433a.223.223,0,0,1-.072.144V46.8c0,.072-.072.216-.072.288-.072.144-.072.361-.144.5a.72.72,0,0,1-.288.361,1,1,0,0,0-.216.288,4.969,4.969,0,0,1-.216.577c0,.144-.072.361-.072.5v.793c0,.216-.072.433-.072.649-.072,1.082-2.019,1.01-2.091,0a2.6,2.6,0,0,1,.072-1.3" transform="translate(-5.945 -11.536)"/>
    <path id="Path_17" data-name="Path 17" class="cls-1" d="M8.937,61.836s.5,1.37,1.01,1.586c.577.216.649.649.361.865-.288.144.144,1.01.361,1.154a.342.342,0,0,1,.072.433s.5.5.216.865c-.361.433-.793.937-2.524.937,0,0,.072,1.8.649,2.235L7.135,71.066l-1.01-.577s.433-1.586,0-2.091c0,0-4.326-.793-5.48-3.75C-.076,62.7,0,61.259,2.376,59.745c2.452-1.514,5.841-2.235,6.562,2.091" transform="translate(-0.068 -16.336)"/>
    <path id="Path_18" data-name="Path 18" class="cls-1" d="M.489,62.8c-.433-4.038,4.4-6.129,4.4-6.129a1.822,1.822,0,0,0-.5.721,2.969,2.969,0,0,1,1.8-.793,3.451,3.451,0,0,0-.793.793c.793-.721,2.812,0,2.812,0a1.613,1.613,0,0,0-1.3,1.082" transform="translate(-0.129 -15.787)"/>
    <path id="Path_19" data-name="Path 19" class="cls-1" d="M0,151.879c0,.577,3.461,1.082,7.788,1.082s7.788-.5,7.788-1.082c0-.649-3.461-1.082-7.788-1.082C3.461,150.725,0,151.23,0,151.879" transform="translate(0 -42.058)"/>
    <path id="Path_20" data-name="Path 20" class="cls-2" d="M54.17,8.654a2.04,2.04,0,1,1,2.884,0,2.046,2.046,0,0,1-2.884,0" transform="translate(-14.943 -1.443)"/>
    <g id="Group_1" data-name="Group 1" transform="translate(19.704 5.841)">
      <path id="Path_21" data-name="Path 21" class="cls-4" d="M54.973,19.686A1.586,1.586,0,1,1,53.386,18.1a1.6,1.6,0,0,1,1.586,1.586" transform="translate(-34.152 -10.889)"/>
      <path id="Path_22" data-name="Path 22" class="cls-4" d="M35.173,19.686A1.586,1.586,0,1,1,33.586,18.1a1.6,1.6,0,0,1,1.586,1.586" transform="translate(-28.629 -10.889)"/>
      <path id="Path_23" data-name="Path 23" class="cls-4" d="M43.486,31.173a1.586,1.586,0,1,1,1.586-1.586,1.6,1.6,0,0,1-1.586,1.586" transform="translate(-31.39 -13.65)"/>
      <path id="Path_24" data-name="Path 24" class="cls-4" d="M43.486,11.273a1.586,1.586,0,1,1,1.586-1.586,1.6,1.6,0,0,1-1.586,1.586" transform="translate(-31.39 -8.1)"/>
      <path id="Path_25" data-name="Path 25" class="cls-4" d="M51.647,27.768a1.581,1.581,0,0,1-2.235-2.235,1.581,1.581,0,1,1,2.235,2.235" transform="translate(-33.35 -12.842)"/>
      <path id="Path_26" data-name="Path 26" class="cls-4" d="M37.547,13.747a1.581,1.581,0,0,1-2.235-2.235,1.581,1.581,0,1,1,2.235,2.235" transform="translate(-29.417 -8.916)"/>
      <path id="Path_27" data-name="Path 27" class="cls-4" d="M27.812,35.347a1.581,1.581,0,1,1,2.235-2.235,1.581,1.581,0,0,1-2.235,2.235" transform="translate(-27.325 -14.94)"/>
      <path id="Path_28" data-name="Path 28" class="cls-4" d="M49.412,13.747a1.581,1.581,0,1,1,2.235,0,1.527,1.527,0,0,1-2.235,0" transform="translate(-33.35 -8.916)"/>
    </g>
    <path id="Path_29" data-name="Path 29" class="cls-5" d="M49.119,19.81a1.01,1.01,0,1,1-1.01-1.01,1.031,1.031,0,0,1,1.01,1.01" transform="translate(-13.137 -5.244)"/>
    <path id="Path_30" data-name="Path 30" class="cls-5" d="M40.419,19.81a1.01,1.01,0,1,1-1.01-1.01.986.986,0,0,1,1.01,1.01" transform="translate(-10.71 -5.244)"/>
    <path id="Path_31" data-name="Path 31" class="cls-5" d="M43.71,25.919a1.01,1.01,0,1,1,1.01-1.01,1.031,1.031,0,0,1-1.01,1.01" transform="translate(-11.91 -6.666)"/>
    <path id="Path_32" data-name="Path 32" class="cls-5" d="M43.71,16.519a1.01,1.01,0,1,1,1.01-1.01.986.986,0,0,1-1.01,1.01" transform="translate(-11.91 -4.044)"/>
    <path id="Path_33" data-name="Path 33" class="cls-5" d="M47.517,23.617a1.02,1.02,0,1,1,0-1.442,1.1,1.1,0,0,1,0,1.442" transform="translate(-12.76 -6.094)"/>
    <path id="Path_34" data-name="Path 34" class="cls-5" d="M41.417,17.417a1.02,1.02,0,1,1,0-1.442,1.1,1.1,0,0,1,0,1.442" transform="translate(-11.059 -4.365)"/>
    <path id="Path_35" data-name="Path 35" class="cls-5" d="M32.374,31.117a1.02,1.02,0,1,1,1.442,0,.963.963,0,0,1-1.442,0" transform="translate(-8.939 -8.186)"/>
    <path id="Path_36" data-name="Path 36" class="cls-5" d="M46.074,17.417a1.02,1.02,0,1,1,1.442,0,.963.963,0,0,1-1.442,0" transform="translate(-12.76 -4.365)"/>
    <g id="Group_56" data-name="Group 56" transform="translate(26.608 41.102)">
      <g id="Group_3" data-name="Group 3" transform="translate(0 0.361)">
        <g id="Group_2" data-name="Group 2">
          <path id="Path_37" data-name="Path 37" class="cls-2" d="M47.211,58.8H42.741V78.916h-1.37V58.8H36.9V57.5H47.211Z" transform="translate(-36.9 -57.5)"/>
        </g>
      </g>
      <g id="Group_5" data-name="Group 5" transform="translate(12.547 0.361)">
        <g id="Group_4" data-name="Group 4">
          <path id="Path_38" data-name="Path 38" class="cls-2" d="M60.429,70.984l4.543,7.932H63.241l-4.4-7.932h-3.1v7.932H54.3V57.5h5.192c3.533,0,5.12,1.37,5.12,6.273v1.658C64.539,69.326,63.241,70.768,60.429,70.984Zm-1.01-1.3c3.029,0,3.75-.937,3.75-4.326V63.773c0-3.533-.577-4.831-3.75-4.831H55.742V69.758H59.42Z" transform="translate(-54.3 -57.5)"/>
        </g>
      </g>
      <g id="Group_7" data-name="Group 7" transform="translate(24.589 0.288)">
        <g id="Group_6" data-name="Group 6">
          <path id="Path_39" data-name="Path 39" class="cls-2" d="M72.442,78.888H71L76.48,57.4h1.514l5.48,21.488H82.033l-1.37-5.264h-6.85Zm4.831-19.4L74.1,72.326h6.273l-3.1-12.835Z" transform="translate(-71 -57.4)"/>
        </g>
      </g>
      <g id="Group_9" data-name="Group 9" transform="translate(39.371 0.361)">
        <g id="Group_8" data-name="Group 8">
          <path id="Path_40" data-name="Path 40" class="cls-2" d="M101.811,78.916h-1.586L92.8,60.673h-.072l.216,6.706V78.844H91.5V57.5h1.442l7.571,18.388h.072l-.216-7.643V57.5h1.442V78.916Z" transform="translate(-91.5 -57.5)"/>
        </g>
      </g>
      <g id="Group_11" data-name="Group 11" transform="translate(52.783)">
        <g id="Group_10" data-name="Group 10">
          <path id="Path_41" data-name="Path 41" class="cls-2" d="M120.2,61.9c0-2.6-1.731-3.605-4.182-3.605-2.884,0-4.471.937-4.471,4.4,0,3.894,2.307,3.822,5.552,4.254a5.27,5.27,0,0,1,4.975,5.624c0,5.264-2.524,6.418-6.273,6.418s-5.7-1.658-5.7-5.12h1.3c0,2.668,1.514,3.75,4.4,3.75,3.533,0,4.831-1.442,4.831-5.12,0-3.822-2.668-4.254-5.841-4.615-2.235-.216-4.615-1.226-4.615-5.192,0-4.038,2.019-5.624,5.913-5.7,3.029,0,5.336,1.01,5.48,4.831H120.2Z" transform="translate(-110.1 -57)"/>
        </g>
      </g>
      <g id="Group_13" data-name="Group 13" transform="translate(67.926 0.361)">
        <g id="Group_12" data-name="Group 12">
          <path id="Path_42" data-name="Path 42" class="cls-2" d="M141.2,58.8H132.47v8h7.716v1.37H132.47V78.988H131.1V57.5h10.1Z" transform="translate(-131.1 -57.5)"/>
        </g>
      </g>
      <g id="Group_15" data-name="Group 15" transform="translate(79.968 0.144)">
        <g id="Group_14" data-name="Group 14">
          <path id="Path_43" data-name="Path 43" class="cls-2" d="M147.8,71.982V64.267c0-4.9,1.082-7.067,6.2-7.067,5.192,0,6.2,2.163,6.2,7.067v7.716c0,4.831-1.154,7.067-6.2,7.067S147.8,76.813,147.8,71.982Zm1.442-7.643V71.91c0,3.461.144,5.841,4.831,5.841s4.831-2.307,4.831-5.841V64.339c0-3.605-.144-5.841-4.831-5.841C149.386,58.426,149.242,60.589,149.242,64.339Z" transform="translate(-147.8 -57.2)"/>
        </g>
      </g>
      <g id="Group_17" data-name="Group 17" transform="translate(95.616 0.361)">
        <g id="Group_16" data-name="Group 16">
          <path id="Path_44" data-name="Path 44" class="cls-2" d="M175.629,70.984l4.543,7.932h-1.731l-4.4-7.932h-3.1v7.932H169.5V57.5h5.192c3.533,0,5.12,1.37,5.12,6.273v1.658C179.739,69.326,178.441,70.768,175.629,70.984Zm-1.01-1.3c3.029,0,3.75-.937,3.75-4.326V63.773c0-3.533-.577-4.831-3.75-4.831h-3.678V69.758h3.678Z" transform="translate(-169.5 -57.5)"/>
        </g>
      </g>
      <g id="Group_19" data-name="Group 19" transform="translate(108.811 0.288)">
        <g id="Group_18" data-name="Group 18">
          <path id="Path_45" data-name="Path 45" class="cls-2" d="M189.026,60.889l.216,5.624v12.4H187.8V57.5h1.514l4.615,13.484L198.544,57.5h1.514V78.988h-1.442V66.514l.144-5.624-4.687,13.124h-.361Z" transform="translate(-187.8 -57.428)"/>
          <path id="Path_46" data-name="Path 46" class="cls-2" d="M209.342,78.888H207.9L213.38,57.4h1.514l5.48,21.488h-1.442l-1.37-5.264h-6.85Zm4.831-19.4L211,72.326h6.2l-3.029-12.835Z" transform="translate(-193.406 -57.4)"/>
        </g>
      </g>
      <g id="Group_21" data-name="Group 21" transform="translate(138.015 0.361)">
        <g id="Group_20" data-name="Group 20">
          <path id="Path_47" data-name="Path 47" class="cls-2" d="M238.611,78.916h-1.586L229.6,60.745h-.072l.216,6.706V78.916H228.3V57.5h1.442l7.643,18.388h.072l-.216-7.643V57.5h1.442V78.916Z" transform="translate(-228.3 -57.5)"/>
        </g>
      </g>
      <g id="Group_23" data-name="Group 23" transform="translate(151.139 0.361)">
        <g id="Group_22" data-name="Group 22">
          <path id="Path_48" data-name="Path 48" class="cls-2" d="M246.5,57.5h5.264c5.192,0,6.2,2.235,6.2,7.283V71.85c0,4.9-1.154,7.067-6.2,7.067h-5.192V57.5Zm1.37,1.226v18.82h3.822c4.687,0,4.831-2.019,4.831-5.7V64.711c0-3.75-.144-5.985-4.831-5.985Z" transform="translate(-246.5 -57.5)"/>
        </g>
      </g>
      <g id="Group_25" data-name="Group 25" transform="translate(165.128 0.144)">
        <g id="Group_24" data-name="Group 24">
          <path id="Path_49" data-name="Path 49" class="cls-2" d="M265.9,71.982V64.267c0-4.9,1.082-7.067,6.2-7.067,5.192,0,6.2,2.163,6.2,7.067v7.716c0,4.831-1.154,7.067-6.2,7.067S265.9,76.813,265.9,71.982Zm1.37-7.643V71.91c0,3.461.144,5.841,4.831,5.841s4.831-2.307,4.831-5.841V64.339c0-3.605-.144-5.841-4.831-5.841C267.414,58.426,267.27,60.589,267.27,64.339Z" transform="translate(-265.9 -57.2)"/>
        </g>
      </g>
      <g id="Group_27" data-name="Group 27" transform="translate(1.154 28.771)">
        <g id="Group_26" data-name="Group 26">
          <path id="Path_50" data-name="Path 50" class="cls-2" d="M48.235,96.9v1.3H39.87v8.076h7.5v1.3h-7.5v9.446h8.869v1.37H38.5V96.9Z" transform="translate(-38.5 -96.9)"/>
        </g>
      </g>
      <g id="Group_29" data-name="Group 29" transform="translate(13.268 28.771)">
        <g id="Group_28" data-name="Group 28">
          <path id="Path_51" data-name="Path 51" class="cls-2" d="M57.247,96.9l2.163,5.048,1.731,4.471,1.731-4.471L64.963,96.9h1.514l-4.471,10.816,4.975,10.672H65.4l-1.947-4.182-2.307-5.192-2.307,5.336-1.947,4.038H55.3l4.975-10.672L55.8,96.9Z" transform="translate(-55.3 -96.9)"/>
          <path id="Path_52" data-name="Path 52" class="cls-2" d="M75.942,110.889v7.5H74.5V96.9h5.192c3.533,0,5.12,1.082,5.12,5.985v1.875c0,4.687-1.658,6.057-5.12,6.057h-3.75Zm3.678-1.37c3.029,0,3.75-1.3,3.75-4.687V103.1c0-3.389-.577-4.831-3.75-4.831H75.942v11.249Z" transform="translate(-60.655 -96.9)"/>
          <path id="Path_53" data-name="Path 53" class="cls-2" d="M102.763,96.9v1.3H94.47v8.076h7.5v1.3h-7.5v9.446h8.869v1.37H93.1V96.9Z" transform="translate(-65.843 -96.9)"/>
        </g>
      </g>
      <g id="Group_31" data-name="Group 31" transform="translate(53.793 28.771)">
        <g id="Group_30" data-name="Group 30">
          <path id="Path_54" data-name="Path 54" class="cls-2" d="M117.629,110.456l4.543,7.932h-1.731l-4.4-7.932h-3.1v7.932H111.5V96.9h5.192c3.533,0,5.12,1.37,5.12,6.273v1.658C121.739,108.8,120.441,110.168,117.629,110.456Zm-1.01-1.3c3.029,0,3.75-.937,3.75-4.326v-1.586c0-3.533-.577-4.831-3.75-4.831h-3.678v10.816h3.678Z" transform="translate(-111.5 -96.9)"/>
        </g>
      </g>
      <g id="Group_33" data-name="Group 33" transform="translate(67.565 28.771)">
        <g id="Group_32" data-name="Group 32">
          <path id="Path_55" data-name="Path 55" class="cls-2" d="M132.042,118.388H130.6V96.9h1.442Z" transform="translate(-130.6 -96.9)"/>
        </g>
      </g>
      <g id="Group_35" data-name="Group 35" transform="translate(72.397 28.771)">
        <g id="Group_34" data-name="Group 34">
          <path id="Path_56" data-name="Path 56" class="cls-2" d="M146.963,96.9v1.3H138.67v8.076h7.5v1.3h-7.5v9.446h8.869v1.37H137.3V96.9Z" transform="translate(-137.3 -96.9)"/>
        </g>
      </g>
      <g id="Group_37" data-name="Group 37" transform="translate(85.592 28.771)">
        <g id="Group_36" data-name="Group 36">
          <path id="Path_57" data-name="Path 57" class="cls-2" d="M165.911,118.388h-1.586L156.9,100.217h-.072l.216,6.706v11.465H155.6V96.9h1.442l7.643,18.388h.072l-.216-7.643V96.9h1.442v21.488Z" transform="translate(-155.6 -96.9)"/>
        </g>
      </g>
      <g id="Group_39" data-name="Group 39" transform="translate(98.933 28.483)">
        <g id="Group_38" data-name="Group 38">
          <path id="Path_58" data-name="Path 58" class="cls-2" d="M184.411,102.269c0-3.029-.865-4.543-4.326-4.543-4.4,0-4.687,2.452-4.687,5.913v7.643c0,3.678.288,5.841,4.687,5.841,3.605,0,4.254-1.442,4.4-4.543h1.3c-.144,3.894-1.226,5.841-5.624,5.841-4.9,0-6.057-2.235-6.057-7.067v-7.571c0-4.759,1.01-7.283,6.057-7.283,4.4,0,5.624,1.875,5.624,5.769h-1.37Z" transform="translate(-174.1 -96.5)"/>
        </g>
      </g>
      <g id="Group_41" data-name="Group 41" transform="translate(114.364 28.771)">
        <g id="Group_40" data-name="Group 40">
          <path id="Path_59" data-name="Path 59" class="cls-2" d="M196.942,118.388H195.5V96.9h1.442Z" transform="translate(-195.5 -96.9)"/>
        </g>
      </g>
      <g id="Group_43" data-name="Group 43" transform="translate(118.546 28.771)">
        <g id="Group_42" data-name="Group 42">
          <path id="Path_60" data-name="Path 60" class="cls-2" d="M202.742,118.388H201.3L206.78,96.9h1.514l5.48,21.488h-1.442l-1.37-5.264h-6.85Zm4.831-19.4L204.4,111.826h6.2l-3.029-12.835Z" transform="translate(-201.3 -96.9)"/>
        </g>
      </g>
      <g id="Group_45" data-name="Group 45" transform="translate(132.679 28.483)">
        <g id="Group_44" data-name="Group 44">
          <path id="Path_61" data-name="Path 61" class="cls-2" d="M231,101.4c0-2.6-1.731-3.605-4.182-3.605-2.884,0-4.471.937-4.471,4.4,0,3.894,2.307,3.822,5.552,4.254a5.27,5.27,0,0,1,4.975,5.624c0,5.264-2.524,6.418-6.273,6.418s-5.7-1.658-5.7-5.12h1.3c0,2.668,1.514,3.75,4.4,3.75,3.533,0,4.831-1.442,4.831-5.12,0-3.822-2.668-4.254-5.841-4.615-2.235-.216-4.615-1.226-4.615-5.192,0-4.038,2.019-5.624,5.913-5.7,3.029,0,5.336,1.01,5.48,4.831H231Z" transform="translate(-220.9 -96.5)"/>
        </g>
      </g>
      <g id="Group_46" data-name="Group 46" transform="translate(0.937 56.317)">
        <path id="Path_62" data-name="Path 62" class="cls-1" d="M44.4,138.633c0-1.8-.5-2.74-2.6-2.74-2.6,0-2.812,1.442-2.812,3.533v4.543c0,2.235.216,3.533,2.812,3.533,2.163,0,2.524-.865,2.6-2.74h.793c-.072,2.307-.721,3.461-3.389,3.461-2.956,0-3.605-1.37-3.605-4.254v-4.543c0-2.884.649-4.326,3.605-4.326,2.6,0,3.389,1.082,3.389,3.461H44.4Z" transform="translate(-38.2 -135.1)"/>
      </g>
      <g id="Group_47" data-name="Group 47" transform="translate(9.23 59.561)">
        <path id="Path_63" data-name="Path 63" class="cls-1" d="M55.685,146.811c0,1.731-.865,2.668-2.884,2.668-2.091,0-3.1-.937-3.1-3.605v-2.6c0-2.668,1.01-3.678,3.1-3.678,2.235,0,2.956,1.082,2.956,3.678v1.442H50.493V145.8c0,1.947.433,2.956,2.307,2.956,1.8,0,2.091-.793,2.091-1.947ZM55.108,144v-.649c0-1.875-.361-2.956-2.235-2.956-1.8,0-2.307.865-2.307,2.956v.721h4.543Z" transform="translate(-49.7 -139.6)"/>
      </g>
      <g id="Group_48" data-name="Group 48" transform="translate(17.162 55.884)">
        <path id="Path_64" data-name="Path 64" class="cls-1" d="M61.493,139.816l.072,1.01a2.669,2.669,0,0,1,2.452-1.226c2.307,0,2.956,1.009,2.956,3.533v6.273h-.865v-6.273c0-2.163-.5-2.812-2.235-2.812a2.145,2.145,0,0,0-2.307,2.307v6.778H60.7v-9.663h.793Z" transform="translate(-60.7 -135.922)"/>
        <path id="Path_65" data-name="Path 65" class="cls-1" d="M72.2,136.644l.865-.144v2.307h2.019v.793H73.065v6.273c0,1.8.577,2.163,2.091,2.019v.721c-2.235.216-2.956-.577-2.956-2.74Z" transform="translate(-63.908 -135.058)"/>
        <path id="Path_66" data-name="Path 66" class="cls-1" d="M79.121,139.682l.072,1.154a2.383,2.383,0,0,1,2.6-1.154v.793a2.073,2.073,0,0,0-2.524,2.091v6.922H78.4v-9.807Z" transform="translate(-65.637 -135.933)"/>
        <path id="Path_67" data-name="Path 67" class="cls-1" d="M84.9,145.973v-2.668c0-2.74,1.01-3.605,3.1-3.605s3.1.793,3.1,3.678v2.6c0,2.668-1.01,3.605-3.1,3.605C85.837,149.579,84.9,148.786,84.9,145.973Zm5.264-.072v-2.6c0-2.091-.361-2.884-2.235-2.884-1.8,0-2.235.793-2.235,2.884v2.6c0,2.091.361,2.956,2.235,2.956C89.731,148.858,90.164,147.992,90.164,145.9Z" transform="translate(-67.45 -135.95)"/>
        <path id="Path_68" data-name="Path 68" class="cls-1" d="M101.6,144.6v-3.173c0-2.307,1.154-3.245,3.1-3.245a2.568,2.568,0,0,1,2.235.865V134.5h.865v13.484h-.721l-.072-1.082a2.7,2.7,0,0,1-2.38,1.082C102.465,148.056,101.6,147.119,101.6,144.6Zm2.956,2.74c1.658,0,2.307-.937,2.307-2.524v-3.173c0-1.875-.433-2.6-2.235-2.6s-2.235.865-2.235,2.524v3.1C102.393,146.758,103.114,147.335,104.556,147.335Z" transform="translate(-72.108 -134.5)"/>
        <path id="Path_69" data-name="Path 69" class="cls-1" d="M118.985,146.811c0,1.731-.865,2.668-2.884,2.668-2.091,0-3.1-.937-3.1-3.605v-2.6c0-2.668,1.01-3.678,3.1-3.678,2.235,0,2.956,1.082,2.956,3.678v1.442h-5.264V145.8c0,1.947.433,2.956,2.307,2.956,1.8,0,2.091-.793,2.091-1.947ZM118.408,144v-.649c0-1.875-.361-2.956-2.235-2.956-1.8,0-2.307.865-2.307,2.956v.721h4.543Z" transform="translate(-75.287 -135.922)"/>
        <path id="Path_70" data-name="Path 70" class="cls-1" d="M130.965,143.765v4.471H130.1V135.4h3.1c2.091,0,3.1.649,3.1,3.605v1.082c0,2.812-1.01,3.605-3.1,3.605h-2.235Zm2.235-.793c1.8,0,2.235-.793,2.235-2.812v-1.082c0-2.019-.361-2.884-2.235-2.884h-2.235V142.9H133.2Z" transform="translate(-80.057 -134.751)"/>
        <path id="Path_71" data-name="Path 71" class="cls-1" d="M141.193,146.767c0,1.154.577,1.947,2.307,1.947,1.514,0,2.235-.721,2.235-1.947,0-1.731-1.37-1.8-2.74-1.947-1.3-.144-2.6-.5-2.6-2.524,0-1.586,1.01-2.6,3.029-2.6,2.091,0,2.956,1.01,2.956,2.6h-.793c0-1.226-.649-1.8-2.091-1.8-1.514,0-2.163.721-2.163,1.8,0,1.658,1.154,1.658,2.38,1.875,1.442.216,2.884.5,2.884,2.668,0,1.659-1.01,2.812-3.1,2.812-1.875,0-3.1-.721-3.1-2.74h.793Z" transform="translate(-82.93 -135.95)"/>
        <path id="Path_72" data-name="Path 72" class="cls-1" d="M152.326,136.07a.613.613,0,0,1-1.226,0A.613.613,0,0,1,152.326,136.07Zm-.144,12.258h-.793v-9.807h.793Z" transform="translate(-85.914 -134.772)"/>
        <path id="Path_73" data-name="Path 73" class="cls-1" d="M161.529,146.65a2.677,2.677,0,0,1-3.029,3.029c-2.091,0-3.1-1.01-3.1-3.678v-2.6c0-2.668,1.082-3.605,3.173-3.605s2.812.937,2.956,2.812h-.793c-.072-1.226-.433-2.019-2.163-2.019s-2.307.793-2.307,2.884V146c0,2.019.433,2.884,2.235,2.884,1.875,0,2.235-.793,2.235-2.163h.793Z" transform="translate(-87.113 -135.978)"/>
        <path id="Path_74" data-name="Path 74" class="cls-1" d="M166,145.973v-2.668c0-2.74,1.01-3.605,3.1-3.605s3.1.793,3.1,3.678v2.6c0,2.668-1.01,3.605-3.1,3.605S166,148.786,166,145.973Zm5.336-.072v-2.6c0-2.091-.361-2.884-2.235-2.884-1.8,0-2.235.793-2.235,2.884v2.6c0,2.091.361,2.956,2.235,2.956C170.9,148.858,171.336,147.992,171.336,145.9Z" transform="translate(-90.07 -135.95)"/>
      </g>
      <g id="Group_49" data-name="Group 49" transform="translate(101.24 56.605)">
        <path id="Path_75" data-name="Path 75" class="cls-1" d="M179.68,148.335c-2.019.144-2.38-.577-2.38-2.74V135.5h.865v10.167c0,1.731.216,1.947,1.586,1.947v.721Z" transform="translate(-177.3 -135.5)"/>
      </g>
      <g id="Group_50" data-name="Group 50" transform="translate(104.629 59.634)">
        <path id="Path_76" data-name="Path 76" class="cls-1" d="M182,145.973v-2.668c0-2.74,1.01-3.605,3.1-3.605s3.1.793,3.1,3.678v2.6c0,2.668-1.01,3.605-3.1,3.605S182,148.786,182,145.973Zm5.336-.072v-2.6c0-2.091-.361-2.884-2.235-2.884-1.8,0-2.235.793-2.235,2.884v2.6c0,2.091.361,2.956,2.235,2.956C186.831,148.858,187.336,147.992,187.336,145.9Z" transform="translate(-182 -139.7)"/>
      </g>
      <g id="Group_51" data-name="Group 51" transform="translate(112.417 59.706)">
        <path id="Path_77" data-name="Path 77" class="cls-1" d="M193.882,150.833c.072,1.01.433,1.658,2.019,1.658,1.875,0,2.307-.865,2.307-2.812v-1.226a2.5,2.5,0,0,1-2.452,1.154c-1.947,0-2.956-.865-2.956-3.317v-3.029c0-2.6,1.009-3.389,3.1-3.461a2.263,2.263,0,0,1,2.307,1.226v-1.082h.721v9.807c0,2.668-1.082,3.605-3.173,3.605-1.8,0-2.74-.721-2.812-2.452h.937Zm4.327-7.355c0-1.875-.5-2.956-2.235-2.956s-2.307.649-2.307,2.74v3.029c0,2.019.721,2.524,2.235,2.524,1.659,0,2.307-.865,2.307-2.524Z" transform="translate(-192.8 -139.8)"/>
      </g>
      <g id="Group_52" data-name="Group 52" transform="translate(120.421 56.605)">
        <path id="Path_78" data-name="Path 78" class="cls-1" d="M203.9,137.519v-.072l.793-1.947h.937v.072l-1.082,2.019H203.9Zm.793,10.816H203.9v-9.807h.793Z" transform="translate(-203.9 -135.5)"/>
      </g>
      <g id="Group_53" data-name="Group 53" transform="translate(123.161 56.317)">
        <path id="Path_79" data-name="Path 79" class="cls-1" d="M213.324,149.535v-1.3a2.941,2.941,0,0,1-2.884,1.37c-1.586,0-2.74-.721-2.74-2.6,0-2.38,2.091-2.884,5.48-2.668v-1.37c0-1.731-.577-2.452-2.091-2.452-1.37,0-2.091.433-2.091,2.307H208.2c0-2.019.793-3.029,2.884-3.029,1.947,0,2.884.937,2.884,3.173v6.562Zm-.072-4.326c-3.173-.288-4.615.144-4.615,1.875,0,1.226.721,1.8,2.163,1.8a2.272,2.272,0,0,0,2.452-2.38Z" transform="translate(-207.7 -136.411)"/>
        <path id="Path_80" data-name="Path 80" class="cls-1" d="M231.2,138.633c0-1.8-.5-2.74-2.6-2.74-2.6,0-2.812,1.442-2.812,3.533v4.543c0,2.235.216,3.533,2.812,3.533,2.163,0,2.524-.865,2.6-2.74h.793c-.072,2.307-.721,3.461-3.389,3.461-2.956,0-3.605-1.37-3.605-4.254v-4.543c0-2.884.649-4.326,3.605-4.326,2.6,0,3.389,1.082,3.389,3.461H231.2Z" transform="translate(-212.525 -135.1)"/>
      </g>
      <g id="Group_54" data-name="Group 54" transform="translate(144.577 56.605)">
        <path id="Path_81" data-name="Path 81" class="cls-1" d="M239.78,148.335c-2.019.144-2.38-.577-2.38-2.74V135.5h.865v10.167c0,1.731.216,1.947,1.586,1.947v.721Z" transform="translate(-237.4 -135.5)"/>
      </g>
      <g id="Group_55" data-name="Group 55" transform="translate(148.327 56.587)">
        <path id="Path_82" data-name="Path 82" class="cls-1" d="M242.6,137.519v-.072l.793-1.947h.937v.072l-1.082,2.019H242.6Zm.865,10.816h-.793v-9.807h.793Z" transform="translate(-242.6 -135.482)"/>
        <path id="Path_83" data-name="Path 83" class="cls-1" d="M248.093,139.816l.072,1.01a2.669,2.669,0,0,1,2.452-1.226c2.307,0,2.956,1.009,2.956,3.533v6.273h-.865v-6.273c0-2.163-.5-2.812-2.235-2.812a2.145,2.145,0,0,0-2.307,2.307v6.778H247.3v-9.663h.793Z" transform="translate(-243.911 -136.626)"/>
        <path id="Path_84" data-name="Path 84" class="cls-1" d="M260.226,136.07a.613.613,0,0,1-1.226,0A.613.613,0,0,1,260.226,136.07Zm-.144,12.258h-.793v-9.807h.793Z" transform="translate(-247.174 -135.475)"/>
        <path id="Path_85" data-name="Path 85" class="cls-1" d="M269.329,146.65a2.677,2.677,0,0,1-3.029,3.029c-2.091,0-3.1-1.01-3.1-3.678v-2.6c0-2.668,1.082-3.605,3.173-3.605s2.812.937,2.956,2.812h-.793c-.072-1.226-.433-2.019-2.163-2.019s-2.307.793-2.307,2.884V146c0,2.019.433,2.884,2.235,2.884,1.875,0,2.235-.793,2.235-2.163h.793Z" transform="translate(-248.346 -136.681)"/>
        <path id="Path_86" data-name="Path 86" class="cls-1" d="M279.324,149.535v-1.3a2.941,2.941,0,0,1-2.884,1.37c-1.586,0-2.74-.721-2.74-2.6,0-2.38,2.091-2.884,5.48-2.668v-1.37c0-1.731-.577-2.452-2.091-2.452-1.37,0-2.091.433-2.091,2.307H274.2c0-2.019.793-3.029,2.884-3.029,1.947,0,2.884.937,2.884,3.173v6.562Zm-.072-4.326c-3.173-.288-4.615.144-4.615,1.875,0,1.226.721,1.8,2.163,1.8a2.272,2.272,0,0,0,2.452-2.38Z" transform="translate(-251.274 -136.681)"/>
      </g>
    </g>
  </g>
</svg>
