<svg xmlns="http://www.w3.org/2000/svg" width="169.213" height="65.137" viewBox="0 0 169.213 65.137">
  <g id="Group_139" data-name="Group 139" transform="translate(-25.875 -44.525)">
    <g id="Group_58" data-name="Group 58" transform="translate(25.875 44.525)">
      <path id="Path_2434" data-name="Path 2434" d="M34.758,55.892l.017,0,0-.016Z" transform="translate(-18.19 -34.692)" fill="#fff"/>
      <path id="Path_2435" data-name="Path 2435" d="M34.233,44.782a4.919,4.919,0,0,0,2.87,2.109,19.878,19.878,0,0,1,2.141.966,3.385,3.385,0,0,1,1.727,4.092,14.218,14.218,0,0,1-1.822,4.243c-.009.019-.041.026-.117.067.112-.463.209-.888.317-1.311a3.268,3.268,0,0,0-.748-3.3,11.052,11.052,0,0,0-1.292-1.106,10.386,10.386,0,0,1-2.134-1.873c-.166-.222-.261-.477-.461-.78A4.359,4.359,0,0,0,36.18,50.11a17.657,17.657,0,0,1,2.048,2.078,2.991,2.991,0,0,1,.444,3.111,5.519,5.519,0,0,0-2.535-1.442,7.066,7.066,0,0,1-1.9-.992,3.283,3.283,0,0,1-1.21-2.369,10.065,10.065,0,0,1,.6-4.008c.172-.552.382-1.091.6-1.707" transform="translate(-19.714 -44.302)" fill="#fff"/>
      <path id="Path_2436" data-name="Path 2436" d="M34.592,59.054a4.28,4.28,0,0,0-1.727-1.7,9.409,9.409,0,0,1-1.792-1.371,3.4,3.4,0,0,1-.75-3.234,13.514,13.514,0,0,1,2.035-4.28c.1-.162.22-.317.367-.526a4.748,4.748,0,0,0,2.231,2.579,18.466,18.466,0,0,1,1.988,1.511,3.261,3.261,0,0,1,.957,3.516,13.266,13.266,0,0,1-3.2,4.571c.248-.5.455-.946.686-1.378a3.292,3.292,0,0,0-.459-3.909c-.477-.591-.962-1.179-1.444-1.768a4.2,4.2,0,0,1-.985-2,2.572,2.572,0,0,0,.392,1.587c.515.85,1.085,1.665,1.6,2.514A3.57,3.57,0,0,1,35.118,58a2.832,2.832,0,0,1-.526,1.052" transform="translate(-22.131 -41.569)" fill="#fff"/>
      <path id="Path_2437" data-name="Path 2437" d="M45.352,59.318c.41.576.658,1.209,1.056,1.766A2.992,2.992,0,0,0,48.8,62.356c.67.039,1.343.019,2.016.019a5.575,5.575,0,0,1,2.484.367,2.532,2.532,0,0,0-1.626-.612c-.966-.125-1.94-.188-2.9-.334a2.933,2.933,0,0,1-2.538-2.05c1.386.285,2.542-.461,3.807-.67a3.491,3.491,0,0,1,3.5,1.345,13.968,13.968,0,0,1,2.191,4.362c-1.261-.546-2.417-.119-3.585.187a7.9,7.9,0,0,1-2.941.448,2.965,2.965,0,0,1-2.063-1.173,9.677,9.677,0,0,1-1.634-4.073c-.062-.283-.11-.569-.164-.854" transform="translate(-8.999 -31.968)" fill="#fff"/>
      <path id="Path_2438" data-name="Path 2438" d="M46.68,47.48a12.03,12.03,0,0,1-3.26,1.99,3.092,3.092,0,0,0-1.779,2.294c-.082.657-.022,1.324-.063,2.007-.16-.505-.334-1.007-.477-1.516a9.452,9.452,0,0,1-.4-2.708,2.992,2.992,0,0,1,2.41-3.154c.849-.254,1.723-.422,2.585-.636a3.193,3.193,0,0,0,1.99-1.175,4.862,4.862,0,0,1,.239,1.264,10.446,10.446,0,0,1-.03,3.644A3.1,3.1,0,0,1,45.5,51.956c-.58.157-1.175.256-1.762.382a3.089,3.089,0,0,0-1.546.684,2.4,2.4,0,0,1,.629-2.417,12.229,12.229,0,0,1,2.221-1.632,6.136,6.136,0,0,0,1.348-1.1c.1-.125.192-.265.289-.4" transform="translate(-13.029 -44.475)" fill="#fff"/>
      <path id="Path_2439" data-name="Path 2439" d="M42.2,61.091a3.666,3.666,0,0,0,1.955.354,14.29,14.29,0,0,1,1.811.026,2.942,2.942,0,0,1,2.385,1.8,8.822,8.822,0,0,1,.74,2.837c.063.539.09,1.082.138,1.68-1.337-.94-2.84-.591-4.275-.677a3.309,3.309,0,0,1-2.824-1.274,4.4,4.4,0,0,1-.686-2.225,12.178,12.178,0,0,1,.142-3.1c.084.41.179.819.254,1.231A2.837,2.837,0,0,0,44,64.1c.47.138.946.265,1.421.392a5.914,5.914,0,0,1,2.139.862,3.735,3.735,0,0,0-1.679-1.028,11.545,11.545,0,0,1-2.464-1.076A2.475,2.475,0,0,1,42.2,61.091" transform="translate(-12.42 -30.67)" fill="#fff"/>
      <path id="Path_2440" data-name="Path 2440" d="M45.663,60.976a2.6,2.6,0,0,1,2-2.009c.919-.272,1.878-.354,2.814-.548a3.024,3.024,0,0,0,1.328-.591,11.38,11.38,0,0,1-3.8.567,2.954,2.954,0,0,0-2.615,1.942,10.294,10.294,0,0,1-.459,1.016,7.769,7.769,0,0,1,.214-1.858,6.885,6.885,0,0,1,1.074-2.77,2.826,2.826,0,0,1,2.605-1.145,26.066,26.066,0,0,1,2.917.461,3.391,3.391,0,0,0,2.037-.231c.11.047.047.118.034.168a11.374,11.374,0,0,1-1.835,4.174,3.14,3.14,0,0,1-3.262,1.1c-.511-.09-1.02-.2-1.527-.3a3.194,3.194,0,0,0-1.527.028" transform="translate(-9.365 -34.95)" fill="#fff"/>
      <path id="Path_2441" data-name="Path 2441" d="M41.172,57.444a8.885,8.885,0,0,1-3.452-2.736,2.455,2.455,0,0,1-.006-2.762c.373-.656.867-1.225,1.3-1.839a2.974,2.974,0,0,0,.7-2.014,10.921,10.921,0,0,1,3.128,3.357,2.543,2.543,0,0,1-.151,2.667,15.032,15.032,0,0,1-.908,1.216,2.671,2.671,0,0,0-.649,1.384,2.278,2.278,0,0,1-1-2.275c.112-.891.436-1.733.6-2.613a2.6,2.6,0,0,0-.013-1.272,7.809,7.809,0,0,1-.873,3.079,2.753,2.753,0,0,0,.819,3.258c.166.151.313.325.47.487a.448.448,0,0,1,.039.063" transform="translate(-15.999 -41.438)" fill="#fff"/>
      <path id="Path_2442" data-name="Path 2442" d="M35.377,55.965c-.317-.293-.63-.591-.953-.877a2.636,2.636,0,0,0-2.617-.533c-.477.131-.938.293-1.4.464a7.3,7.3,0,0,1-1.9.455,3.753,3.753,0,0,0,1.462-.067,11.138,11.138,0,0,1,2.785-.507,2.369,2.369,0,0,1,1.886.959,5.106,5.106,0,0,0-2.156,1.158,3.1,3.1,0,0,1-4.137-.062A14.175,14.175,0,0,1,25.9,54.475c1.52.034,2.43-1.031,3.562-1.671a3.131,3.131,0,0,1,2.35-.556,3.638,3.638,0,0,1,1.71,1.037,11.618,11.618,0,0,1,1.846,2.531c.026.047.06.086.011.149" transform="translate(-25.856 -37.889)" fill="#fff"/>
      <path id="Path_2443" data-name="Path 2443" d="M38.4,60.86a8.806,8.806,0,0,1,.66,2.577,4.274,4.274,0,0,1-.134,1.846,2.4,2.4,0,0,1-1.509,1.557,16.476,16.476,0,0,1-2.648.612,3.11,3.11,0,0,0-1.817.934,9.726,9.726,0,0,1-.233-1.789,6.938,6.938,0,0,1,.265-2.538,2.573,2.573,0,0,1,1.873-1.8,10.6,10.6,0,0,1,1.531-.31,3.586,3.586,0,0,0,1.58-.595,2.245,2.245,0,0,1-.453,1.811,4.235,4.235,0,0,1-1.143.966c-.6.39-1.248.711-1.815,1.149-.131.1-.28.188-.317.382.931-.683,2.078-.97,3.036-1.6A2.611,2.611,0,0,0,38.4,61.621c0-.254,0-.507,0-.761" transform="translate(-19.972 -30.37)" fill="#fff"/>
      <path id="Path_2444" data-name="Path 2444" d="M53.438,54.4a3.633,3.633,0,0,0-2.208,1.4,12.977,12.977,0,0,1-1.46,1.457,2.769,2.769,0,0,1-3.178.274,10.35,10.35,0,0,1-3.021-2.5,2.289,2.289,0,0,1,.7.373,3.044,3.044,0,0,0,3.635,0c.548-.352,1.091-.711,1.665-1.028a9.5,9.5,0,0,1,1.225-.435,3.751,3.751,0,0,0-1.665.416,20.506,20.506,0,0,1-2.188,1,2.594,2.594,0,0,1-2.594-.42,5,5,0,0,0,1.889-1.624,3.148,3.148,0,0,1,2.4-1.283,4.849,4.849,0,0,1,2.113.587A14.876,14.876,0,0,1,53.438,54.4" transform="translate(-10.543 -38.027)" fill="#fff"/>
      <path id="Path_2445" data-name="Path 2445" d="M34.053,61.722a7.872,7.872,0,0,1-3.641-.108,2.245,2.245,0,0,1-1.638-2.044,13.33,13.33,0,0,1-.047-1.613,3.072,3.072,0,0,0-.535-2.16,2.825,2.825,0,0,1,1.052.021,7.823,7.823,0,0,1,2.365.494,2.526,2.526,0,0,1,1.811,2.764,4.361,4.361,0,0,0,.229,2.175,2.195,2.195,0,0,1-2-1.36c-.291-.571-.492-1.179-.729-1.77a2.373,2.373,0,0,0-.614-.938,21.746,21.746,0,0,1,1.005,2.945,2.137,2.137,0,0,0,1.6,1.36c.379.082.757.157,1.138.235" transform="translate(-23.87 -34.798)" fill="#fff"/>
      <path id="Path_2446" data-name="Path 2446" d="M46.241,52.5a2.788,2.788,0,0,0-.8,1.764c-.091.513-.145,1.035-.259,1.544A2.273,2.273,0,0,1,43,57.722a8.559,8.559,0,0,1-3.212-.338c.373-.032.748-.069,1.123-.1a2.2,2.2,0,0,0,1.88-1.328c.224-.438.418-.891.614-1.343a4.176,4.176,0,0,1,.716-1.128,1.968,1.968,0,0,0-.739.776c-.367.554-.638,1.162-1.033,1.7a2.2,2.2,0,0,1-2.066,1.018,4.292,4.292,0,0,0,.535-2.059,2.519,2.519,0,0,1,2.3-2.356,10.746,10.746,0,0,1,3.126-.075" transform="translate(-13.84 -37.685)" fill="#fff"/>
      <path id="Path_2447" data-name="Path 2447" d="M52.472,49.714a3.736,3.736,0,0,0-1.8,1.859c-.246.4-.476.808-.752,1.184A2.441,2.441,0,0,1,47.2,53.765a9.536,9.536,0,0,1-3.277-1.647,2.209,2.209,0,0,1,.961.259,2.681,2.681,0,0,0,2.878-.752c.362-.364.729-.722,1.106-1.071a3.813,3.813,0,0,1,1.182-.74,3.454,3.454,0,0,0-1.634.837c-.444.334-.873.688-1.335,1a2.42,2.42,0,0,1-2.531.194,5.073,5.073,0,0,0,1.513-2.037,2.725,2.725,0,0,1,3.107-1.3,11.771,11.771,0,0,1,3.3,1.207" transform="translate(-10.237 -41.142)" fill="#fff"/>
      <path id="Path_2448" data-name="Path 2448" d="M33.451,60.424c-.377.164-.761.317-1.128.5a2.408,2.408,0,0,0-1.306,2.287,5.889,5.889,0,0,1-.418,2.434,2.24,2.24,0,0,0,.574-1.345c.1-.533.2-1.069.332-1.595a2.292,2.292,0,0,1,1.22-1.6c.4-.194.468-.144.438.276a5,5,0,0,0,.222,1.492,2.782,2.782,0,0,1-.231,2.395,2.53,2.53,0,0,1-.634.642,9.807,9.807,0,0,1-3.669,1.427c.507-1.1.091-2.121-.05-3.154a5.6,5.6,0,0,1-.1-1.158,2.212,2.212,0,0,1,1.453-1.94,7.66,7.66,0,0,1,3.292-.656" transform="translate(-23.43 -30.749)" fill="#fff"/>
      <path id="Path_2449" data-name="Path 2449" d="M34.935,52.605a7.968,7.968,0,0,1,3.644.518,2.148,2.148,0,0,1,1.2,1.887,4.882,4.882,0,0,0,.317,1.846c.132.256-.116.175-.205.164a2.077,2.077,0,0,1-1.582-1.1c-.269-.472-.509-.959-.759-1.438a2.072,2.072,0,0,0-.64-.793,6.5,6.5,0,0,1,.878,1.91,2.28,2.28,0,0,0,2.305,1.74c.116.009.244-.015.356.1a3.238,3.238,0,0,1-1.089.173,5.085,5.085,0,0,1-1.785-.065,2.223,2.223,0,0,1-1.865-2.3,12.374,12.374,0,0,0-.214-1.671,1.909,1.909,0,0,0-.56-.974" transform="translate(-18.038 -37.529)" fill="#fff"/>
      <path id="Path_2450" data-name="Path 2450" d="M36.729,60.708a2.837,2.837,0,0,0-1.686.013,1.9,1.9,0,0,1-2.32-1.207,7.06,7.06,0,0,1-.63-2.331,3.263,3.263,0,0,0,1.992.129c.252-.03.5-.071.752-.088a1.753,1.753,0,0,1,2.048,1.358,5.428,5.428,0,0,1,.188.753,6.547,6.547,0,0,1,.065,1.567c-.1-.274-.205-.548-.3-.828a1.562,1.562,0,0,0-1.253-1.046,13.218,13.218,0,0,0-1.9-.323.917.917,0,0,0,.573.3,9.843,9.843,0,0,1,1.406.38,1.541,1.541,0,0,1,1.063,1.324" transform="translate(-20.497 -33.557)" fill="#fff"/>
      <path id="Path_2451" data-name="Path 2451" d="M46.85,60.979a2.986,2.986,0,0,0-1.766.433,1.682,1.682,0,0,1-2.5-.7,5.13,5.13,0,0,1-.567-1.354.83.83,0,0,1,.116.129,1.678,1.678,0,0,0,2.011.834c.384-.082.774-.125,1.216-.194-1.031-.2-2.206.457-3.006-.7a5.775,5.775,0,0,0,1.623-.571,1.433,1.433,0,0,1,1.367.157,4.838,4.838,0,0,1,1.507,1.964" transform="translate(-11.889 -32.196)" fill="#fff"/>
      <path id="Path_2452" data-name="Path 2452" d="M45.28,49.787a3.006,3.006,0,0,0-.679,1.688c-.25,1.246-.787,1.677-2.025,1.623a5.147,5.147,0,0,1-1.429-.33.763.763,0,0,1,.17-.019A1.677,1.677,0,0,0,43.169,51.6c.157-.358.351-.7.55-1.1-.759.724-.914,2.059-2.32,2.033a5.766,5.766,0,0,0,.483-1.651,1.424,1.424,0,0,1,.925-1.016,4.816,4.816,0,0,1,2.473-.08" transform="translate(-12.664 -40.077)" fill="#fff"/>
      <path id="Path_2453" data-name="Path 2453" d="M31.8,55.232a5.178,5.178,0,0,1,2.117-.74,1.332,1.332,0,0,1,1.307.744c.229.39.349.862.755,1.128a1.055,1.055,0,0,1-1.35-.084c-.31-.235-.6-.494-.91-.727a1.4,1.4,0,0,0-.392-.172,3.924,3.924,0,0,1,.88.813,1.458,1.458,0,0,0,1.817.463,1.062,1.062,0,0,1,.151-.041l.071.032a4.1,4.1,0,0,1-1.956.906,1.193,1.193,0,0,1-1.168-.629c-.157-.241-.3-.491-.435-.746a1.81,1.81,0,0,0-.888-.947" transform="translate(-20.748 -35.892)" fill="#fff"/>
      <path id="Path_2454" data-name="Path 2454" d="M47.305,55.9a5.572,5.572,0,0,1-.834,1.981,1.377,1.377,0,0,1-1.552.565,3.6,3.6,0,0,0-1.408-.2,1.043,1.043,0,0,1,.865-.877c.535-.127,1.082-.2,1.617-.343a13.07,13.07,0,0,0-1.772.117,1.381,1.381,0,0,0-.858.832,1.117,1.117,0,0,1-.162.274,3.307,3.307,0,0,1,.69-2.15,1.1,1.1,0,0,1,.992-.347c.377.05.75.131,1.125.205a1.81,1.81,0,0,0,1.3-.056" transform="translate(-10.863 -34.806)" fill="#fff"/>
      <path id="Path_2455" data-name="Path 2455" d="M32.463,61.811a4.222,4.222,0,0,1,1.115-.509,1.394,1.394,0,0,0,.931-1.526,2.693,2.693,0,0,1,.058,1.962c-.252.58-.821.651-1.365.727a2.386,2.386,0,0,0-1.276.39,3.7,3.7,0,0,1,.159-1.895,1.2,1.2,0,0,1,1.125-.746,3.631,3.631,0,0,0,1.082-.237.857.857,0,0,1-.416.9c-.347.218-.716.4-1.074.606a.746.746,0,0,0-.338.328" transform="translate(-20.689 -31.311)" fill="#fff"/>
      <path id="Path_2456" data-name="Path 2456" d="M41.849,62.72a4.16,4.16,0,0,0,.96-2.473,4.584,4.584,0,0,0-1.02-3.262,2.079,2.079,0,0,0-3.1-.138,4.611,4.611,0,0,0-.142,5.942,2.138,2.138,0,0,0,3.3-.069" transform="translate(-15.789 -34.391)" fill="#fff"/>
      <path id="Path_2457" data-name="Path 2457" d="M44.822,90.473c-12.38,1.852-18.947,6.544-18.947,6.544s.828-.226,2.352-.552c7.966-2.956,23.494-7.173,40.451-3.458.009-.477.015-1.136.015-2.074A81.125,81.125,0,0,0,55.352,89.74a48.267,48.267,0,0,1-2.6-11.164A41.774,41.774,0,0,1,53.028,67.7a34.123,34.123,0,0,1,4.864-11.513c.075-.121.194-.218.179-.4-.2,0-.295.192-.416.317a21.315,21.315,0,0,0-2.259,2.8,35.79,35.79,0,0,0-4.3,9,8.409,8.409,0,0,1-.3.856c-.3.655-.91.647-1.2-.015-.106-.242-.168-.513-.254-.768a37.459,37.459,0,0,0-3.915-8.443,23.858,23.858,0,0,0-2.563-3.3c-.112-.119-.209-.323-.4-.242,0,.224.142.351.229.515.42.778.877,1.527,1.261,2.331a36.775,36.775,0,0,1,3.792,12.531,46.849,46.849,0,0,1-.263,10.428c-.442,3.09-1.656,5.823-2.658,8.7" transform="translate(-25.875 -34.742)" fill="#fff"/>
      <path id="Path_2458" data-name="Path 2458" d="M74.328,44.637l-.067,13.675c-.035,7.061-4.385,10.653-10.386,10.623-5.729-.028-10.588-3.531-10.552-10.726l.067-13.675,4.467.022-.067,13.675c-.022,4.3,2.423,6.595,6.14,6.612s5.843-2.46,5.866-6.552l.067-13.676Z" transform="translate(-2.091 -44.517)" fill="#fff"/>
      <path id="Path_2459" data-name="Path 2459" d="M109.83,63.913H97.347l-2.046,4.5H90.424l10.709-23.873h4.911l10.709,23.873h-4.911Zm-6.242-14.357L99.154,59.719h8.866Z" transform="translate(30.083 -44.509)" fill="#fff"/>
      <path id="Path_2460" data-name="Path 2460" d="M121.166,44.525h4.5V68.431h-2.8v.034l-12.55-16.131v16.1h-4.5V44.559h3.65l11.7,14.8Z" transform="translate(43.401 -44.525)" fill="#fff"/>
      <path id="Path_2461" data-name="Path 2461" d="M88.073,68.431H82.719l-6.957-7.981H71.431v7.981h-4.5V44.525c3.786,0,7.572.034,11.356.034,5.629.034,8.594,3.786,8.594,7.912,0,3.275-1.5,6.582-6.037,7.5l7.231,8.152ZM71.431,48.753v7.639h6.854a3.829,3.829,0,1,0,0-7.639Z" transform="translate(9.701 -44.525)" fill="#fff"/>
      <path id="Path_2462" data-name="Path 2462" d="M98.72,51.466a4.852,4.852,0,0,1-3.1,4.6,5.825,5.825,0,0,1,3.82,5.321c0,5.321-3.991,7.026-8.935,7.026H79.18V44.543H90.5c4.707,0,8.219,2.115,8.219,6.923m-15.107,2.66H90.5c2.831,0,3.752-1.194,3.752-2.557,0-1.091-.888-2.934-3.752-2.934H83.613Zm0,10.1H90.5c1.843,0,4.469-.614,4.469-2.865,0-2.149-2.626-3.275-4.469-3.275H83.613Z" transform="translate(20.317 -44.509)" fill="#fff"/>
      <path id="Path_2463" data-name="Path 2463" d="M64.03,62.345c-1.095-1.761-2.854-2.018-4.547-2.038-1.759,0-4.549.643-4.549,3.046,0,1.91,2.059,2.359,4.592,2.833,2.895.556,5.9,1.072,5.9,4.312-.022,3.389-3.432,4.2-5.942,4.2-2.339,0-5-.966-6.157-3.262l1.028-.515c.923,1.824,3.284,2.725,5.129,2.725s4.784-.515,4.784-3.174c.022-2.253-2.467-2.745-4.933-3.217-2.747-.537-5.556-1.095-5.556-3.863-.065-3.174,3.238-4.161,5.705-4.161,2.145,0,4.012.343,5.493,2.551Z" transform="translate(-2.089 -31.775)" fill="#fff"/>
      <path id="Path_2464" data-name="Path 2464" d="M64.3,66.278h8.8v1.051H64.3v5.92h9.482v1.116H63.16V59.349H73.521v1.095H64.3Z" transform="translate(6.431 -31.676)" fill="#fff"/>
      <path id="Path_2465" data-name="Path 2465" d="M85.027,72.365a7.731,7.731,0,0,1-5.47,2.251,7.28,7.28,0,0,1-7.723-7.593,7.35,7.35,0,0,1,7.723-7.766,7.731,7.731,0,0,1,5.47,2.251l-.795.686a6.567,6.567,0,0,0-4.676-1.908c-4.377,0-6.63,3.089-6.608,6.694.043,3.517,2.275,6.563,6.608,6.563a6.708,6.708,0,0,0,4.7-1.91Z" transform="translate(13.947 -31.755)" fill="#fff"/>
      <path id="Path_2466" data-name="Path 2466" d="M94.373,74.365H92.851L87.659,68.68h-4.1v5.685H82.4V59.349h6.608a4.641,4.641,0,0,1,4.933,4.676c.022,2.447-1.587,4.592-4.87,4.592Zm-10.81-6.778h5.319c2.617,0,3.775-1.481,3.8-3.583a3.462,3.462,0,0,0-3.669-3.585H83.563Z" transform="translate(23.105 -31.676)" fill="#fff"/>
      <path id="Path_2467" data-name="Path 2467" d="M93.029,66.278h8.8v1.051h-8.8v5.92h9.481v1.116H91.893V59.349h10.361v1.095H93.029Z" transform="translate(31.327 -31.676)" fill="#fff"/>
      <path id="Path_2468" data-name="Path 2468" d="M106.269,60.39h-5.428V59.36h12.013V60.39h-5.426V74.355h-1.159Z" transform="translate(39.094 -31.666)" fill="#fff"/>
      <path id="Path_2469" data-name="Path 2469" d="M120.679,62.345c-1.095-1.761-2.855-2.018-4.549-2.038-1.759,0-4.549.643-4.549,3.046,0,1.91,2.061,2.359,4.592,2.833,2.9.556,5.9,1.072,5.9,4.312-.021,3.389-3.432,4.2-5.942,4.2-2.339,0-5-.966-6.157-3.262l1.03-.515c.921,1.824,3.282,2.725,5.127,2.725s4.786-.515,4.786-3.174c.02-2.253-2.469-2.745-4.937-3.217-2.745-.537-5.556-1.095-5.556-3.863-.063-3.174,3.24-4.161,5.707-4.161,2.145,0,4.012.343,5.493,2.551Z" transform="translate(46.995 -31.775)" fill="#fff"/>
      <path id="Path_2470" data-name="Path 2470" d="M55.321,78.071l.026.011a5.976,5.976,0,0,1,.435-.494,4.05,4.05,0,0,1,.567-.472,3.6,3.6,0,0,1,.671-.354,2.059,2.059,0,0,1,.755-.142,2.09,2.09,0,0,1,.8.142,1.835,1.835,0,0,1,.586.373,1.517,1.517,0,0,1,.352.528,1.665,1.665,0,0,1,.114.619,2.393,2.393,0,0,1-.218.985,4.114,4.114,0,0,1-.586.931,5.822,5.822,0,0,1-.841.817,5.953,5.953,0,0,1-.983.653,5.8,5.8,0,0,1-1.024.427,3.266,3.266,0,0,1-.946.155,2.308,2.308,0,0,1-.58-.08,1.805,1.805,0,0,1-.554-.254,1.351,1.351,0,0,1-.41-.448,1.268,1.268,0,0,1-.16-.67,2.1,2.1,0,0,1,.091-.576,4.017,4.017,0,0,1,.214-.574L56.5,72.852H55.2l.06-.173h2.354Zm-.265,4.017a1.994,1.994,0,0,0,.89-.224,3.575,3.575,0,0,0,.85-.6,6.225,6.225,0,0,0,.759-.839,6.927,6.927,0,0,0,.608-.975,5.843,5.843,0,0,0,.407-.99,3.157,3.157,0,0,0,.147-.888.681.681,0,0,0-.265-.582,1.168,1.168,0,0,0-.718-.2,1.847,1.847,0,0,0-.841.218,3.9,3.9,0,0,0-.822.569,5.6,5.6,0,0,0-.75.821,7.116,7.116,0,0,0-.614.959,6.735,6.735,0,0,0-.41.985,3.124,3.124,0,0,0-.151.912c0,.554.3.832.91.832" transform="translate(-2.093 -20.124)" fill="#fff"/>
      <path id="Path_2471" data-name="Path 2471" d="M61.873,79.374a2.407,2.407,0,0,1-.485.457,3.313,3.313,0,0,1-.757.408,3.346,3.346,0,0,1-2.149.007,2.059,2.059,0,0,1-.7-.446,1.712,1.712,0,0,1-.4-.6,1.824,1.824,0,0,1-.123-.64,2.713,2.713,0,0,1,.356-1.283,5.064,5.064,0,0,1,.942-1.216,5.232,5.232,0,0,1,1.317-.91,3.37,3.37,0,0,1,1.5-.36,3.168,3.168,0,0,1,.589.056,2.32,2.32,0,0,1,.53.168,1.122,1.122,0,0,1,.379.283.63.63,0,0,1,.151.423.9.9,0,0,1-.214.589,1.773,1.773,0,0,1-.554.433,4.132,4.132,0,0,1-.739.3,6.008,6.008,0,0,1-.787.19q-.383.07-.7.1c-.211.021-.366.03-.461.03-.17,0-.33,0-.485-.011s-.3-.021-.416-.035a8,8,0,0,0-.27.785,3.055,3.055,0,0,0-.11.824,1.206,1.206,0,0,0,.412,1,1.621,1.621,0,0,0,1.043.328,2.107,2.107,0,0,0,.832-.155,2.841,2.841,0,0,0,.63-.366,3.1,3.1,0,0,0,.457-.427c.123-.147.224-.259.3-.343l.177.088a3.034,3.034,0,0,0-.265.317m.06-4.234a.819.819,0,0,0-.589-.175,1.815,1.815,0,0,0-.873.224,3.194,3.194,0,0,0-.759.552,4.563,4.563,0,0,0-.589.7,4.3,4.3,0,0,0-.38.7,5.433,5.433,0,0,0,.752.047,3.531,3.531,0,0,0,1-.134,3.258,3.258,0,0,0,.832-.362,1.991,1.991,0,0,0,.574-.518,1.056,1.056,0,0,0,.211-.621.579.579,0,0,0-.173-.42" transform="translate(1.315 -18.296)" fill="#fff"/>
      <path id="Path_2472" data-name="Path 2472" d="M65.067,72.852l.06-.173h2.35l-2.529,5.976h.311a1.541,1.541,0,0,0,.955-.336,5.154,5.154,0,0,0,.809-.768,2.259,2.259,0,0,1,1.6-.931.883.883,0,0,1,.539.157.6.6,0,0,1,.211.524.549.549,0,0,1-.175.442.648.648,0,0,1-.442.155c-.352,0-.526-.112-.526-.336a.37.37,0,0,1,.054-.228.27.27,0,0,0,.06-.192c0-.1-.078-.149-.233-.149a.6.6,0,0,0-.375.166c-.132.112-.293.263-.479.453l-.366.373a3.785,3.785,0,0,1-.554.489,1.642,1.642,0,0,1-.448.242v.035c.11.017.224.037.347.058a1.039,1.039,0,0,1,.353.131,1.116,1.116,0,0,1,.315.284,1.269,1.269,0,0,1,.22.52l.382,1.651a1.765,1.765,0,0,0,.162.427.353.353,0,0,0,.338.192.657.657,0,0,0,.394-.138,1.847,1.847,0,0,0,.328-.323,2.758,2.758,0,0,0,.252-.369c.069-.125.114-.218.145-.285l.205.048c-.067.132-.149.276-.241.429a2.065,2.065,0,0,1-.349.42,1.778,1.778,0,0,1-.483.323,1.55,1.55,0,0,1-.664.131,1.257,1.257,0,0,1-.675-.166,1.211,1.211,0,0,1-.412-.714l-.4-1.548c-.028-.132-.06-.259-.1-.38a1,1,0,0,0-.145-.315.648.648,0,0,0-.256-.216.94.94,0,0,0-.425-.08h-.325L63.482,82.1H62.467l3.907-9.247Z" transform="translate(5.829 -20.124)" fill="#fff"/>
      <path id="Path_2473" data-name="Path 2473" d="M67.162,76.679l.06-.173h2.335l-1.738,4.2c-.045.125-.1.25-.145.379a1.116,1.116,0,0,0-.073.366.352.352,0,0,0,.1.254.408.408,0,0,0,.308.106.907.907,0,0,0,.466-.136,2.539,2.539,0,0,0,.414-.317,2.264,2.264,0,0,0,.326-.367,3.252,3.252,0,0,0,.19-.3l.175.062c-.037.067-.1.17-.183.3a1.92,1.92,0,0,1-.343.408,1.992,1.992,0,0,1-.545.354,1.84,1.84,0,0,1-.768.149,1.523,1.523,0,0,1-.767-.166.6.6,0,0,1-.287-.565,1.4,1.4,0,0,1,.086-.464c.06-.172.119-.325.179-.466l1.513-3.633Zm2.417-3.514a.8.8,0,0,1,.983,0,.53.53,0,0,1,0,.832.81.81,0,0,1-.983,0,.53.53,0,0,1,0-.832" transform="translate(9.489 -19.849)" fill="#fff"/>
      <path id="Path_2474" data-name="Path 2474" d="M69.528,75.085l.058-.173h2.322l-.6,1.527h.032a3.86,3.86,0,0,1,2.688-1.6,1.561,1.561,0,0,1,.977.278.836.836,0,0,1,.362.688,1.116,1.116,0,0,1-.082.416c-.05.136-.119.3-.2.489L74.129,79c-.06.14-.114.28-.16.416a1.158,1.158,0,0,0-.076.4.518.518,0,0,0,.076.272c.047.084.151.125.308.125a.947.947,0,0,0,.483-.125,2.046,2.046,0,0,0,.407-.3,2.5,2.5,0,0,0,.317-.366c.086-.129.155-.239.205-.33l.159.062a3.8,3.8,0,0,1-.205.33,2.076,2.076,0,0,1-.341.4,2.049,2.049,0,0,1-.526.341,1.76,1.76,0,0,1-.733.142,1.663,1.663,0,0,1-.795-.173.6.6,0,0,1-.325-.569,1.274,1.274,0,0,1,.05-.336c.037-.118.078-.241.129-.373l1.233-2.962a1.416,1.416,0,0,0,.119-.5.472.472,0,0,0-.127-.311.575.575,0,0,0-.449-.147,1.793,1.793,0,0,0-.748.2,4.018,4.018,0,0,0-.85.56,5.327,5.327,0,0,0-.806.83,4.572,4.572,0,0,0-.608,1.035l-1.1,2.591H68.75l2.115-5.146Z" transform="translate(11.273 -18.255)" fill="#fff"/>
      <path id="Path_2475" data-name="Path 2475" d="M78.12,81.159a1.7,1.7,0,0,0-.1.532c0,.214.123.323.371.323a1,1,0,0,0,.524-.142,1.937,1.937,0,0,0,.407-.323,2.365,2.365,0,0,0,.28-.362c.073-.117.123-.2.155-.252l.192.086a3.724,3.724,0,0,1-.224.347,2,2,0,0,1-.379.4,2.58,2.58,0,0,1-.545.336,1.736,1.736,0,0,1-.722.142c-.649,0-.97-.246-.97-.742a1.881,1.881,0,0,1,.043-.3,2.027,2.027,0,0,1,.118-.392h-.028c-.136.14-.3.295-.47.464a4.017,4.017,0,0,1-.6.47,3.3,3.3,0,0,1-.726.362,2.645,2.645,0,0,1-.882.142,1.873,1.873,0,0,1-.595-.093,1.427,1.427,0,0,1-.507-.283,1.365,1.365,0,0,1-.347-.492,1.827,1.827,0,0,1-.123-.7,2.277,2.277,0,0,1,.237-.992,4.3,4.3,0,0,1,.608-.947,5.537,5.537,0,0,1,.869-.837,8.131,8.131,0,0,1,1-.67,5.618,5.618,0,0,1,1-.448,2.964,2.964,0,0,1,.878-.16,1.308,1.308,0,0,1,.75.211.646.646,0,0,1,.306.558h.032l1.91-4.536H79.29l.06-.173h2.335l-3.337,7.857c-.086.214-.164.423-.228.623m.338-3.32a.89.89,0,0,0,.05-.289.776.776,0,0,0-.037-.242.61.61,0,0,0-.132-.242.827.827,0,0,0-.256-.192.993.993,0,0,0-.425-.08,2.131,2.131,0,0,0-.951.229,3.805,3.805,0,0,0-.867.6,5.362,5.362,0,0,0-.74.85,6.974,6.974,0,0,0-.58.966,5.726,5.726,0,0,0-.375.947,3.005,3.005,0,0,0-.132.808,1.044,1.044,0,0,0,.183.643.709.709,0,0,0,.612.25,1.89,1.89,0,0,0,.864-.224,3.968,3.968,0,0,0,.809-.532,5.444,5.444,0,0,0,.634-.623,2.267,2.267,0,0,0,.339-.481l.776-1.824a5.966,5.966,0,0,0,.229-.565" transform="translate(14.954 -20.124)" fill="#fff"/>
      <path id="Path_2476" data-name="Path 2476" d="M82.635,74.227l-.53,1.214h1.6l-.06.173h-1.6l-1.677,3.945c-.047.123-.1.25-.147.384a1.243,1.243,0,0,0-.073.4.407.407,0,0,0,.11.3.5.5,0,0,0,.36.112.992.992,0,0,0,.5-.136,2.474,2.474,0,0,0,.425-.317,2.548,2.548,0,0,0,.325-.367,2.386,2.386,0,0,0,.187-.3l.179.062c-.041.067-.1.17-.192.3a2.1,2.1,0,0,1-.352.41,1.923,1.923,0,0,1-1.339.5,1.3,1.3,0,0,1-.836-.229.686.686,0,0,1-.278-.552,1.771,1.771,0,0,1,.108-.565q.112-.313.229-.576l1.44-3.372H79.7l.056-.173h1.324l.532-1.214Z" transform="translate(20.362 -18.785)" fill="#fff"/>
      <path id="Path_2477" data-name="Path 2477" d="M81.829,76.931a4.022,4.022,0,0,1,.933-1.121,4.658,4.658,0,0,1,1.257-.746,3.633,3.633,0,0,1,1.326-.272,2.349,2.349,0,0,1,1,.2,2.214,2.214,0,0,1,.7.507,1.987,1.987,0,0,1,.41.683,2.15,2.15,0,0,1,.132.718,2.7,2.7,0,0,1-.366,1.358,4.256,4.256,0,0,1-.927,1.121,4.447,4.447,0,0,1-1.244.765,3.434,3.434,0,0,1-1.3.278,2.464,2.464,0,0,1-.951-.173,2.364,2.364,0,0,1-.722-.459,1.978,1.978,0,0,1-.461-.664,2.03,2.03,0,0,1-.16-.8,2.817,2.817,0,0,1,.366-1.393m.964,3.025a1.372,1.372,0,0,0,.918.3,1.7,1.7,0,0,0,.852-.224,2.717,2.717,0,0,0,.72-.589,4.671,4.671,0,0,0,.576-.811,6.183,6.183,0,0,0,.416-.893,5.889,5.889,0,0,0,.261-.843,3.426,3.426,0,0,0,.088-.645,1.39,1.39,0,0,0-.3-.942,1.35,1.35,0,0,0-1.052-.347,1.657,1.657,0,0,0-.808.211,2.776,2.776,0,0,0-.7.552,4.368,4.368,0,0,0-.565.776,5.614,5.614,0,0,0-.416.886,5.758,5.758,0,0,0-.261.88,3.709,3.709,0,0,0-.088.75,1.154,1.154,0,0,0,.362.936" transform="translate(22.288 -18.296)" fill="#fff"/>
      <path id="Path_2478" data-name="Path 2478" d="M88.244,75.907a1.989,1.989,0,0,1,.257-.52,1.632,1.632,0,0,1,.425-.421,1.154,1.154,0,0,1,.656-.173,1.444,1.444,0,0,1,.787.2,1.585,1.585,0,0,1,.5.517,2.273,2.273,0,0,1,.265.67,3.062,3.062,0,0,1,.082.67,7.312,7.312,0,0,1-.114,1.406c-.073.394-.142.722-.211.987h.028l2.247-3.422c.084-.125.16-.248.248-.371a1.675,1.675,0,0,1,.284-.33,1.467,1.467,0,0,1,.375-.235,1.227,1.227,0,0,1,.492-.093.675.675,0,0,1,.494.149.479.479,0,0,1,.138.336.49.49,0,0,1-.175.384.713.713,0,0,1-.47.147c-.186,0-.278-.075-.278-.224a.26.26,0,0,1,.076-.2.221.221,0,0,0,.082-.179c0-.125-.067-.179-.205-.164a.652.652,0,0,0-.384.218,4.707,4.707,0,0,0-.526.69l-2.678,4.09-.85,1.339c-.168.265-.341.52-.524.768a4.248,4.248,0,0,1-.582.656,2.947,2.947,0,0,1-.643.461,1.552,1.552,0,0,1-.709.172,1.586,1.586,0,0,1-.9-.229.709.709,0,0,1-.349-.625.428.428,0,0,1,.22-.429,1.1,1.1,0,0,1,.47-.1.554.554,0,0,1,.311.08.265.265,0,0,1,.114.228.505.505,0,0,1-.019.17c-.019.037-.032.075-.054.112a.737.737,0,0,0-.05.123.652.652,0,0,0-.022.192.263.263,0,0,0,.142.224.663.663,0,0,0,.36.088,1.281,1.281,0,0,0,.86-.448,4.814,4.814,0,0,0,.822-1.169,7.846,7.846,0,0,0,.617-1.662,7.7,7.7,0,0,0,.242-1.917c0-.645-.019-1.168-.06-1.574a6.105,6.105,0,0,0-.151-.949,1.114,1.114,0,0,0-.214-.459.359.359,0,0,0-.252-.117.678.678,0,0,0-.457.168,1.575,1.575,0,0,0-.319.4,2.362,2.362,0,0,0-.214.485c-.056.164-.1.3-.125.408l-.205-.05c.035-.129.086-.287.145-.47" transform="translate(26.291 -18.296)" fill="#fff"/>
      <path id="Path_2479" data-name="Path 2479" d="M91.085,76.931a3.9,3.9,0,0,1,.934-1.121,4.51,4.51,0,0,1,1.255-.746,3.622,3.622,0,0,1,1.322-.272,2.338,2.338,0,0,1,1,.2,2.21,2.21,0,0,1,.709.507,2.15,2.15,0,0,1,.412.683,2.2,2.2,0,0,1,.132.718,2.671,2.671,0,0,1-.371,1.358,4.242,4.242,0,0,1-.923,1.121,4.574,4.574,0,0,1-1.242.765,3.483,3.483,0,0,1-1.3.278,2.442,2.442,0,0,1-.946-.173,2.3,2.3,0,0,1-.722-.459,1.877,1.877,0,0,1-.461-.664,1.94,1.94,0,0,1-.166-.8,2.782,2.782,0,0,1,.369-1.393m.961,3.025a1.39,1.39,0,0,0,.919.3,1.709,1.709,0,0,0,.854-.224,2.785,2.785,0,0,0,.722-.589,4.549,4.549,0,0,0,.571-.811,7.149,7.149,0,0,0,.422-.893,6.63,6.63,0,0,0,.255-.843,3.017,3.017,0,0,0,.088-.645,1.39,1.39,0,0,0-.3-.942,1.342,1.342,0,0,0-1.052-.347,1.669,1.669,0,0,0-.809.211,2.879,2.879,0,0,0-.694.552,4.114,4.114,0,0,0-.567.776,5.635,5.635,0,0,0-.42.886,5.715,5.715,0,0,0-.256.88,3.708,3.708,0,0,0-.088.75,1.169,1.169,0,0,0,.356.936" transform="translate(30.305 -18.296)" fill="#fff"/>
      <path id="Path_2480" data-name="Path 2480" d="M97.456,74.878,95.764,78.97a3.648,3.648,0,0,0-.173.464,1.179,1.179,0,0,0-.06.3.489.489,0,0,0,.11.311.453.453,0,0,0,.375.136,1.791,1.791,0,0,0,.86-.256,4.841,4.841,0,0,0,.9-.649,6.452,6.452,0,0,0,.809-.886,4.786,4.786,0,0,0,.571-.974l1.046-2.544h1.03L99.5,79.084c-.05.123-.1.248-.145.377a.988.988,0,0,0-.073.366.345.345,0,0,0,.1.254.414.414,0,0,0,.311.106.925.925,0,0,0,.477-.136,2.386,2.386,0,0,0,.412-.315,2.7,2.7,0,0,0,.315-.369,2.964,2.964,0,0,0,.192-.3l.173.062c-.035.067-.1.17-.183.3a1.745,1.745,0,0,1-.347.408,1.9,1.9,0,0,1-.543.354,1.828,1.828,0,0,1-.765.149,1.546,1.546,0,0,1-.772-.166.6.6,0,0,1-.283-.565,1.511,1.511,0,0,1,.054-.4,3.991,3.991,0,0,1,.179-.44l-.028-.024c-.136.147-.3.317-.492.5a6.187,6.187,0,0,1-.617.52,4,4,0,0,1-.709.41,1.886,1.886,0,0,1-.772.166,1.752,1.752,0,0,1-1-.246.819.819,0,0,1-.371-.72,1.224,1.224,0,0,1,.106-.442c.069-.168.127-.319.172-.451l1.445-3.435H95.029l.06-.173Z" transform="translate(33.685 -18.222)" fill="#fff"/>
      <path id="Path_2481" data-name="Path 2481" d="M100.476,75.755c.076-.222.155-.446.233-.67H99.434l.056-.173h2.266c-.05.173-.123.394-.216.658s-.19.52-.3.767l.032.026c.1-.123.218-.272.366-.446a5.265,5.265,0,0,1,.5-.5,3.005,3.005,0,0,1,.621-.408,1.586,1.586,0,0,1,.718-.166,1.2,1.2,0,0,1,.832.259.708.708,0,0,1,.27.558.655.655,0,0,1-.078.33.562.562,0,0,1-.205.2.825.825,0,0,1-.261.091,1.178,1.178,0,0,1-.246.026.607.607,0,0,1-.339-.086.334.334,0,0,1-.067-.464,1.559,1.559,0,0,1,.142-.131,1.363,1.363,0,0,0,.136-.138.278.278,0,0,0,.069-.2.231.231,0,0,0-.119-.2.546.546,0,0,0-.293-.073,1.228,1.228,0,0,0-.649.242,4.362,4.362,0,0,0-.727.619,6.717,6.717,0,0,0-.684.862,5.934,5.934,0,0,0-.526.966l-1.059,2.529H98.639l1.585-3.818c.091-.214.173-.435.252-.658" transform="translate(37.189 -18.255)" fill="#fff"/>
      <path id="Path_2482" data-name="Path 2482" d="M105.125,77.03a.908.908,0,0,1-.185-.576,1.127,1.127,0,0,1,.175-.584,1.986,1.986,0,0,1,.485-.539,2.488,2.488,0,0,1,.744-.39,2.85,2.85,0,0,1,.933-.149,1.871,1.871,0,0,1,.99.229.675.675,0,0,1,.377.589q0,.52-.6.52a.627.627,0,0,1-.356-.1.356.356,0,0,1-.06-.539.259.259,0,0,0,.1-.205c0-.214-.168-.323-.5-.323a1.9,1.9,0,0,0-.608.088,1.243,1.243,0,0,0-.429.235.952.952,0,0,0-.246.334.9.9,0,0,0-.084.373.831.831,0,0,0,.147.466,6.2,6.2,0,0,0,.41.513l.869.955a1.074,1.074,0,0,1,.242.39,1.33,1.33,0,0,1,.067.416,1.174,1.174,0,0,1-.25.739,2.155,2.155,0,0,1-.627.526,3.141,3.141,0,0,1-.809.317,3.39,3.39,0,0,1-.813.1,3.3,3.3,0,0,1-.649-.062,2.176,2.176,0,0,1-.548-.181,1.13,1.13,0,0,1-.394-.3.653.653,0,0,1-.145-.416.481.481,0,0,1,.215-.427.956.956,0,0,1,.535-.142.407.407,0,0,1,.242.08.233.233,0,0,1,.108.19.541.541,0,0,1-.073.28.606.606,0,0,0-.073.28.426.426,0,0,0,.229.414,1.289,1.289,0,0,0,.593.119,1.993,1.993,0,0,0,.658-.1,1.846,1.846,0,0,0,.485-.246,1.073,1.073,0,0,0,.3-.336.715.715,0,0,0,.1-.349,1.013,1.013,0,0,0-.1-.444,2.1,2.1,0,0,0-.315-.446l-.737-.819c-.145-.166-.278-.328-.4-.491" transform="translate(41.265 -18.296)" fill="#fff"/>
      <path id="Path_2483" data-name="Path 2483" d="M109.051,72.852l.06-.173h2.35l-2.529,5.976h.311a1.541,1.541,0,0,0,.955-.336,5.154,5.154,0,0,0,.809-.768,2.259,2.259,0,0,1,1.6-.931.883.883,0,0,1,.539.157.608.608,0,0,1,.209.524.553.553,0,0,1-.172.442.658.658,0,0,1-.446.155c-.351,0-.524-.112-.524-.336a.37.37,0,0,1,.054-.228.279.279,0,0,0,.06-.192c0-.1-.078-.149-.233-.149a.6.6,0,0,0-.375.166c-.132.112-.293.263-.479.453l-.366.373a3.786,3.786,0,0,1-.554.489,1.642,1.642,0,0,1-.448.242v.035c.11.017.224.037.347.058a1.039,1.039,0,0,1,.352.131,1.142,1.142,0,0,1,.315.284,1.269,1.269,0,0,1,.22.52l.384,1.651a1.76,1.76,0,0,0,.159.427.356.356,0,0,0,.339.192.651.651,0,0,0,.392-.138,1.8,1.8,0,0,0,.33-.323,2.948,2.948,0,0,0,.252-.369c.069-.125.114-.218.145-.285l.205.048c-.067.132-.151.276-.242.429a2,2,0,0,1-.347.42,1.761,1.761,0,0,1-.485.323,1.542,1.542,0,0,1-.662.131,1.257,1.257,0,0,1-.675-.166,1.2,1.2,0,0,1-.412-.714l-.4-1.548c-.028-.132-.06-.259-.1-.38a1,1,0,0,0-.145-.315.662.662,0,0,0-.256-.216.944.944,0,0,0-.427-.08h-.323L107.464,82.1h-1.013l3.907-9.247Z" transform="translate(43.947 -20.124)" fill="#fff"/>
      <path id="Path_2484" data-name="Path 2484" d="M111.147,76.679l.058-.173h2.337l-1.736,4.2c-.047.125-.1.25-.147.379a1.116,1.116,0,0,0-.073.366.352.352,0,0,0,.1.254.408.408,0,0,0,.308.106.9.9,0,0,0,.464-.136,2.476,2.476,0,0,0,.416-.317,2.165,2.165,0,0,0,.325-.367,3.453,3.453,0,0,0,.194-.3l.172.062c-.035.067-.1.17-.183.3a1.854,1.854,0,0,1-.341.408,1.993,1.993,0,0,1-.545.354,1.846,1.846,0,0,1-.768.149,1.523,1.523,0,0,1-.767-.166.6.6,0,0,1-.289-.565,1.406,1.406,0,0,1,.088-.464c.06-.172.119-.325.177-.466l1.513-3.633Zm2.417-3.514a.8.8,0,0,1,.983,0,.53.53,0,0,1,0,.832.81.81,0,0,1-.983,0,.53.53,0,0,1,0-.832" transform="translate(47.601 -19.849)" fill="#fff"/>
      <path id="Path_2485" data-name="Path 2485" d="M113.512,75.085l.056-.173h2.326l-.6,1.527h.026a3.862,3.862,0,0,1,2.693-1.6,1.572,1.572,0,0,1,.977.278.849.849,0,0,1,.36.688,1.114,1.114,0,0,1-.08.416c-.056.136-.119.3-.2.489L118.11,79c-.054.14-.108.28-.159.416a1.154,1.154,0,0,0-.075.4.516.516,0,0,0,.075.272.33.33,0,0,0,.31.125.959.959,0,0,0,.485-.125,2.021,2.021,0,0,0,.4-.3,2.28,2.28,0,0,0,.315-.366,2.5,2.5,0,0,0,.205-.33l.164.062c-.05.086-.117.194-.205.33a2.258,2.258,0,0,1-.347.4,1.993,1.993,0,0,1-.522.341,1.769,1.769,0,0,1-.735.142,1.681,1.681,0,0,1-.8-.173.593.593,0,0,1-.319-.569,1.079,1.079,0,0,1,.05-.336c.032-.118.073-.241.123-.373l1.235-2.962a1.338,1.338,0,0,0,.119-.5.489.489,0,0,0-.125-.311.568.568,0,0,0-.448-.147,1.807,1.807,0,0,0-.75.2,4.037,4.037,0,0,0-.854.56,5.384,5.384,0,0,0-.8.83,4.587,4.587,0,0,0-.612,1.035l-1.1,2.591h-1.015l2.117-5.146Z" transform="translate(49.38 -18.255)" fill="#fff"/>
    </g>
  </g>
</svg>
