<?xml version="1.0" encoding="utf-8"?>
<!-- Generator: Adobe Illustrator 19.0.0, SVG Export Plug-In . SVG Version: 6.00 Build 0)  -->
<svg version="1.1" id="Capa_1" xmlns="http://www.w3.org/2000/svg" xmlns:xlink="http://www.w3.org/1999/xlink" x="0px" y="0px"
	 viewBox="-488 350.6 99.8 92.1" style="enable-background:new -488 350.6 99.8 92.1;" xml:space="preserve">
<style type="text/css">
	.st0{fill:#FFFFFF;}
</style>
<path class="st0" d="M-405,377.3l5.4-7.8l-8.7,3.7l-7.9,3.3c-0.8-0.7-1.7-1.4-2.6-2.1l1.7-7.9l2.1-9.2l-6.7,6.8l-5.8,5.9
	c-1.3-0.4-2.6-0.7-4-0.9l-2-7.2l-2.6-9.5l-2.6,9.5l-2,7.1c-1.5,0.2-2.9,0.5-4.3,1l-5.7-5.9l-6.7-6.8l2.1,9.2l1.7,7.8
	c-0.4,0.3-0.8,0.6-1.2,0.8l-7.4-3.2l-8.7-3.7l5.4,7.8l4.1,5.9c-4.5,6.2-7.3,14-7.3,22.6c0,10.2,3.9,20,10.7,26.9
	c6,6,13.7,9.3,21.7,9.3c17.9,0,32.4-16.1,32.4-35.8c0-7.5-2.1-14.8-6-20.9L-405,377.3z M-426.6,407.2l-9.5-7.1l-9.5,6.8l3.6-9.9
	l-9.5-5.6h11.8l3.6-11.2l3.6,11.2h11.8l-9.5,5.6L-426.6,407.2z M-436.2,436.7c-6.9,0-13.6-2.9-18.8-8.1c-6-6.2-9.5-14.9-9.5-24.1
	c0-9.2,3.6-17.6,9.2-23.4c-2.3,3.5-3.7,7.8-3.7,12.3c0,12.6,10.2,22.9,22.8,22.9s22.8-10.2,22.9-22.7c0-4.4-1.3-8.5-3.4-12
	c5.7,6.1,8.9,14.4,8.9,23.3C-407.8,422.4-420.6,436.7-436.2,436.7z"/>
</svg>
