<?xml version="1.0" encoding="utf-8"?>
<!-- Generator: Adobe Illustrator 21.1.0, SVG Export Plug-In . SVG Version: 6.00 Build 0)  -->
<svg version="1.1" id="Layer_1" xmlns="http://www.w3.org/2000/svg" xmlns:xlink="http://www.w3.org/1999/xlink" x="0px" y="0px"
	 viewBox="0 0 327.9 45" style="enable-background:new 0 0 327.9 45;" xml:space="preserve">
<style type="text/css">
	.st0{fill:#FFFFFF;}
</style>
<title>Mesa de trabajo 1</title>
<path class="st0" d="M93.5,34.8c0,1.7-1.7,2.9-3.8,2.9H79.3c-2.1,0-3.8-1.3-3.8-2.9h-0.2c0,1.7-1.7,2.9-3.8,2.9H61
	c-2.1,0-3.8-1.3-3.8-2.9V10.1c0.1-0.6,0.6-1.1,1.2-1H62c0.6-0.1,1.2,0.4,1.2,1V33h9V10.1c0.1-0.6,0.6-1.1,1.2-1H77
	c0.6-0.1,1.2,0.4,1.2,1V33h9.1V10.1c0.1-0.6,0.6-1.1,1.2-1h3.6c0.6-0.1,1.2,0.4,1.2,1L93.5,34.8z"/>
<path class="st0" d="M102.7,37.7c-2.1,0-3.8-1.3-3.8-2.9V12.1c0-1.7,1.6-2.9,3.8-2.9H128c0.6-0.1,1.2,0.4,1.2,1V13
	c-0.1,0.6-0.6,1.1-1.2,1h-23v7.2h21.8c0.6-0.1,1.1,0.4,1.2,1v2.8c-0.1,0.6-0.6,1.1-1.2,1H105V33h23c0.6-0.1,1.1,0.4,1.2,1v2.8
	c-0.1,0.6-0.6,1.1-1.2,1L102.7,37.7z"/>
<path class="st0" d="M131,37.7c-0.6,0.1-1.2-0.4-1.2-1V10.1c0.1-0.6,0.6-1.1,1.2-1h22.7c3.5,0,6.4,2.2,6.4,4.9v4.1
	c0,2.7-2.9,4.9-6.4,4.9v0.2c3.5,0,6.4,2.2,6.4,4.9v4.8c0,2.7-2.9,4.8-6.4,4.8L131,37.7z M154,13.9h-18.1v7.4H154V13.9z M154,25
	h-18.1v8H154V25z"/>
<path class="st0" d="M194.6,36.8c-0.1,0.6-0.6,1.1-1.2,1h-3.6c-0.6,0.1-1.2-0.4-1.2-1V25.8h-18.2v10.9c-0.1,0.6-0.6,1.1-1.2,1h-3.6
	c-0.6,0.1-1.2-0.4-1.2-1V10.1c0.1-0.6,0.6-1.1,1.2-1h3.6c0.6-0.1,1.2,0.4,1.2,1v11h18.2v-11c0.1-0.6,0.6-1.1,1.2-1h3.6
	c0.6-0.1,1.2,0.4,1.2,1L194.6,36.8z"/>
<path class="st0" d="M228,34.8c0,1.7-1.6,2.9-3.8,2.9h-22.8c-2.1,0-3.8-1.3-3.8-2.9V12.1c0-1.7,1.6-2.9,3.8-2.9h22.8
	c2.1,0,3.8,1.3,3.8,2.9L228,34.8z M221.9,14h-18.2v19h18.2V14z"/>
<path class="st0" d="M239.5,33h18.2V10.1c0.1-0.6,0.6-1.1,1.2-1h3.6c0.6-0.1,1.2,0.4,1.2,1v24.6c0,1.7-1.6,2.9-3.8,2.9h-22.8
	c-2.1,0-3.8-1.3-3.8-2.9V10.1c0.1-0.6,0.6-1.1,1.2-1h3.6c0.6-0.1,1.2,0.4,1.2,1L239.5,33z"/>
<path class="st0" d="M270.4,21.1h20.5c2.1,0,3.8,1.3,3.8,2.9v10.7c0,1.7-1.6,2.9-3.8,2.9h-25.3c-0.6,0.1-1.2-0.4-1.2-1v-2.8
	c0.1-0.6,0.6-1,1.2-1h23v-7.1H268c-2.1,0-3.8-1.3-3.8-3V12.1c0-1.7,1.6-2.9,3.8-2.9h25.3c0.6-0.1,1.2,0.4,1.2,1V13
	c-0.1,0.6-0.6,1-1.2,0.9h-23L270.4,21.1z"/>
<path class="st0" d="M301.4,37.7c-2.1,0-3.8-1.3-3.8-2.9V12.1c0-1.7,1.6-2.9,3.8-2.9h25.3c0.6-0.1,1.2,0.4,1.2,1V13
	c-0.1,0.6-0.6,1-1.2,0.9h-23v7.2h21.8c0.6-0.1,1.1,0.4,1.2,1v2.8c-0.1,0.6-0.6,1.1-1.2,1h-21.8V33h23c0.6-0.1,1.1,0.4,1.2,1v2.8
	c-0.1,0.6-0.6,1.1-1.2,1L301.4,37.7z"/>
<path class="st0" d="M20.6,23.6c2.2,0,4.4,0,6.7,0c0.7,0,1,0.1,1,0.9c-0.1,2.3,0,4.6,0,6.8c0,0.5,0.1,0.7,0.7,0.7c1.2,0,2.4,0,3.6,0
	c0.6,0,0.8-0.1,0.8-0.8c0-2.3,0-4.6,0-6.8c0-0.7,0.2-0.8,0.8-0.8c2,0,4,0,6,0c0.5,0,0.8,0.1,0.8,0.7c0,4,0,7.9,0,11.9
	c0,0.4-0.2,0.7-0.5,0.9c-3.1,2.6-6.3,5.1-9.4,7.7c-0.4,0.3-0.6,0.2-0.9,0c-3-2.5-6.1-5-9.1-7.5c-0.5-0.4-0.7-0.4-1.2,0
	c-3,2.5-6.1,5-9.1,7.5c-0.4,0.4-0.7,0.3-1.1,0c-3-2.5-6-5-9-7.5c-0.5-0.4-0.8-1-0.8-1.6c0-3.8,0-7.5,0-11.3c0-0.6,0.1-0.8,0.7-0.8
	c2.1,0,4.2,0,6.4,0c0.6,0,0.7,0.2,0.7,0.8c0,2.3,0,4.7,0,7c0,0.5,0.1,0.7,0.7,0.7c1.3,0,2.5,0,3.8,0c0.5,0,0.7-0.1,0.7-0.7
	c0-2.3,0-4.7,0-7c0-0.6,0.1-0.8,0.7-0.8C16,23.6,18.3,23.6,20.6,23.6L20.6,23.6z"/>
<path class="st0" d="M7.8,21.4c-2.3,0-4.7,0-7,0c-0.6,0-0.8-0.1-0.8-0.7C0.1,16.8,0.1,13,0.1,9.1c0-0.4,0.2-0.8,0.6-0.9
	c6.4-2.7,12.9-5.3,19.3-8c0.4-0.2,0.8-0.2,1.1,0C27.6,2.8,34,5.4,40.4,8c0.4,0.1,0.7,0.5,0.6,0.9c0,3.9,0,7.8,0,11.7
	c0,0.6-0.2,0.8-0.8,0.8c-4.6,0-9.1,0-13.7,0c-0.6,0-0.8-0.2-0.8-0.8c0-2.3,0-4.6,0-6.9c0-0.5-0.1-0.7-0.7-0.7c-3,0-6,0-9,0
	c-0.6,0-0.7,0.2-0.7,0.7c0,2.3,0,4.7,0,7c0,0.6-0.1,0.8-0.8,0.8C12.5,21.4,10.1,21.4,7.8,21.4z"/>
</svg>
